<svg width="40" height="40" viewBox="0 0 40 40" fill="none" xmlns="http://www.w3.org/2000/svg">
<rect width="40" height="40" rx="10" fill="black"/>
<path d="M23.7526 15H21.2526C20.7924 15 20.4193 15.3731 20.4193 15.8333V18.3333H23.7526C23.8474 18.3312 23.9373 18.3753 23.9936 18.4516C24.0499 18.5278 24.0658 18.6267 24.0359 18.7167L23.4193 20.55C23.3624 20.7182 23.2052 20.832 23.0276 20.8333H20.4193V27.0833C20.4193 27.3134 20.2327 27.5 20.0026 27.5H17.9193C17.6892 27.5 17.5026 27.3134 17.5026 27.0833V20.8333H16.2526C16.0225 20.8333 15.8359 20.6467 15.8359 20.4167V18.75C15.8359 18.5199 16.0225 18.3333 16.2526 18.3333H17.5026V15.8333C17.5026 13.9924 18.995 12.5 20.8359 12.5H23.7526C23.9827 12.5 24.1693 12.6865 24.1693 12.9167V14.5833C24.1693 14.8134 23.9827 15 23.7526 15Z" fill="white"/>
</svg>
