<svg width="40" height="40" viewBox="0 0 40 40" fill="none" xmlns="http://www.w3.org/2000/svg">
<rect width="40" height="40" rx="10" fill="black"/>
<path d="M22.5 20C22.5 20.4945 22.3534 20.9778 22.0787 21.3889C21.804 21.8 21.4135 22.1205 20.9567 22.3097C20.4999 22.4989 19.9972 22.5484 19.5123 22.452C19.0273 22.3555 18.5819 22.1174 18.2322 21.7678C17.8826 21.4181 17.6445 20.9727 17.548 20.4877C17.4516 20.0028 17.5011 19.5001 17.6903 19.0433C17.8795 18.5865 18.2 18.196 18.6111 17.9213C19.0222 17.6466 19.5055 17.5 20 17.5C20.6628 17.5008 21.2983 17.7644 21.7669 18.2331C22.2356 18.7017 22.4992 19.3372 22.5 20ZM27.8125 16.5625V23.4375C27.8112 24.5974 27.3498 25.7095 26.5296 26.5296C25.7095 27.3498 24.5974 27.8112 23.4375 27.8125H16.5625C15.4026 27.8112 14.2905 27.3498 13.4704 26.5296C12.6502 25.7095 12.1888 24.5974 12.1875 23.4375V16.5625C12.1888 15.4026 12.6502 14.2905 13.4704 13.4704C14.2905 12.6502 15.4026 12.1888 16.5625 12.1875H23.4375C24.5974 12.1888 25.7095 12.6502 26.5296 13.4704C27.3498 14.2905 27.8112 15.4026 27.8125 16.5625ZM23.75 20C23.75 19.2583 23.5301 18.5333 23.118 17.9166C22.706 17.2999 22.1203 16.8193 21.4351 16.5355C20.7498 16.2516 19.9958 16.1774 19.2684 16.3221C18.541 16.4668 17.8728 16.8239 17.3483 17.3483C16.8239 17.8728 16.4668 18.541 16.3221 19.2684C16.1774 19.9958 16.2516 20.7498 16.5355 21.4351C16.8193 22.1203 17.2999 22.706 17.9166 23.118C18.5333 23.5301 19.2583 23.75 20 23.75C20.9942 23.7489 21.9474 23.3534 22.6504 22.6504C23.3534 21.9474 23.7489 20.9942 23.75 20ZM25 15.9375C25 15.7521 24.945 15.5708 24.842 15.4167C24.739 15.2625 24.5926 15.1423 24.4213 15.0714C24.25 15.0004 24.0615 14.9818 23.8796 15.018C23.6977 15.0542 23.5307 15.1435 23.3996 15.2746C23.2685 15.4057 23.1792 15.5727 23.143 15.7546C23.1068 15.9365 23.1254 16.125 23.1964 16.2963C23.2673 16.4676 23.3875 16.614 23.5417 16.717C23.6958 16.82 23.8771 16.875 24.0625 16.875C24.3111 16.875 24.5496 16.7762 24.7254 16.6004C24.9012 16.4246 25 16.1861 25 15.9375Z" fill="white"/>
</svg>
