<svg width="40" height="40" viewBox="0 0 40 40" fill="none" xmlns="http://www.w3.org/2000/svg">
<rect width="40" height="40" rx="10" fill="black"/>
<path d="M27.8164 21.6838V27.1999C27.8164 27.3354 27.7003 27.4516 27.5648 27.4516H24.7197C24.5842 27.4516 24.468 27.3354 24.468 27.1999V22.0709C24.468 20.7161 23.9842 19.787 22.7648 19.787C21.8358 19.787 21.2939 20.4064 21.0422 21.0064C20.9455 21.2193 20.9261 21.529 20.9261 21.8193V27.1999C20.9261 27.3354 20.81 27.4516 20.6745 27.4516H17.8487C17.7132 27.4516 17.5971 27.3354 17.5971 27.1999C17.5971 25.8258 17.6358 19.187 17.5971 17.6387C17.5971 17.5032 17.7132 17.387 17.8487 17.387H20.6939C20.8293 17.387 20.9455 17.5032 20.9455 17.6387V18.8193C20.9455 18.8387 20.9261 18.8387 20.9261 18.858H20.9455V18.8193C21.3906 18.1419 22.1842 17.1548 23.9648 17.1548C26.1713 17.1548 27.8164 18.6064 27.8164 21.6838ZM12.6422 27.4709H15.4874C15.6229 27.4709 15.739 27.3548 15.739 27.2193V17.6387C15.739 17.5032 15.6229 17.387 15.4874 17.387H12.6422C12.5068 17.387 12.3906 17.5032 12.3906 17.6387V27.2193C12.41 27.3548 12.5068 27.4709 12.6422 27.4709Z" fill="white"/>
<path d="M13.9797 16.1288C14.9738 16.1288 15.7797 15.3229 15.7797 14.3288C15.7797 13.3347 14.9738 12.5288 13.9797 12.5288C12.9856 12.5288 12.1797 13.3347 12.1797 14.3288C12.1797 15.3229 12.9856 16.1288 13.9797 16.1288Z" fill="white"/>
</svg>
