<svg width="40" height="40" viewBox="0 0 40 40" fill="none" xmlns="http://www.w3.org/2000/svg">
<rect width="40" height="40" rx="10" fill="black"/>
<path d="M27.478 15.5978C27.091 16.1141 26.6232 16.5644 26.0926 16.9315C26.0926 17.0663 26.0926 17.2012 26.0926 17.3435C26.0969 19.7926 25.1186 22.1409 23.3772 23.8621C21.6357 25.5833 19.2767 26.5333 16.8291 26.4991C15.414 26.5038 14.0171 26.1808 12.7477 25.5551C12.6793 25.5252 12.6351 25.4575 12.6354 25.3828V25.3003C12.6354 25.1928 12.7226 25.1056 12.8301 25.1056C14.2211 25.0597 15.5624 24.5774 16.6643 23.727C15.4053 23.7016 14.2725 22.9558 13.7512 21.8089C13.7249 21.7463 13.7331 21.6744 13.7729 21.6193C13.8126 21.5643 13.8782 21.5339 13.9459 21.5393C14.3286 21.5777 14.715 21.5421 15.0842 21.4343C13.6944 21.1458 12.6501 19.992 12.5006 18.5798C12.4953 18.512 12.5256 18.4464 12.5807 18.4066C12.6358 18.3668 12.7076 18.3586 12.7702 18.385C13.1432 18.5496 13.5458 18.6363 13.9534 18.6397C12.7356 17.8404 12.2096 16.32 12.6728 14.9385C12.7207 14.8043 12.8356 14.7051 12.9753 14.6775C13.115 14.6498 13.259 14.6977 13.3543 14.8037C14.9977 16.5527 17.2557 17.595 19.6523 17.7107C19.591 17.4657 19.5608 17.214 19.5625 16.9614C19.5849 15.6373 20.4042 14.4577 21.6369 13.9749C22.8695 13.4921 24.2715 13.8017 25.1865 14.7587C25.8102 14.6399 26.4132 14.4304 26.9763 14.1368C27.0175 14.1111 27.0699 14.1111 27.1111 14.1368C27.1369 14.1781 27.1369 14.2304 27.1111 14.2717C26.8384 14.8963 26.3776 15.4201 25.7931 15.7702C26.305 15.7108 26.8078 15.5901 27.2909 15.4105C27.3315 15.3829 27.385 15.3829 27.4256 15.4105C27.4597 15.4261 27.4852 15.4559 27.4953 15.492C27.5054 15.5281 27.499 15.5668 27.478 15.5978Z" fill="white"/>
</svg>
