<svg width="233" height="122" viewBox="0 0 233 122" fill="none" xmlns="http://www.w3.org/2000/svg">
<g filter="url(#filter0_d_18390_51242)">
<g clip-path="url(#clip0_18390_51242)">
<rect x="34" y="34" width="165" height="54" rx="24" fill="#6E69FF"/>
<path d="M66.6371 67H65.3571L65.0531 65.656C64.5198 66.264 63.9865 66.6853 63.4531 66.92C62.9198 67.1547 62.3065 67.272 61.6131 67.272C60.7598 67.272 59.9918 67.1173 59.3091 66.808C58.6371 66.488 58.0665 66.056 57.5971 65.512C57.1278 64.968 56.7651 64.3333 56.5091 63.608C56.2638 62.8827 56.1411 62.1093 56.1411 61.288C56.1411 60.4773 56.2638 59.7093 56.5091 58.984C56.7651 58.2587 57.1278 57.624 57.5971 57.08C58.0665 56.536 58.6371 56.104 59.3091 55.784C59.9918 55.464 60.7598 55.304 61.6131 55.304C62.2318 55.304 62.8185 55.3893 63.3731 55.56C63.9385 55.72 64.4398 55.9653 64.8771 56.296C65.3145 56.616 65.6771 57.0213 65.9651 57.512C66.2531 58.0027 66.4345 58.568 66.5091 59.208H64.5571C64.5038 58.8347 64.3865 58.5093 64.2051 58.232C64.0345 57.944 63.8158 57.704 63.5491 57.512C63.2825 57.32 62.9838 57.176 62.6531 57.08C62.3225 56.984 61.9758 56.936 61.6131 56.936C61.0051 56.936 60.4771 57.0587 60.0291 57.304C59.5918 57.5493 59.2345 57.88 58.9571 58.296C58.6798 58.7013 58.4718 59.1653 58.3331 59.688C58.2051 60.2107 58.1411 60.744 58.1411 61.288C58.1411 61.832 58.2051 62.3653 58.3331 62.888C58.4718 63.4107 58.6798 63.88 58.9571 64.296C59.2345 64.7013 59.5918 65.0267 60.0291 65.272C60.4771 65.5173 61.0051 65.64 61.6131 65.64C62.1251 65.6507 62.5785 65.5867 62.9731 65.448C63.3678 65.2987 63.6985 65.0907 63.9651 64.824C64.2425 64.5467 64.4505 64.2107 64.5891 63.816C64.7278 63.4213 64.8025 62.984 64.8131 62.504H61.7731V60.984H66.6371V67ZM74.2338 62.136C74.2124 61.848 74.1484 61.5707 74.0418 61.304C73.9458 61.0373 73.8071 60.808 73.6258 60.616C73.4551 60.4133 73.2418 60.2533 72.9858 60.136C72.7404 60.008 72.4631 59.944 72.1538 59.944C71.8338 59.944 71.5404 60.0027 71.2738 60.12C71.0178 60.2267 70.7938 60.3813 70.6018 60.584C70.4204 60.776 70.2711 61.0053 70.1538 61.272C70.0471 61.5387 69.9884 61.8267 69.9778 62.136H74.2338ZM69.9778 63.336C69.9778 63.656 70.0204 63.9653 70.1058 64.264C70.2018 64.5627 70.3404 64.824 70.5218 65.048C70.7031 65.272 70.9324 65.4533 71.2098 65.592C71.4871 65.72 71.8178 65.784 72.2018 65.784C72.7351 65.784 73.1618 65.672 73.4818 65.448C73.8124 65.2133 74.0578 64.8667 74.2178 64.408H75.9458C75.8498 64.856 75.6844 65.256 75.4498 65.608C75.2151 65.96 74.9324 66.2587 74.6018 66.504C74.2711 66.7387 73.8978 66.9147 73.4818 67.032C73.0764 67.16 72.6498 67.224 72.2018 67.224C71.5511 67.224 70.9751 67.1173 70.4738 66.904C69.9724 66.6907 69.5458 66.392 69.1938 66.008C68.8524 65.624 68.5911 65.1653 68.4098 64.632C68.2391 64.0987 68.1538 63.512 68.1538 62.872C68.1538 62.2853 68.2444 61.7307 68.4258 61.208C68.6178 60.6747 68.8844 60.2107 69.2258 59.816C69.5778 59.4107 69.9991 59.0907 70.4898 58.856C70.9804 58.6213 71.5351 58.504 72.1538 58.504C72.8044 58.504 73.3858 58.6427 73.8978 58.92C74.4204 59.1867 74.8524 59.544 75.1938 59.992C75.5351 60.44 75.7804 60.9573 75.9298 61.544C76.0898 62.12 76.1324 62.7173 76.0578 63.336H69.9778ZM76.6124 58.728H77.9884V56.248H79.8124V58.728H81.4604V60.088H79.8124V64.504C79.8124 64.696 79.8177 64.8613 79.8284 65C79.8497 65.1387 79.887 65.256 79.9404 65.352C80.0044 65.448 80.095 65.5227 80.2124 65.576C80.3297 65.6187 80.4897 65.64 80.6924 65.64C80.8204 65.64 80.9484 65.64 81.0764 65.64C81.2044 65.6293 81.3324 65.608 81.4604 65.576V66.984C81.2577 67.0053 81.0604 67.0267 80.8684 67.048C80.6764 67.0693 80.479 67.08 80.2764 67.08C79.7964 67.08 79.407 67.0373 79.1084 66.952C78.8204 66.856 78.591 66.7227 78.4204 66.552C78.2604 66.3707 78.1484 66.1467 78.0844 65.88C78.031 65.6133 77.999 65.3093 77.9884 64.968V60.088H76.6124V58.728ZM88.7936 63.192C88.7936 63.6293 88.8683 64.0027 89.0176 64.312C89.167 64.6213 89.375 64.8773 89.6416 65.08C89.9083 65.272 90.2123 65.416 90.5536 65.512C90.9056 65.5973 91.2843 65.64 91.6896 65.64C92.127 65.64 92.5003 65.592 92.8096 65.496C93.119 65.3893 93.3696 65.256 93.5616 65.096C93.7536 64.936 93.8923 64.7547 93.9776 64.552C94.063 64.3387 94.1056 64.1253 94.1056 63.912C94.1056 63.4747 94.0043 63.1547 93.8016 62.952C93.6096 62.7387 93.3963 62.5893 93.1616 62.504C92.7563 62.3547 92.2816 62.216 91.7376 62.088C91.2043 61.9493 90.543 61.7733 89.7536 61.56C89.263 61.432 88.8523 61.2667 88.5216 61.064C88.2016 60.8507 87.9456 60.616 87.7536 60.36C87.5616 60.104 87.423 59.832 87.3376 59.544C87.263 59.256 87.2256 58.9627 87.2256 58.664C87.2256 58.088 87.343 57.592 87.5776 57.176C87.823 56.7493 88.143 56.3973 88.5376 56.12C88.9323 55.8427 89.3803 55.64 89.8816 55.512C90.383 55.3733 90.8896 55.304 91.4016 55.304C91.999 55.304 92.559 55.384 93.0816 55.544C93.615 55.6933 94.079 55.9227 94.4736 56.232C94.879 56.5413 95.199 56.9253 95.4336 57.384C95.6683 57.832 95.7856 58.3547 95.7856 58.952H93.7856C93.7323 58.216 93.4816 57.6987 93.0336 57.4C92.5856 57.0907 92.015 56.936 91.3216 56.936C91.087 56.936 90.847 56.9627 90.6016 57.016C90.3563 57.0587 90.1323 57.1387 89.9296 57.256C89.727 57.3627 89.5563 57.512 89.4176 57.704C89.2896 57.896 89.2256 58.136 89.2256 58.424C89.2256 58.8293 89.3483 59.1493 89.5936 59.384C89.8496 59.608 90.1803 59.7787 90.5856 59.896C90.6283 59.9067 90.7936 59.9547 91.0816 60.04C91.3803 60.1147 91.711 60.2 92.0736 60.296C92.4363 60.392 92.7883 60.488 93.1296 60.584C93.4816 60.6693 93.7323 60.7333 93.8816 60.776C94.255 60.8933 94.5803 61.0533 94.8576 61.256C95.135 61.4587 95.3643 61.6933 95.5456 61.96C95.7376 62.216 95.8763 62.4933 95.9616 62.792C96.0576 63.0907 96.1056 63.3893 96.1056 63.688C96.1056 64.328 95.9723 64.8773 95.7056 65.336C95.4496 65.784 95.1083 66.152 94.6816 66.44C94.255 66.728 93.7696 66.936 93.2256 67.064C92.6816 67.2027 92.127 67.272 91.5616 67.272C90.911 67.272 90.2976 67.192 89.7216 67.032C89.1456 66.872 88.6443 66.6267 88.2176 66.296C87.791 65.9653 87.4496 65.544 87.1936 65.032C86.9376 64.5093 86.8043 63.896 86.7936 63.192H88.7936ZM96.7686 58.728H98.1446V56.248H99.9686V58.728H101.617V60.088H99.9686V64.504C99.9686 64.696 99.974 64.8613 99.9846 65C100.006 65.1387 100.043 65.256 100.097 65.352C100.161 65.448 100.251 65.5227 100.369 65.576C100.486 65.6187 100.646 65.64 100.849 65.64C100.977 65.64 101.105 65.64 101.233 65.64C101.361 65.6293 101.489 65.608 101.617 65.576V66.984C101.414 67.0053 101.217 67.0267 101.025 67.048C100.833 67.0693 100.635 67.08 100.433 67.08C99.9526 67.08 99.5633 67.0373 99.2646 66.952C98.9766 66.856 98.7473 66.7227 98.5766 66.552C98.4166 66.3707 98.3046 66.1467 98.2406 65.88C98.1873 65.6133 98.1553 65.3093 98.1446 64.968V60.088H96.7686V58.728ZM109.857 65.16C109.857 65.384 109.883 65.544 109.937 65.64C110.001 65.736 110.118 65.784 110.289 65.784C110.342 65.784 110.406 65.784 110.481 65.784C110.555 65.784 110.641 65.7733 110.737 65.752V67.016C110.673 67.0373 110.587 67.0587 110.481 67.08C110.385 67.112 110.283 67.1387 110.177 67.16C110.07 67.1813 109.963 67.1973 109.857 67.208C109.75 67.2187 109.659 67.224 109.585 67.224C109.211 67.224 108.902 67.1493 108.657 67C108.411 66.8507 108.251 66.5893 108.177 66.216C107.814 66.568 107.366 66.824 106.833 66.984C106.31 67.144 105.803 67.224 105.313 67.224C104.939 67.224 104.582 67.1707 104.241 67.064C103.899 66.968 103.595 66.824 103.329 66.632C103.073 66.4293 102.865 66.1787 102.705 65.88C102.555 65.5707 102.481 65.2133 102.481 64.808C102.481 64.296 102.571 63.88 102.753 63.56C102.945 63.24 103.19 62.9893 103.489 62.808C103.798 62.6267 104.139 62.4987 104.513 62.424C104.897 62.3387 105.281 62.2747 105.665 62.232C105.995 62.168 106.31 62.1253 106.609 62.104C106.907 62.072 107.169 62.024 107.393 61.96C107.627 61.896 107.809 61.8 107.937 61.672C108.075 61.5333 108.145 61.3307 108.145 61.064C108.145 60.8293 108.086 60.6373 107.969 60.488C107.862 60.3387 107.723 60.2267 107.553 60.152C107.393 60.0667 107.211 60.0133 107.009 59.992C106.806 59.96 106.614 59.944 106.433 59.944C105.921 59.944 105.499 60.0507 105.169 60.264C104.838 60.4773 104.651 60.808 104.609 61.256H102.785C102.817 60.7227 102.945 60.28 103.169 59.928C103.393 59.576 103.675 59.2933 104.017 59.08C104.369 58.8667 104.763 58.7173 105.201 58.632C105.638 58.5467 106.086 58.504 106.545 58.504C106.95 58.504 107.35 58.5467 107.745 58.632C108.139 58.7173 108.491 58.856 108.801 59.048C109.121 59.24 109.377 59.4907 109.569 59.8C109.761 60.0987 109.857 60.4667 109.857 60.904V65.16ZM108.033 62.856C107.755 63.0373 107.414 63.1493 107.009 63.192C106.603 63.224 106.198 63.2773 105.793 63.352C105.601 63.384 105.414 63.432 105.233 63.496C105.051 63.5493 104.891 63.6293 104.753 63.736C104.614 63.832 104.502 63.9653 104.417 64.136C104.342 64.296 104.305 64.4933 104.305 64.728C104.305 64.9307 104.363 65.1013 104.481 65.24C104.598 65.3787 104.737 65.4907 104.897 65.576C105.067 65.6507 105.249 65.704 105.441 65.736C105.643 65.768 105.825 65.784 105.985 65.784C106.187 65.784 106.406 65.7573 106.641 65.704C106.875 65.6507 107.094 65.56 107.297 65.432C107.51 65.304 107.686 65.144 107.825 64.952C107.963 64.7493 108.033 64.504 108.033 64.216V62.856ZM111.819 58.728H113.531V60.328H113.563C113.617 60.104 113.718 59.8853 113.867 59.672C114.027 59.4587 114.214 59.2667 114.427 59.096C114.651 58.9147 114.897 58.7707 115.163 58.664C115.43 58.5573 115.702 58.504 115.979 58.504C116.193 58.504 116.337 58.5093 116.411 58.52C116.497 58.5307 116.582 58.5413 116.667 58.552V60.312C116.539 60.2907 116.406 60.2747 116.267 60.264C116.139 60.2427 116.011 60.232 115.883 60.232C115.574 60.232 115.281 60.296 115.003 60.424C114.737 60.5413 114.502 60.7227 114.299 60.968C114.097 61.2027 113.937 61.496 113.819 61.848C113.702 62.2 113.643 62.6053 113.643 63.064V67H111.819V58.728ZM116.612 58.728H117.988V56.248H119.812V58.728H121.46V60.088H119.812V64.504C119.812 64.696 119.818 64.8613 119.828 65C119.85 65.1387 119.887 65.256 119.94 65.352C120.004 65.448 120.095 65.5227 120.212 65.576C120.33 65.6187 120.49 65.64 120.692 65.64C120.82 65.64 120.948 65.64 121.076 65.64C121.204 65.6293 121.332 65.608 121.46 65.576V66.984C121.258 67.0053 121.06 67.0267 120.868 67.048C120.676 67.0693 120.479 67.08 120.276 67.08C119.796 67.08 119.407 67.0373 119.108 66.952C118.82 66.856 118.591 66.7227 118.42 66.552C118.26 66.3707 118.148 66.1467 118.084 65.88C118.031 65.6133 117.999 65.3093 117.988 64.968V60.088H116.612V58.728ZM128.453 62.136C128.431 61.848 128.367 61.5707 128.261 61.304C128.165 61.0373 128.026 60.808 127.845 60.616C127.674 60.4133 127.461 60.2533 127.205 60.136C126.959 60.008 126.682 59.944 126.373 59.944C126.053 59.944 125.759 60.0027 125.493 60.12C125.237 60.2267 125.013 60.3813 124.821 60.584C124.639 60.776 124.49 61.0053 124.373 61.272C124.266 61.5387 124.207 61.8267 124.197 62.136H128.453ZM124.197 63.336C124.197 63.656 124.239 63.9653 124.325 64.264C124.421 64.5627 124.559 64.824 124.741 65.048C124.922 65.272 125.151 65.4533 125.429 65.592C125.706 65.72 126.037 65.784 126.421 65.784C126.954 65.784 127.381 65.672 127.701 65.448C128.031 65.2133 128.277 64.8667 128.437 64.408H130.165C130.069 64.856 129.903 65.256 129.669 65.608C129.434 65.96 129.151 66.2587 128.821 66.504C128.49 66.7387 128.117 66.9147 127.701 67.032C127.295 67.16 126.869 67.224 126.421 67.224C125.77 67.224 125.194 67.1173 124.693 66.904C124.191 66.6907 123.765 66.392 123.413 66.008C123.071 65.624 122.81 65.1653 122.629 64.632C122.458 64.0987 122.373 63.512 122.373 62.872C122.373 62.2853 122.463 61.7307 122.645 61.208C122.837 60.6747 123.103 60.2107 123.445 59.816C123.797 59.4107 124.218 59.0907 124.709 58.856C125.199 58.6213 125.754 58.504 126.373 58.504C127.023 58.504 127.605 58.6427 128.117 58.92C128.639 59.1867 129.071 59.544 129.413 59.992C129.754 60.44 129.999 60.9573 130.149 61.544C130.309 62.12 130.351 62.7173 130.277 63.336H124.197ZM139.455 67H137.727V65.88H137.695C137.45 66.36 137.092 66.7067 136.623 66.92C136.154 67.1227 135.658 67.224 135.135 67.224C134.484 67.224 133.914 67.112 133.423 66.888C132.943 66.6533 132.543 66.3387 132.223 65.944C131.903 65.5493 131.663 65.0853 131.503 64.552C131.343 64.008 131.263 63.4267 131.263 62.808C131.263 62.0613 131.364 61.416 131.567 60.872C131.77 60.328 132.036 59.88 132.367 59.528C132.708 59.176 133.092 58.92 133.519 58.76C133.956 58.5893 134.399 58.504 134.847 58.504C135.103 58.504 135.364 58.5307 135.631 58.584C135.898 58.6267 136.154 58.7013 136.399 58.808C136.644 58.9147 136.868 59.0533 137.071 59.224C137.284 59.384 137.46 59.576 137.599 59.8H137.631V55.576H139.455V67ZM133.087 62.952C133.087 63.304 133.13 63.6507 133.215 63.992C133.311 64.3333 133.45 64.6373 133.631 64.904C133.823 65.1707 134.063 65.384 134.351 65.544C134.639 65.704 134.98 65.784 135.375 65.784C135.78 65.784 136.127 65.6987 136.415 65.528C136.714 65.3573 136.954 65.1333 137.135 64.856C137.327 64.5787 137.466 64.2693 137.551 63.928C137.647 63.576 137.695 63.2187 137.695 62.856C137.695 61.9387 137.487 61.224 137.071 60.712C136.666 60.2 136.111 59.944 135.407 59.944C134.98 59.944 134.618 60.0347 134.319 60.216C134.031 60.3867 133.791 60.616 133.599 60.904C133.418 61.1813 133.284 61.5013 133.199 61.864C133.124 62.216 133.087 62.5787 133.087 62.952ZM146.154 55.576H154.042V57.304H148.154V60.296H153.322V61.928H148.154V67H146.154V55.576ZM155.382 58.728H157.094V60.328H157.126C157.179 60.104 157.281 59.8853 157.43 59.672C157.59 59.4587 157.777 59.2667 157.99 59.096C158.214 58.9147 158.459 58.7707 158.726 58.664C158.993 58.5573 159.265 58.504 159.542 58.504C159.755 58.504 159.899 58.5093 159.974 58.52C160.059 58.5307 160.145 58.5413 160.23 58.552V60.312C160.102 60.2907 159.969 60.2747 159.83 60.264C159.702 60.2427 159.574 60.232 159.446 60.232C159.137 60.232 158.843 60.296 158.566 60.424C158.299 60.5413 158.065 60.7227 157.862 60.968C157.659 61.2027 157.499 61.496 157.382 61.848C157.265 62.2 157.206 62.6053 157.206 63.064V67H155.382V58.728ZM166.406 62.136C166.384 61.848 166.32 61.5707 166.214 61.304C166.118 61.0373 165.979 60.808 165.798 60.616C165.627 60.4133 165.414 60.2533 165.158 60.136C164.912 60.008 164.635 59.944 164.326 59.944C164.006 59.944 163.712 60.0027 163.446 60.12C163.19 60.2267 162.966 60.3813 162.774 60.584C162.592 60.776 162.443 61.0053 162.326 61.272C162.219 61.5387 162.16 61.8267 162.15 62.136H166.406ZM162.15 63.336C162.15 63.656 162.192 63.9653 162.278 64.264C162.374 64.5627 162.512 64.824 162.694 65.048C162.875 65.272 163.104 65.4533 163.382 65.592C163.659 65.72 163.99 65.784 164.374 65.784C164.907 65.784 165.334 65.672 165.654 65.448C165.984 65.2133 166.23 64.8667 166.39 64.408H168.118C168.022 64.856 167.856 65.256 167.622 65.608C167.387 65.96 167.104 66.2587 166.774 66.504C166.443 66.7387 166.07 66.9147 165.654 67.032C165.248 67.16 164.822 67.224 164.374 67.224C163.723 67.224 163.147 67.1173 162.646 66.904C162.144 66.6907 161.718 66.392 161.366 66.008C161.024 65.624 160.763 65.1653 160.582 64.632C160.411 64.0987 160.326 63.512 160.326 62.872C160.326 62.2853 160.416 61.7307 160.598 61.208C160.79 60.6747 161.056 60.2107 161.398 59.816C161.75 59.4107 162.171 59.0907 162.662 58.856C163.152 58.6213 163.707 58.504 164.326 58.504C164.976 58.504 165.558 58.6427 166.07 58.92C166.592 59.1867 167.024 59.544 167.366 59.992C167.707 60.44 167.952 60.9573 168.102 61.544C168.262 62.12 168.304 62.7173 168.23 63.336H162.15ZM175.296 62.136C175.275 61.848 175.211 61.5707 175.104 61.304C175.008 61.0373 174.87 60.808 174.688 60.616C174.518 60.4133 174.304 60.2533 174.048 60.136C173.803 60.008 173.526 59.944 173.216 59.944C172.896 59.944 172.603 60.0027 172.336 60.12C172.08 60.2267 171.856 60.3813 171.664 60.584C171.483 60.776 171.334 61.0053 171.216 61.272C171.11 61.5387 171.051 61.8267 171.04 62.136H175.296ZM171.04 63.336C171.04 63.656 171.083 63.9653 171.168 64.264C171.264 64.5627 171.403 64.824 171.584 65.048C171.766 65.272 171.995 65.4533 172.272 65.592C172.55 65.72 172.88 65.784 173.264 65.784C173.798 65.784 174.224 65.672 174.544 65.448C174.875 65.2133 175.12 64.8667 175.28 64.408H177.008C176.912 64.856 176.747 65.256 176.512 65.608C176.278 65.96 175.995 66.2587 175.664 66.504C175.334 66.7387 174.96 66.9147 174.544 67.032C174.139 67.16 173.712 67.224 173.264 67.224C172.614 67.224 172.038 67.1173 171.536 66.904C171.035 66.6907 170.608 66.392 170.256 66.008C169.915 65.624 169.654 65.1653 169.472 64.632C169.302 64.0987 169.216 63.512 169.216 62.872C169.216 62.2853 169.307 61.7307 169.488 61.208C169.68 60.6747 169.947 60.2107 170.288 59.816C170.64 59.4107 171.062 59.0907 171.552 58.856C172.043 58.6213 172.598 58.504 173.216 58.504C173.867 58.504 174.448 58.6427 174.96 58.92C175.483 59.1867 175.915 59.544 176.256 59.992C176.598 60.44 176.843 60.9573 176.992 61.544C177.152 62.12 177.195 62.7173 177.12 63.336H171.04Z" fill="white"/>
<g filter="url(#filter1_f_18390_51242)">
<circle cx="213" cy="91" r="28" fill="#82E4F8"/>
</g>
<g filter="url(#filter2_f_18390_51242)">
<circle cx="117.5" cy="93.5" r="19.5" fill="#82E4F8"/>
</g>
<g filter="url(#filter3_f_18390_51242)">
<circle cx="39.5" cy="34" r="29" fill="#82E4F8"/>
</g>
</g>
<rect x="34.5" y="34.5" width="164" height="53" rx="23.5" stroke="#B1D0F8"/>
</g>
<defs>
<filter id="filter0_d_18390_51242" x="0" y="0" width="233" height="122" filterUnits="userSpaceOnUse" color-interpolation-filters="sRGB">
<feFlood flood-opacity="0" result="BackgroundImageFix"/>
<feColorMatrix in="SourceAlpha" type="matrix" values="0 0 0 0 0 0 0 0 0 0 0 0 0 0 0 0 0 0 127 0" result="hardAlpha"/>
<feOffset/>
<feGaussianBlur stdDeviation="17"/>
<feComposite in2="hardAlpha" operator="out"/>
<feColorMatrix type="matrix" values="0 0 0 0 0.313726 0 0 0 0 0.521569 0 0 0 0 1 0 0 0 0.2 0"/>
<feBlend mode="normal" in2="BackgroundImageFix" result="effect1_dropShadow_18390_51242"/>
<feBlend mode="normal" in="SourceGraphic" in2="effect1_dropShadow_18390_51242" result="shape"/>
</filter>
<filter id="filter1_f_18390_51242" x="130.18" y="8.18" width="165.64" height="165.64" filterUnits="userSpaceOnUse" color-interpolation-filters="sRGB">
<feFlood flood-opacity="0" result="BackgroundImageFix"/>
<feBlend mode="normal" in="SourceGraphic" in2="BackgroundImageFix" result="shape"/>
<feGaussianBlur stdDeviation="27.41" result="effect1_foregroundBlur_18390_51242"/>
</filter>
<filter id="filter2_f_18390_51242" x="59" y="35" width="117" height="117" filterUnits="userSpaceOnUse" color-interpolation-filters="sRGB">
<feFlood flood-opacity="0" result="BackgroundImageFix"/>
<feBlend mode="normal" in="SourceGraphic" in2="BackgroundImageFix" result="shape"/>
<feGaussianBlur stdDeviation="19.5" result="effect1_foregroundBlur_18390_51242"/>
</filter>
<filter id="filter3_f_18390_51242" x="-48.9872" y="-54.4872" width="176.974" height="176.974" filterUnits="userSpaceOnUse" color-interpolation-filters="sRGB">
<feFlood flood-opacity="0" result="BackgroundImageFix"/>
<feBlend mode="normal" in="SourceGraphic" in2="BackgroundImageFix" result="shape"/>
<feGaussianBlur stdDeviation="29.7436" result="effect1_foregroundBlur_18390_51242"/>
</filter>
<clipPath id="clip0_18390_51242">
<rect x="34" y="34" width="165" height="54" rx="24" fill="white"/>
</clipPath>
</defs>
</svg>
