<svg width="213" height="81" viewBox="0 0 213 81" fill="none" xmlns="http://www.w3.org/2000/svg">
<g filter="url(#filter0_d_18390_50390)">
<g clip-path="url(#clip0_18390_50390)">
<rect x="34" y="13.5" width="165" height="54" rx="10" fill="#6E69FF"/>
<path d="M93.8249 42.692C93.8249 43.1293 93.8995 43.5027 94.0489 43.812C94.1982 44.1213 94.4062 44.3773 94.6729 44.58C94.9395 44.772 95.2435 44.916 95.5849 45.012C95.9369 45.0973 96.3155 45.14 96.7209 45.14C97.1582 45.14 97.5315 45.092 97.8409 44.996C98.1502 44.8893 98.4009 44.756 98.5929 44.596C98.7849 44.436 98.9235 44.2547 99.0089 44.052C99.0942 43.8387 99.1369 43.6253 99.1369 43.412C99.1369 42.9747 99.0355 42.6547 98.8329 42.452C98.6409 42.2387 98.4275 42.0893 98.1929 42.004C97.7875 41.8547 97.3129 41.716 96.7689 41.588C96.2355 41.4493 95.5742 41.2733 94.7849 41.06C94.2942 40.932 93.8835 40.7667 93.5529 40.564C93.2329 40.3507 92.9769 40.116 92.7849 39.86C92.5929 39.604 92.4542 39.332 92.3689 39.044C92.2942 38.756 92.2569 38.4627 92.2569 38.164C92.2569 37.588 92.3742 37.092 92.6089 36.676C92.8542 36.2493 93.1742 35.8973 93.5689 35.62C93.9635 35.3427 94.4115 35.14 94.9129 35.012C95.4142 34.8733 95.9209 34.804 96.4329 34.804C97.0302 34.804 97.5902 34.884 98.1129 35.044C98.6462 35.1933 99.1102 35.4227 99.5049 35.732C99.9102 36.0413 100.23 36.4253 100.465 36.884C100.7 37.332 100.817 37.8547 100.817 38.452H98.8169C98.7635 37.716 98.5129 37.1987 98.0649 36.9C97.6169 36.5907 97.0462 36.436 96.3529 36.436C96.1182 36.436 95.8782 36.4627 95.6329 36.516C95.3875 36.5587 95.1635 36.6387 94.9609 36.756C94.7582 36.8627 94.5875 37.012 94.4489 37.204C94.3209 37.396 94.2569 37.636 94.2569 37.924C94.2569 38.3293 94.3795 38.6493 94.6249 38.884C94.8809 39.108 95.2115 39.2787 95.6169 39.396C95.6595 39.4067 95.8249 39.4547 96.1129 39.54C96.4115 39.6147 96.7422 39.7 97.1049 39.796C97.4675 39.892 97.8195 39.988 98.1609 40.084C98.5129 40.1693 98.7635 40.2333 98.9129 40.276C99.2862 40.3933 99.6115 40.5533 99.8889 40.756C100.166 40.9587 100.396 41.1933 100.577 41.46C100.769 41.716 100.908 41.9933 100.993 42.292C101.089 42.5907 101.137 42.8893 101.137 43.188C101.137 43.828 101.004 44.3773 100.737 44.836C100.481 45.284 100.14 45.652 99.7129 45.94C99.2862 46.228 98.8009 46.436 98.2569 46.564C97.7129 46.7027 97.1582 46.772 96.5929 46.772C95.9422 46.772 95.3289 46.692 94.7529 46.532C94.1769 46.372 93.6755 46.1267 93.2489 45.796C92.8222 45.4653 92.4809 45.044 92.2249 44.532C91.9689 44.0093 91.8355 43.396 91.8249 42.692H93.8249ZM102.68 35.076H104.504V36.804H102.68V35.076ZM102.68 38.228H104.504V46.5H102.68V38.228ZM114.139 46.068C114.139 47.316 113.787 48.244 113.083 48.852C112.39 49.4707 111.387 49.78 110.075 49.78C109.659 49.78 109.238 49.7373 108.811 49.652C108.395 49.5667 108.011 49.4227 107.659 49.22C107.318 49.0173 107.03 48.7507 106.795 48.42C106.561 48.0893 106.422 47.684 106.379 47.204H108.203C108.257 47.46 108.347 47.668 108.475 47.828C108.603 47.988 108.753 48.1107 108.923 48.196C109.105 48.292 109.302 48.3507 109.515 48.372C109.729 48.404 109.953 48.42 110.187 48.42C110.923 48.42 111.462 48.2387 111.803 47.876C112.145 47.5133 112.315 46.9907 112.315 46.308V45.044H112.283C112.027 45.5027 111.675 45.86 111.227 46.116C110.79 46.372 110.315 46.5 109.803 46.5C109.142 46.5 108.577 46.388 108.107 46.164C107.649 45.9293 107.265 45.6147 106.955 45.22C106.657 44.8147 106.438 44.3507 106.299 43.828C106.161 43.3053 106.091 42.7453 106.091 42.148C106.091 41.5933 106.177 41.0653 106.347 40.564C106.518 40.0627 106.763 39.6253 107.083 39.252C107.403 38.868 107.793 38.564 108.251 38.34C108.721 38.116 109.249 38.004 109.835 38.004C110.358 38.004 110.838 38.116 111.275 38.34C111.713 38.5533 112.049 38.8947 112.283 39.364H112.315V38.228H114.139V46.068ZM110.091 45.06C110.497 45.06 110.838 44.98 111.115 44.82C111.403 44.6493 111.633 44.4307 111.803 44.164C111.985 43.8867 112.113 43.5773 112.187 43.236C112.273 42.884 112.315 42.532 112.315 42.18C112.315 41.828 112.273 41.4867 112.187 41.156C112.102 40.8253 111.969 40.532 111.787 40.276C111.617 40.02 111.387 39.8173 111.099 39.668C110.822 39.5187 110.486 39.444 110.091 39.444C109.686 39.444 109.345 39.5293 109.067 39.7C108.79 39.8707 108.566 40.0947 108.395 40.372C108.225 40.6387 108.102 40.948 108.027 41.3C107.953 41.6413 107.915 41.9827 107.915 42.324C107.915 42.6653 107.958 43.0013 108.043 43.332C108.129 43.652 108.257 43.94 108.427 44.196C108.609 44.452 108.833 44.66 109.099 44.82C109.377 44.98 109.707 45.06 110.091 45.06ZM115.976 38.228H117.704V39.444L117.736 39.476C118.013 39.0173 118.376 38.66 118.824 38.404C119.272 38.1373 119.768 38.004 120.312 38.004C121.218 38.004 121.933 38.2387 122.456 38.708C122.978 39.1773 123.24 39.8813 123.24 40.82V46.5H121.416V41.3C121.394 40.6493 121.256 40.18 121 39.892C120.744 39.5933 120.344 39.444 119.8 39.444C119.49 39.444 119.213 39.5027 118.968 39.62C118.722 39.7267 118.514 39.8813 118.344 40.084C118.173 40.276 118.04 40.5053 117.944 40.772C117.848 41.0387 117.8 41.3213 117.8 41.62V46.5H115.976V38.228ZM129.664 35.076H131.488V36.804H129.664V35.076ZM129.664 38.228H131.488V46.5H129.664V38.228ZM133.476 38.228H135.204V39.444L135.236 39.476C135.513 39.0173 135.876 38.66 136.324 38.404C136.772 38.1373 137.268 38.004 137.812 38.004C138.718 38.004 139.433 38.2387 139.956 38.708C140.478 39.1773 140.74 39.8813 140.74 40.82V46.5H138.916V41.3C138.894 40.6493 138.756 40.18 138.5 39.892C138.244 39.5933 137.844 39.444 137.3 39.444C136.99 39.444 136.713 39.5027 136.468 39.62C136.222 39.7267 136.014 39.8813 135.844 40.084C135.673 40.276 135.54 40.5053 135.444 40.772C135.348 41.0387 135.3 41.3213 135.3 41.62V46.5H133.476V38.228Z" fill="white"/>
<g filter="url(#filter1_f_18390_50390)">
<circle cx="213" cy="70.5" r="28" fill="#82E4F8"/>
</g>
<g filter="url(#filter2_f_18390_50390)">
<circle cx="117.5" cy="73" r="19.5" fill="#82E4F8"/>
</g>
<g filter="url(#filter3_f_18390_50390)">
<circle cx="39.5" cy="13.5" r="29" fill="#82E4F8"/>
</g>
</g>
<rect x="34.5" y="14" width="164" height="53" rx="9.5" stroke="#B1D0F8"/>
</g>
<defs>
<filter id="filter0_d_18390_50390" x="0" y="-20.5" width="233" height="122" filterUnits="userSpaceOnUse" color-interpolation-filters="sRGB">
<feFlood flood-opacity="0" result="BackgroundImageFix"/>
<feColorMatrix in="SourceAlpha" type="matrix" values="0 0 0 0 0 0 0 0 0 0 0 0 0 0 0 0 0 0 127 0" result="hardAlpha"/>
<feOffset/>
<feGaussianBlur stdDeviation="17"/>
<feComposite in2="hardAlpha" operator="out"/>
<feColorMatrix type="matrix" values="0 0 0 0 0.313726 0 0 0 0 0.521569 0 0 0 0 1 0 0 0 0.2 0"/>
<feBlend mode="normal" in2="BackgroundImageFix" result="effect1_dropShadow_18390_50390"/>
<feBlend mode="normal" in="SourceGraphic" in2="effect1_dropShadow_18390_50390" result="shape"/>
</filter>
<filter id="filter1_f_18390_50390" x="130.18" y="-12.32" width="165.64" height="165.64" filterUnits="userSpaceOnUse" color-interpolation-filters="sRGB">
<feFlood flood-opacity="0" result="BackgroundImageFix"/>
<feBlend mode="normal" in="SourceGraphic" in2="BackgroundImageFix" result="shape"/>
<feGaussianBlur stdDeviation="27.41" result="effect1_foregroundBlur_18390_50390"/>
</filter>
<filter id="filter2_f_18390_50390" x="59" y="14.5" width="117" height="117" filterUnits="userSpaceOnUse" color-interpolation-filters="sRGB">
<feFlood flood-opacity="0" result="BackgroundImageFix"/>
<feBlend mode="normal" in="SourceGraphic" in2="BackgroundImageFix" result="shape"/>
<feGaussianBlur stdDeviation="19.5" result="effect1_foregroundBlur_18390_50390"/>
</filter>
<filter id="filter3_f_18390_50390" x="-48.9872" y="-74.9872" width="176.974" height="176.974" filterUnits="userSpaceOnUse" color-interpolation-filters="sRGB">
<feFlood flood-opacity="0" result="BackgroundImageFix"/>
<feBlend mode="normal" in="SourceGraphic" in2="BackgroundImageFix" result="shape"/>
<feGaussianBlur stdDeviation="29.7436" result="effect1_foregroundBlur_18390_50390"/>
</filter>
<clipPath id="clip0_18390_50390">
<rect x="34" y="13.5" width="165" height="54" rx="10" fill="white"/>
</clipPath>
</defs>
</svg>
