<svg width="233" height="123" viewBox="0 0 233 123" fill="none" xmlns="http://www.w3.org/2000/svg">
<g filter="url(#filter0_d_18390_50401)">
<g clip-path="url(#clip0_18390_50401)">
<rect x="34" y="34.5" width="165" height="54" rx="27" fill="#6E69FF"/>
<path d="M85.1684 67.5H83.8884L83.5844 66.156C83.051 66.764 82.5177 67.1853 81.9844 67.42C81.451 67.6547 80.8377 67.772 80.1444 67.772C79.291 67.772 78.523 67.6173 77.8404 67.308C77.1684 66.988 76.5977 66.556 76.1284 66.012C75.659 65.468 75.2964 64.8333 75.0404 64.108C74.795 63.3827 74.6724 62.6093 74.6724 61.788C74.6724 60.9773 74.795 60.2093 75.0404 59.484C75.2964 58.7587 75.659 58.124 76.1284 57.58C76.5977 57.036 77.1684 56.604 77.8404 56.284C78.523 55.964 79.291 55.804 80.1444 55.804C80.763 55.804 81.3497 55.8893 81.9044 56.06C82.4697 56.22 82.971 56.4653 83.4084 56.796C83.8457 57.116 84.2084 57.5213 84.4964 58.012C84.7844 58.5027 84.9657 59.068 85.0404 59.708H83.0884C83.035 59.3347 82.9177 59.0093 82.7364 58.732C82.5657 58.444 82.347 58.204 82.0804 58.012C81.8137 57.82 81.515 57.676 81.1844 57.58C80.8537 57.484 80.507 57.436 80.1444 57.436C79.5364 57.436 79.0084 57.5587 78.5604 57.804C78.123 58.0493 77.7657 58.38 77.4884 58.796C77.211 59.2013 77.003 59.6653 76.8644 60.188C76.7364 60.7107 76.6724 61.244 76.6724 61.788C76.6724 62.332 76.7364 62.8653 76.8644 63.388C77.003 63.9107 77.211 64.38 77.4884 64.796C77.7657 65.2013 78.123 65.5267 78.5604 65.772C79.0084 66.0173 79.5364 66.14 80.1444 66.14C80.6564 66.1507 81.1097 66.0867 81.5044 65.948C81.899 65.7987 82.2297 65.5907 82.4964 65.324C82.7737 65.0467 82.9817 64.7107 83.1204 64.316C83.259 63.9213 83.3337 63.484 83.3444 63.004H80.3044V61.484H85.1684V67.5ZM92.765 62.636C92.7437 62.348 92.6797 62.0707 92.573 61.804C92.477 61.5373 92.3383 61.308 92.157 61.116C91.9863 60.9133 91.773 60.7533 91.517 60.636C91.2717 60.508 90.9943 60.444 90.685 60.444C90.365 60.444 90.0717 60.5027 89.805 60.62C89.549 60.7267 89.325 60.8813 89.133 61.084C88.9517 61.276 88.8023 61.5053 88.685 61.772C88.5783 62.0387 88.5197 62.3267 88.509 62.636H92.765ZM88.509 63.836C88.509 64.156 88.5517 64.4653 88.637 64.764C88.733 65.0627 88.8717 65.324 89.053 65.548C89.2343 65.772 89.4637 65.9533 89.741 66.092C90.0183 66.22 90.349 66.284 90.733 66.284C91.2663 66.284 91.693 66.172 92.013 65.948C92.3437 65.7133 92.589 65.3667 92.749 64.908H94.477C94.381 65.356 94.2157 65.756 93.981 66.108C93.7463 66.46 93.4637 66.7587 93.133 67.004C92.8023 67.2387 92.429 67.4147 92.013 67.532C91.6077 67.66 91.181 67.724 90.733 67.724C90.0823 67.724 89.5063 67.6173 89.005 67.404C88.5037 67.1907 88.077 66.892 87.725 66.508C87.3837 66.124 87.1223 65.6653 86.941 65.132C86.7703 64.5987 86.685 64.012 86.685 63.372C86.685 62.7853 86.7757 62.2307 86.957 61.708C87.149 61.1747 87.4157 60.7107 87.757 60.316C88.109 59.9107 88.5303 59.5907 89.021 59.356C89.5117 59.1213 90.0663 59.004 90.685 59.004C91.3357 59.004 91.917 59.1427 92.429 59.42C92.9517 59.6867 93.3837 60.044 93.725 60.492C94.0663 60.94 94.3117 61.4573 94.461 62.044C94.621 62.62 94.6637 63.2173 94.589 63.836H88.509ZM95.1436 59.228H96.5196V56.748H98.3436V59.228H99.9916V60.588H98.3436V65.004C98.3436 65.196 98.349 65.3613 98.3596 65.5C98.381 65.6387 98.4183 65.756 98.4716 65.852C98.5356 65.948 98.6263 66.0227 98.7436 66.076C98.861 66.1187 99.021 66.14 99.2236 66.14C99.3516 66.14 99.4796 66.14 99.6076 66.14C99.7356 66.1293 99.8636 66.108 99.9916 66.076V67.484C99.789 67.5053 99.5916 67.5267 99.3996 67.548C99.2076 67.5693 99.0103 67.58 98.8076 67.58C98.3276 67.58 97.9383 67.5373 97.6396 67.452C97.3516 67.356 97.1223 67.2227 96.9516 67.052C96.7916 66.8707 96.6796 66.6467 96.6156 66.38C96.5623 66.1133 96.5303 65.8093 96.5196 65.468V60.588H95.1436V59.228ZM107.325 63.692C107.325 64.1293 107.4 64.5027 107.549 64.812C107.698 65.1213 107.906 65.3773 108.173 65.58C108.44 65.772 108.744 65.916 109.085 66.012C109.437 66.0973 109.816 66.14 110.221 66.14C110.658 66.14 111.032 66.092 111.341 65.996C111.65 65.8893 111.901 65.756 112.093 65.596C112.285 65.436 112.424 65.2547 112.509 65.052C112.594 64.8387 112.637 64.6253 112.637 64.412C112.637 63.9747 112.536 63.6547 112.333 63.452C112.141 63.2387 111.928 63.0893 111.693 63.004C111.288 62.8547 110.813 62.716 110.269 62.588C109.736 62.4493 109.074 62.2733 108.285 62.06C107.794 61.932 107.384 61.7667 107.053 61.564C106.733 61.3507 106.477 61.116 106.285 60.86C106.093 60.604 105.954 60.332 105.869 60.044C105.794 59.756 105.757 59.4627 105.757 59.164C105.757 58.588 105.874 58.092 106.109 57.676C106.354 57.2493 106.674 56.8973 107.069 56.62C107.464 56.3427 107.912 56.14 108.413 56.012C108.914 55.8733 109.421 55.804 109.933 55.804C110.53 55.804 111.09 55.884 111.613 56.044C112.146 56.1933 112.61 56.4227 113.005 56.732C113.41 57.0413 113.73 57.4253 113.965 57.884C114.2 58.332 114.317 58.8547 114.317 59.452H112.317C112.264 58.716 112.013 58.1987 111.565 57.9C111.117 57.5907 110.546 57.436 109.853 57.436C109.618 57.436 109.378 57.4627 109.133 57.516C108.888 57.5587 108.664 57.6387 108.461 57.756C108.258 57.8627 108.088 58.012 107.949 58.204C107.821 58.396 107.757 58.636 107.757 58.924C107.757 59.3293 107.88 59.6493 108.125 59.884C108.381 60.108 108.712 60.2787 109.117 60.396C109.16 60.4067 109.325 60.4547 109.613 60.54C109.912 60.6147 110.242 60.7 110.605 60.796C110.968 60.892 111.32 60.988 111.661 61.084C112.013 61.1693 112.264 61.2333 112.413 61.276C112.786 61.3933 113.112 61.5533 113.389 61.756C113.666 61.9587 113.896 62.1933 114.077 62.46C114.269 62.716 114.408 62.9933 114.493 63.292C114.589 63.5907 114.637 63.8893 114.637 64.188C114.637 64.828 114.504 65.3773 114.237 65.836C113.981 66.284 113.64 66.652 113.213 66.94C112.786 67.228 112.301 67.436 111.757 67.564C111.213 67.7027 110.658 67.772 110.093 67.772C109.442 67.772 108.829 67.692 108.253 67.532C107.677 67.372 107.176 67.1267 106.749 66.796C106.322 66.4653 105.981 66.044 105.725 65.532C105.469 65.0093 105.336 64.396 105.325 63.692H107.325ZM115.3 59.228H116.676V56.748H118.5V59.228H120.148V60.588H118.5V65.004C118.5 65.196 118.505 65.3613 118.516 65.5C118.537 65.6387 118.575 65.756 118.628 65.852C118.692 65.948 118.783 66.0227 118.9 66.076C119.017 66.1187 119.177 66.14 119.38 66.14C119.508 66.14 119.636 66.14 119.764 66.14C119.892 66.1293 120.02 66.108 120.148 66.076V67.484C119.945 67.5053 119.748 67.5267 119.556 67.548C119.364 67.5693 119.167 67.58 118.964 67.58C118.484 67.58 118.095 67.5373 117.796 67.452C117.508 67.356 117.279 67.2227 117.108 67.052C116.948 66.8707 116.836 66.6467 116.772 66.38C116.719 66.1133 116.687 65.8093 116.676 65.468V60.588H115.3V59.228ZM128.388 65.66C128.388 65.884 128.415 66.044 128.468 66.14C128.532 66.236 128.649 66.284 128.82 66.284C128.873 66.284 128.937 66.284 129.012 66.284C129.087 66.284 129.172 66.2733 129.268 66.252V67.516C129.204 67.5373 129.119 67.5587 129.012 67.58C128.916 67.612 128.815 67.6387 128.708 67.66C128.601 67.6813 128.495 67.6973 128.388 67.708C128.281 67.7187 128.191 67.724 128.116 67.724C127.743 67.724 127.433 67.6493 127.188 67.5C126.943 67.3507 126.783 67.0893 126.708 66.716C126.345 67.068 125.897 67.324 125.364 67.484C124.841 67.644 124.335 67.724 123.844 67.724C123.471 67.724 123.113 67.6707 122.772 67.564C122.431 67.468 122.127 67.324 121.86 67.132C121.604 66.9293 121.396 66.6787 121.236 66.38C121.087 66.0707 121.012 65.7133 121.012 65.308C121.012 64.796 121.103 64.38 121.284 64.06C121.476 63.74 121.721 63.4893 122.02 63.308C122.329 63.1267 122.671 62.9987 123.044 62.924C123.428 62.8387 123.812 62.7747 124.196 62.732C124.527 62.668 124.841 62.6253 125.14 62.604C125.439 62.572 125.7 62.524 125.924 62.46C126.159 62.396 126.34 62.3 126.468 62.172C126.607 62.0333 126.676 61.8307 126.676 61.564C126.676 61.3293 126.617 61.1373 126.5 60.988C126.393 60.8387 126.255 60.7267 126.084 60.652C125.924 60.5667 125.743 60.5133 125.54 60.492C125.337 60.46 125.145 60.444 124.964 60.444C124.452 60.444 124.031 60.5507 123.7 60.764C123.369 60.9773 123.183 61.308 123.14 61.756H121.316C121.348 61.2227 121.476 60.78 121.7 60.428C121.924 60.076 122.207 59.7933 122.548 59.58C122.9 59.3667 123.295 59.2173 123.732 59.132C124.169 59.0467 124.617 59.004 125.076 59.004C125.481 59.004 125.881 59.0467 126.276 59.132C126.671 59.2173 127.023 59.356 127.332 59.548C127.652 59.74 127.908 59.9907 128.1 60.3C128.292 60.5987 128.388 60.9667 128.388 61.404V65.66ZM126.564 63.356C126.287 63.5373 125.945 63.6493 125.54 63.692C125.135 63.724 124.729 63.7773 124.324 63.852C124.132 63.884 123.945 63.932 123.764 63.996C123.583 64.0493 123.423 64.1293 123.284 64.236C123.145 64.332 123.033 64.4653 122.948 64.636C122.873 64.796 122.836 64.9933 122.836 65.228C122.836 65.4307 122.895 65.6013 123.012 65.74C123.129 65.8787 123.268 65.9907 123.428 66.076C123.599 66.1507 123.78 66.204 123.972 66.236C124.175 66.268 124.356 66.284 124.516 66.284C124.719 66.284 124.937 66.2573 125.172 66.204C125.407 66.1507 125.625 66.06 125.828 65.932C126.041 65.804 126.217 65.644 126.356 65.452C126.495 65.2493 126.564 65.004 126.564 64.716V63.356ZM130.351 59.228H132.063V60.828H132.095C132.148 60.604 132.249 60.3853 132.399 60.172C132.559 59.9587 132.745 59.7667 132.959 59.596C133.183 59.4147 133.428 59.2707 133.695 59.164C133.961 59.0573 134.233 59.004 134.511 59.004C134.724 59.004 134.868 59.0093 134.943 59.02C135.028 59.0307 135.113 59.0413 135.199 59.052V60.812C135.071 60.7907 134.937 60.7747 134.799 60.764C134.671 60.7427 134.543 60.732 134.415 60.732C134.105 60.732 133.812 60.796 133.535 60.924C133.268 61.0413 133.033 61.2227 132.831 61.468C132.628 61.7027 132.468 61.996 132.351 62.348C132.233 62.7 132.175 63.1053 132.175 63.564V67.5H130.351V59.228ZM135.144 59.228H136.52V56.748H138.344V59.228H139.992V60.588H138.344V65.004C138.344 65.196 138.349 65.3613 138.36 65.5C138.381 65.6387 138.418 65.756 138.472 65.852C138.536 65.948 138.626 66.0227 138.744 66.076C138.861 66.1187 139.021 66.14 139.224 66.14C139.352 66.14 139.48 66.14 139.608 66.14C139.736 66.1293 139.864 66.108 139.992 66.076V67.484C139.789 67.5053 139.592 67.5267 139.4 67.548C139.208 67.5693 139.01 67.58 138.808 67.58C138.328 67.58 137.938 67.5373 137.64 67.452C137.352 67.356 137.122 67.2227 136.952 67.052C136.792 66.8707 136.68 66.6467 136.616 66.38C136.562 66.1133 136.53 65.8093 136.52 65.468V60.588H135.144V59.228ZM146.984 62.636C146.962 62.348 146.898 62.0707 146.792 61.804C146.696 61.5373 146.557 61.308 146.376 61.116C146.205 60.9133 145.992 60.7533 145.736 60.636C145.49 60.508 145.213 60.444 144.904 60.444C144.584 60.444 144.29 60.5027 144.024 60.62C143.768 60.7267 143.544 60.8813 143.352 61.084C143.17 61.276 143.021 61.5053 142.904 61.772C142.797 62.0387 142.738 62.3267 142.728 62.636H146.984ZM142.728 63.836C142.728 64.156 142.77 64.4653 142.856 64.764C142.952 65.0627 143.09 65.324 143.272 65.548C143.453 65.772 143.682 65.9533 143.96 66.092C144.237 66.22 144.568 66.284 144.952 66.284C145.485 66.284 145.912 66.172 146.232 65.948C146.562 65.7133 146.808 65.3667 146.968 64.908H148.696C148.6 65.356 148.434 65.756 148.2 66.108C147.965 66.46 147.682 66.7587 147.352 67.004C147.021 67.2387 146.648 67.4147 146.232 67.532C145.826 67.66 145.4 67.724 144.952 67.724C144.301 67.724 143.725 67.6173 143.224 67.404C142.722 67.1907 142.296 66.892 141.944 66.508C141.602 66.124 141.341 65.6653 141.16 65.132C140.989 64.5987 140.904 64.012 140.904 63.372C140.904 62.7853 140.994 62.2307 141.176 61.708C141.368 61.1747 141.634 60.7107 141.976 60.316C142.328 59.9107 142.749 59.5907 143.24 59.356C143.73 59.1213 144.285 59.004 144.904 59.004C145.554 59.004 146.136 59.1427 146.648 59.42C147.17 59.6867 147.602 60.044 147.944 60.492C148.285 60.94 148.53 61.4573 148.68 62.044C148.84 62.62 148.882 63.2173 148.808 63.836H142.728ZM157.986 67.5H156.258V66.38H156.226C155.981 66.86 155.624 67.2067 155.154 67.42C154.685 67.6227 154.189 67.724 153.666 67.724C153.016 67.724 152.445 67.612 151.954 67.388C151.474 67.1533 151.074 66.8387 150.754 66.444C150.434 66.0493 150.194 65.5853 150.034 65.052C149.874 64.508 149.794 63.9267 149.794 63.308C149.794 62.5613 149.896 61.916 150.098 61.372C150.301 60.828 150.568 60.38 150.898 60.028C151.24 59.676 151.624 59.42 152.05 59.26C152.488 59.0893 152.93 59.004 153.378 59.004C153.634 59.004 153.896 59.0307 154.162 59.084C154.429 59.1267 154.685 59.2013 154.93 59.308C155.176 59.4147 155.4 59.5533 155.602 59.724C155.816 59.884 155.992 60.076 156.13 60.3H156.162V56.076H157.986V67.5ZM151.618 63.452C151.618 63.804 151.661 64.1507 151.746 64.492C151.842 64.8333 151.981 65.1373 152.162 65.404C152.354 65.6707 152.594 65.884 152.882 66.044C153.17 66.204 153.512 66.284 153.906 66.284C154.312 66.284 154.658 66.1987 154.946 66.028C155.245 65.8573 155.485 65.6333 155.666 65.356C155.858 65.0787 155.997 64.7693 156.082 64.428C156.178 64.076 156.226 63.7187 156.226 63.356C156.226 62.4387 156.018 61.724 155.602 61.212C155.197 60.7 154.642 60.444 153.938 60.444C153.512 60.444 153.149 60.5347 152.85 60.716C152.562 60.8867 152.322 61.116 152.13 61.404C151.949 61.6813 151.816 62.0013 151.73 62.364C151.656 62.716 151.618 63.0787 151.618 63.452Z" fill="white"/>
<g filter="url(#filter1_f_18390_50401)">
<circle cx="213" cy="91.5" r="28" fill="#82E4F8"/>
</g>
<g filter="url(#filter2_f_18390_50401)">
<circle cx="117.5" cy="94" r="19.5" fill="#82E4F8"/>
</g>
<g filter="url(#filter3_f_18390_50401)">
<circle cx="39.5" cy="34.5" r="29" fill="#82E4F8"/>
</g>
</g>
<rect x="34.5" y="35" width="164" height="53" rx="26.5" stroke="#B1D0F8"/>
</g>
<defs>
<filter id="filter0_d_18390_50401" x="0" y="0.5" width="233" height="122" filterUnits="userSpaceOnUse" color-interpolation-filters="sRGB">
<feFlood flood-opacity="0" result="BackgroundImageFix"/>
<feColorMatrix in="SourceAlpha" type="matrix" values="0 0 0 0 0 0 0 0 0 0 0 0 0 0 0 0 0 0 127 0" result="hardAlpha"/>
<feOffset/>
<feGaussianBlur stdDeviation="17"/>
<feComposite in2="hardAlpha" operator="out"/>
<feColorMatrix type="matrix" values="0 0 0 0 0.313726 0 0 0 0 0.521569 0 0 0 0 1 0 0 0 0.2 0"/>
<feBlend mode="normal" in2="BackgroundImageFix" result="effect1_dropShadow_18390_50401"/>
<feBlend mode="normal" in="SourceGraphic" in2="effect1_dropShadow_18390_50401" result="shape"/>
</filter>
<filter id="filter1_f_18390_50401" x="130.18" y="8.68" width="165.64" height="165.64" filterUnits="userSpaceOnUse" color-interpolation-filters="sRGB">
<feFlood flood-opacity="0" result="BackgroundImageFix"/>
<feBlend mode="normal" in="SourceGraphic" in2="BackgroundImageFix" result="shape"/>
<feGaussianBlur stdDeviation="27.41" result="effect1_foregroundBlur_18390_50401"/>
</filter>
<filter id="filter2_f_18390_50401" x="59" y="35.5" width="117" height="117" filterUnits="userSpaceOnUse" color-interpolation-filters="sRGB">
<feFlood flood-opacity="0" result="BackgroundImageFix"/>
<feBlend mode="normal" in="SourceGraphic" in2="BackgroundImageFix" result="shape"/>
<feGaussianBlur stdDeviation="19.5" result="effect1_foregroundBlur_18390_50401"/>
</filter>
<filter id="filter3_f_18390_50401" x="-48.9872" y="-53.9872" width="176.974" height="176.974" filterUnits="userSpaceOnUse" color-interpolation-filters="sRGB">
<feFlood flood-opacity="0" result="BackgroundImageFix"/>
<feBlend mode="normal" in="SourceGraphic" in2="BackgroundImageFix" result="shape"/>
<feGaussianBlur stdDeviation="29.7436" result="effect1_foregroundBlur_18390_50401"/>
</filter>
<clipPath id="clip0_18390_50401">
<rect x="34" y="34.5" width="165" height="54" rx="27" fill="white"/>
</clipPath>
</defs>
</svg>
