<svg width="164" height="55" viewBox="0 0 164 55" fill="none" xmlns="http://www.w3.org/2000/svg">
<rect x="0.5" y="1" width="163" height="53" rx="23.5" fill="white"/>
<rect x="0.5" y="1" width="163" height="53" rx="23.5" stroke="#D0D0FF"/>
<path d="M40.9894 22.076H42.9894V31.772H48.7974V33.5H40.9894V22.076ZM55.6009 28.636C55.5796 28.348 55.5156 28.0707 55.4089 27.804C55.3129 27.5373 55.1743 27.308 54.9929 27.116C54.8223 26.9133 54.6089 26.7533 54.3529 26.636C54.1076 26.508 53.8303 26.444 53.5209 26.444C53.2009 26.444 52.9076 26.5027 52.6409 26.62C52.3849 26.7267 52.1609 26.8813 51.9689 27.084C51.7876 27.276 51.6383 27.5053 51.5209 27.772C51.4143 28.0387 51.3556 28.3267 51.3449 28.636H55.6009ZM51.3449 29.836C51.3449 30.156 51.3876 30.4653 51.4729 30.764C51.5689 31.0627 51.7076 31.324 51.8889 31.548C52.0703 31.772 52.2996 31.9533 52.5769 32.092C52.8543 32.22 53.1849 32.284 53.5689 32.284C54.1023 32.284 54.5289 32.172 54.8489 31.948C55.1796 31.7133 55.4249 31.3667 55.5849 30.908H57.3129C57.2169 31.356 57.0516 31.756 56.8169 32.108C56.5823 32.46 56.2996 32.7587 55.9689 33.004C55.6383 33.2387 55.2649 33.4147 54.8489 33.532C54.4436 33.66 54.0169 33.724 53.5689 33.724C52.9183 33.724 52.3423 33.6173 51.8409 33.404C51.3396 33.1907 50.9129 32.892 50.5609 32.508C50.2196 32.124 49.9583 31.6653 49.7769 31.132C49.6063 30.5987 49.5209 30.012 49.5209 29.372C49.5209 28.7853 49.6116 28.2307 49.7929 27.708C49.9849 27.1747 50.2516 26.7107 50.5929 26.316C50.9449 25.9107 51.3663 25.5907 51.8569 25.356C52.3476 25.1213 52.9023 25.004 53.5209 25.004C54.1716 25.004 54.7529 25.1427 55.2649 25.42C55.7876 25.6867 56.2196 26.044 56.5609 26.492C56.9023 26.94 57.1476 27.4573 57.2969 28.044C57.4569 28.62 57.4996 29.2173 57.4249 29.836H51.3449ZM65.7396 31.66C65.7396 31.884 65.7662 32.044 65.8196 32.14C65.8836 32.236 66.0009 32.284 66.1716 32.284C66.2249 32.284 66.2889 32.284 66.3636 32.284C66.4382 32.284 66.5236 32.2733 66.6196 32.252V33.516C66.5556 33.5373 66.4702 33.5587 66.3636 33.58C66.2676 33.612 66.1662 33.6387 66.0596 33.66C65.9529 33.6813 65.8462 33.6973 65.7396 33.708C65.6329 33.7187 65.5422 33.724 65.4676 33.724C65.0942 33.724 64.7849 33.6493 64.5396 33.5C64.2942 33.3507 64.1342 33.0893 64.0596 32.716C63.6969 33.068 63.2489 33.324 62.7156 33.484C62.1929 33.644 61.6862 33.724 61.1956 33.724C60.8222 33.724 60.4649 33.6707 60.1236 33.564C59.7822 33.468 59.4782 33.324 59.2116 33.132C58.9556 32.9293 58.7476 32.6787 58.5876 32.38C58.4382 32.0707 58.3636 31.7133 58.3636 31.308C58.3636 30.796 58.4542 30.38 58.6356 30.06C58.8276 29.74 59.0729 29.4893 59.3716 29.308C59.6809 29.1267 60.0222 28.9987 60.3956 28.924C60.7796 28.8387 61.1636 28.7747 61.5476 28.732C61.8782 28.668 62.1929 28.6253 62.4916 28.604C62.7902 28.572 63.0516 28.524 63.2756 28.46C63.5102 28.396 63.6916 28.3 63.8196 28.172C63.9582 28.0333 64.0276 27.8307 64.0276 27.564C64.0276 27.3293 63.9689 27.1373 63.8516 26.988C63.7449 26.8387 63.6062 26.7267 63.4356 26.652C63.2756 26.5667 63.0942 26.5133 62.8916 26.492C62.6889 26.46 62.4969 26.444 62.3156 26.444C61.8036 26.444 61.3822 26.5507 61.0516 26.764C60.7209 26.9773 60.5342 27.308 60.4916 27.756H58.6676C58.6996 27.2227 58.8276 26.78 59.0516 26.428C59.2756 26.076 59.5582 25.7933 59.8996 25.58C60.2516 25.3667 60.6462 25.2173 61.0836 25.132C61.5209 25.0467 61.9689 25.004 62.4276 25.004C62.8329 25.004 63.2329 25.0467 63.6276 25.132C64.0222 25.2173 64.3742 25.356 64.6836 25.548C65.0036 25.74 65.2596 25.9907 65.4516 26.3C65.6436 26.5987 65.7396 26.9667 65.7396 27.404V31.66ZM63.9156 29.356C63.6382 29.5373 63.2969 29.6493 62.8916 29.692C62.4862 29.724 62.0809 29.7773 61.6756 29.852C61.4836 29.884 61.2969 29.932 61.1156 29.996C60.9342 30.0493 60.7742 30.1293 60.6356 30.236C60.4969 30.332 60.3849 30.4653 60.2996 30.636C60.2249 30.796 60.1876 30.9933 60.1876 31.228C60.1876 31.4307 60.2462 31.6013 60.3636 31.74C60.4809 31.8787 60.6196 31.9907 60.7796 32.076C60.9502 32.1507 61.1316 32.204 61.3236 32.236C61.5262 32.268 61.7076 32.284 61.8676 32.284C62.0702 32.284 62.2889 32.2573 62.5236 32.204C62.7582 32.1507 62.9769 32.06 63.1796 31.932C63.3929 31.804 63.5689 31.644 63.7076 31.452C63.8462 31.2493 63.9156 31.004 63.9156 30.716V29.356ZM67.7022 25.228H69.4142V26.828H69.4462C69.4995 26.604 69.6009 26.3853 69.7502 26.172C69.9102 25.9587 70.0969 25.7667 70.3102 25.596C70.5342 25.4147 70.7795 25.2707 71.0462 25.164C71.3129 25.0573 71.5849 25.004 71.8622 25.004C72.0755 25.004 72.2195 25.0093 72.2942 25.02C72.3795 25.0307 72.4649 25.0413 72.5502 25.052V26.812C72.4222 26.7907 72.2889 26.7747 72.1502 26.764C72.0222 26.7427 71.8942 26.732 71.7662 26.732C71.4569 26.732 71.1635 26.796 70.8862 26.924C70.6195 27.0413 70.3849 27.2227 70.1822 27.468C69.9795 27.7027 69.8195 27.996 69.7022 28.348C69.5849 28.7 69.5262 29.1053 69.5262 29.564V33.5H67.7022V25.228ZM73.6084 25.228H75.3364V26.444L75.3684 26.476C75.6458 26.0173 76.0084 25.66 76.4564 25.404C76.9044 25.1373 77.4004 25.004 77.9444 25.004C78.8511 25.004 79.5658 25.2387 80.0884 25.708C80.6111 26.1773 80.8724 26.8813 80.8724 27.82V33.5H79.0484V28.3C79.0271 27.6493 78.8884 27.18 78.6324 26.892C78.3764 26.5933 77.9764 26.444 77.4324 26.444C77.1231 26.444 76.8458 26.5027 76.6004 26.62C76.3551 26.7267 76.1471 26.8813 75.9764 27.084C75.8058 27.276 75.6724 27.5053 75.5764 27.772C75.4804 28.0387 75.4324 28.3213 75.4324 28.62V33.5H73.6084V25.228ZM87.4731 22.076H90.2891L93.4411 31.02H93.4731L96.5451 22.076H99.3291V33.5H97.4251V24.684H97.3931L94.2251 33.5H92.5771L89.4091 24.684H89.3771V33.5H87.4731V22.076ZM105.26 33.724C104.598 33.724 104.006 33.6173 103.484 33.404C102.972 33.18 102.534 32.876 102.172 32.492C101.82 32.108 101.548 31.6493 101.356 31.116C101.174 30.5827 101.084 29.996 101.084 29.356C101.084 28.7267 101.174 28.1453 101.356 27.612C101.548 27.0787 101.82 26.62 102.172 26.236C102.534 25.852 102.972 25.5533 103.484 25.34C104.006 25.116 104.598 25.004 105.26 25.004C105.921 25.004 106.508 25.116 107.02 25.34C107.542 25.5533 107.98 25.852 108.332 26.236C108.694 26.62 108.966 27.0787 109.148 27.612C109.34 28.1453 109.436 28.7267 109.436 29.356C109.436 29.996 109.34 30.5827 109.148 31.116C108.966 31.6493 108.694 32.108 108.332 32.492C107.98 32.876 107.542 33.18 107.02 33.404C106.508 33.6173 105.921 33.724 105.26 33.724ZM105.26 32.284C105.665 32.284 106.017 32.1987 106.316 32.028C106.614 31.8573 106.86 31.6333 107.052 31.356C107.244 31.0787 107.382 30.7693 107.468 30.428C107.564 30.076 107.612 29.7187 107.612 29.356C107.612 29.004 107.564 28.652 107.468 28.3C107.382 27.948 107.244 27.6387 107.052 27.372C106.86 27.0947 106.614 26.8707 106.316 26.7C106.017 26.5293 105.665 26.444 105.26 26.444C104.854 26.444 104.502 26.5293 104.204 26.7C103.905 26.8707 103.66 27.0947 103.468 27.372C103.276 27.6387 103.132 27.948 103.036 28.3C102.95 28.652 102.908 29.004 102.908 29.356C102.908 29.7187 102.95 30.076 103.036 30.428C103.132 30.7693 103.276 31.0787 103.468 31.356C103.66 31.6333 103.905 31.8573 104.204 32.028C104.502 32.1987 104.854 32.284 105.26 32.284ZM110.952 25.228H112.664V26.828H112.696C112.75 26.604 112.851 26.3853 113 26.172C113.16 25.9587 113.347 25.7667 113.56 25.596C113.784 25.4147 114.03 25.2707 114.296 25.164C114.563 25.0573 114.835 25.004 115.112 25.004C115.326 25.004 115.47 25.0093 115.544 25.02C115.63 25.0307 115.715 25.0413 115.8 25.052V26.812C115.672 26.7907 115.539 26.7747 115.4 26.764C115.272 26.7427 115.144 26.732 115.016 26.732C114.707 26.732 114.414 26.796 114.136 26.924C113.87 27.0413 113.635 27.2227 113.432 27.468C113.23 27.7027 113.07 27.996 112.952 28.348C112.835 28.7 112.776 29.1053 112.776 29.564V33.5H110.952V25.228ZM121.976 28.636C121.955 28.348 121.891 28.0707 121.784 27.804C121.688 27.5373 121.549 27.308 121.368 27.116C121.197 26.9133 120.984 26.7533 120.728 26.636C120.483 26.508 120.205 26.444 119.896 26.444C119.576 26.444 119.283 26.5027 119.016 26.62C118.76 26.7267 118.536 26.8813 118.344 27.084C118.163 27.276 118.013 27.5053 117.896 27.772C117.789 28.0387 117.731 28.3267 117.72 28.636H121.976ZM117.72 29.836C117.72 30.156 117.763 30.4653 117.848 30.764C117.944 31.0627 118.083 31.324 118.264 31.548C118.445 31.772 118.675 31.9533 118.952 32.092C119.229 32.22 119.56 32.284 119.944 32.284C120.477 32.284 120.904 32.172 121.224 31.948C121.555 31.7133 121.8 31.3667 121.96 30.908H123.688C123.592 31.356 123.427 31.756 123.192 32.108C122.957 32.46 122.675 32.7587 122.344 33.004C122.013 33.2387 121.64 33.4147 121.224 33.532C120.819 33.66 120.392 33.724 119.944 33.724C119.293 33.724 118.717 33.6173 118.216 33.404C117.715 33.1907 117.288 32.892 116.936 32.508C116.595 32.124 116.333 31.6653 116.152 31.132C115.981 30.5987 115.896 30.012 115.896 29.372C115.896 28.7853 115.987 28.2307 116.168 27.708C116.36 27.1747 116.627 26.7107 116.968 26.316C117.32 25.9107 117.741 25.5907 118.232 25.356C118.723 25.1213 119.277 25.004 119.896 25.004C120.547 25.004 121.128 25.1427 121.64 25.42C122.163 25.6867 122.595 26.044 122.936 26.492C123.277 26.94 123.523 27.4573 123.672 28.044C123.832 28.62 123.875 29.2173 123.8 29.836H117.72Z" fill="#22282B"/>
</svg>
