<svg width="1919" height="661" viewBox="0 0 1919 661" fill="none" xmlns="http://www.w3.org/2000/svg">
<g opacity="0.8">
<mask id="mask0_376_30131" style="mask-type:alpha" maskUnits="userSpaceOnUse" x="0" y="0" width="1920" height="661">
<rect width="1920" height="661" fill="#FFF9E0" fill-opacity="0.95"/>
</mask>
<g mask="url(#mask0_376_30131)">
<ellipse cx="1845.5" cy="823.757" rx="376.5" ry="341.381" fill="#6DA985" fill-opacity="0.4"/>
<g opacity="0.2">
<path d="M374.014 -28.9018C374.014 -28.9018 374.466 -28.7991 374.981 -28.5043L353.525 -27.9066L367.975 -22.2586L368.419 -21.7372L368.816 -21.4997C383.314 -10.2183 387.22 3.61765 387.463 8.95934L393.418 14.0347L397.974 13.54C399.406 14.1904 436.604 28.9931 471.798 25.0846L478.283 24.3667L476.199 19.1925C474.442 14.833 458.343 -23.4962 435.237 -25.2906L435.054 -25.2984C408.03 -26.4774 377.449 -28.1427 374.036 -28.9183L374.014 -28.9018Z" fill="url(#paint0_radial_376_30131)"/>
<path d="M478.274 24.5435C478.274 24.5435 454.053 -22.7549 421.813 -23.8419C421.813 -23.8419 363.411 -26.4516 362.368 -27.6866C362.368 -27.6866 392.728 -1.80365 393.215 8.5859C393.215 8.5859 444.105 28.3441 478.274 24.5435Z" fill="url(#paint1_linear_376_30131)"/>
<path d="M262.567 -113.321C239.264 -107.328 198.831 -81.3044 198.112 -58.5122L192.868 -54.2575L216.067 -49.251C229.121 -46.1025 232.187 -43.8009 234.824 -41.3346L249.043 -45.2085L254.08 -44.7149C254.591 -44.662 305.63 -39.562 328.982 -27.1675L329.765 -26.7509L330.689 -26.6306C334.361 -19.3453 434.266 -13.9751 506.355 -27.9941L503.47 -33.5085C502.939 -34.5321 489.966 -58.8882 457.637 -78.5695C427.876 -96.689 343.249 -134.05 262.573 -113.301L262.567 -113.321Z" fill="url(#paint2_radial_376_30131)"/>
<path d="M506.338 -27.6951C474.556 -91.1645 247.458 -170.746 212.366 -55.7839C212.366 -55.7839 246.185 -50.8238 244.476 -44.8177C244.476 -44.8177 307.124 -43.477 331.627 -30.4779C331.627 -30.4779 405.062 -18.7073 506.353 -27.688L506.338 -27.6951Z" fill="url(#paint3_linear_376_30131)"/>
<path d="M59.9931 46.4224C59.9931 46.4224 59.647 46.7308 59.3391 47.2377L78.408 37.3894L68.4944 49.3175L68.358 49.9885L68.1257 50.3882C60.897 67.2699 64.1745 81.268 66.5469 86.0609L63.7917 93.3814L59.5649 95.1505C58.614 96.4152 33.2336 127.348 0.53858 140.939L-5.48485 143.446L-6.16536 137.91C-6.73724 133.245 -11.1986 91.9158 8.15625 79.1764L8.31232 79.0814C31.3944 64.9866 57.3547 48.7468 59.9662 46.4183L59.9931 46.4224Z" fill="url(#paint4_radial_376_30131)"/>
<path d="M-5.32789 143.453C-5.32789 143.453 -7.03575 90.3531 20.6542 73.8221C20.6542 73.8221 70.4919 43.3187 70.8184 41.7308C70.8184 41.7308 56.7822 79.0548 61.3882 88.3827C61.3882 88.3827 26.4181 130.267 -5.32789 143.453Z" fill="url(#paint5_linear_376_30131)"/>
<path d="M155.946 85.3397C161.607 93.6667 174.004 112.367 178.322 114.841C184.49 118.376 189.446 135.498 164.326 160.96L160.576 164.769C160.576 164.769 135.724 155.048 126.551 124.192C124.818 118.361 124.074 136.679 126.708 114.616L119.79 107.397L126.759 112.937C130.659 103.073 127.142 99.1626 126.947 96.2371C126.96 96.3891 132.149 85.6415 132.177 85.7456L155.958 85.3365L155.946 85.3397Z" fill="url(#paint6_linear_376_30131)"/>
<path d="M160.479 160.864C160.479 160.864 127.761 141.146 131.096 118.483C131.096 118.483 143.086 87.8637 142.196 84.4708C142.196 84.4708 166.938 112.553 172.986 116.154C179.025 119.769 178.071 137.176 160.489 160.85L160.479 160.864Z" fill="url(#paint7_linear_376_30131)"/>
<path d="M117.078 -79.8018C140.381 -85.7952 188.352 -82.5083 199.991 -62.8942L206.637 -61.6978L188.732 -46.1199C178.818 -37.0643 177.242 -33.5689 176.123 -30.1366L161.799 -26.6695L157.625 -23.8069C157.203 -23.5141 114.958 5.57774 100.484 27.7006L99.9986 28.4433L99.2476 28.9943C99.5462 37.1472 14.6288 90.0517 -55.2787 112.553L-55.4123 106.331C-55.4409 105.178 -55.8292 77.5851 -37.0068 44.748C-19.67 14.5157 36.4188 -59.0356 117.095 -79.7846L117.078 -79.8018Z" fill="url(#paint8_radial_376_30131)"/>
<path d="M-54.9088 112.532C-53.5742 45.4026 90.2041 -131.901 188.952 -53.8858C188.952 -53.8858 161.732 -33.2273 166.126 -28.793C166.126 -28.793 111.916 2.60473 96.7309 25.8079C96.7309 25.8079 38.107 71.542 -54.9182 112.545L-54.9088 112.532Z" fill="url(#paint9_linear_376_30131)"/>
<path d="M131.545 -5.07387C135.346 -5.43682 113.084 41.4805 141.898 81.6451L142.738 82.8227L148.138 85.67C147.787 88.2399 133.539 147.432 92.1351 179.8L87.6765 183.289L84.594 179.287C83.73 178.171 63.3957 151.398 56.9844 114.876C50.9937 80.7733 48.3608 28.4642 135.593 -20.7961L131.545 -5.07387Z" fill="url(#paint10_radial_376_30131)"/>
<path d="M88.7955 176.821C88.7955 176.821 5.55523 56.3701 134.848 -11.476C134.848 -11.476 110.937 45.3102 141.213 87.4973C141.213 87.4973 129.166 145.283 88.7982 176.831L88.7955 176.821Z" fill="url(#paint11_linear_376_30131)"/>
<path d="M311.97 47.7058C311.09 57.6996 309.388 79.9923 306.831 84.2186C303.162 90.2603 307.201 107.615 341.647 117.899L346.793 119.441C346.793 119.441 363.791 99.0573 356.723 67.6643C355.387 61.7324 364.988 77.4148 351.9 59.3571L354.423 49.733L351.034 57.9124C342.794 51.142 343.959 46.038 342.698 43.384C342.761 43.5234 332.96 36.5956 332.987 36.6997L311.97 47.7058Z" fill="url(#paint12_linear_376_30131)"/>
<path d="M345.054 115.89C345.054 115.89 363.833 83.724 349.82 65.4858C349.82 65.4858 324.455 43.8016 323.568 40.4127C323.568 40.4127 310.277 78.1248 306.781 84.1497C312.251 95.6161 318.114 103.513 345.054 115.89Z" fill="url(#paint13_linear_376_30131)"/>
<path d="M285.959 -41.6153C282.453 -40.1257 324.984 -9.63514 319.481 39.2297L319.324 40.6602L315.995 45.7206C317.564 47.8035 359.106 92.8514 411.25 101.503L416.867 102.437L417.6 97.4677C417.808 96.0799 422.463 62.9714 410.142 27.9482C398.639 -4.75749 375.257 -51.8059 274.694 -53.4554L285.959 -41.6153Z" fill="url(#paint14_radial_376_30131)"/>
<path d="M414.429 98.5271C414.429 98.5271 427.956 -43.5694 284.337 -45.1087C284.337 -45.1087 330.128 -12.1295 322.624 44.1236C322.624 44.1236 363.344 91.7103 414.431 98.5375L414.429 98.5271Z" fill="url(#paint15_linear_376_30131)"/>
<path d="M199.091 -62.9359C261.196 -78.8514 321.14 -47.7133 332.285 4.47107C342.693 53.1603 270.67 184.465 267.742 189.784L264.849 195.039L259.799 191.787C254.73 188.516 129.95 107.657 115.349 60.0755C99.683 9.04955 136.988 -47.01 199.093 -62.9255L199.091 -62.9359Z" fill="url(#paint16_radial_376_30131)"/>
<path d="M125.325 50.7217C113.115 3.78617 146.556 -45.3451 200.008 -59.0187C253.46 -72.6923 306.696 -45.7339 318.906 1.20164C331.116 48.1371 263.078 188.069 263.078 188.069C263.078 188.069 137.535 97.6572 125.325 50.7217Z" fill="url(#paint17_radial_376_30131)"/>
<path d="M121.91 51.6462C109.717 4.74032 144.708 -44.7704 200.051 -58.9407C255.394 -73.1109 310.153 -46.58 322.346 0.325815C334.54 47.2317 262.987 188.004 262.987 188.004C262.987 188.004 134.104 98.552 121.91 51.6462Z" fill="url(#paint18_linear_376_30131)"/>
</g>
</g>
</g>
<defs>
<radialGradient id="paint0_radial_376_30131" cx="0" cy="0" r="1" gradientUnits="userSpaceOnUse" gradientTransform="translate(415.907 -1.75968) rotate(-14.4542) scale(51.0695 43.3954)">
<stop offset="0.02" stop-color="#FAF4B8"/>
<stop offset="0.03" stop-color="#FAE99B"/>
<stop offset="0.04" stop-color="#FBE182"/>
<stop offset="0.05" stop-color="#FBDA6F"/>
<stop offset="0.06" stop-color="#FBD562"/>
<stop offset="0.07" stop-color="#FBD25A"/>
<stop offset="0.09" stop-color="#FCD258"/>
<stop offset="0.66" stop-color="#B17811"/>
<stop offset="0.78" stop-color="#E6BA3B"/>
<stop offset="1" stop-color="#C99E43"/>
</radialGradient>
<linearGradient id="paint1_linear_376_30131" x1="450.147" y1="113.891" x2="380.868" y2="-154.944" gradientUnits="userSpaceOnUse">
<stop stop-color="#C6910C"/>
<stop offset="0.17" stop-color="#B7820B"/>
<stop offset="0.72" stop-color="#8C560A"/>
<stop offset="1" stop-color="#7C460A"/>
</linearGradient>
<radialGradient id="paint2_radial_376_30131" cx="0" cy="0" r="1" gradientUnits="userSpaceOnUse" gradientTransform="translate(344.635 -60.4256) rotate(-14.4232) scale(120.765 102.669)">
<stop offset="0.02" stop-color="#FAF4B8"/>
<stop offset="0.03" stop-color="#FAE99B"/>
<stop offset="0.04" stop-color="#FBE182"/>
<stop offset="0.05" stop-color="#FBDA6F"/>
<stop offset="0.06" stop-color="#FBD562"/>
<stop offset="0.07" stop-color="#FBD25A"/>
<stop offset="0.09" stop-color="#FCD258"/>
<stop offset="0.66" stop-color="#B17811"/>
<stop offset="0.78" stop-color="#E6BA3B"/>
<stop offset="1" stop-color="#C99E43"/>
</radialGradient>
<linearGradient id="paint3_linear_376_30131" x1="494.836" y1="-22.8479" x2="216.618" y2="-149.083" gradientUnits="userSpaceOnUse">
<stop stop-color="#C6910C"/>
<stop offset="0.17" stop-color="#B7820B"/>
<stop offset="0.72" stop-color="#8C560A"/>
<stop offset="1" stop-color="#7C460A"/>
</linearGradient>
<radialGradient id="paint4_radial_376_30131" cx="0" cy="0" r="1" gradientUnits="userSpaceOnUse" gradientTransform="translate(85.8897 281.872) rotate(165.546) scale(51.0696 43.3954)">
<stop offset="0.02" stop-color="#FAF4B8"/>
<stop offset="0.03" stop-color="#FAE99B"/>
<stop offset="0.04" stop-color="#FBE182"/>
<stop offset="0.05" stop-color="#FBDA6F"/>
<stop offset="0.06" stop-color="#FBD562"/>
<stop offset="0.07" stop-color="#FBD25A"/>
<stop offset="0.09" stop-color="#FCD258"/>
<stop offset="0.66" stop-color="#B17811"/>
<stop offset="0.78" stop-color="#E6BA3B"/>
<stop offset="1" stop-color="#C99E43"/>
</radialGradient>
<linearGradient id="paint5_linear_376_30131" x1="62.5711" y1="208.055" x2="-6.70836" y2="-60.7807" gradientUnits="userSpaceOnUse">
<stop stop-color="#C6910C"/>
<stop offset="0.17" stop-color="#B7820B"/>
<stop offset="0.72" stop-color="#8C560A"/>
<stop offset="1" stop-color="#7C460A"/>
</linearGradient>
<linearGradient id="paint6_linear_376_30131" x1="159.707" y1="164.424" x2="148.87" y2="107.106" gradientUnits="userSpaceOnUse">
<stop offset="0.18" stop-color="#FCD258"/>
<stop offset="1" stop-color="#B17811"/>
</linearGradient>
<linearGradient id="paint7_linear_376_30131" x1="169.733" y1="185.128" x2="100.585" y2="-88.1337" gradientUnits="userSpaceOnUse">
<stop stop-color="#C6910C"/>
<stop offset="0.17" stop-color="#B7820B"/>
<stop offset="0.72" stop-color="#8C560A"/>
<stop offset="1" stop-color="#7C460A"/>
</linearGradient>
<radialGradient id="paint8_radial_376_30131" cx="0" cy="0" r="1" gradientUnits="userSpaceOnUse" gradientTransform="translate(70.7025 6.12763) rotate(165.577) scale(120.765 102.669)">
<stop offset="0.2" stop-color="#B17811"/>
<stop offset="0.6" stop-color="#E6BA3B"/>
<stop offset="0.91" stop-color="#FCD258"/>
</radialGradient>
<linearGradient id="paint9_linear_376_30131" x1="-56.878" y1="66.9813" x2="146.265" y2="-70.9352" gradientUnits="userSpaceOnUse">
<stop stop-color="#C6910C"/>
<stop offset="0.17" stop-color="#B7820B"/>
<stop offset="0.72" stop-color="#8C560A"/>
<stop offset="1" stop-color="#7C460A"/>
</linearGradient>
<radialGradient id="paint10_radial_376_30131" cx="0" cy="0" r="1" gradientUnits="userSpaceOnUse" gradientTransform="translate(105.423 82.8157) rotate(165.774) scale(87.7212 73.534)">
<stop offset="0.2" stop-color="#B17811"/>
<stop offset="0.6" stop-color="#E6BA3B"/>
<stop offset="0.91" stop-color="#FCD258"/>
</radialGradient>
<linearGradient id="paint11_linear_376_30131" x1="68.9805" y1="186.459" x2="100.522" y2="-2.19619" gradientUnits="userSpaceOnUse">
<stop stop-color="#C6910C"/>
<stop offset="0.17" stop-color="#B7820B"/>
<stop offset="0.72" stop-color="#8C560A"/>
<stop offset="1" stop-color="#7C460A"/>
</linearGradient>
<linearGradient id="paint12_linear_376_30131" x1="363.443" y1="107.905" x2="329.057" y2="59.8095" gradientUnits="userSpaceOnUse">
<stop offset="0.39" stop-color="#FCD258"/>
<stop offset="1" stop-color="#B17811"/>
</linearGradient>
<linearGradient id="paint13_linear_376_30131" x1="353.754" y1="73.2163" x2="307.113" y2="85.4187" gradientUnits="userSpaceOnUse">
<stop stop-color="#C6910C"/>
<stop offset="0.17" stop-color="#B7820B"/>
<stop offset="0.72" stop-color="#8C560A"/>
<stop offset="1" stop-color="#7C460A"/>
</linearGradient>
<radialGradient id="paint14_radial_376_30131" cx="0" cy="0" r="1" gradientUnits="userSpaceOnUse" gradientTransform="translate(352.002 22.9082) rotate(-14.2263) scale(87.7212 73.534)">
<stop offset="0.02" stop-color="#FAF4B8"/>
<stop offset="0.03" stop-color="#FAE99B"/>
<stop offset="0.04" stop-color="#FBE182"/>
<stop offset="0.05" stop-color="#FBDA6F"/>
<stop offset="0.06" stop-color="#FBD562"/>
<stop offset="0.07" stop-color="#FBD25A"/>
<stop offset="0.09" stop-color="#FCD258"/>
<stop offset="0.66" stop-color="#B17811"/>
<stop offset="0.78" stop-color="#E6BA3B"/>
<stop offset="1" stop-color="#C99E43"/>
</radialGradient>
<linearGradient id="paint15_linear_376_30131" x1="437.041" y1="91.2675" x2="238.874" y2="-141.074" gradientUnits="userSpaceOnUse">
<stop stop-color="#C6910C"/>
<stop offset="0.17" stop-color="#B7820B"/>
<stop offset="0.72" stop-color="#8C560A"/>
<stop offset="1" stop-color="#7C460A"/>
</linearGradient>
<radialGradient id="paint16_radial_376_30131" cx="0" cy="0" r="1" gradientUnits="userSpaceOnUse" gradientTransform="translate(190.345 -85.4548) rotate(165.626) scale(321.627 271.829)">
<stop offset="0.02" stop-color="#FAF4B8"/>
<stop offset="0.03" stop-color="#FAE99B"/>
<stop offset="0.04" stop-color="#FBE182"/>
<stop offset="0.05" stop-color="#FBDA6F"/>
<stop offset="0.06" stop-color="#FBD562"/>
<stop offset="0.07" stop-color="#FBD25A"/>
<stop offset="0.09" stop-color="#FCD258"/>
<stop offset="0.66" stop-color="#B17811"/>
<stop offset="0.78" stop-color="#E6BA3B"/>
<stop offset="1" stop-color="#C99E43"/>
</radialGradient>
<radialGradient id="paint17_radial_376_30131" cx="0" cy="0" r="1" gradientUnits="userSpaceOnUse" gradientTransform="translate(257.658 184.759) rotate(165.651) scale(333.507 281.475)">
<stop stop-color="#6D3602"/>
<stop offset="0.29" stop-color="#632F01"/>
<stop offset="0.79" stop-color="#481D00"/>
<stop offset="1" stop-color="#3B1400"/>
</radialGradient>
<linearGradient id="paint18_linear_376_30131" x1="262.522" y1="181.37" x2="202.048" y2="-54.8136" gradientUnits="userSpaceOnUse">
<stop stop-color="#C6910C"/>
<stop offset="0.17" stop-color="#B7820B"/>
<stop offset="0.72" stop-color="#8C560A"/>
<stop offset="1" stop-color="#7C460A"/>
</linearGradient>
</defs>
</svg>
