<svg width="961" height="357" viewBox="0 0 961 357" fill="none" xmlns="http://www.w3.org/2000/svg">
<path d="M0.191406 6.02009C8.25363 3.60033 16.7766 2.29444 25.3379 1.41104C33.9376 0.527632 42.6525 0.258765 51.329 0.566037C60.0438 0.873308 68.7587 1.67989 77.3968 3.0242C86.0349 4.33011 94.5195 6.32734 102.889 8.63187C111.22 11.0132 119.359 13.8555 127.344 17.0434C131.222 18.7334 135.253 20.3082 139.054 22.1902L144.812 24.9557C146.694 25.9159 148.536 26.9145 150.379 27.9132C157.827 31.8693 164.853 36.3247 171.802 40.8569C175.142 43.2383 178.559 45.5428 181.86 48.001L191.343 55.3755C194.414 57.7569 197.524 60.3303 200.557 62.558C203.59 64.8241 206.546 67.0903 209.733 69.2796C215.914 73.7734 222.363 77.96 228.852 82.0313C235.416 85.949 242.058 89.7899 248.969 93.0931C255.802 96.4731 262.79 99.5073 269.93 102.004C284.174 107.074 298.993 109.839 313.428 109.724C320.684 109.647 327.825 108.841 334.927 107.304C342.03 105.806 349.055 103.579 356.35 100.928L372.973 94.9367L378.771 110.147L379.769 112.72L380.997 115.639C381.88 117.598 382.84 119.557 383.838 121.516C385.873 125.395 388.138 129.236 390.595 132.923C395.548 140.298 401.306 147.25 407.871 153.395C414.436 159.502 421.846 164.764 429.946 168.874C438.047 172.984 446.762 176.056 456.014 177.785C460.621 178.668 465.382 179.206 470.181 179.513C474.98 179.82 479.894 179.782 484.846 179.513C489.799 179.321 494.79 178.745 499.781 178.054C504.772 177.285 509.801 176.402 514.792 175.211C519.783 174.097 524.735 172.715 529.726 171.255C534.679 169.719 539.593 168.067 544.469 166.3C549.344 164.534 554.22 162.613 559.019 160.616L566.198 157.505L573.339 154.24L592.419 145.521L598.831 162.652L599.138 163.458L599.599 164.61C599.944 165.379 600.29 166.185 600.674 166.992C601.442 168.605 602.286 170.257 603.169 171.87C604.935 175.134 606.932 178.361 609.081 181.549C613.343 187.925 618.295 194.032 623.747 199.793C629.237 205.554 635.303 210.97 641.791 216.04C648.279 221.11 655.266 225.757 662.676 229.982C670.086 234.207 677.879 237.971 686.018 241.351C694.119 244.731 702.565 247.651 711.241 250.147C728.594 255.102 746.869 258.443 765.527 260.325C767.869 260.594 770.211 260.748 772.553 260.978L779.962 261.631C784.838 262.092 789.599 262.438 794.743 263.129C799.811 263.744 804.917 264.32 809.831 265.165L817.279 266.356L824.65 267.777C834.517 269.659 844.191 272.117 853.789 274.844C863.272 277.763 872.639 281.028 881.623 284.869C890.607 288.748 899.283 293.05 907.461 297.928C915.638 302.806 923.24 308.375 930.112 314.367C936.984 320.397 943.203 326.927 948.348 333.955C953.377 341.023 957.792 348.436 960.095 356.309C956.218 348.896 950.766 342.213 944.7 336.068C938.519 329.961 931.801 324.315 924.468 319.322C917.135 314.29 909.188 309.95 901.011 306.071C892.795 302.191 884.234 298.85 875.48 295.969C866.689 293.127 857.628 290.861 848.491 288.863C839.316 286.981 830.102 285.33 820.696 284.254L813.67 283.409L806.606 282.756C801.884 282.257 797.238 282.026 792.593 281.719C788.063 281.374 782.995 281.297 778.158 281.143L770.94 280.951C768.406 280.874 765.873 280.797 763.339 280.682C743.03 279.684 722.567 277.225 702.642 272.424C692.66 270.043 682.832 267.162 673.272 263.667C663.674 260.21 654.383 256.1 645.477 251.453C636.57 246.806 628.047 241.582 620.023 235.859C612.038 230.098 604.628 223.799 597.833 217.077C591.037 210.355 584.856 203.173 579.405 195.568C576.679 191.766 574.184 187.848 571.842 183.815C570.69 181.779 569.577 179.744 568.54 177.593C568.002 176.517 567.503 175.442 567.004 174.328L566.275 172.638L565.891 171.716L565.469 170.564L590.961 178.975L583.206 182.663L575.297 186.235C569.999 188.539 564.586 190.767 559.057 192.879C553.529 194.953 547.885 196.874 542.165 198.679C536.368 200.408 530.532 202.059 524.543 203.48C518.554 204.901 512.412 206.054 506.192 207.052C499.934 207.936 493.6 208.704 487.112 208.973C480.662 209.242 474.135 209.318 467.532 208.819C460.967 208.397 454.402 207.552 447.875 206.284C434.899 203.749 422.307 199.371 411.096 193.456C399.886 187.541 390.058 180.166 381.688 172.1C373.357 163.996 366.332 155.239 360.65 146.021C357.77 141.411 355.236 136.726 352.933 131.924C351.781 129.543 350.706 127.085 349.708 124.627L348.249 120.863L347.558 118.904L346.867 116.676L369.288 125.856C360.918 128.698 351.858 131.31 342.337 133C332.854 134.728 322.949 135.535 313.159 135.304C303.37 135.074 293.656 133.845 284.404 131.771C275.152 129.697 266.322 126.855 257.991 123.513C249.66 120.133 241.751 116.292 234.226 112.144C226.663 107.996 219.676 103.387 212.804 98.7392C209.464 96.3194 206.047 93.9765 202.822 91.4799L197.946 87.7926L193.224 83.9902C190.076 81.4936 187.043 78.805 183.972 76.1547C180.862 73.5045 178.175 70.9312 175.257 68.3194L166.811 60.7143L158.211 53.4935C152.26 48.8844 146.194 44.3138 139.745 40.1656C133.372 35.9022 126.615 32.0998 119.743 28.4125C112.755 24.8789 105.538 21.5757 98.0899 18.7334C90.6035 15.8912 82.8484 13.5098 74.9781 11.3973C67.0695 9.32324 58.9689 7.67168 50.7147 6.55782C42.4605 5.44396 34.0912 4.82942 25.645 4.63737C17.1989 4.52215 8.71433 4.82938 0.306584 6.09687L0.191406 6.02009Z" fill="url(#paint0_radial_376_29737)"/>
<defs>
<radialGradient id="paint0_radial_376_29737" cx="0" cy="0" r="1" gradientUnits="userSpaceOnUse" gradientTransform="translate(486.574 173.496) scale(382.725 313.977)">
<stop offset="0.02" stop-color="#FAF4B8"/>
<stop offset="0.27" stop-color="#FCD258"/>
<stop offset="0.66" stop-color="#B17811"/>
<stop offset="0.78" stop-color="#E6BA3B"/>
<stop offset="1" stop-color="#C99E43"/>
</radialGradient>
</defs>
</svg>
