<svg width="960" height="357" viewBox="0 0 960 357" fill="none" xmlns="http://www.w3.org/2000/svg">
<path d="M0.0957031 356.309C2.47598 348.474 6.92946 341.061 12.0355 334.07C17.2184 327.08 23.4378 320.589 30.3483 314.597C37.2587 308.605 44.8987 303.19 53.0377 298.273C61.1767 293.357 69.8915 289.132 78.8751 285.329C87.8587 281.527 97.2263 278.339 106.709 275.458C116.23 272.731 125.905 270.235 135.771 268.43L143.143 267.008L150.552 265.818C155.505 264.973 160.496 264.397 165.448 263.782C170.439 263.091 175.43 262.745 180.421 262.284L187.715 261.67C190.134 261.478 192.629 261.285 194.856 261.017C204.032 260.133 213.438 258.789 222.498 257.137C231.635 255.486 240.58 253.45 249.295 250.953C258.01 248.457 266.495 245.538 274.672 242.158C282.849 238.816 290.72 235.014 298.168 230.75C313.064 222.262 326.309 211.968 337.327 200.369C342.817 194.569 347.77 188.385 352.069 181.971C354.219 178.783 356.177 175.518 357.943 172.215C358.826 170.564 359.671 168.912 360.439 167.299C360.823 166.492 361.168 165.686 361.514 164.879L361.975 163.727L362.282 162.882L368.232 146.712L386.43 154.893L393.609 158.119L400.827 161.192C405.664 163.189 410.54 165.071 415.454 166.838C420.368 168.605 425.321 170.18 430.311 171.677C435.302 173.099 440.293 174.481 445.284 175.557C450.313 176.709 455.343 177.592 460.334 178.322C465.363 178.975 470.354 179.513 475.306 179.667C480.259 179.82 485.173 179.897 489.972 179.551C494.771 179.206 499.531 178.63 504.138 177.708C513.391 175.902 522.067 172.83 530.091 168.643C538.115 164.495 545.448 159.195 551.936 153.088C558.424 146.942 564.106 140.029 568.905 132.616C571.324 128.928 573.55 125.087 575.547 121.208C576.545 119.249 577.466 117.291 578.311 115.37L579.539 112.451L580.499 109.916L586.488 93.8227L604.187 100.199C611.481 102.81 618.43 104.961 625.494 106.421C632.52 107.919 639.584 108.687 646.725 108.764C661.006 108.841 675.595 106.037 689.723 101.044C696.787 98.5469 703.698 95.5127 710.531 92.2095C717.403 88.9447 723.969 85.1038 730.533 81.1861C733.758 79.1504 737.022 77.1916 740.17 75.0023L744.93 71.8143L749.614 68.5111C755.872 64.1325 761.938 59.4851 767.888 54.7224L772.687 50.9967L777.371 47.4247C780.634 45.0049 784.205 42.5467 787.622 40.127C794.571 35.5563 801.635 31.1009 809.159 27.1448C816.569 23.0734 824.401 19.5398 832.309 16.2366C840.372 13.0871 848.549 10.2833 856.957 7.94033C865.365 5.6358 873.926 3.79216 882.602 2.40944C891.279 1.02672 900.032 0.335357 908.785 0.0664942C917.539 -0.12555 926.254 0.0664731 934.853 1.0651C943.415 2.06374 951.976 3.40809 960 5.90466C951.554 4.7524 943.069 4.48351 934.623 4.67555C926.177 4.94441 917.846 5.55897 909.63 6.78805C901.414 7.94032 893.352 9.70714 885.482 11.7812C877.611 13.8553 869.933 16.3519 862.485 19.1941C855.076 22.1132 847.935 25.4164 841.024 28.9884C834.191 32.6757 827.434 36.4013 821.099 40.7031C814.726 44.8513 808.66 49.3835 802.748 53.9926C799.945 56.3739 797.181 58.6401 794.34 61.0983L785.894 68.78C780.058 74.1573 774.108 79.4577 767.812 84.5661C761.631 89.7513 754.989 94.6292 748.232 99.3919C741.321 104.078 734.296 108.687 726.694 112.873C719.131 117.06 711.184 120.901 702.776 124.319C694.369 127.699 685.462 130.542 676.133 132.654C666.803 134.69 656.975 135.919 647.07 136.149C637.165 136.341 627.183 135.535 617.624 133.768C608.026 132.04 598.966 129.312 590.558 126.47L614.245 116.753L613.516 119.019L612.825 120.978L611.366 124.742C610.368 127.238 609.254 129.658 608.103 132.078C605.761 136.879 603.189 141.603 600.271 146.174C594.435 155.354 587.371 164.149 578.964 172.254C570.517 180.32 560.612 187.656 549.325 193.532C538.038 199.37 525.407 203.749 512.393 206.207C505.904 207.436 499.301 208.243 492.736 208.627C486.171 209.049 479.645 209.011 473.195 208.627C466.745 208.32 460.41 207.513 454.191 206.591C447.972 205.593 441.867 204.402 435.917 202.942C429.928 201.521 424.092 199.87 418.333 198.103C412.613 196.298 407.008 194.3 401.518 192.188C396.028 190.075 390.653 187.809 385.355 185.466L377.523 181.856L369.806 178.13L393.955 170.18L393.532 171.293L393.148 172.177L392.419 173.867C391.92 174.981 391.421 176.056 390.883 177.093C389.847 179.206 388.733 181.241 387.582 183.239C385.278 187.272 382.706 191.112 379.98 194.915C374.529 202.443 368.386 209.587 361.591 216.27C348.077 229.675 331.914 241.198 314.139 250.416C305.27 255.025 296.018 259.096 286.497 262.591C276.976 266.087 267.186 268.967 257.242 271.349C247.337 273.73 237.279 275.574 227.182 276.956C217.046 278.339 207.026 279.222 196.737 279.722C194.127 279.875 191.708 279.952 189.251 280.029L181.918 280.26C177.158 280.413 172.397 280.49 167.675 280.874C162.953 281.143 158.192 281.412 153.47 281.911L146.406 282.564L139.38 283.447C129.974 284.6 120.722 286.213 111.508 288.095C102.371 290.131 93.3104 292.435 84.4804 295.354C75.6887 298.273 67.1658 301.692 58.9116 305.571C50.6574 309.45 42.7871 313.906 35.4543 318.976C28.1599 324.046 21.403 329.692 15.2987 335.837C9.30964 342.059 3.89647 348.743 0.0957031 356.194V356.309Z" fill="url(#paint0_radial_376_29738)"/>
<defs>
<radialGradient id="paint0_radial_376_29738" cx="0" cy="0" r="1" gradientUnits="userSpaceOnUse" gradientTransform="translate(475.153 173.496) scale(382.725 313.977)">
<stop offset="0.02" stop-color="#FAF4B8"/>
<stop offset="0.27" stop-color="#FCD258"/>
<stop offset="0.66" stop-color="#B17811"/>
<stop offset="0.78" stop-color="#E6BA3B"/>
<stop offset="1" stop-color="#C99E43"/>
</radialGradient>
</defs>
</svg>
