<svg fill="none" height="134" viewBox="0 0 298 134" width="298" xmlns="http://www.w3.org/2000/svg" xmlns:xlink="http://www.w3.org/1999/xlink"><linearGradient id="a"><stop offset="0" stop-color="#c09440"/><stop offset=".5" stop-color="#f5e283"/><stop offset=".89" stop-color="#d3b058"/></linearGradient><linearGradient id="b" gradientUnits="userSpaceOnUse" x1="204.208" x2="83.0928" xlink:href="#a" y1="85.8274" y2="85.8274"/><linearGradient id="c" gradientUnits="userSpaceOnUse" x1="298.009" x2="0" xlink:href="#a" y1="89.0032" y2="89.0032"/><linearGradient id="d" gradientUnits="userSpaceOnUse" x1="244.5" x2="53.5" xlink:href="#a" y1="88.9944" y2="88.9944"/><linearGradient id="e" gradientUnits="userSpaceOnUse" x1="256.263" x2="41.7373" xlink:href="#a" y1="88.9944" y2="88.9944"/><linearGradient id="f" gradientUnits="userSpaceOnUse" x1="202.076" x2="206.09" xlink:href="#a" y1="60.5796" y2="66.0441"/><linearGradient id="g" gradientUnits="userSpaceOnUse" x1="202.587" x2="209.289" xlink:href="#a" y1="61.2284" y2="70.3505"/><linearGradient id="h" gradientUnits="userSpaceOnUse" x1="203.268" x2="211.904" xlink:href="#a" y1="62.0909" y2="73.8465"/><linearGradient id="i" gradientUnits="userSpaceOnUse" x1="204.077" x2="196.64" xlink:href="#a" y1="63.4013" y2="53.277"/><linearGradient id="j" gradientUnits="userSpaceOnUse" x1="204.114" x2="199.858" xlink:href="#a" y1="63.3746" y2="57.5809"/><linearGradient id="k" gradientUnits="userSpaceOnUse" x1="204.18" x2="194.523" xlink:href="#a" y1="63.3261" y2="50.1805"/><linearGradient id="l" gradientUnits="userSpaceOnUse" x1="192.452" x2="213.292" xlink:href="#a" y1="47.3984" y2="75.767"/><linearGradient id="m" gradientUnits="userSpaceOnUse" x1="186.44" x2="192.707" xlink:href="#a" y1="51.6897" y2="56.2572"/><linearGradient id="n" gradientUnits="userSpaceOnUse" x1="187.242" x2="197.83" xlink:href="#a" y1="52.2393" y2="59.9569"/><linearGradient id="o" gradientUnits="userSpaceOnUse" x1="188.305" x2="201.989" xlink:href="#a" y1="52.9564" y2="62.931"/><linearGradient id="p" gradientUnits="userSpaceOnUse" x1="189.47" x2="177.745" xlink:href="#a" y1="54.0138" y2="45.4672"/><linearGradient id="q" gradientUnits="userSpaceOnUse" x1="189.497" x2="182.863" xlink:href="#a" y1="53.9769" y2="49.142"/><linearGradient id="r" gradientUnits="userSpaceOnUse" x1="189.558" x2="174.274" xlink:href="#a" y1="53.9091" y2="42.7685"/><linearGradient id="s" gradientUnits="userSpaceOnUse" x1="170.948" x2="204.201" xlink:href="#a" y1="40.3421" y2="64.5808"/><linearGradient id="t" gradientUnits="userSpaceOnUse" x1="166.797" x2="173.705" xlink:href="#a" y1="44.398" y2="46.4359"/><linearGradient id="u" gradientUnits="userSpaceOnUse" x1="167.679" x2="180.981" xlink:href="#a" y1="44.648" y2="48.5721"/><linearGradient id="v" gradientUnits="userSpaceOnUse" x1="167.686" x2="186.677" xlink:href="#a" y1="44.622" y2="50.2243"/><linearGradient id="w" gradientUnits="userSpaceOnUse" x1="168.042" x2="153.816" xlink:href="#a" y1="44.8321" y2="40.6356"/><linearGradient id="x" gradientUnits="userSpaceOnUse" x1="168.052" x2="160.804" xlink:href="#a" y1="44.7968" y2="42.6587"/><linearGradient id="y" gradientUnits="userSpaceOnUse" x1="168.091" x2="148.952" xlink:href="#a" y1="44.6669" y2="39.0209"/><linearGradient id="z" gradientUnits="userSpaceOnUse" x1="144.513" x2="189.698" xlink:href="#a" y1="37.7624" y2="51.0922"/><linearGradient id="A" gradientUnits="userSpaceOnUse" x1="86.3554" x2="82.3411" xlink:href="#a" y1="60.5669" y2="66.0314"/><linearGradient id="B" gradientUnits="userSpaceOnUse" x1="85.8461" x2="79.1502" xlink:href="#a" y1="61.2285" y2="70.3433"/><linearGradient id="C" gradientUnits="userSpaceOnUse" x1="85.1633" x2="76.5275" xlink:href="#a" y1="62.0785" y2="73.8342"/><linearGradient id="D" gradientUnits="userSpaceOnUse" x1="84.3539" x2="91.7913" xlink:href="#a" y1="63.3886" y2="53.2643"/><linearGradient id="E" gradientUnits="userSpaceOnUse" x1="84.3174" x2="88.5681" xlink:href="#a" y1="63.3618" y2="57.5754"/><linearGradient id="F" gradientUnits="userSpaceOnUse" x1="84.2515" x2="93.9084" xlink:href="#a" y1="63.3137" y2="50.1681"/><linearGradient id="G" gradientUnits="userSpaceOnUse" x1="95.9865" x2="75.1466" xlink:href="#a" y1="47.3909" y2="75.7595"/><linearGradient id="H" gradientUnits="userSpaceOnUse" x1="102.049" x2="95.7752" xlink:href="#a" y1="51.6495" y2="56.2224"/><linearGradient id="I" gradientUnits="userSpaceOnUse" x1="101.24" x2="90.6519" xlink:href="#a" y1="52.2048" y2="59.9225"/><linearGradient id="J" gradientUnits="userSpaceOnUse" x1="100.185" x2="86.493" xlink:href="#a" y1="52.9159" y2="62.8959"/><linearGradient id="K" gradientUnits="userSpaceOnUse" x1="99.0114" x2="110.737" xlink:href="#a" y1="53.978" y2="45.4313"/><linearGradient id="L" gradientUnits="userSpaceOnUse" x1="98.9853" x2="105.626" xlink:href="#a" y1="53.9417" y2="49.1015"/><linearGradient id="M" gradientUnits="userSpaceOnUse" x1="98.9238" x2="114.208" xlink:href="#a" y1="53.8733" y2="42.7327"/><linearGradient id="N" gradientUnits="userSpaceOnUse" x1="117.534" x2="84.2805" xlink:href="#a" y1="40.3069" y2="64.5456"/><linearGradient id="O" gradientUnits="userSpaceOnUse" x1="121.654" x2="114.746" xlink:href="#a" y1="44.3872" y2="46.4251"/><linearGradient id="P" gradientUnits="userSpaceOnUse" x1="120.769" x2="107.467" xlink:href="#a" y1="44.6283" y2="48.5525"/><linearGradient id="Q" gradientUnits="userSpaceOnUse" x1="120.761" x2="101.77" xlink:href="#a" y1="44.6023" y2="50.2045"/><linearGradient id="R" gradientUnits="userSpaceOnUse" x1="120.406" x2="134.631" xlink:href="#a" y1="44.8126" y2="40.6161"/><linearGradient id="S" gradientUnits="userSpaceOnUse" x1="120.396" x2="127.644" xlink:href="#a" y1="44.7773" y2="42.6391"/><linearGradient id="T" gradientUnits="userSpaceOnUse" x1="120.357" x2="139.505" xlink:href="#a" y1="44.6469" y2="38.9983"/><linearGradient id="U" gradientUnits="userSpaceOnUse" x1="143.935" x2="98.7588" xlink:href="#a" y1="37.7426" y2="51.0698"/><linearGradient id="V" gradientUnits="userSpaceOnUse" x1="141.552" x2="149.954" xlink:href="#a" y1="43.182" y2="43.182"/><linearGradient id="W" gradientUnits="userSpaceOnUse" x1="141.552" x2="158.083" xlink:href="#a" y1="43.1908" y2="43.1908"/><linearGradient id="X" gradientUnits="userSpaceOnUse" x1="141.552" x2="164.233" xlink:href="#a" y1="43.1908" y2="43.1908"/><linearGradient id="Y" gradientUnits="userSpaceOnUse" x1="143.323" x2="128.844" xlink:href="#a" y1="43.1907" y2="43.1907"/><linearGradient id="Z" gradientUnits="userSpaceOnUse" x1="144.831" x2="136.283" xlink:href="#a" y1="43.1816" y2="43.1816"/><linearGradient id="aa" gradientUnits="userSpaceOnUse" x1="141.979" x2="123.477" xlink:href="#a" y1="42.9822" y2="42.9822"/><linearGradient id="ab" gradientUnits="userSpaceOnUse" x1="118.817" x2="167.466" xlink:href="#a" y1="43.1181" y2="43.1181"/><linearGradient id="ac" gradientUnits="userSpaceOnUse" x1="59.9647" x2="115.771" xlink:href="#a" y1="70.3973" y2="85.7955"/><linearGradient id="ad" gradientUnits="userSpaceOnUse" x1="59.2481" x2="115.089" xlink:href="#a" y1="72.5533" y2="87.9612"/><linearGradient id="ae" gradientUnits="userSpaceOnUse" x1="59.9204" x2="115.385" xlink:href="#a" y1="68.578" y2="83.882"/><linearGradient id="af" gradientUnits="userSpaceOnUse" x1="58.7801" x2="114.411" xlink:href="#a" y1="74.2122" y2="89.5621"/><linearGradient id="ag" gradientUnits="userSpaceOnUse" x1="58.9257" x2="116.098" xlink:href="#a" y1="69.7254" y2="85.5004"/><linearGradient id="ah" gradientUnits="userSpaceOnUse" x1="79.4502" x2="137.346" xlink:href="#a" y1="88.2325" y2="88.2325"/><linearGradient id="ai" gradientUnits="userSpaceOnUse" x1="79.3232" x2="137.246" xlink:href="#a" y1="90.5369" y2="90.5369"/><linearGradient id="aj" gradientUnits="userSpaceOnUse" x1="78.8779" x2="136.474" xlink:href="#a" y1="86.4989" y2="86.4989"/><linearGradient id="ak" gradientUnits="userSpaceOnUse" x1="79.3232" x2="137.056" xlink:href="#a" y1="92.2706" y2="92.2706"/><linearGradient id="al" gradientUnits="userSpaceOnUse" x1="78.2604" x2="137.601" xlink:href="#a" y1="87.8967" y2="87.8967"/><linearGradient id="am" gradientUnits="userSpaceOnUse" x1="231.566" x2="175.759" xlink:href="#a" y1="70.3682" y2="85.7664"/><linearGradient id="an" gradientUnits="userSpaceOnUse" x1="232.283" x2="176.441" xlink:href="#a" y1="72.5232" y2="87.9311"/><linearGradient id="ao" gradientUnits="userSpaceOnUse" x1="231.61" x2="176.145" xlink:href="#a" y1="68.5484" y2="83.8523"/><linearGradient id="ap" gradientUnits="userSpaceOnUse" x1="232.747" x2="177.116" xlink:href="#a" y1="74.1741" y2="89.5239"/><linearGradient id="aq" gradientUnits="userSpaceOnUse" x1="232.605" x2="175.433" xlink:href="#a" y1="69.6957" y2="85.4708"/><linearGradient id="ar" gradientUnits="userSpaceOnUse" x1="212.091" x2="154.195" xlink:href="#a" y1="88.2326" y2="88.2326"/><linearGradient id="as" gradientUnits="userSpaceOnUse" x1="212.219" x2="154.296" xlink:href="#a" y1="90.5372" y2="90.5372"/><linearGradient id="at" gradientUnits="userSpaceOnUse" x1="212.664" x2="155.067" xlink:href="#a" y1="86.4999" y2="86.4999"/><linearGradient id="au" gradientUnits="userSpaceOnUse" x1="212.219" x2="154.486" xlink:href="#a" y1="92.2703" y2="92.2703"/><linearGradient id="av" gradientUnits="userSpaceOnUse" x1="213.273" x2="153.941" xlink:href="#a" y1="87.8969" y2="87.8969"/><linearGradient id="aw" gradientUnits="userSpaceOnUse" x1="145.184" x2="139.062" xlink:href="#a" y1="100.419" y2="100.419"/><linearGradient id="ax" gradientUnits="userSpaceOnUse" x1="145.184" x2="133.149" xlink:href="#a" y1="100.419" y2="100.419"/><linearGradient id="ay" gradientUnits="userSpaceOnUse" x1="145.185" x2="128.662" xlink:href="#a" y1="100.418" y2="100.418"/><linearGradient id="az" gradientUnits="userSpaceOnUse" x1="143.94" x2="154.467" xlink:href="#a" y1="100.418" y2="100.418"/><linearGradient id="aA" gradientUnits="userSpaceOnUse" x1="142.832" x2="149.054" xlink:href="#a" y1="100.418" y2="100.418"/><linearGradient id="aB" gradientUnits="userSpaceOnUse" x1="144.921" x2="158.382" xlink:href="#a" y1="100.527" y2="100.527"/><linearGradient id="aC" gradientUnits="userSpaceOnUse" x1="161.78" x2="126.328" xlink:href="#a" y1="100.445" y2="100.445"/><clipPath id="aD"><path d="m0 0h298v134h-298z"/></clipPath><g clip-path="url(#aD)" opacity=".6"><path d="m143.65 104.111c-33.39 0-60.5572-8.2028-60.5572-18.2836 0-10.0809 27.1672-18.2835 60.5572-18.2835s60.558 8.2026 60.558 18.2835c0 10.0808-27.168 18.2836-60.558 18.2836zm0-36.1224c-33.144 0-60.1031 8.0029-60.1031 17.8388s26.9681 17.8386 60.1031 17.8386 60.103-8.0027 60.103-17.8386-26.968-17.8388-60.103-17.8388z" fill="url(#b)"/><path d="m149 134c-82.1571 0-149-20.189-149-44.9968 0-24.8074 66.8429-44.9964 149-44.9964 82.157 0 149 20.189 149 44.9964 0 24.8078-66.843 44.9968-149 44.9968zm0-88.8771c-81.5485-.0091-147.89186 19.6808-147.89186 43.8803 0 24.1998 66.34336 43.8798 147.88286 43.8798 81.539 0 147.892-19.689 147.892-43.8798 0-24.1904-66.344-43.8803-147.892-43.8803z" fill="url(#c)"/><path d="m149 117.749c-52.6548 0-95.5-12.894-95.5-28.7455 0-15.8517 42.8452-28.7545 95.5-28.7545 52.655 0 95.5 12.8937 95.5 28.7545 0 15.8605-42.845 28.7455-95.5 28.7455zm0-57.0463c-52.4005 0-95.0368 12.6941-95.0368 28.2917s42.6363 28.2916 95.0368 28.2916c52.401 0 95.046-12.694 95.046-28.2916s-42.636-28.2917-95.046-28.2917z" fill="url(#d)"/><path d="m149 121.288c-59.1402 0-107.2627-14.491-107.2627-32.2936s48.1134-32.2932 107.2627-32.2932c59.15 0 107.263 14.4906 107.263 32.2932s-48.113 32.2936-107.263 32.2936zm0-64.0696c-58.8586 0-106.745 14.2547-106.745 31.776 0 17.5216 47.8864 31.7756 106.745 31.7756 58.859 0 106.745-14.254 106.745-31.7756 0-17.5213-47.886-31.776-106.745-31.776z" fill="url(#e)"/><path d="m234.127 41.158s-46.497-4.0559-63.655 28.4279c-.554 1.0616-1.299 2.9943-1.308 4.9179-.027 4.6094 3.37 13.4381 14.579 13.3927 1.108 0 4.496-.3085 5.958-.5807 4.006-.744 40.166-12.8574 44.426-46.1578z" fill="#1c3232"/><path d="m234.126 41.1582-62.028 41.6119s37.613-12.4854 62.028-41.6119z" fill="#1c3232"/><path d="m172.098 82.9155c-.064 0-.118-.0272-.146-.0726-.045-.0635-.027-.1361.046-.1815l62.029-41.6118c.063-.0454.154-.0454.218.009.063.0454.063.1271.018.1815-24.17 28.8271-61.729 41.5393-62.111 41.6663-.018 0-.045.0091-.063.0091zm61.193-41.013-60.14 40.3415c6.377-2.3319 38.386-14.9443 60.14-40.3415z" fill="url(#f)"/><path d="m172.625 83.5504c-.091 0-.164-.0635-.173-.1452 0-.0726.073-.1361.173-.1452 20.5-.127 36.087-11.5871 45.552-21.1689 10.264-10.3984 15.741-20.8876 15.795-20.9964.037-.0726.137-.0998.218-.0726.082.0363.127.1179.091.1905-.054.1089-5.55 10.6344-15.841 21.06-9.51 9.6363-25.178 21.1417-45.815 21.2778z" fill="url(#g)"/><path d="m180.663 84.8746c-2.407 0-4.859-.1633-7.348-.4899-.091-.0091-.154-.0817-.136-.1634.009-.0725.082-.1179.163-.1179h.028c23.198 3.0124 38.421-8.8287 47.123-19.2906 9.437-11.3512 13.434-23.5735 13.479-23.6914.019-.0726.118-.118.209-.0998.091.0181.146.0998.118.1724-.036.1179-4.051 12.3946-13.524 23.7821-5.568 6.6963-11.908 11.7867-18.839 15.1258-6.576 3.1667-13.706 4.7637-21.264 4.7637z" fill="url(#h)"/><path d="m171.38 82.0892s-.027 0-.045 0c-.091-.0181-.145-.0998-.118-.1724 4.887-16.6139 21.727-26.849 34.997-32.511 14.361-6.1247 27.749-8.3659 27.886-8.3931h.027c.082 0 .154.0454.163.118.019.0725-.045.1451-.136.1633-.136.0181-13.479 2.2502-27.803 8.3659-13.198 5.6348-29.966 15.8154-34.816 32.3204-.018.0635-.091.1089-.164.1089z" fill="url(#i)"/><path d="m172.098 82.915s-.055 0-.082-.0181c-.082-.0363-.109-.127-.063-.1906 15.732-23.773 61.647-41.4939 62.11-41.6753.091-.0182.182 0 .218.0725.036.0726 0 .1543-.091.1906-.463.1724-46.278 17.857-61.956 41.5483-.027.0454-.091.0726-.145.0726z" fill="url(#j)"/><path d="m170.735 80.7826s-.018 0-.036 0c-.091-.0181-.154-.0907-.127-.1724 2.143-8.992 6.821-16.6774 13.906-22.8294 5.659-4.9179 12.862-8.8831 21.409-11.7594 14.542-4.9089 28.112-5.0087 28.249-5.0087.091 0 .172.0635.172.1452 0 .0816-.072.1452-.172.1452-.137 0-13.652.0998-28.131 4.9905-13.343 4.5096-30.274 14.1368-35.097 34.3801-.018.0635-.091.118-.164.118z" fill="url(#k)"/><path d="m183.643 88.1779c-4.015 0-7.366-1.107-9.955-3.3028-3.615-3.0578-4.878-7.4949-4.86-10.3712.018-1.8601.709-3.82 1.345-5.0359 17.058-32.3023 63.536-28.6365 64-28.6002l.336.0272-.037.2904c-2.243 17.5394-13.434 28.9722-22.426 35.478-9.655 6.9777-19.692 10.4529-22.263 10.9338-1.453.2722-4.841.5807-6.031.5807h-.1zm45.852-46.8746c-12.144 0-45.025 2.4953-58.705 28.4006-.617 1.1614-1.271 3.0306-1.29 4.8091-.018 2.7674 1.199 7.0321 4.669 9.9629 2.462 2.0778 5.65 3.1394 9.483 3.1394h.1c1.144 0 4.496-.3085 5.895-.5716 1.553-.2904 11.617-3.33 21.963-10.8067 8.847-6.397 19.847-17.6211 22.163-34.8157-.636-.0363-2.126-.118-4.269-.118z" fill="url(#l)"/><path d="m212.801 21.6494s-51.12 9.1916-56.615 48.771c-.182 1.2885-.209 3.575.536 5.6166 1.78 4.9179 8.874 13.3292 20.791 10.0264 1.181-.3266 4.669-1.6332 6.122-2.3501 3.969-1.9508 37.722-25.3609 29.157-62.0639z" fill="#1c3232"/><path d="m212.801 21.6494-49.703 62.3361s35.151-24.2267 49.703-62.3361z" fill="#1c3232"/><path d="m163.098 84.14s-.091-.0091-.127-.0454c-.064-.0544-.082-.1361-.028-.2087l49.703-62.327c.046-.0635.155-.0817.237-.0545.081.0363.127.118.09.1906-14.405 37.7192-49.403 62.1728-49.757 62.4178-.036.0181-.082.0363-.118.0363zm49.103-61.456-48.168 60.4216c5.886-4.3463 34.998-27.0758 48.168-60.4216z" fill="url(#m)"/><path d="m163.915 84.6754c-.081 0-.154-.0454-.172-.1089-.037-.0817.018-.1724.118-.1996 21.781-6.0975 33.88-22.8203 40.193-35.7775 6.839-14.0551 8.547-26.8309 8.565-26.9579.009-.0817.091-.1452.191-.1452h.018c.109.0091.182.0908.173.1724-.018.1271-1.726 12.9482-8.593 27.0396-6.34 13.0207-18.502 29.8251-40.42 35.9589-.018 0-.045.0091-.064.0091z" fill="url(#n)"/><path d="m165.006 85.3566c-.091 0-.173-.0544-.182-.1361-.018-.0817.055-.1724.154-.1815 25.878-3.5206 37.45-20.5609 42.61-34.2349 5.586-14.8355 5.041-29.0086 5.032-29.1538 0-.0907.09-.1724.19-.1633.1 0 .182.0635.191.1543 0 .1452.554 14.3727-5.05 29.2626-3.297 8.747-8.048 16.0059-14.115 21.5772-7.594 6.9685-17.276 11.3058-28.794 12.8664-.009 0-.018 0-.027 0z" fill="url(#o)"/><path d="m162.008 83.4782c-.1 0-.181-.0636-.19-.1452-1.327-19.1092 12.589-34.9064 24.488-44.7877 12.889-10.6978 26.259-16.9677 26.395-17.0313.091-.0453.209-.0181.255.0636.045.0725.018.1724-.073.2177-.136.0635-13.47 6.3153-26.323 16.9859-11.844 9.8359-25.687 25.5515-24.37 44.5427 0 .0907-.073.1633-.173.1724h-.009z" fill="url(#p)"/><path d="m163.098 84.1403s-.027 0-.036 0c-.1-.0182-.164-.0999-.146-.1906 7.403-29.8978 49.331-62.1002 49.758-62.4269.072-.0635.19-.0544.263.0091s.064.1633-.018.2268c-.418.3176-42.264 32.4656-49.64 62.2545-.018.0726-.099.1271-.181.1271z" fill="url(#q)"/><path d="m160.818 82.2713c-.09 0-.172-.0635-.19-.1452-1.254-10.2079.708-19.7443 5.831-28.3461 4.097-6.887 10.209-13.1932 18.175-18.7462 13.552-9.4548 27.967-13.5017 28.113-13.538.1-.0363.209.0182.236.0998.036.0817-.018.1724-.118.1997-.145.0453-14.497 4.074-27.994 13.4925-12.444 8.6835-26.687 23.8547-23.853 46.8111 0 .0817-.063.1633-.172.1724h-.019z" fill="url(#r)"/><path d="m172.244 87.1343c-2.334 0-4.55-.4627-6.648-1.3792-5.042-2.2048-8.13-6.5602-9.238-9.6271-.718-1.9871-.754-4.2737-.554-5.7527 5.468-39.3526 56.397-48.9434 56.906-49.0432l.372-.0635.073.3175c4.514 19.336-2.907 34.7613-9.928 44.2977-7.53 10.2351-16.858 16.8498-19.411 18.102-1.435.7077-4.923 2.0234-6.194 2.3773-1.853.5172-3.652.7712-5.387.7712zm40.266-65.1036c-4.641.9437-50.793 11.3058-55.952 48.4172-.2 1.4155-.155 3.6022.527 5.4895 1.071 2.9399 4.023 7.1319 8.865 9.2461 3.479 1.5335 7.33 1.7149 11.454.5716 1.099-.3085 4.578-1.5878 6.049-2.3137 1.535-.7622 11.072-6.9232 19.147-17.8933 6.904-9.3822 14.206-24.5352 9.901-43.5174z" fill="url(#s)"/><path d="m179.819 4.19141s-49.258 25.89629-37.867 68.86919c.372 1.3973 1.335 3.7837 2.988 5.6801 3.988 4.555 15.014 11.0517 25.996 3.8019 1.09-.7168 4.16-3.1849 5.359-4.4008 3.288-3.3028 28.312-38.4542 3.515-73.95039z" fill="#1c3232"/><path d="m179.819 4.19238-24.797 80.79202s26.124-36.458 24.797-80.79202z" fill="#1c3232"/><path d="m155.032 85.1563s-.055 0-.082-.0091c-.1-.0363-.145-.1179-.118-.2087l24.788-80.79194c.027-.08166.136-.12703.218-.12703.109.00907.182.08166.182.1724 1.317 43.88027-24.561 80.51977-24.825 80.88277-.036.0544-.109.0816-.172.0816zm24.615-79.68498-24.025 78.29668c4.26-6.415 24.734-39.3706 24.025-78.29668z" fill="url(#t)"/><path d="m156.113 85.4462c-.064 0-.128-.0181-.164-.0635-.073-.0726-.054-.1905.036-.245 20.056-13.311 25.415-34.5888 26.378-50.1048 1.045-16.8226-2.707-30.65992-2.743-30.79603-.027-.09981.045-.19055.154-.21777.136-.01815.227.0363.255.12703.036.13611 3.796 14.02787 2.752 30.89587-.972 15.5795-6.358 36.9661-26.541 50.3589-.037.0272-.082.0363-.127.0363z" fill="url(#u)"/><path d="m157.538 85.8094c-.073 0-.145-.0363-.182-.0907-.054-.0817-.018-.1906.082-.236 25.433-11.9409 30.111-33.3729 29.566-49.2609-.591-17.2309-7.303-31.82141-7.367-31.96659-.045-.09074 0-.19055.118-.22684.091-.04537.227 0 .264.09981.063.14518 6.803 14.79012 7.403 32.08452.354 10.1625-1.454 19.2453-5.369 26.9851-4.886 9.6816-13.107 17.2854-24.415 22.5935-.036.0181-.064.0181-.1.0181z" fill="url(#v)"/><path d="m153.605 84.8114c-.082 0-.154-.0454-.191-.1089-9.646-19.4812-1.989-40.3688 6.131-54.4602 8.793-15.2619 20.011-26.05958 20.12-26.16846.081-.07259.199-.08166.29-.00907.082.06351.091.1724.018.24498-.109.10889-11.29 10.87935-20.064 26.09585-8.084 14.0279-15.705 34.8157-6.113 54.1699.045.0907 0 .1905-.109.2268-.027.0091-.055.0091-.082.0091z" fill="url(#w)"/><path d="m155.031 85.1557c-.1 0-.19-.0635-.209-.1543-5.213-33.4909 24.516-80.429 24.816-80.89175.054-.09074.181-.10889.281-.07259.1.04537.136.15425.091.23591-.3.47183-29.974 47.30103-24.77 80.68313.018.0998-.063.1815-.181.1996z" fill="url(#x)"/><path d="m151.843 83.9404c-.082 0-.154-.0363-.191-.0998-5.722-10.226-7.811-20.7878-6.194-31.3858 1.289-8.4748 4.932-17.0041 10.818-25.3247 10.018-14.173 23.28-22.99264 23.416-23.0743.091-.05444.218-.04537.291.03629.063.07259.054.19055-.037.24499-.136.08167-13.343 8.87402-23.325 22.99272-9.202 13.0116-17.467 33.3639-4.596 56.3656.045.0908 0 .1906-.1.2359-.028.0091-.064.0182-.091.0182z" fill="url(#y)"/><path d="m160.536 86.1455c-.727 0-1.471-.0453-2.207-.127-6.177-.7077-11.245-4.2465-13.707-7.0684-1.607-1.8329-2.634-4.2102-3.061-5.8162-11.335-42.7189 37.55-68.97807 38.041-69.2412l.363-.19055.218.3085c13.061 18.69175 12.008 37.12945 8.82 49.29725-3.416 13.0661-10.273 22.9383-12.381 25.0524-1.19 1.1978-4.242 3.6749-5.422 4.4461-3.352 2.214-6.931 3.3301-10.664 3.3301zm19.147-81.46339c-4.432 2.47711-48.004 28.00139-37.313 68.29749.408 1.5335 1.389 3.8019 2.925 5.5531 2.361 2.704 7.23 6.1066 13.152 6.7871 4.287.5082 8.429-.5353 12.253-3.0578 1.017-.6714 4.078-3.1213 5.296-4.3463 1.28-1.2794 8.538-10.7432 12.207-24.753 3.134-11.9772 4.188-30.0883-8.502-48.48059z" fill="url(#z)"/><path d="m54.3271 41.158s46.4969-4.0559 63.6549 28.4279c.563 1.0616 1.299 2.9943 1.308 4.9179.027 4.6094-3.37 13.4381-14.579 13.3927-1.108 0-4.496-.3085-5.9582-.5807-4.0056-.744-40.1657-12.8574-44.4257-46.1578z" fill="#1c3232"/><path d="m54.3271 41.1582 62.0289 41.6119s-37.6133-12.4854-62.0289-41.6119z" fill="#1c3232"/><path d="m116.356 82.9155s-.046 0-.064-.0091c-.372-.127-37.9402-12.8392-62.1105-41.6663-.0454-.0544-.0454-.1361.0182-.1815.0635-.0544.1544-.0544.218-.009l62.0283 41.6118c.064.0454.082.118.046.1815-.027.0454-.091.0726-.145.0726zm-61.1935-41.013c21.745 25.3972 53.7635 38.0096 60.1395 40.3415z" fill="url(#A)"/><path d="m115.829 83.5505c-20.6367-.1361-36.296-11.6415-45.8061-21.2778-10.3003-10.4256-15.7865-20.9602-15.841-21.06-.0363-.0726 0-.1542.0908-.1905.0909-.0182.1817 0 .218.0726.0545.1088 5.5317 10.6071 15.8047 21.0055 9.4646 9.5818 25.0422 21.0328 45.5426 21.1689.091 0 .173.0635.173.1452 0 .0816-.073.1452-.173.1452z" fill="url(#B)"/><path d="m107.79 84.875c-7.557 0-14.6872-1.597-21.2634-4.7637-6.9305-3.3391-13.2705-8.4295-18.8385-15.1258-9.4737-11.3966-13.4885-23.6642-13.5248-23.7821-.0273-.0726.0272-.1543.1181-.1724.0908-.0091.1816.0181.2089.0998.0454.127 4.042 12.3492 13.4794 23.7004 8.6926 10.4619 23.9341 22.294 47.1143 19.2816h.027c.082 0 .155.0544.164.1179.018.0817-.046.1452-.137.1634-2.488.3266-4.941.4899-7.348.4899z" fill="url(#C)"/><path d="m117.082 82.0892c-.072 0-.145-.0454-.163-.1089-4.86-16.505-21.6182-26.6856-34.8251-32.3295-14.3241-6.1065-27.6581-8.3387-27.7944-8.3568-.0908-.0182-.1544-.0908-.1362-.1633.0181-.0726.0908-.118.1635-.118h.0272c.1363.0181 13.5157 2.2593 27.8853 8.3931 13.2705 5.662 30.1107 15.8971 34.9977 32.511.027.0726-.028.1543-.118.1724-.019 0-.028 0-.046 0z" fill="url(#D)"/><path d="m116.356 82.9149c-.064 0-.118-.0272-.146-.0725-15.686-23.6914-61.4926-41.376-61.9558-41.5484-.0909-.0363-.1272-.118-.0909-.1906.0455-.0725.1363-.0998.218-.0725.4633.1814 46.3787 17.9023 62.1107 41.6753.045.0726.018.1543-.064.1906-.027.0091-.054.0181-.081.0181z" fill="url(#E)"/><path d="m117.718 80.7829c-.082 0-.154-.0454-.163-.118-4.823-20.2433-21.7454-29.8705-35.0976-34.3801-14.4785-4.8907-27.9943-4.9905-28.1305-4.9905-.0909 0-.1726-.0636-.1726-.1452 0-.0817.0727-.1452.1726-.1452.1362 0 13.7065.0998 28.2486 5.0087 8.5472 2.8854 15.7502 6.8415 21.4085 11.7595 7.085 6.1519 11.763 13.8282 13.907 22.8293.018.0726-.046.1543-.136.1724-.01 0-.019 0-.037 0z" fill="url(#F)"/><path d="m104.811 88.1777h-.1c-1.199 0-4.578-.3085-6.0315-.5807-2.5705-.4718-12.6074-3.947-22.2628-10.9338-8.9923-6.4967-20.1827-17.9295-22.4263-35.478l-.0363-.2904.3361-.0272c.4541-.0363 46.9328-3.7111 63.9998 28.6002.636 1.2159 1.326 3.1758 1.335 5.0359.018 2.8673-1.244 7.3134-4.859 10.3621-2.598 2.1959-5.941 3.3028-9.964 3.3028zm-50.1121-46.7657c2.3071 17.1946 13.3068 28.4188 22.1538 34.8157 10.3457 7.4858 20.419 10.5164 21.9722 10.8067 1.4901.2813 4.8591.5626 5.8861.5717h.1c3.833 0 7.021-1.0616 9.482-3.1395 3.47-2.9308 4.678-7.1954 4.66-9.9629-.009-1.7694-.672-3.6385-1.281-4.8-16.095-30.4694-58.7222-28.5458-62.9731-28.2826z" fill="url(#G)"/><path d="m75.654 21.6494s51.12 9.1916 56.615 48.771c.182 1.2885.209 3.575-.536 5.6166-1.78 4.9179-8.874 13.3292-20.791 10.0264-1.181-.3266-4.669-1.6332-6.122-2.3501-3.969-1.9508-37.7223-25.3609-29.1569-62.0639z" fill="#1c3232"/><path d="m75.6543 21.6494 49.7027 62.3361s-35.1515-24.2267-49.7027-62.3361z" fill="#1c3232"/><path d="m125.357 84.1403s-.082-.0091-.118-.0363c-.354-.245-35.3606-24.6985-49.7574-62.4178-.0272-.0726.0091-.1543.0908-.1906.0909-.0272.1908-.009.2362.0545l49.7034 62.3361c.054.0635.045.1543-.028.2087-.036.0272-.081.0454-.127.0454zm-49.1033-61.456c13.1705 33.3548 42.2913 56.0753 48.1773 60.4216z" fill="url(#H)"/><path d="m124.54 84.6761s-.036 0-.064-.0091c-21.917-6.1338-34.0796-22.9382-40.4197-35.959-6.8668-14.0914-8.5745-26.9034-8.5926-27.0395-.0091-.0817.0635-.1633.1725-.1724h.0182c.0908 0 .1726.0635.1907.1452.0182.127 1.7168 12.9027 8.5655 26.9579 6.3127 12.9572 18.4024 29.6799 40.1934 35.7774.099.0273.154.118.118.1997-.028.0635-.1.1089-.173.1089z" fill="url(#I)"/><path d="m123.45 85.3566s-.019 0-.028 0c-11.508-1.5697-21.2-5.8979-28.7933-12.8665-6.0676-5.5712-10.818-12.8301-14.1152-21.5772-5.6134-14.8899-5.0593-29.1174-5.0503-29.2626 0-.0907.1-.1451.1999-.1542.0999 0 .1816.0726.1816.1633 0 .1361-.554 14.3273 5.0412 29.1628 5.1501 13.674 16.7221 30.7053 42.6001 34.2259.1.0091.172.0998.154.1815-.018.0726-.091.1361-.181.1361z" fill="url(#J)"/><path d="m126.447 83.4775h-.009c-.1 0-.182-.0817-.173-.1724 1.317-18.9912-12.526-34.7068-24.379-44.5427-12.8529-10.6706-26.1869-16.9133-26.3141-16.9768-.0908-.0454-.1272-.1361-.0727-.2178.0455-.0817.1545-.1089.2544-.0635.1362.0635 13.5066 6.3334 26.3954 17.0313 11.908 9.8812 25.815 25.6785 24.488 44.7876 0 .0817-.09.1452-.19.1452z" fill="url(#K)"/><path d="m125.357 84.1403c-.091 0-.163-.0545-.181-.1271-7.385-29.7889-49.222-61.9278-49.6398-62.2545-.0818-.0544-.0908-.1633-.0182-.2268.0636-.0635.1817-.0726.2634-.0091.4269.3176 42.3546 32.5291 49.7666 62.4269.018.0817-.045.1724-.145.1906-.009 0-.028 0-.037 0z" fill="url(#L)"/><path d="m127.636 82.2707h-.018c-.109-.0091-.172-.0908-.172-.1724 2.825-22.9655-11.418-38.1367-23.862-46.8202-13.4973-9.4184-27.8486-13.4381-27.9849-13.4835-.0999-.0272-.1544-.1179-.1181-.1996.0273-.0816.1454-.127.2362-.0998.1453.0363 14.5603 4.0832 28.1128 13.5379 7.965 5.5531 14.078 11.8593 18.175 18.7463 5.123 8.6109 7.085 18.1473 5.831 28.3461-.009.0817-.091.1452-.19.1452z" fill="url(#M)"/><path d="m116.201 87.1343c-1.735 0-3.542-.254-5.386-.7712-1.272-.3539-4.75-1.6605-6.195-2.3773-2.552-1.2522-11.8805-7.876-19.4104-18.102-7.0213-9.5364-14.4422-24.9617-9.9279-44.2977l.0727-.3175.3724.0635c.5087.0907 51.4472 9.6906 56.9062 49.0432.209 1.4699.172 3.7565-.554 5.7527-1.099 3.0578-4.188 7.4132-9.229 9.6271-2.098.9165-4.323 1.3792-6.658 1.3792zm-40.2562-65.1036c-4.3054 18.9822 2.9974 34.1261 9.9097 43.5174 8.0749 10.9701 17.6035 17.1311 19.1475 17.8933 1.471.7259 4.95 2.0143 6.049 2.3137 4.142 1.1524 7.984.9528 11.463-.5716 4.841-2.1232 7.793-6.3062 8.856-9.2461.681-1.9054.718-4.0831.527-5.4895-5.159-37.1295-51.3016-47.4735-55.9522-48.4172z" fill="url(#N)"/><path d="m108.635 4.19141s49.258 25.89629 37.868 68.86919c-.373 1.3973-1.335 3.7837-2.988 5.6801-3.988 4.555-15.015 11.0517-25.996 3.8019-1.09-.7168-4.161-3.1849-5.36-4.4008-3.288-3.3028-28.3117-38.4542-3.515-73.95039z" fill="#1c3232"/><path d="m108.635 4.19238 24.797 80.79202s-26.132-36.458-24.797-80.79202z" fill="#1c3232"/><path d="m133.423 85.1563c-.072 0-.136-.0272-.172-.0816-.264-.363-26.142-37.0116-24.824-80.88277 0-.09074.081-.16333.181-.1724.118 0 .2.04537.218.12703l24.797 80.79194c.027.0817-.027.1724-.118.2087-.027.0091-.054.0091-.082.0091zm-24.615-79.68498c-.699 38.92608 19.774 71.88168 24.025 78.29668z" fill="url(#O)"/><path d="m132.343 85.4462c-.046 0-.091-.0091-.128-.0363-20.173-13.3928-25.569-34.7794-26.541-50.3589-1.053-16.868 2.707-30.75976 2.753-30.89587.018-.09074.118-.16333.254-.12703.109.01815.182.11796.154.21777-.036.1361-3.787 13.98253-2.743 30.80513.972 15.5069 6.331 36.7847 26.378 50.0957.091.0545.109.1724.036.245-.036.0454-.1.0635-.163.0635z" fill="url(#P)"/><path d="m130.925 85.8092s-.064 0-.1-.0182c-11.309-5.3081-19.52-12.9118-24.416-22.5934-3.905-7.7399-5.713-16.8226-5.359-26.9851.6-17.2944 7.331-31.93936 7.394-32.08454.046-.09073.173-.1361.264-.09981.109.0363.163.13611.118.22685-.064.14517-6.776 14.7447-7.367 31.9756-.545 15.8789 4.142 37.311 29.566 49.2519.1.0454.136.1543.082.2359-.037.0545-.109.0908-.182.0908z" fill="url(#Q)"/><path d="m134.849 84.8114s-.054 0-.082-.009c-.109-.0363-.154-.1361-.109-.2269 9.592-19.3541 1.971-40.1419-6.113-54.1698-8.765-15.2166-19.955-25.987-20.064-26.09588-.082-.07259-.064-.18148.018-.24499.091-.06352.218-.05445.291.00907.109.10888 11.335 10.9066 20.128 26.1685 8.12 14.0914 15.777 34.9881 6.131 54.4602-.036.0635-.109.1088-.191.1088z" fill="url(#R)"/><path d="m133.424 85.1557h-.028c-.109-.0091-.199-.0998-.181-.1996 5.204-33.3821-24.47-80.2113-24.77-80.68313-.055-.08166-.018-.19054.091-.23591.091-.0363.227-.01815.281.07259.3.47183 30.038 47.40085 24.816 80.89175-.019.0908-.109.1543-.209.1543z" fill="url(#S)"/><path d="m136.611 83.94s-.063 0-.09-.0182c-.1-.0453-.146-.1451-.1-.2359 12.88-23.0108 4.605-43.354-4.596-56.3656-9.983-14.1187-23.19-22.90199-23.326-22.99273-.091-.06352-.109-.1724-.036-.24499.072-.07259.209-.08166.29-.03629.137.09073 13.398 8.91031 23.417 23.07431 5.895 8.3297 9.528 16.8498 10.818 25.3247 1.608 10.598-.472 21.1598-6.195 31.3858-.036.0635-.109.0998-.191.0998z" fill="url(#T)"/><path d="m127.919 86.1453c-3.734 0-7.312-1.1161-10.664-3.3301-1.063-.7077-4.151-3.1667-5.423-4.4461-2.116-2.1141-8.956-11.9863-12.38-25.0524-3.1882-12.1769-4.2419-30.6055 8.82-49.29726l.218-.3085.363.19054c.5.26314 49.376 26.52232 38.049 69.24122-.417 1.597-1.444 3.9652-3.061 5.8162-2.461 2.8128-7.53 6.3516-13.706 7.0684-.745.0817-1.481.127-2.207.127zm-19.148-81.46348c-12.6889 18.39238-11.6352 36.49428-8.502 48.48068 3.67 14.0097 10.927 23.4735 12.199 24.7529 1.226 1.225 4.287 3.6749 5.305 4.3463 3.824 2.5316 7.966 3.5751 12.253 3.0579 5.922-.6806 10.791-4.0832 13.152-6.7871 1.544-1.7603 2.516-4.0197 2.916-5.5531 10.682-40.2962-32.89-65.82047-37.323-68.29758z" fill="url(#U)"/><path d="m141.77.516886s-39.576 37.610414-13.961 76.899414c.836 1.2794 2.58 3.3754 4.841 4.8272 5.441 3.4752 18.43 7.1046 26.75-2.7312.827-.9709 3.007-4.1558 3.779-5.6438 2.116-4.056 14.823-44.7242-21.409-73.360688z" fill="#1c3232"/><path d="m141.77.517578 2.852 85.346922s13.352-42.2198-2.852-85.346922z" fill="#1c3232"/><path d="m144.622 86.0369h-.027c-.1-.009-.182-.0816-.182-.1724l-2.861-85.346926c0-.090737.072-.1724.172-.181474.1-.009073.2.036295.236.127032 16.041 42.682568 2.989 85.020268 2.853 85.446768-.019.0726-.109.127-.2.127zm-2.598-84.23086 2.761 82.70656c2.017-7.3406 11.009-44.7332-2.761-82.70656z" fill="url(#V)"/><path d="m145.775 86.0458s-.09-.0091-.127-.0272c-.091-.0545-.118-.1724-.045-.2541 15.187-18.0203 13.279-40.2145 9.01-55.6579-4.623-16.7409-12.952-29.380568-13.034-29.507599-.054-.090737-.018-.199621.082-.244989.109-.054442.236-.018147.29.063516.082.127031 8.439 12.812072 13.08 29.607372 4.287 15.516 6.195 37.8191-9.083 55.9483-.045.0454-.109.0726-.173.0726z" fill="url(#W)"/><path d="m147.293 86.0458c-.055 0-.109-.0182-.155-.0544-.081-.0726-.081-.1815 0-.2541 20.91-18.0112 18.294-40.1873 12.417-55.6216-6.367-16.7319-17.839-29.371501-17.957-29.489459-.073-.081663-.055-.190547.036-.254063.1-.063515.218-.045368.3.036295.109.127031 11.635 12.812027 18.039 29.616427 3.76 9.8722 5.041 19.2181 3.815 27.7746-1.535 10.7069-7.04 20.198-16.341 28.2009-.045.0363-.091.0545-.154.0545z" fill="url(#X)"/><path d="m143.114 86.0457c-.064 0-.128-.0182-.164-.0635-16.004-16.6956-15.523-39.0713-12.298-54.9048 3.487-17.1402 10.845-30.505717 10.927-30.641822.054-.081664.172-.127032.281-.081664.109.045369.155.145179.1.235916-.073.136105-7.412 13.46537-10.891 30.56017-3.206 15.7519-3.687 38.0187 12.217 54.6053.073.0817.064.1906-.027.2541-.045.0272-.091.0363-.136.0363z" fill="url(#Y)"/><path d="m144.622 86.0365c-.082 0-.155-.0363-.2-.1089-16.368-31.531-2.998-84.92048-2.861-85.455831.027-.09981.145-.172399.254-.136105.109.018148.191.117958.163.217768-.136.535348-13.47 53.806868 2.844 85.238068.045.0908 0 .1996-.109.2359-.028.0091-.055.0091-.091.0091z" fill="url(#Z)"/><path d="m141.089 85.6375c-.064 0-.118-.0181-.155-.0635-9.046-8.6018-14.632-18.4377-16.622-29.2263-1.58-8.6291-.881-17.8842 2.089-27.5114 5.06-16.3779 15.088-28.309823 15.197-28.427781.063-.081663.199-.09981.299-.045368.091.054442.118.1724.046.254063-.1.117958-10.092 12.004486-15.133 28.327986-4.641 15.0442-5.913 37.0388 14.442 56.402.082.0726.073.1814-.018.254-.036.0363-.091.0454-.136.0454z" fill="url(#aa)"/><path d="m145.421 86.2362c-5.277 0-10.173-1.8783-13.034-3.7021-2.198-1.4064-4.006-3.4752-4.959-4.9451-25.46-39.0622 13.624-76.935695 14.024-77.31679l.291-.27221.318.254063c19.083 15.080437 24.252 33.409237 25.214 46.130537 1.045 13.6559-2.352 25.0343-3.705 27.6294-.772 1.479-2.934 4.6638-3.815 5.7073-3.061 3.6113-6.967 5.7436-11.618 6.3425-.908.118-1.807.1724-2.706.1724zm-3.624-85.2018c-3.515 3.52058-37.649 39.3616-13.624 76.2098.908 1.3973 2.634 3.3754 4.723 4.7092 3.206 2.0507 9.074 4.1648 15.096 3.3936 4.423-.5717 8.138-2.6042 11.054-6.0522.845-.9981 2.989-4.1648 3.733-5.5803.818-1.5697 4.751-12.6577 3.634-27.2936-.954-12.5217-6.004-30.5238-24.625-45.40465z" fill="url(#ab)"/><path d="m115.747 85.2015c2.825-10.4438-9.074-15.9697-17.467-17.5213-8.4655-1.5606-14.5694-.6805-22.063 3.3028-5.7042 3.0307-11.7808 6.887-18.3752 5.0904 1.3897 6.043 12.6165 9.482 17.7576 11.1243 7.2211 2.3138 14.8237 4.3009 22.4535 4.3644 6.1951.0454 15.9411-.8257 17.6941-6.3515z" fill="#1c3232"/><path d="m116.091 83.3595c-7.148-9.4185-21.6266-8.7289-31.8814-5.2719-9.2013 3.0942-16.2861 1.1978-25.2603-1.2249l-.7266-.1996.1453-.3811.7357.1996c8.8833 2.3955 15.9046 4.2919 24.9424 1.234 10.4002-3.5115 25.1509-4.192 32.4539 5.4352l-.4.2177z" fill="url(#ac)"/><path d="m81.6033 83.9134c-2.8885 0-5.6043-.3175-7.9205-.9436-6.2038-1.6877-13.9154-4.8363-15.5685-6.3607l.3542-.2722c1.6077 1.4881 9.2194 4.5822 15.3596 6.2518 4.7687 1.2975 11.2722 1.2249 17.3942-.1815 1.6078-.372 3.0611-.7894 4.4599-1.1977 2.7612-.7985 5.3768-1.5516 8.6468-1.7785 4.596-.3357 8.093 1.5335 11.463 3.3301l.618.3266-.254.3358-.618-.3267c-3.461-1.842-6.713-3.575-11.181-3.2665-3.216.2268-5.8046.9709-8.5386 1.7603-1.4079.4083-2.8703.8257-4.4871 1.2068-3.2426.744-6.6034 1.1251-9.7462 1.1251z" fill="url(#ad)"/><path d="m115.201 82.9421c-1.326-4.3735-4.132-7.4495-8.329-9.1553-11.1994-4.555-28.8479 2.0869-29.0205 2.1595-8.2929 2.5406-19.9375.3448-20.0556.3266l.109-.3992c.109.0181 11.6264 2.1777 19.774-.2994.1635-.0635 18.0119-6.769 29.4021-2.1505 4.333 1.7603 7.221 4.927 8.584 9.4185z" fill="url(#ae)"/><path d="m88.6785 87.6783c-4.6688 0-8.9469-1.1615-13.4431-2.3864l-.4905-.1361c-5.9494-1.6242-12.3531-4.5641-14.3241-5.9614-.654-.4628-1.1626-1.0163-1.6531-1.5516-.2362-.2541-.4724-.5172-.7267-.7713l.3633-.2631c.2635.2541.4996.5172.7449.7803.4723.5172.9628 1.0526 1.5804 1.4881 1.8984 1.3429 8.3565 4.3009 14.1697 5.8888l.4905.1361c4.4599 1.2159 8.7108 2.3683 13.3068 2.3683.6722 0 1.3534-.0182 2.0347-.0726 2.7885-.2178 5.5679-.8439 8.2566-1.4518 2.4431-.5535 4.9771-1.1342 7.5301-1.3974 1.426-.1451 2.861-.2994 4.287-.4446l2.153-.2268c.281-.0272.59-.0454.917-.0544.7-.0273 1.426-.0545 1.944-.2632l.2.363c-.609.2359-1.381.2722-2.126.2994-.309.0091-.608.0272-.881.0544l-2.152.2269c-1.427.1452-2.862.2994-4.288.4446-2.516.2631-5.032.8348-7.457 1.3792-2.7068.617-5.5044 1.2521-8.3383 1.4699-.6994.0545-1.3988.0817-2.0891.0817z" fill="url(#af)"/><path d="m98.5159 91.907c-.1544 0-.3088 0-.4632 0-8.0386-.0635-15.9319-2.2503-22.5989-4.3826l-.4178-.1361c-5.2592-1.6787-16.1953-5.172-17.5941-11.2423l-.1362-.5807.663.1815c5.8042 1.5697 11.1905-1.343 16.4133-4.1739.545-.2995 1.09-.5898 1.6259-.8711 7.5027-3.9924 13.77-4.927 22.3718-3.3391 5.4503 1.0072 12.5073 3.7383 15.9953 8.3931 2.126 2.831 2.725 6.0431 1.78 9.5455-1.798 5.7255-11.608 6.6238-17.6209 6.6238zm-40.1112-15.3345c1.853 5.3534 11.9716 8.5836 16.9129 10.1625l.4269.1361c6.5943 2.1141 14.4058 4.2737 22.3082 4.3372h.4632c5.7771 0 15.1601-.8348 16.8221-6.0975.89-3.3119.327-6.3425-1.671-9.0102-3.361-4.4733-10.201-7.1047-15.4781-8.0846-8.4655-1.5607-14.3604-.6805-21.7632 3.2574-.5359.2904-1.0809.5807-1.6259.8802-5.1683 2.8037-10.5092 5.6982-16.4132 4.4189z" fill="url(#ag)"/><path d="m137.192 87.806c-.091-10.8068-13.053-13.0117-21.554-12.3039-8.584.7168-14.234 3.1576-20.3831 8.9648-4.6778 4.4189-9.5009 9.727-16.3496 9.727 2.9611 5.4623 14.7147 5.8251 20.1191 6.0611 7.5846.336 15.4506.254 22.8256-1.6876 5.986-1.5789 15.151-4.9815 15.342-10.7705z" fill="#1c3232"/><path d="m79.4502 94.6566v-.3992h.7357c9.2194-.0182 16.495-.0272 24.4061-5.3535 9.084-6.1156 23.117-10.6343 32.763-3.2756l-.318.2994c-9.437-7.2045-23.207-2.7311-32.145 3.2847-8.0385 5.4079-15.3868 5.4261-24.6879 5.4442h-.7448z" fill="url(#ah)"/><path d="m96.0272 96.6798c-6.44 0-14.7057-1.0163-16.704-2.0507l.2453-.3448c1.9347 1.0072 10.0823 1.9962 16.4587 1.9962h.0272c4.9416 0 11.1996-1.7693 16.7216-4.7455 1.454-.7803 2.744-1.5697 3.988-2.3229 2.443-1.4971 4.75-2.9035 7.848-3.9833 4.36-1.5244 8.211-.6442 11.953.1996l.681.1543-.118.3901-.69-.1542c-3.833-.8711-7.448-1.6877-11.645-.2178-3.033 1.0616-5.322 2.459-7.747 3.938-1.254.7622-2.544 1.5516-4.006 2.341-5.604 3.0125-11.944 4.809-16.9765 4.809h-.0273z" fill="url(#ai)"/><path d="m78.9233 94.393-.0454-.3993c.1181-.0091 11.799-.9436 18.9929-5.4805.1362-.0998 13.6972-9.9175 25.4782-9.9175.981 0 1.953.0726 2.898.2178 4.359.6805 7.802 2.9489 10.227 6.7508l-.418.1905c-2.343-3.693-5.677-5.8888-9.891-6.5512-12.108-1.8782-27.831 9.5002-27.9945 9.6181-7.3119 4.6185-19.12 5.5622-19.2381 5.5713z" fill="url(#aj)"/><path d="m98.6613 98.5133h-.9901c-6.1765 0-13.1433-1.1614-15.4232-1.9872-.7539-.2812-1.3897-.6714-2.0074-1.0616-.2997-.1905-.5994-.3811-.9174-.5535l.2544-.3357c.327.1815.6358.372.9446.5626.5904.372 1.2081.7531 1.9166 1.0162 2.189.7985 9.2103 1.9599 15.2324 1.9599h.5087c5.2861-.009 10.3091 0 15.4141-1.8147 2.625-.9437 5.141-2.2775 7.566-3.5659 2.207-1.1796 4.487-2.3955 6.876-3.321l2.316-.8983c1.245-.4809 2.48-.9618 3.706-1.4427.264-.1089.563-.1996.872-.2994.663-.2087 1.354-.4265 1.808-.7622l.318.2994c-.518.3811-1.254.617-1.962.8439-.3.0998-.591.1814-.845.2812-1.226.4719-2.461.9618-3.706 1.4427l-2.325.8983c-2.353.9165-4.623 2.1233-6.822 3.2938-2.443 1.2975-4.977 2.6495-7.639 3.6022-5.032 1.7966-9.937 1.842-15.1139 1.842z" fill="url(#ak)"/><path d="m105.337 100.763c-2.189 0-4.314-.063-6.3397-.154l-.4542-.018c-5.5225-.245-17.0218-.7443-20.0102-6.252l-.2634-.49h.6359c6.0221 0 10.4365-4.2374 14.7147-8.3387.445-.4264.8901-.8529 1.3261-1.2703 6.1588-5.8162 11.9448-8.3568 20.6458-9.0827 5.496-.4719 12.998.3175 17.631 3.8381 2.87 2.1868 4.341 5.1448 4.378 8.8015-.209 6.1338-9.883 9.5818-15.632 11.0971-5.523 1.461-11.264 1.86-16.632 1.86zm-25.7686-6.2334c3.1973 4.682 13.8246 5.1447 19.0201 5.3716l.4633.0181c6.9302.3087 15.0322.3447 22.6802-1.6695 5.541-1.4609 14.851-4.7546 15.051-10.4438-.027-3.4571-1.408-6.2427-4.105-8.2934-4.442-3.3754-11.699-4.0922-17.004-3.6657-8.584.7168-14.034 3.1122-20.1192 8.8559-.4451.4174-.8811.8347-1.3262 1.2612-4.2418 4.065-8.6199 8.2752-14.6693 8.5565z" fill="url(#al)"/><path d="m175.795 85.2015c-2.825-10.4438 9.074-15.9697 17.467-17.5213 8.466-1.5606 14.57-.6805 22.063 3.3028 5.704 3.0307 11.781 6.887 18.384 5.0904-1.389 6.043-12.616 9.482-17.757 11.1243-7.221 2.3138-14.824 4.3009-22.454 4.3644-6.194.0454-15.95-.8257-17.694-6.3515z" fill="#1c3232"/><path d="m175.45 83.3597-.399-.2177c7.303-9.6272 22.054-8.9467 32.454-5.4352 9.047 3.0579 16.059 1.1615 24.942-1.234l.727-.1905.145.3811-.726.1905c-8.975 2.4227-16.069 4.3282-25.261 1.225-10.246-3.4571-24.733-4.1467-31.882 5.2718z" fill="url(#am)"/><path d="m209.939 83.9127c-3.152 0-6.503-.372-9.746-1.1251-1.617-.372-3.079-.7985-4.487-1.2068-2.734-.7894-5.323-1.5334-8.538-1.7603-4.442-.3085-7.721 1.4246-11.182 3.2665l-.617.3267-.255-.3357.618-.3267c3.37-1.7966 6.885-3.6658 11.463-3.33 3.279.2268 5.886.9799 8.647 1.7784 1.408.4083 2.852.8257 4.46 1.1977 6.113 1.4065 12.625 1.4881 17.394.1815 6.149-1.6695 13.752-4.7637 15.36-6.2518l.354.2723c-1.653 1.5243-9.365 4.6729-15.569 6.3606-2.316.6261-5.032.9437-7.911.9437z" fill="url(#an)"/><path d="m176.34 82.9419-.463-.0998c1.362-4.4915 4.251-7.6582 8.584-9.4185 11.399-4.6276 29.247 2.087 29.429 2.1595 8.138 2.4772 19.647.3176 19.756.2904l.109.3992c-.118.0182-11.763 2.2049-20.038-.3175-.199-.0726-17.857-6.7055-29.048-2.1596-4.196 1.7059-6.994 4.7818-8.329 9.1554z" fill="url(#ao)"/><path d="m202.863 87.6783c-.682 0-1.381-.0272-2.089-.0817-2.825-.2178-5.632-.8529-8.339-1.4699-2.425-.5535-4.941-1.1161-7.457-1.3792l-6.44-.6715c-.263-.0272-.572-.0453-.881-.0544-.745-.0272-1.517-.0635-2.135-.2994l.2-.363c.527.2087 1.254.2359 1.953.2632.327.009.636.0272.918.0544l6.44.6714c2.552.2632 5.077.8439 7.529 1.3974 2.689.6079 5.478 1.2431 8.257 1.4518 5.395.4174 10.228-.8983 15.341-2.2957l.482-.127c5.804-1.5788 12.271-4.5459 14.17-5.8888.617-.4355 1.099-.9618 1.571-1.479.245-.2722.49-.5444.754-.7985l.363.2631c-.263.2541-.499.5172-.745.7804-.481.5353-.99 1.0797-1.635 1.5334-1.971 1.3974-8.374 4.3463-14.324 5.9614l-.481.1271c-4.496 1.2249-8.784 2.3954-13.452 2.3954z" fill="url(#ap)"/><path d="m193.017 91.9068c-6.013 0-15.823-.9074-17.621-6.6148-.945-3.5115-.355-6.7235 1.78-9.5545 3.488-4.6548 10.555-7.386 15.995-8.3932 8.584-1.5879 14.86-.6442 22.372 3.3391.536.2813 1.072.5807 1.617.8711 5.223 2.8401 10.618 5.7709 16.422 4.183l.663-.1815-.136.5807c-1.39 6.0703-12.335 9.5637-17.594 11.2423l-.418.1361c-6.667 2.1323-14.56 4.3191-22.599 4.3826-.154 0-.308 0-.463 0zm-16.831-6.7872c1.671 5.2537 11.045 6.0976 16.822 6.0976h.463c7.912-.0636 15.723-2.2322 22.317-4.3373l.427-.1361c4.951-1.5788 15.06-4.809 16.913-10.1625-5.877 1.2703-11.245-1.6242-16.422-4.4279-.545-.2904-1.081-.5898-1.608-.8711-7.403-3.938-13.298-4.8181-21.763-3.2575-5.286.98-12.126 3.6204-15.478 8.0847-2.007 2.6676-2.57 5.6983-1.671 9.0101z" fill="url(#aq)"/><path d="m154.351 87.806c.09-10.8068 13.052-13.0117 21.554-12.3039 8.583.7168 14.233 3.1576 20.383 8.9648 4.677 4.4189 9.5 9.727 16.349 9.727-2.961 5.4623-14.715 5.8251-20.119 6.0611-7.584.336-15.45.254-22.826-1.6876-5.986-1.5789-15.151-4.9815-15.341-10.7705z" fill="#1c3232"/><path d="m212.091 94.6568h-.745c-9.31-.0181-16.658-.0363-24.687-5.4442-8.947-6.0158-22.736-10.4801-32.146-3.2847l-.318-.2994c9.647-7.3769 23.68-2.8401 32.763 3.2756 7.912 5.3262 15.187 5.3353 24.407 5.3535h.735v.4083z" fill="url(#ar)"/><path d="m195.515 96.6801h-.027c-5.041 0-11.381-1.7966-16.977-4.8091-1.462-.7894-2.761-1.5788-4.005-2.341-2.426-1.479-4.705-2.8673-7.748-3.938-4.206-1.4608-7.812-.6533-11.645.2178l-.69.1542-.118-.3901.681-.1543c3.742-.8438 7.603-1.724 11.953-.1996 3.089 1.0798 5.396 2.4862 7.848 3.9833 1.245.7622 2.534 1.5516 3.988 2.3229 5.522 2.9671 11.771 4.7455 16.722 4.7455h.027c6.376 0 14.515-.989 16.459-1.9962l.245.3448c-1.998 1.0344-10.264 2.0507-16.704 2.0507z" fill="url(#as)"/><path d="m212.609 94.394c-.118-.0091-11.926-.9527-19.229-5.5622-.172-.127-15.895-11.4872-28.003-9.6271-4.224.6533-7.548 2.8582-9.892 6.5512l-.418-.1906c2.417-3.8019 5.859-6.0703 10.228-6.7508 12.326-1.9145 28.23 9.5909 28.385 9.7088 7.176 4.5369 18.856 5.4624 18.975 5.4714z" fill="url(#at)"/><path d="m192.881 98.513c-5.169 0-10.082-.0544-15.105-1.842-2.662-.9527-5.196-2.2956-7.639-3.5931-2.199-1.1705-4.469-2.3773-6.822-3.2938l-.89-.3448c-1.717-.6624-3.443-1.3338-5.141-1.9962-.254-.0998-.545-.1905-.845-.2813-.708-.2268-1.435-.4537-1.953-.8438l.318-.2994c.445.3357 1.136.5534 1.808.7621.309.0999.608.1906.872.2995 1.698.6533 3.424 1.3247 5.141 1.9962l.881.3448c2.389.9255 4.669 2.1414 6.885 3.3209 2.425 1.2885 4.941 2.6314 7.566 3.566 4.951 1.7603 9.801 1.8147 14.924 1.8147h.99c6.022 0 13.043-1.1614 15.232-1.9599.7-.254 1.317-.6442 1.908-1.0072.309-.1996.627-.3901.954-.5716l.254.3357c-.318.1724-.618.363-.927.5535-.617.3811-1.244.7804-1.998 1.0526-2.28.8347-9.247 1.9871-15.423 1.9871z" fill="url(#au)"/><path d="m186.205 100.763c-5.368 0-11.109-.399-16.631-1.8597-5.75-1.5153-15.424-4.9724-15.633-11.088.028-3.6749 1.499-6.6329 4.369-8.8196 4.633-3.5297 12.126-4.3191 17.64-3.8473 8.702.7259 14.488 3.2666 20.646 9.0828.436.4174.881.8438 1.326 1.2703 4.278 4.1013 8.693 8.3387 14.715 8.3387h.636l-.264.49c-2.988 5.5077-14.478 6.0068-20.01 6.2518l-.454.018c-2.026.091-4.151.154-6.34.154zm-31.446-12.9568c.2 5.6801 9.519 8.9829 15.051 10.4438 7.648 2.014 15.768 1.978 22.68 1.6696l.464-.0182c5.195-.2268 15.822-.6896 19.011-5.3716-6.041-.2904-10.428-4.4915-14.661-8.5565-.445-.4264-.881-.8529-1.326-1.2612-6.085-5.7437-11.535-8.1482-20.119-8.8559-5.305-.4265-12.562.2903-17.004 3.6748-2.688 2.0507-4.069 4.8363-4.096 8.2843z" fill="url(#av)"/><path d="m145.048 123.021s28.903-19.926 10.201-40.7408c-.609-.6805-1.88-1.7875-3.534-2.5588-3.969-1.8419-13.461-3.7656-19.537 1.4427-.6.5172-2.189 2.2049-2.762 2.9853-1.544 2.1504-10.827 23.6916 15.632 38.8626z" fill="#1c3232"/><path d="m145.048 123.13c-.054 0-.1-.027-.118-.063-6.122-11.823-6.367-23.5103-5.495-31.232.944-8.3659 3.379-14.0097 3.406-14.0642.018-.0453.073-.0726.127-.0726h.018c.064.0091.109.0545.109.1089l2.089 45.2139c0 .055-.045.1-.1.109-.009 0-.018 0-.027 0zm-2.189-44.724c-.627 1.6242-2.389 6.6328-3.161 13.4472-.863 7.5765-.636 18.9728 5.196 30.5598l-2.035-44.0161z" fill="url(#aw)"/><path d="m145.048 123.13s-.082-.018-.109-.045c-.064-.064-6.167-6.787-9.555-15.689-3.134-8.2295-4.533-20.0525 6.639-29.6706.055-.0453.137-.0453.191 0 .046.0454.055.118 0 .1634-11.072 9.5364-9.683 21.2686-6.576 29.4442 3.379 8.865 9.465 15.561 9.519 15.634.045.045.036.118-.027.154-.027.018-.046.018-.082.018z" fill="url(#ax)"/><path d="m145.048 123.13s-.063-.009-.09-.027c-.173-.137-17.249-13.829-16.259-28.2559.454-6.5875 4.568-12.3493 12.226-17.1402.054-.0453.136-.0272.181.0182.046.0544.028.1179-.027.1542-7.594 4.7456-11.672 10.4529-12.126 16.9678-.981 14.3269 15.995 27.9469 16.177 28.0739.055.045.055.118 0 .163-.027.019-.063.037-.1.037z" fill="url(#ay)"/><path d="m145.048 123.13s-.045 0-.072-.018c-.064-.037-.082-.1-.037-.155.055-.072 5.414-7.132 7.948-16.178 2.334-8.3387 2.689-20.1163-8.911-28.8905-.054-.0454-.063-.1089-.009-.1543.046-.0454.137-.0544.182-.0091 11.699 8.8559 11.345 20.7243 8.992 29.1179-2.552 9.082-7.929 16.178-7.984 16.241-.018.037-.063.055-.109.055z" fill="url(#az)"/><path d="m145.049 123.13s-.028 0-.037 0c-.072-.018-.109-.082-.09-.136.099-.282 9.837-28.4917-2.071-45.1237-.037-.0545-.019-.118.045-.1543.064-.0272.136-.0181.182.0363 6.258 8.738 6.494 20.5973 5.586 28.9997-.981 9.101-3.47 16.233-3.488 16.305-.018.046-.073.082-.127.082z" fill="url(#aA)"/><path d="m145.048 123.129s-.063-.009-.091-.027c-.045-.045-.054-.118 0-.163.137-.118 13.989-12.113 13.117-25.8873-.446-7.1047-4.687-13.4834-12.617-18.9458-.054-.0363-.064-.1089-.018-.1543.054-.0544.136-.0544.182-.0181 7.984 5.5077 12.262 11.9319 12.716 19.1092.872 13.8733-13.053 25.9413-13.198 26.0593-.027.018-.063.027-.091.027z" fill="url(#aB)"/><path d="m145.067 123.302-.164-.091c-13.952-7.994-17.73-17.73-18.439-24.4806-.763-7.259 1.726-13.302 2.725-14.6812.591-.8257 2.198-2.5225 2.798-3.0306 5.895-5.0541 15.305-3.5932 19.856-1.4881 1.607.7531 2.925 1.8419 3.615 2.6223 9.746 10.843 6.431 21.4412 1.935 28.4192-4.86 7.531-12.099 12.585-12.181 12.63l-.154.109zm-2.625-45.2687c-3.543 0-7.24.862-10.074 3.2938-.563.4899-2.152 2.1595-2.715 2.9489-.6.8348-3.461 6.6782-2.653 14.4181.7 6.6329 4.397 16.1689 18.049 24.0539 1.053-.762 7.484-5.544 11.908-12.403 4.414-6.86 7.666-17.2675-1.908-27.92-.663-.735-1.916-1.7785-3.452-2.4953-2.207-1.0253-5.595-1.8873-9.146-1.8873z" fill="url(#aC)"/></g></svg>