<svg fill="none" height="100" viewBox="0 0 58 100" width="58" xmlns="http://www.w3.org/2000/svg" xmlns:xlink="http://www.w3.org/1999/xlink"><linearGradient id="a"><stop offset="0" stop-color="#c09440"/><stop offset=".5" stop-color="#f5e283"/><stop offset=".89" stop-color="#d3b058"/></linearGradient><linearGradient id="b" gradientUnits="userSpaceOnUse" x1="12.5612" x2="11.8208" xlink:href="#a" y1="27.8932" y2="29.7662"/><linearGradient id="c" gradientUnits="userSpaceOnUse" x1="12.5695" x2="11.0186" xlink:href="#a" y1="27.8934" y2="31.5022"/><linearGradient id="d" gradientUnits="userSpaceOnUse" x1="12.5855" x2="10.4645" xlink:href="#a" y1="27.9057" y2="32.8325"/><linearGradient id="e" gradientUnits="userSpaceOnUse" x1="12.2099" x2="13.5516" xlink:href="#a" y1="28.3749" y2="25.2448"/><linearGradient id="f" gradientUnits="userSpaceOnUse" x1="12.0171" x2="12.8277" xlink:href="#a" y1="28.6756" y2="26.7874"/><linearGradient id="g" gradientUnits="userSpaceOnUse" x1="12.4101" x2="14.0483" xlink:href="#a" y1="27.9452" y2="24.1159"/><linearGradient id="h" gradientUnits="userSpaceOnUse" x1="15.4509" x2="10.5661" xlink:href="#a" y1="23.5571" y2="33.8498"/><linearGradient id="i" gradientUnits="userSpaceOnUse" x1="16.7841" x2="15.1138" xlink:href="#a" y1="24.2785" y2="26.1556"/><linearGradient id="j" gradientUnits="userSpaceOnUse" x1="16.7946" x2="13.5169" xlink:href="#a" y1="24.2796" y2="27.7865"/><linearGradient id="k" gradientUnits="userSpaceOnUse" x1="16.8139" x2="12.3419" xlink:href="#a" y1="24.2708" y2="29.0566"/><linearGradient id="l" gradientUnits="userSpaceOnUse" x1="16.2159" x2="19.0634" xlink:href="#a" y1="24.7567" y2="21.7106"/><linearGradient id="m" gradientUnits="userSpaceOnUse" x1="15.911" x2="17.6267" xlink:href="#a" y1="25.0262" y2="23.1908"/><linearGradient id="n" gradientUnits="userSpaceOnUse" x1="16.5825" x2="20.0618" xlink:href="#a" y1="24.3452" y2="20.6231"/><linearGradient id="o" gradientUnits="userSpaceOnUse" x1="21.4" x2="11.9626" xlink:href="#a" y1="20.3162" y2="29.8782"/><linearGradient id="p" gradientUnits="userSpaceOnUse" x1="22.6706" x2="17.4732" xlink:href="#a" y1="20.8742" y2="23.1954"/><linearGradient id="q" gradientUnits="userSpaceOnUse" x1="22.7836" x2="15.7464" xlink:href="#a" y1="20.7938" y2="23.911"/><linearGradient id="r" gradientUnits="userSpaceOnUse" x1="21.7709" x2="26.2561" xlink:href="#a" y1="21.3131" y2="19.3327"/><linearGradient id="s" gradientUnits="userSpaceOnUse" x1="21.4036" x2="24.1248" xlink:href="#a" y1="21.4403" y2="20.2204"/><linearGradient id="t" gradientUnits="userSpaceOnUse" x1="22.2202" x2="27.7397" xlink:href="#a" y1="21.0608" y2="18.6442"/><linearGradient id="u" gradientUnits="userSpaceOnUse" x1="28.9483" x2="14.901" xlink:href="#a" y1="18.1472" y2="24.1003"/><linearGradient id="v" gradientUnits="userSpaceOnUse" x1="46.1915" x2="47.3421" xlink:href="#a" y1="24.2676" y2="25.6257"/><linearGradient id="w" gradientUnits="userSpaceOnUse" x1="46.1929" x2="48.4848" xlink:href="#a" y1="24.2751" y2="26.958"/><linearGradient id="x" gradientUnits="userSpaceOnUse" x1="46.1974" x2="49.3319" xlink:href="#a" y1="24.3076" y2="27.9685"/><linearGradient id="y" gradientUnits="userSpaceOnUse" x1="46.5792" x2="44.5907" xlink:href="#a" y1="24.5894" y2="22.2543"/><linearGradient id="z" gradientUnits="userSpaceOnUse" x1="46.8148" x2="45.6154" xlink:href="#a" y1="24.826" y2="23.4201"/><linearGradient id="A" gradientUnits="userSpaceOnUse" x1="46.3056" x2="43.8778" xlink:href="#a" y1="24.2348" y2="21.3764"/><linearGradient id="B" gradientUnits="userSpaceOnUse" x1="42.7892" x2="49.6636" xlink:href="#a" y1="20.8929" y2="28.8335"/><linearGradient id="C" gradientUnits="userSpaceOnUse" x1="41.2882" x2="43.0818" xlink:href="#a" y1="21.6926" y2="22.9032"/><linearGradient id="D" gradientUnits="userSpaceOnUse" x1="41.2839" x2="44.8203" xlink:href="#a" y1="21.6959" y2="24.0455"/><linearGradient id="E" gradientUnits="userSpaceOnUse" x1="41.2739" x2="46.0993" xlink:href="#a" y1="21.7202" y2="24.9269"/><linearGradient id="F" gradientUnits="userSpaceOnUse" x1="41.8861" x2="38.8116" xlink:href="#a" y1="21.9018" y2="19.8592"/><linearGradient id="G" gradientUnits="userSpaceOnUse" x1="42.2321" x2="40.3811" xlink:href="#a" y1="22.0717" y2="20.8419"/><linearGradient id="H" gradientUnits="userSpaceOnUse" x1="41.4579" x2="37.7016" xlink:href="#a" y1="21.6099" y2="19.1139"/><linearGradient id="I" gradientUnits="userSpaceOnUse" x1="36.2276" x2="46.5486" xlink:href="#a" y1="19.1918" y2="25.8707"/><linearGradient id="J" gradientUnits="userSpaceOnUse" x1="34.8756" x2="37.5368" xlink:href="#a" y1="19.6775" y2="20.4135"/><linearGradient id="K" gradientUnits="userSpaceOnUse" x1="34.8024" x2="39.9246" xlink:href="#a" y1="19.7291" y2="21.0946"/><linearGradient id="L" gradientUnits="userSpaceOnUse" x1="34.6912" x2="41.6152" xlink:href="#a" y1="19.8203" y2="21.6499"/><linearGradient id="M" gradientUnits="userSpaceOnUse" x1="35.7146" x2="31.3042" xlink:href="#a" y1="19.624" y2="18.4626"/><linearGradient id="N" gradientUnits="userSpaceOnUse" x1="36.102" x2="33.4181" xlink:href="#a" y1="19.7343" y2="19.0159"/><linearGradient id="O" gradientUnits="userSpaceOnUse" x1="35.2235" x2="29.802" xlink:href="#a" y1="19.4544" y2="18.0398"/><linearGradient id="P" gradientUnits="userSpaceOnUse" x1="28.266" x2="42.3354" xlink:href="#a" y1="18.9222" y2="22.3153"/><linearGradient id="Q" gradientUnits="userSpaceOnUse" x1="29.8999" x2="26.577" xlink:href="#a" y1="19.7632" y2="20.0311"/><linearGradient id="R" gradientUnits="userSpaceOnUse" x1="30.0505" x2="24.041" xlink:href="#a" y1="19.6318" y2="20.0587"/><linearGradient id="S" gradientUnits="userSpaceOnUse" x1="30.0896" x2="22.1992" xlink:href="#a" y1="19.5428" y2="20.0852"/><linearGradient id="T" gradientUnits="userSpaceOnUse" x1="28.3931" x2="33.7609" xlink:href="#a" y1="20.1436" y2="19.7562"/><linearGradient id="U" gradientUnits="userSpaceOnUse" x1="28.04" x2="31.4942" xlink:href="#a" y1="20.1003" y2="19.832"/><linearGradient id="V" gradientUnits="userSpaceOnUse" x1="28.7445" x2="35.3531" xlink:href="#a" y1="20.0912" y2="19.6279"/><linearGradient id="W" gradientUnits="userSpaceOnUse" x1="36.6284" x2="21.273" xlink:href="#a" y1="18.6615" y2="19.7956"/><linearGradient id="X" gradientUnits="userSpaceOnUse" x1="54.4515" x2="38.8992" xlink:href="#a" y1="27.3259" y2="34.5544"/><linearGradient id="Y" gradientUnits="userSpaceOnUse" x1="54.7818" x2="39.2591" xlink:href="#a" y1="28.016" y2="35.2659"/><linearGradient id="Z" gradientUnits="userSpaceOnUse" x1="54.3905" x2="38.6819" xlink:href="#a" y1="26.5242" y2="33.6012"/><linearGradient id="aa" gradientUnits="userSpaceOnUse" x1="55.0595" x2="39.3167" xlink:href="#a" y1="28.4911" y2="35.5896"/><linearGradient id="ab" gradientUnits="userSpaceOnUse" x1="54.9122" x2="38.0575" xlink:href="#a" y1="26.6541" y2="33.7247"/><linearGradient id="ac" gradientUnits="userSpaceOnUse" x1="49.3189" x2="32.1574" xlink:href="#a" y1="32.9382" y2="34.1539"/><linearGradient id="ad" gradientUnits="userSpaceOnUse" x1="49.4391" x2="32.2788" xlink:href="#a" y1="33.7355" y2="34.9544"/><linearGradient id="ae" gradientUnits="userSpaceOnUse" x1="49.445" x2="32.3189" xlink:href="#a" y1="32.2743" y2="33.4716"/><linearGradient id="af" gradientUnits="userSpaceOnUse" x1="49.5061" x2="32.3983" xlink:href="#a" y1="34.3259" y2="35.5396"/><linearGradient id="ag" gradientUnits="userSpaceOnUse" x1="49.7577" x2="31.9454" xlink:href="#a" y1="32.6256" y2="33.8388"/><linearGradient id="ah" gradientUnits="userSpaceOnUse" x1="4.44168" x2="20.1887" xlink:href="#a" y1="33.4151" y2="37.8058"/><linearGradient id="ai" gradientUnits="userSpaceOnUse" x1="4.23521" x2="19.9705" xlink:href="#a" y1="34.1584" y2="38.5751"/><linearGradient id="aj" gradientUnits="userSpaceOnUse" x1="4.354" x2="20.1389" xlink:href="#a" y1="32.7351" y2="36.9633"/><linearGradient id="ak" gradientUnits="userSpaceOnUse" x1="4.10126" x2="19.9269" xlink:href="#a" y1="34.8502" y2="39.0935"/><linearGradient id="al" gradientUnits="userSpaceOnUse" x1="3.94583" x2="20.6318" xlink:href="#a" y1="33.3177" y2="37.4094"/><linearGradient id="am" gradientUnits="userSpaceOnUse" x1="10.548" x2="27.7098" xlink:href="#a" y1="38.0324" y2="36.8168"/><linearGradient id="an" gradientUnits="userSpaceOnUse" x1="10.6049" x2="27.762" xlink:href="#a" y1="38.8178" y2="37.5991"/><linearGradient id="ao" gradientUnits="userSpaceOnUse" x1="10.2951" x2="27.4179" xlink:href="#a" y1="37.4979" y2="36.3008"/><linearGradient id="ap" gradientUnits="userSpaceOnUse" x1="10.6646" x2="27.7723" xlink:href="#a" y1="39.4138" y2="38.2001"/><linearGradient id="aq" gradientUnits="userSpaceOnUse" x1="10.0874" x2="27.8967" xlink:href="#a" y1="38.113" y2="36.9001"/><linearGradient id="ar" gradientUnits="userSpaceOnUse" x1="30.2784" x2="32.6394" xlink:href="#a" y1="39.7415" y2="39.5672"/><linearGradient id="as" gradientUnits="userSpaceOnUse" x1="30.2281" x2="34.4228" xlink:href="#a" y1="39.83" y2="39.544"/><linearGradient id="at" gradientUnits="userSpaceOnUse" x1="30.2074" x2="35.7531" xlink:href="#a" y1="39.8949" y2="39.5262"/><linearGradient id="au" gradientUnits="userSpaceOnUse" x1="31.2522" x2="27.5168" xlink:href="#a" y1="39.4519" y2="39.7099"/><linearGradient id="av" gradientUnits="userSpaceOnUse" x1="31.5304" x2="29.1346" xlink:href="#a" y1="39.4818" y2="39.6582"/><linearGradient id="aw" gradientUnits="userSpaceOnUse" x1="30.9846" x2="26.36" xlink:href="#a" y1="39.4775" y2="39.7895"/><linearGradient id="ax" gradientUnits="userSpaceOnUse" x1="25.4322" x2="36.4262" xlink:href="#a" y1="40.5214" y2="39.7188"/><path d="m32 99c4.1667-20.8333 4.1-67-9.5-73" stroke="#87804d"/><path d="m2.49057 23.7175s14.01043-3.8786 19.86653 5.1999c.1911.2952.4555.8534.4976 1.4472.103 1.4267-.7505 4.3461-4.1496 4.965-.3363.0626-1.3673.1605-1.8168.1587-1.2294-.0048-12.4324-1.7081-14.39773-11.7708z" fill="#1c3232"/><path d="m2.49316 23.9678 19.58774 8.6285s-11.6437-1.4224-19.58774-8.6285z" fill="#1c3232"/><path d="m22.0643 32.6397c-.1168-.0149-11.7521-1.5028-19.60978-8.6397-.01408-.0137-.01557-.0383.00322-.0559.01536-.0196.04495-.0229.0654-.0132l19.58606 8.6307c.0204.0097.0252.0336.0164.0519-.009.0156-.0249.0271-.0445.0311-.0065.0013-.0131.0026-.0165.0006zm-.3162-.1372-18.9874-8.366c7.06303 6.2609 17.0094 8.061 18.9874 8.366z" fill="url(#b)"/><path d="m21.952 33.225c.0293-.0054.0476-.0287.046-.0539-.0017-.0253-.0256-.0379-.0519-.0358-6.2067 1.1127-11.1492-1.5421-14.20637-3.962-3.31463-2.6249-5.18486-5.5549-5.20317-5.5827-.01106-.0178-.04457-.0258-.06664-.0104-.02552.0133-.03672.0438-.0224.061.01849.0306 1.89236 2.9656 5.21749 5.5999 3.07129 2.4343 8.04079 5.0983 14.28679 3.9811z" fill="url(#c)"/><path d="m19.575 34.1144c.7311-.1361 1.4686-.3247 2.2161-.5637.0292-.0082.044-.0338.0391-.0586-.0047-.0219-.0287-.0345-.0611-.0256-.7506.2423-1.4787.4235-2.1804.5542-5.8092 1.0816-9.9492-1.4112-12.48749-3.8601-3.09131-2.9759-4.54888-6.5296-4.56106-6.5644-.00781-.0185-.02831-.0289-.05116-.0247-.00326.0006-.00652.0012-.01305.0025-.02574.0104-.04041.0388-.02914.0595.01236.0376 1.47737 3.6042 4.57595 6.5901 1.82244 1.7557 3.84755 2.972 6.01675 3.6141 2.0548.6093 4.2476.6999 6.5386.2733z" fill="url(#d)"/><path d="m22.2627 32.6717s.0065-.0012.013-.0024c.0289-.011.0405-.0357.0356-.0603-1.8099-4.8195-7.1015-7.017-11.2214-8.0097-4.45792-1.0772-8.54508-1.0164-8.58772-1.0142-.02927.0054-.05455.0214-.05634.0444-.00486.0263.01611.045.04231.043.03939-.0016 4.11336-.0629 8.56135 1.0134 4.1.9908 9.3643 3.1735 11.1622 7.9613.0078.0184.0315.0281.051.0245z" fill="url(#e)"/><path d="m22.084 32.9821s.0163-.003.0225-.0099c.0253-.016.0299-.0452.0156-.0624-5.2346-6.4262-19.46663-9.3026-19.61011-9.3298-.0237-.0098-.05534.0103-.06364.0345-.01156.0248.00311.0476.02989.0539.14347.0273 14.34556 2.8979 19.56216 9.3019.0107.0122.0275.0176.0471.014z" fill="url(#f)"/><path d="m22.3988 32.2054s.0065-.0012.0097-.0018c.0289-.0109.0437-.0362.0357-.0572-.8264-2.6289-2.3895-4.7138-4.6462-6.2006-1.8066-1.187-4.0584-1.9963-6.6913-2.4032-4.48209-.6908-8.57566.033-8.61463.0402-.02923.0054-.04743.0285-.04579.0535s.02565.0403.05163.0355c.03896-.0072 4.1163-.728 8.58179-.0398 4.1137.6349 9.408 2.6342 11.2682 8.549.0078.0183.0283.0314.0511.0272z" fill="url(#g)"/><path d="m18.745 35.7914c-.3304.054-1.3545.1268-1.8278.1098-.7821-.0256-3.8827-.6418-6.95201-2.4002-2.8572-1.6368-6.48727-4.741-7.57455-10.2366l-.01956-.0881.09979-.0251c.13867-.0315 14.03183-3.4885 19.91893 5.9985.2195.3559.4726.9479.5227 1.5435.0736.9158-.2017 2.3952-1.2187 3.5508-.7294.8289-1.7108 1.3513-2.9224 1.549l-.0292.0048zm-16.13521-12.4891c1.09538 5.3823 4.66547 8.4286 7.47821 10.0402 3.2884 1.8846 6.3884 2.3596 6.8615 2.3737.4503.0149 1.4711-.0574 1.7823-.1052l.0292-.0048c1.1533-.1882 2.0908-.6828 2.7837-1.4734.9746-1.1074 1.2345-2.5283 1.1668-3.4097-.0416-.5676-.2863-1.1345-.4948-1.4745-4.7233-7.6062-14.6724-6.7898-18.32353-6.194-.64145.1046-1.08985.2043-1.28014.2472z" fill="url(#h)"/><path d="m7.98146 16.2855s16.01374-.0838 18.53304 12.2245c.0831.3992.1369 1.1277-.051 1.8257-.4521 1.6756-2.4726 4.7806-6.2318 4.429-.3735-.0348-1.4806-.2446-1.9421-.3862-1.2706-.3905-12.19901-5.8679-10.30462-18.0907z" fill="#1c3232"/><path d="m7.95508 16.5015 16.78402 16.3108s-11.496-5.2756-16.78402-16.3108z" fill="#1c3232"/><path d="m24.7023 32.8564c-.1163-.0536-11.5705-5.4066-16.79954-16.3273-.01151-.0208.00049-.0496.02688-.0668.02639-.0173.05735-.0152.07546.0013l16.7812 16.3079c.0182.0165.0165.0459-.0028.0675-.0096.0108-.0228.0194-.0398.0231-.0135.0028-.0274 0-.0379-.0036zm-.2725-.2615-16.26502-15.8079c4.76512 9.6273 14.33622 14.8337 16.26502 15.8079z" fill="url(#i)"/><path d="m24.5228 33.4715c.0235-.0045.0461-.0236.0548-.0461.0084-.0283-.0103-.0544-.0411-.0574-6.9265-.6635-11.0488-5.3255-13.2879-9.1213-2.42995-4.1155-3.2233-8.1279-3.23268-8.1676-.0017-.0264-.03328-.0412-.06017-.036 0 0-.00336.0006-.00672.0013-.03361.0064-.05525.0402-.04682.0653.00601.0404.80684 4.0632 3.24109 8.1927 2.2503 3.8114 6.3913 8.4996 13.3623 9.1665.0067-.0013.0134-.0026.0201-.0039z" fill="url(#j)"/><path d="m24.2357 33.7644c.0303-.0058.0528-.0279.0544-.055.0015-.03-.0204-.0526-.0543-.0491-8.1675.4079-12.1399-4.3942-14.0381-8.4949-2.05725-4.451-2.18071-9.054-2.18038-9.1016-.0019-.0294-.02699-.0484-.06068-.042-.03031.0058-.05593.0315-.05403.0609.00284.044.12427 4.6682 2.18919 9.1326 1.2129 2.623 2.8497 4.6834 4.8656 6.1184 2.5198 1.7937 5.638 2.611 9.275 2.4313l.0067-.0013z" fill="url(#k)"/><path d="m25.0337 32.9592c.0301-.0058.0556-.0313.0537-.0605.0161-6.2106-4.6378-10.4477-8.5434-12.9141-4.2304-2.6676-8.51642-3.8844-8.55793-3.8972-.0309-.0059-.06401.0063-.07906.0358-.01189.0259.00024.0562.02797.0656.04151.0128 4.32042 1.225 8.53692 3.8865 3.8877 2.452 8.5166 6.6702 8.5012 12.8392.0019.0293.0269.0482.057.0424l.0034-.0006z" fill="url(#l)"/><path d="m24.7445 33.2456s.0067-.0012.0134-.0025c.0299-.0116.0483-.0418.0431-.0705-2.9293-9.1668-16.66262-17.0243-16.80012-17.1018-.02146-.0166-.05819-.0066-.08371.019-.01882.0243-.01674.0565.00808.0725.1375.0775 13.84265 7.9197 16.75975 17.0562.0082.0221.0329.0352.0597.0301z" fill="url(#m)"/><path d="m25.3272 32.4853c.03-.0057.0554-.0312.0537-.0574.1768-3.3362-.6247-6.2734-2.392-8.7227-1.4112-1.9599-3.4382-3.6137-6.0208-4.9196-4.3997-2.2214-8.95162-2.6623-8.99597-2.6686-.03081-.0059-.06308.018-.0714.0461-.00833.0281.01025.0541.04087.0571.0475.0027 4.5791.4445 8.9614 2.6574 4.0364 2.04 8.7678 6.0469 8.3636 13.5603-.0014.0297.0234.0486.0537.0458 0 0 .0033-.0007.0067-.0013z" fill="url(#n)"/><path d="m20.2762 35.178c-.3973-.052-1.4929-.3055-1.9513-.465-.8107-.2792-3.822-1.9737-6.3723-4.9403-2.37557-2.7634-5.00982-7.4306-4.09289-13.9785l.01547-.108.11685.0019c.15704.0042 15.96837.5755 18.57947 13.1649.0978.4721.1423 1.221-.0312 1.9064-.2665 1.0563-1.1085 2.6353-2.5979 3.6128-.6207.4066-1.2887.6673-2.0004.7845-.5338.088-1.0902.0952-1.6691.0219zm-8.134-5.548c2.7327 3.1806 5.7956 4.7129 6.2848 4.8824.4688.1639 1.5637.4083 1.9072.4542 1.2858.1648 2.4644-.0896 3.4893-.7616 1.429-.9374 2.2356-2.4533 2.4917-3.4687.1658-.6541.1236-1.3703.0307-1.822-2.4622-11.8728-16.8252-12.9327-18.27126-13.0078-.86278 6.4214 1.73201 11.0047 4.06786 13.7264z" fill="url(#o)"/><g fill="#1c3232"><path d="m17.1675 8.80621s16.1598 5.49589 13.4669 20.19349c-.0862.4794-.3428 1.3128-.8279 2.033-1.1659 1.724-4.5227 4.5026-8.1551 2.7952-.3601-.1695-1.3854-.7907-1.7935-1.1136-1.1114-.8816-9.7919-10.8464-2.6904-23.90809z"/><path d="m16.8839 8.57826 10.237 25.19554s-9.7518-10.3638-10.237-25.19554z"/><path d="m27.056 33.8111c-.0964-.1037-9.7524-10.5407-10.2312-25.21787-.002-.03028.0224-.05959.0593-.06685.0037-.00072.0074-.00145.0074-.00145.0333-.00654.064.00583.0695.03235l10.2217 25.18592c.0091.0258-.0037.059-.0362.0777-.0074.0014-.0181.0097-.0255.0111-.0259.0051-.0486.0004-.0648-.0179zm-.1682-.4085-9.9027-24.40857c.5844 12.98557 8.3066 22.56377 9.9027 24.40857z"/></g><path d="m26.8165 34.0683c.0217-.0039.0392-.0163.0528-.0311.0199-.0313.0138-.0672-.02-.0795-7.0347-3.2167-9.3149-9.9907-9.9889-15.1088-.7288-5.5513.22-10.40141.2276-10.45202.0052-.03172-.0188-.06121-.0554-.06071-.0406-.00492-.0716.02532-.0802.06074-.0114.04823-.9627 4.91419-.2329 10.48069.6756 5.1424 2.9691 11.9509 10.0491 15.1871.0115.0072.0261.0076.0442.0043z" fill="url(#p)"/><path d="m26.4143 34.1533c.025-.0046.0493-.0213.0588-.0415.0196-.0312.0029-.0649-.0303-.0742-8.7133-2.4229-10.7461-9.269-10.9166-14.5884-.1862-5.7707 1.7186-11.03542 1.7368-11.08786.0123-.03294-.0042-.06365-.0444-.06855-.0256-.00449-.0715.01314-.0872.04976-.0182.05244-1.929 5.33665-1.7452 11.12615.1078 3.4042.9108 6.3157 2.3817 8.6536 1.8396 2.9237 4.7352 4.9541 8.6138 6.0309.0111.0041.0218.0021.0326.0001z" fill="url(#q)"/><path d="m27.3389 33.7881c.025-.0045.0524-.0249.0617-.0481 2.7597-7.062-.2346-13.5359-3.2319-17.7266-3.2436-4.5344-7.1936-7.4405-7.2316-7.47026-.0264-.0166-.0695-.01477-.0966.01166-.0271.02644-.0282.06341.0019.08238.038.02976 3.9765 2.92572 7.2087 7.45002 2.9849 4.1684 5.9628 10.6116 3.2216 17.6274-.0122.0328.0043.0635.0407.0691.0071-.0014.0182.0027.0253.0014z" fill="url(#r)"/><path d="m27.0918 33.9872c.0327-.0059.064-.0331.0656-.0642 1.0055-11.5109-10.0937-25.37747-10.2063-25.5173-.0202-.02715-.0645-.02837-.0962-.00723-.0317.02115-.0438.06031-.0238.08441.1126.13983 11.1914 13.97622 10.187 25.44992-.0016.0311.0259.0569.0664.0558z" fill="url(#s)"/><path d="m27.7608 33.3896c.0246-.0046.0484-.0212.0576-.0443 1.6425-3.731 2.0934-7.3503 1.3343-10.7597-.6072-2.727-1.9779-5.3241-4.0827-7.7237-3.5821-4.0802-8.1014-6.19235-8.1456-6.21464-.0257-.0135-.075-.00435-.0942.02669-.0195.02803-.0136.06354.0194.07875.0442.02229 4.5486 2.125 8.1119 6.1903 3.2897 3.7472 6.4339 9.9769 2.7338 18.3703-.0156.0334.0042.0633.0368.0725.0072.0017.018.0027.0285.0008z" fill="url(#t)"/><path d="m21.7203 34.0912c-.3498-.1813-1.3702-.8401-1.7975-1.1983-.7097-.5934-3.0862-3.5192-4.4694-7.6802-1.2907-3.8735-2.0694-9.9337 1.5478-16.80036l.0596-.11366.1155.04534c.1607.05936 16.0432 6.28278 13.549 21.02738-.0921.5501-.3533 1.3875-.8119 2.083-.697 1.0584-2.1889 2.4911-4.099 3.0414-.2297.0651-.457.1174-.6853.1547-1.1652.1902-2.3072.0037-3.4091-.5623zm-6.0188-8.971c1.4833 4.4595 3.9774 7.2286 4.4083 7.5893.4092.3428 1.4226.9997 1.7581 1.1712 1.2502.6426 2.5715.7724 3.8927.3916 1.8302-.5281 3.2652-1.9026 3.9346-2.9199.4371-.6644.6876-1.4634.7747-1.9882 2.3518-13.9082-11.8572-20.15721-13.3011-20.75299-3.5073 6.74469-2.7399 12.69679-1.4707 16.50959z" fill="url(#u)"/><path d="m55.5476 16.3999s-14.1742 1.3711-18.7185 12.3867c-.1484.3585-.3345 1.0005-.2989 1.5956.0834 1.4303 1.293 3.9654 4.6903 3.3184.3363-.0627 1.3585-.3472 1.7937-.5138 1.1992-.4572 11.9133-6.2428 12.5334-16.7869z" fill="#1c3232"/><path d="m55.5415 16.4056-18.0753 16.2677s11.1897-6.0509 18.0753-16.2677z" fill="#1c3232"/><path d="m37.4213 32.7018c-.0143-.0164-.0091-.0396.0097-.0572l18.076-16.2694c.019-.0149.0482-.0236.0654-.0133.0206.0124.0252.0335.0098.0532-6.8161 10.1127-17.9857 16.2291-18.098 16.2877-.0065.0013-.0129.0054-.0194.0067-.0197.004-.0332-.0015-.0471-.0125zm.3552-.2541c1.8932-1.0902 11.381-6.8323 17.5205-15.7707z" fill="url(#v)"/><path d="m37.7201 32.9208c6.2405-1.2014 10.7466-5.6278 13.4299-9.1279 2.9053-3.7884 4.355-7.3433 4.3691-7.38.0115-.0249-.0032-.0477-.0298-.0513-.027-.0092-.0554.0103-.0637.0345-.0143.0339-1.4614 3.5771-4.3572 7.358-2.6713 3.4836-7.1526 7.8856-13.354 9.0797-.0293.0055-.0476.0288-.046.054.0017.0253.0258.0407.0519.0358z" fill="url(#w)"/><path d="m40.1752 32.9358c2.2911-.4266 4.4195-1.3217 6.3463-2.6724 2.0344-1.4248 3.8506-3.3563 5.406-5.7409 2.6388-4.057 3.6085-8.0769 3.6159-8.1153.0083-.0244-.0097-.0467-.0362-.0474-.0065.0012-.0097.0018-.013.0024-.0229.0042-.0415.022-.0468.0429-.0106.039-.9745 4.0464-3.6076 8.0882-2.1647 3.3245-5.8803 7.28-11.6897 8.3616-.7016.1307-1.4358.2189-2.1994.2613-.0294.0055-.0546.0245-.0564.0476-.0016.0259.0162.0454.0458.0428.7603-.0418 1.5077-.1297 2.2355-.2652z" fill="url(#x)"/><path d="m37.3222 32.4565c.0227-.0042.0446-.0224.0466-.0425 1.1353-5.3304 5.991-9.3878 9.8649-11.8507 4.2024-2.6734 8.1868-4.1028 8.2253-4.1184.0289-.011.0436-.0363.0357-.0574-.0049-.0246-.0349-.0303-.0607-.0227-.0387.0128-4.0359 1.4473-8.251 4.1288-3.8927 2.4776-8.7732 6.5566-9.9163 11.9195-.0051.0235.0128.0456.0425.0458.0032-.0006.0065-.0012.013-.0024z" fill="url(#y)"/><path d="m37.5497 32.7154c.0195-.0037.032-.0145.0441-.0309 4.2638-8.1613 17.7576-16.1663 17.8908-16.2449.0255-.0132.0367-.0436.0222-.0636-.0112-.0206-.0412-.0263-.0666-.0103-.1365.0791-13.6588 8.1007-17.9372 16.2903-.0116.0248-.0034.0488.0233.0552.0069.0044.0167.0026.0232.0014z" fill="url(#z)"/><path d="m37.1093 32.0295c.0228-.0042.0446-.0223.0464-.0452 1.0493-6.4512 5.958-10.3318 9.8911-12.4505 4.2696-2.299 8.343-3.0811 8.3819-3.0883.0293-.0054.0475-.0284.0458-.0534-.0016-.0251-.0256-.0404-.0516-.0356-.039.0072-4.1285.7923-8.414 3.0998-2.5173 1.3566-4.6106 2.9643-6.22 4.784-2.0102 2.2736-3.2657 4.8782-3.7317 7.7453-.0051.0235.0161.0449.0422.0429.0033-.0006.0065-.0012.0098-.0018z" fill="url(#A)"/><path d="m38.2363 33.3372c-1.1569-.8009-1.6396-2.1565-1.7035-3.0739-.0434-.5937.1214-1.2539.2872-1.6756 4.3764-11.1585 18.4383-12.2631 18.5812-12.2805l.1011-.0077-.0064.0924c-.2636 5.7158-3.3623 9.9179-5.9154 12.4375-2.7426 2.7066-5.6808 4.3082-6.4408 4.5854-.4597.1693-1.4735.426-1.8005.4823l-.0292.0048c-1.2084.1972-2.2419.0065-3.074-.5676zm-1.2261-4.704c-.1574.4027-.3111 1.0345-.2698 1.5992.058.883.5205 2.1859 1.6323 2.953.7906.5454 1.7775.7261 2.9308.5379l.0292-.0048c.311-.0507 1.3182-.3093 1.7586-.4725.4599-.1664 3.4179-1.6328 6.3563-4.5304 2.5133-2.4807 5.5586-6.6063 5.8498-12.2147-1.2861.1214-14.1533 1.6025-18.2809 12.1283z" fill="url(#B)"/><path d="m48.8825 10.4194s-15.6349 5.9511-16.5233 18.9091c-.0302.4207.0103 1.1518.2825 1.7621.6549 1.4645 3.0222 3.7327 6.6451 1.9734.36-.1746 1.4101-.7957 1.8456-1.1083 1.19-.8598 11.154-10.3211 7.7503-21.5334z" fill="#1c3232"/><path d="m48.9801 10.3819-14.4535 22.9934s10.5902-10.0005 14.4535-22.9934z" fill="#1c3232"/><path d="m34.4916 33.4157c-.0213-.0128-.0262-.0379-.0106-.0645l14.451-22.989c.0121-.0259.0456-.0389.0734-.0332.0277.0057.0428.0287.034.0538-3.8225 12.8569-14.3627 22.9178-14.4665 23.0156-.0099.0079-.0231.0165-.0366.0194s-.0308.0008-.0414-.0056zm.3131-.3838c1.7663-1.7647 10.4879-10.8841 14.0062-22.2833z" fill="url(#C)"/><path d="m34.9135 33.5792s.0134-.0025.0201-.0038c6.7163-3.2792 10.1583-9.4147 11.8676-13.9819 1.848-4.9469 2.1163-9.1708 2.1168-9.2154.0015-.03-.0236-.0489-.054-.0461 0 0-.0034.0006-.0067.0013-.0303.0058-.0558.0314-.0541.0578-.0041.0423-.2696 4.2568-2.1119 9.1877-1.7005 4.5448-5.1274 10.6507-11.7974 13.9092-.0296.0146-.0445.0471-.0328.0715.0081.0193.0326.0294.0595.0243z" fill="url(#D)"/><path d="m35.2432 33.7792.0067-.0013c3.5715-1.193 6.5093-3.1689 8.7388-5.869 1.7802-2.1594 3.1144-4.7838 3.9661-7.8037 1.4415-5.1336.9731-9.6916.9703-9.7356-.0019-.0294-.0302-.0448-.0605-.039-.0337.0064-.0555.0373-.0538.0638.003.047.4702 4.5873-.9688 9.7055-1.3255 4.713-4.5914 10.8994-12.6088 13.5772-.0334.0123-.052.0396-.0468.0683.0051.0258.0332.0383.0601.0332z" fill="url(#E)"/><path d="m34.3278 33.2273c.0301-.0057.0588-.0348.0535-.0634-.8051-6.0124 3.1762-11.8765 6.6598-15.7352 3.7744-4.1863 7.7914-6.9786 7.8336-7.0074.0258-.0197.034-.0508.0189-.0746-.0151-.0237-.049-.0232-.0817-.0051-.0389.0281-4.0686 2.8318-7.8558 7.0294-3.4961 3.8758-7.4961 9.7672-6.6883 15.8204.0017.0263.03.0446.0602.0388z" fill="url(#F)"/><path d="m34.659 33.4228c.0268-.0051.0492-.0272.0544-.0519 1.6807-10.011 14.0515-22.8327 14.1758-22.9602.0224-.022.0201-.0571-.0014-.0738-.0214-.0166-.0585-.0125-.084.0131-.1243.1274-12.5206 12.9748-14.2094 23.02-.0048.0305.017.053.0509.0525.0034-.0007.0068-.0013.0135-.0026z" fill="url(#G)"/><path d="m33.9598 32.8448s.0033-.0007.0067-.0013c.03-.0057.0549-.0399.0465-.0649-1.3525-7.1783 2.7528-12.8708 6.4342-16.383 3.9901-3.81 8.3554-5.9459 8.4014-5.9665.0295-.0145.0443-.0468.0326-.0711s-.0429-.036-.0756-.018c-.0426.0199-4.4274 2.1684-8.4368 5.9939-2.3532 2.2475-4.12 4.6249-5.247 7.069-1.4086 3.0551-1.8196 6.2207-1.2214 9.4119.0017.0263.0331.0409.0598.0358z" fill="url(#H)"/><path d="m35.7644 33.741c-1.5949-.4694-2.6443-1.7368-3.0565-2.6813-.2681-.6127-.3324-1.3584-.3049-1.8511.7337-13.1374 16.0879-18.8425 16.2437-18.9013l.1138-.0398.0306.1004c1.8378 6.0941-.0651 11.5117-1.9834 14.9794-2.0628 3.7265-4.7588 6.3611-5.51 6.8977-.4246.305-1.4577.909-1.8381 1.0892-.5546.2601-1.0989.4341-1.6327.522-.7117.1173-1.4016.0773-2.0658-.1146zm-3.1323-4.546c-.0257.4713.0362 1.1842.2922 1.7688.3963.9079 1.4022 2.1282 2.9321 2.5753 1.1005.3218 2.2847.1901 3.5162-.3924.3287-.1566 1.3624-.7518 1.7965-1.0643.4532-.3248 3.2226-2.8208 5.4329-6.8127 1.8888-3.4146 3.762-8.737 1.9952-14.7252-1.4009.5441-15.2708 6.2547-15.9654 18.6475z" fill="url(#I)"/><path d="m38.6095 5.73607s-15.0574 11.39553-10.5348 24.72933c.1459.4356.5037 1.1529 1.0698 1.6744 1.3599 1.2466 4.9932 2.7042 8.317-.3178.3294-.2998 1.2496-1.2887 1.6061-1.7561.9707-1.2751 8.1547-14.2381-.4581-24.32983z" fill="#1c3232"/><path d="m38.8861 5.43309-6.8106 28.53981s8.2061-13.8872 6.8106-28.53981z" fill="#1c3232"/><path d="m32.059 34.0301c-.034-.0056-.0545-.0323-.0451-.0617l6.7996-28.52917c.0056-.0287.034-.05268.0636-.05849 0 0 .0037-.00073.0074-.00146.0333-.00654.0646.0149.0663.04215 1.3804 14.49937-6.7238 28.42537-6.8048 28.56397-.0136.0211-.035.0375-.0609.0426-.0074.0015-.0185.0036-.0263-.001zm.1999-.5053c1.3245-2.4186 7.6544-14.7573 6.5862-27.64726z" fill="url(#J)"/><path d="m32.5101 34.0949s.0321-.012.0426-.02c6.4788-5.7019 7.8121-13.1699 7.788-18.4308-.0275-5.69419-1.6026-10.10066-1.6201-10.14363-.0093-.02909-.0471-.04682-.0864-.03046-.0357.01266-.0588.05071-.0459.07914.0139.04362 1.5845 4.43859 1.6111 10.11755.0261 5.2359-1.3025 12.6661-7.7397 18.3328-.0312.0272-.0325.0613-.009.0847.0155.0125.0376.0147.0557.0114z" fill="url(#K)"/><path d="m32.9112 34.1748s.0214-.0039.0318-.012c3.639-2.4567 6.2001-5.4886 7.6094-9.0087 1.1268-2.8147 1.5261-5.9469 1.1822-9.3077-.581-5.7166-3.1464-10.17915-3.1711-10.22371-.0163-.02768-.0637-.03126-.0917-.01692-.035.0187-.0506.05532-.0343.083.0247.04456 2.5784 4.49393 3.1581 10.19233.5319 5.2531-.5483 12.6706-8.7275 18.1912-.0312.021-.0431.06-.0198.0834.012.0162.0378.0237.0629.0191z" fill="url(#L)"/><path d="m31.9229 33.8243s.0178-.0033.0245-.0107c.0348-.0186.0504-.0552.0306-.0822-3.598-5.8479-1.5401-13.2188.8241-18.3727 2.5621-5.5918 6.0206-9.85047 6.0538-9.89335.0233-.02881.0209-.06513-.009-.08107-.0299-.01593-.0725-.00503-.0958.02377-.0332.04289-3.5053 4.31326-6.0735 9.92145-2.3733 5.1801-4.4432 12.587-.821 18.4733.0121.0192.038.0298.0665.0245z" fill="url(#M)"/><path d="m32.2249 34.0111.0073-.0014c.0361-.0096.0632-.0453.0573-.0781-2.5098-10.8372 6.4564-28.30301 6.5476-28.47973.0162-.03374-.0007-.06458-.0344-.07387-.0374-.00863-.0805.00841-.0966.04214-.0912.17672-9.0733 17.67936-6.5574 28.55236.0056.0298.0398.0451.0726.0392z" fill="url(#N)"/><path d="m31.4278 33.5206s.0211-.0039.0277-.0113c.0342-.0216.046-.0573.0265-.0842-4.7031-6.8303-2.4525-14.0634.2678-18.9283 2.9492-5.27664 7.0658-8.98594 7.1097-9.02155.0304-.02397.0316-.06078.0087-.08398s-.0723-.01706-.0955.00861c-.0402.03798-4.1773 3.76023-7.1359 9.05682-1.7402 3.1148-2.7418 6.1532-2.9781 9.037-.2918 3.6048.6174 6.9711 2.7109 10.0072.0119.0191.0373.0266.0619.022z" fill="url(#O)"/><path d="m33.7013 33.8728c-1.9448.079-3.6095-.8383-4.4437-1.6468-.5486-.5279-.9254-1.2612-1.0988-1.7709-4.5743-13.5906 10.027-24.79086 10.1753-24.90066l.1061-.08153.0748.09174c4.5292 5.53655 4.6495 11.70125 3.9525 15.90225-.746 4.5055-2.6409 8.1287-3.2473 8.94-.3652.4876-1.2654 1.463-1.5805 1.7529-.9903.9046-2.0815 1.4557-3.2467 1.6459-.2283.0373-.4578.0594-.6915.0701zm-5.2944-3.5102c.1649.4866.5258 1.1889 1.0453 1.691.8014.7771 2.402 1.6561 4.2656 1.5811 1.3585-.0567 2.6128-.607 3.7434-1.6383.3026-.2756 1.1965-1.2439 1.5459-1.7137.3683-.4911 2.4006-4.0022 3.2009-8.8315.6851-4.1318.5693-10.1902-3.8349-15.64329-1.3231 1.04752-14.284 11.72629-9.9698 24.55219z" fill="url(#P)"/><path d="m28.5258 5.85552s13.4425 9.95378 6.11 24.36698c-.2373.4676-.7489 1.2617-1.443 1.8725-1.6612 1.4662-5.7289 3.4326-8.5978.7076-.2857-.2698-1.0487-1.1842-1.3279-1.6213-.761-1.2019-5.6925-13.7689 5.2553-25.32513z" fill="#1c3232"/><path d="m28.6489 5.21972 1.2294 29.27558s-6.4571-13.6308-1.2294-29.27558z" fill="#1c3232"/><path d="m29.786 34.5216c-.0626-.1385-6.3624-13.822-1.2212-29.30129.0065-.02608.0389-.04969.0728-.05465.0042-.00062.0085-.00125.0127-.00187.0429.00001.0745.0205.077.05156l1.2227 29.26655c.0025.031-.0294.0608-.0673.0695-.0042.0006-.0084.0013-.0084.0013-.0382.0056-.0736-.0081-.0843-.0348zm-.0214-.4777-1.1842-28.36392c-4.3764 13.74252.1855 25.97422 1.1842 28.36392z" fill="url(#Q)"/><path d="m29.5512 34.3727s.0309-.0083.0458-.0202c.0336-.0244.0349-.062.0096-.0857-5.9106-5.1616-5.7588-12.7739-4.5897-18.251 1.2659-5.9418 3.9718-10.72319 3.9998-10.77155.0214-.03165.0032-.06594-.0331-.07847-.04-.0088-.086.00834-.1032.04241-.0242.04769-2.7408 4.84331-4.0095 10.80131-1.1749 5.506-1.328 13.1559 4.6202 18.3485.0169.0158.0406.018.064.014z" fill="url(#R)"/><path d="m29.0966 34.2859s.0368-.0127.0508-.0276c.0281-.0297.0256-.0664-.0058-.0856-7.6384-4.772-7.2466-12.3789-5.5721-17.9188 1.8153-6.0106 5.4883-10.95366 5.5226-11.00306.0241-.03213.0179-.06817-.0171-.08366-.0386-.01483-.0828-.00082-.1033.03065-.0379.05005-3.7247 5.01107-5.546 11.04437-1.0701 3.5448-1.3007 6.7615-.6754 9.5607.7751 3.5002 2.8947 6.3508 6.2893 8.4745.0157.0096.0347.0124.0533.0091z" fill="url(#S)"/><path d="m29.5157 34.643c.0238-.0039.0471-.014.0579-.0314 5.4873-6.6316 4.762-14.1786 3.1891-19.3411-1.7039-5.58699-4.7444-9.6663-4.7753-9.70486-.022-.02754-.0665-.03263-.1093-.01305-.0386.02201-.052.05857-.0299.08611.0311.04164 3.0625 4.10684 4.7613 9.6791 1.5672 5.1385 2.2857 12.6461-3.1644 19.2371-.026.0293-.0192.0687.0181.0844.0165.0066.0326.007.0485.0044z" fill="url(#T)"/><path d="m29.2559 34.6851c.0303-.0045.064-.0222.0751-.049 5.7492-11.7381-1.0379-29.10783-1.1084-29.28235-.0109-.02661-.047-.03997-.0859-.03407-.0044.00066-.0087.00131-.0174.00262-.0428.01277-.0705.05149-.0594.0812.0662.17518 6.8416 17.5059 1.1113 29.2066-.0149.0336.0053.0682.0496.0741.0087-.0013.0265.0023.0351.0009z" fill="url(#U)"/><path d="m30.0621 34.4159c.0229-.004.0416-.0134.0558-.0314 3.0069-3.4523 4.7578-7.1107 5.2099-10.8686.3577-3.008-.1054-6.0829-1.3916-9.1463-2.1832-5.21194-6.0273-8.62396-6.0642-8.65488-.0249-.02369-.0712-.02192-.1081.00309-.0329.02742-.0341.06493-.0095.08555.0372.03399 3.8646 3.43023 6.039 8.62504 2.0028 4.7892 2.9734 12.1247-3.7917 19.8985-.025.0291-.0186.0653.0137.0846.0159.0066.0316.0101.0507.0068z" fill="url(#V)"/><path d="m28.4969 34.4424c-1.4738.0371-2.7522-.4728-3.8001-1.517-.2768-.277-1.0441-1.2257-1.3391-1.7022-.4896-.7976-1.833-4.4097-1.8407-9.0025-.0087-4.2828 1.1622-10.6434 6.7731-16.63364l.095-.10131.0979.07609c.1344.10698 13.3186 10.71656 6.2939 25.00816-.2645.5367-.7778 1.3163-1.4323 1.8949-.8534.7551-2.3407 1.6285-3.9957 1.8974-.2803.0455-.5654.0734-.852.0801zm-6.7122-12.2529c.0084 4.9269 1.5134 8.4116 1.8088 8.8942.2835.4599 1.0468 1.4001 1.3092 1.6672.9999.9968 2.2153 1.4862 3.6139 1.4491 1.8998-.0541 3.6922-1.0537 4.6484-1.8991.6257-.5525 1.1141-1.2973 1.3701-1.8112 6.6265-13.4817-4.9575-23.66738-6.1452-24.66126-5.4741 5.89746-6.6157 12.14596-6.6088 16.35856z" fill="url(#W)"/><path d="m38.2839 33.7057c-1.0792-3.0917 2.3229-5.3485 4.7756-6.2167 2.4747-.8773 4.3065-.8889 6.619-.0094 1.7603.6706 3.6545 1.5759 5.5712.7151-.2719 1.9305-3.5211 3.5122-5.0101 4.2576-2.0899 1.05-4.2993 2.0165-6.5596 2.3911-1.8358.3023-4.7472.4862-5.3961-1.1377z" fill="#1c3232"/><path d="m38.2253 32.8601c1.9143-2.7616 6.1795-3.2107 9.2473-2.752 2.7516.4095 4.7989-.3936 7.3826-1.4124l.2077-.0833-.0514-.0932-.2079.081c-2.5588 1.0104-4.5811 1.8073-7.2877 1.4008-3.1194-.4655-7.4507-.0042-9.4117 2.817l.1209.0397z" fill="url(#X)"/><path d="m48.3581 31.5768c.8457-.1235 1.6348-.3222 2.3013-.5841 1.7857-.7018 3.9854-1.8478 4.4392-2.3145l-.1061-.056c-.4421.4531-2.6144 1.5808-4.3846 2.2756-1.3734.5391-3.2803.8034-5.1027.6979-.4772-.028-.9111-.0743-1.3289-.1181-.8229-.0895-1.6038-.1708-2.5674-.0896-.1046.0081-.2089.021-.3099.0358-1.2053.1761-2.1101.7563-2.9907 1.3187l-.1737.1112.0792.079.1736-.1112c.9781-.6243 1.911-1.2134 3.2167-1.3255.9446-.0785 1.716.0042 2.5325.0923.4211.0457.8582.0915 1.3385.119.9639.0546 1.9525.0103 2.8771-.1248z" fill="url(#Y)"/><path d="m38.4167 32.6889c.3049-1.2438 1.0687-2.2053 2.2709-2.8586 3.2087-1.7461 8.5248-.7574 8.5767-.7481 2.4911.3098 5.8688-.8196 5.9032-.8324l-.0393-.1011c-.0313.0099-3.3749 1.124-5.8205.8246-.0487-.0099-5.4232-1.0094-8.6905.7683-1.2391.674-2.0265 1.6641-2.3418 2.9419l.1381.0059z" fill="url(#Z)"/><path d="m46.3967 33.0978c1.3712-.2133 2.6058-.7241 3.9057-1.2625l.1367-.0586c1.7166-.7102 3.5439-1.7987 4.0965-2.2656.1812-.1527.3163-.3231.4487-.4856.0676-.0852.1353-.1679.2064-.2487l-.1097-.0552c-.074.0838-.1447.1694-.2123.2546-.1263.1591-.2587.3217-.4276.4674-.5313.4512-2.374 1.547-4.0536 2.2391l-.1368.0561c-1.4773.6108-2.8674 1.1856-4.4682 1.3226-.8211.0705-1.6536.0257-2.457-.0161-.7296-.0384-1.4849-.0777-2.2374-.0329l-1.9099.1129c-.0828.0055-.175.0148-.267.0267-.2064.0246-.4191.0502-.5783.0177l-.05.1074c.182.0364.4107.0108.6297-.0158.089-.0089.1779-.0202.2576-.0251l1.9099-.1129c.7429-.0434 1.4948-.006 2.2181.0333.8068.0438 1.6455.0851 2.4794.0151.2069-.0172.4133-.0419.6159-.0734z" fill="url(#aa)"/><path d="m38.1109 33.8343c-.3536-.9937-.2419-1.9753.3361-2.9259.9455-1.5612 2.9953-2.7376 4.5987-3.317 2.522-.9168 4.415-.9643 6.7326-.1672.1663.0586.3326.1172.5024.1779 1.6136.5696 3.2803 1.1546 4.9716.3877l.192-.088-.0269.1769c-.2912 1.8711-3.4774 3.4747-5.0063 4.2434l-.1286.0661c-1.9432.9775-4.2543 2.0353-6.6468 2.4703l-.1477.0256c-1.7937.3119-4.7227.5476-5.3771-1.0498zm12.0466-6.0386c-.1663-.0586-.3329-.1198-.499-.1757-2.2842-.7838-4.0543-.744-6.5478.1623-1.5559.563-3.5401 1.7006-4.4476 3.2006-.5428.8953-.6515 1.8244-.3151 2.7582.6038 1.4724 3.4061 1.2367 5.126.9377.0514-.0089.0995-.0173.1476-.0256 2.3573-.4289 4.6401-1.4736 6.5644-2.4423l.1288-.0634c1.4408-.7261 4.3855-2.2057 4.8259-3.8895-1.7197.6843-3.3795.1036-4.9798-.4602z" fill="url(#ab)"/><path d="m32.2317 35.4983c-.2251-3.3438 3.5716-4.6295 6.1095-4.8064 2.5636-.1809 4.295.3127 6.2545 1.821 1.4926 1.1461 3.0442 2.5619 5.0767 2.2425-.7521 1.8263-4.2303 2.4869-5.8291 2.8122-2.242.4578-4.58.7996-6.811.5439-1.8133-.2074-4.6119-.8322-4.8036-2.6099z" fill="#1c3232"/><path d="m49.444 34.7045-.0078-.1102-.2221.0354c-2.7127.4274-4.8545.7637-7.2867-.3283-2.7935-1.2548-7.0124-1.844-9.7143.639l.101.0675c2.6387-2.4248 6.7834-1.8414 9.5338-.6051 2.4719 1.1084 4.6359.7685 7.3741.3371z" fill="url(#ac)"/><path d="m44.6375 36.1943c1.8961-.3002 4.3082-.9643 4.8809-1.3423l-.0796-.0832c-.5543.3675-2.9322 1.0162-4.8061 1.3128l-.0063.001c-1.4553.2304-3.332.0361-5.0163-.5188-.4433-.1466-.839-.3007-1.2216-.4518-.7488-.2948-1.4546-.5711-2.3825-.7242-1.3103-.2109-2.4318.2061-3.5155.6121l-.2.0744.0425.1017.2031-.075c1.1088-.415 2.1519-.8069 3.4233-.6024.9146.1475 1.6141.4249 2.3562.7157.3826.1511.7785.3077 1.225.4537 1.7071.5614 3.6097.7592 5.0904.5248l.0064-.001z" fill="url(#ad)"/><path d="m49.5882 34.5069.0048-.1151c-.0318.0052-3.506.3092-5.718-.6239-.0467-.0235-4.9674-2.5019-8.5727-1.3576-1.2784.4053-2.2487 1.2123-2.8866 2.4011l.1247.0341c.6209-1.1549 1.5607-1.9386 2.7951-2.3289.2708-.0861.5464-.1497.8327-.1968 3.4239-.5634 7.5835 1.5256 7.627 1.5496 2.2485.9479 5.7576.6381 5.796.6344z" fill="url(#ae)"/><path d="m44.2268 36.9c1.8173-.2886 3.8467-.9318 4.5027-1.2684.2167-.1102.3961-.2499.5694-.3835.0851-.0666.1733-.1336.2619-.1957l-.0795-.0809c-.0947.0656-.183.1327-.2711.2023-.1671.1301-.3405.2637-.5385.3659-.6282.3221-2.6767.9683-4.4495 1.2499l-.1586.0251c-1.5572.2473-3.0319.4816-4.5641.2222-.7921-.1345-1.5571-.3843-2.2989-.6228-.673-.219-1.3691-.447-2.0911-.5875l-.2636-.0541c-.5204-.1018-1.0409-.206-1.5548-.3063-.0812-.0149-.1686-.0263-.2593-.0397-.2008-.0262-.4112-.0534-.5509-.1247l-.0893.0975c.163.0828.3831.111.5967.1377.0874.0114.1748.0228.2497.0387.5138.1002 1.0344.2045 1.5548.3063l.2636.0541c.7123.1396 1.405.3655 2.0749.5851.7452.2429 1.5167.4943 2.3185.6297 1.5583.2653 3.0457.0291 4.6188-.2207l.1586-.0252z" fill="url(#af)"/><path d="m36.9564 38.1629c-1.7448-.1502-4.6976-.6757-4.8854-2.4795l-.0004-.0054c-.0644-1.089.3155-2.0448 1.1252-2.8428 1.3091-1.2873 3.5346-1.9023 5.1774-2.0573 2.6084-.2383 4.3837.2159 6.3377 1.6243.1401.1015.2835.2051.4238.3093 1.3574.9951 2.7624 2.0229 4.5537 1.7107l.1894-.033-.0703.1601c-.7777 1.7914-4.1993 2.5383-5.8414 2.8956l-.1344.0289c-.5985.1317-1.2296.2608-1.8813.3744-1.6019.2792-3.3243.4589-4.9974.3126zm8.008-5.2821c-.1435-.1037-.2838-.2078-.4239-.3093-1.9298-1.388-3.6028-1.819-6.1725-1.5846-1.5979.1471-3.7437.74-4.9947 1.9734-.7611.7485-1.1157 1.6478-1.0555 2.6746.1728 1.6778 3.0195 2.1725 4.6958 2.3183 2.3168.2011 4.7397-.2322 6.7946-.6806l.1345-.0289c1.5427-.3373 4.702-1.0247 5.5605-2.5839-1.8068.2273-3.1983-.792-4.5421-1.7785z" fill="url(#ag)"/><path d="m21.1881 34.7644c.5948-3.3544-3.0632-4.5033-5.5877-4.5905-2.5473-.0893-4.3382.4675-6.46617 2.0438-1.61965 1.2009-3.3321 2.6723-5.33199 2.426.5523 1.8012 3.96069 2.3382 5.52573 2.6044 2.19723.3774 4.49543.6365 6.76193.3008 1.8379-.2742 4.7088-.9976 5.1014-2.785z" fill="#1c3232"/><path d="m21.1281 34.0886.1126-.0742c-2.323-2.192-6.6319-1.379-9.6146-.0111-2.594 1.1835-4.68471.9978-7.3379.7561l-.21514-.0186-.03694.1061.21531.021c2.67564.2433 4.78897.4327 7.42927-.772 2.9367-1.3419 7.1695-2.1485 9.4444-.0045z" fill="url(#ah)"/><path d="m11.042 35.7789c.9245-.135 1.8988-.3751 2.8342-.7095.4663-.1658.8875-.337 1.2931-.5035.7865-.3222 1.5297-.6262 2.4688-.823 1.3033-.2761 2.2895.0397 3.3372.368l.186.0586.0661-.1002-.1861-.0586c-1.0249-.3221-2.0794-.6566-3.4235-.372-.9581.1995-1.7074.5068-2.5001.8323-.4026.1637-.8207.3343-1.2837.4997-1.7654.6297-3.6734.9227-5.09257.7916-1.83011-.1687-4.11954-.6445-4.62093-.9597l-.0958.0855c.51487.3252 2.83373.8109 4.68311.9816.6903.0636 1.49149.03 2.33709-.0936z" fill="url(#ai)"/><path d="m20.8519 33.8327.1342-.0483c-.4891-1.1525-1.3992-1.878-2.7064-2.1553-3.4465-.7292-8.56115 1.9044-8.61376 1.93-2.3368 1.042-5.76726.9857-5.80263.9838l-.02409.1109c.03202 0 3.50138.0626 5.88761-1.0045.0556-.0286 5.11477-2.6311 8.49957-1.9147 1.2681.2684 2.1511.9733 2.6253 2.0957z" fill="url(#aj)"/><path d="m13.2295 36.681c.1995-.0311.408-.071.6128-.1178.8286-.1887 1.6366-.4862 2.4226-.7778.7051-.2591 1.4319-.529 2.1678-.7157l1.8806-.4768c.0787-.0197.1672-.036.2586-.0552.218-.0414.4455-.0843.6181-.1783l-.0641-.0897c-.1511.0808-.3627.1212-.568.1606-.0947.0197-.1863.0365-.265.0562l-1.8806.4768c-.7454.1882-1.4785.4591-2.1898.7217-.7767.2876-1.5815.5846-2.3977.7689-.2016.0463-.4037.0852-.6001.1158-1.3521.2103-2.6222.0917-3.95683-.0343l-.14181-.0127c-1.73417-.161-3.69463-.6652-4.28122-.9424-.18878-.0876-.34168-.2108-.48771-.3275-.07812-.0625-.15607-.1226-.237-.1797l-.0994.0877c.08076.0546.15554.1152.23348.1753.15273.1206.30897.2457.51112.3412.60981.2886 2.55092.7908 4.32697.9552l.14197.0152c1.34733.124 2.62723.2461 4.00153.0323z" fill="url(#ak)"/><path d="m16.0683 37.4437c-2.3919.3966-4.7915.1577-6.82094-.1292l-.13113-.0182c-1.59986-.2248-4.93089-.6955-5.46778-2.4255l-.0503-.1662.20264.0195c1.75828.1672 3.30678-.9794 4.80276-2.0869.15758-.1176.31533-.2325.46988-.3468 2.15887-1.5753 4.01077-2.1788 6.59727-2.15 1.644.0149 3.8011.46 4.9382 1.6592.6895.7302.9342 1.6527.7226 2.7391-.4233 1.7903-3.3188 2.5642-5.1093 2.8755l-.1477.0257zm4.3364-5.4966c-1.0917-1.1524-3.1826-1.5789-4.7779-1.5941-2.5507-.0268-4.2881.5404-6.41624 2.0912-.15473.1117-.3091.2287-.46685.3436-1.48352 1.0998-3.01634 2.2383-4.79779 2.1598.6603 1.4926 3.73891 1.9278 5.24368 2.1392l.13113.0182c2.00987.2848 4.38017.5233 6.73657.1301.0482-.0084.0963-.0167.1476-.0256 1.72-.299 4.4916-1.0323 4.8826-2.6776.1995-1.0269-.0288-1.8975-.6798-2.588z" fill="url(#al)"/><path d="m27.605 35.1781c-.2794-3.3353-4.1751-3.4119-6.6801-2.7961-2.5306.6199-4.1484 1.64-5.8385 3.7219-1.2877 1.5831-2.5931 3.448-4.6257 3.7675 1.0056 1.5501 4.5007 1.1146 6.1104.9356 2.2577-.2496 4.5919-.6421 6.7329-1.585 1.7403-.7661 4.381-2.2459 4.3044-4.0416z" fill="#1c3232"/><path d="m10.6763 39.7984.2221-.0354c2.7405-.4446 4.9039-.792 7.162-2.6572 2.519-2.0766 6.4895-3.9539 9.4058-2.4145l.0893-.0978c-2.9831-1.5769-7.0287.3275-9.587 2.4382-2.2249 1.8346-4.366 2.181-7.0781 2.6185l-.2221.0354.0079.1103z" fill="url(#am)"/><path d="m15.6419 39.7189.0064-.001c1.4807-.2344 3.3163-1.024 4.9035-2.1069.416-.2825.7811-.5596 1.1342-.8246.6847-.5167 1.3296-1.0069 2.2064-1.438 1.2079-.5995 2.2893-.5413 3.4317-.4828l.2059.0103.0273-.1127-.2028-.0108c-1.1135-.0581-2.2656-.1176-3.5233.5024-.8889.4406-1.5433.9323-2.234 1.4549-.3532.2651-.7184.5396-1.1281.8212-1.5688 1.0699-3.3764 1.8475-4.8318 2.0779l-.0063.001c-1.877.2971-4.2932.4074-4.8836.2212l-.0662.1062c.61.1907 3.0617.0849 4.9578-.2153z" fill="url(#an)"/><path d="m10.4636 39.7236c.035-.0058 3.5069-.8474 5.5702-2.502.0454-.0413 3.8217-3.436 7.2454-3.9993.2832-.0466.5613-.0742.841-.0786 1.2571-.0197 2.2838.4403 3.0502 1.3668l.1204-.0743c-.7877-.9543-1.8508-1.4291-3.1528-1.4072-.2797.0044-.5707.0315-.8603.0792-3.4811.5728-7.2903 4.0014-7.3329 4.037-2.0329 1.6289-5.4638 2.4586-5.4986 2.4669l.0206.111z" fill="url(#ao)"/><path d="m16.1905 40.2718.1586-.0252c1.5731-.2498 3.0573-.4856 4.5468-1.2349.7649-.3842 1.4808-.8718 2.1756-1.3409.6241-.425 1.2697-.8635 1.9497-1.2241.5746-.3085 1.1588-.6186 1.7305-.9241.071-.039.1548-.0776.2418-.1167.2018-.0952.413-.1919.5609-.3215l-.101-.0673c-.1266.1136-.3253.2057-.5179.2944-.0902.0396-.177.0812-.2512.1208-.5716.3055-1.1558.6155-1.7305.924-.6859.3666-1.3377.8087-1.965 1.2342-.6886.4655-1.4015.9501-2.1571 1.3303-1.4648.7354-2.9332.9686-4.4936 1.2164l-.1585.0251c-1.7761.2821-3.8632.2927-4.5258.1756-.2111-.0372-.4026-.1154-.5843-.1901-.0925-.0383-.1882-.0762-.2836-.1091l-.0727.1051c.0953.0328.1877.0687.277.1075.1884.0788.3865.1584.6138.1981.6853.1211 2.7599.115 4.5804-.1741z" fill="url(#ap)"/><path d="m16.5209 40.8099-.1352.0181c-1.6548.2173-5.0903.6655-6.091-.816l-.0902-.1321.1894-.033c1.7913-.3122 3.0219-1.7994 4.2134-3.2388.1262-.1506.2492-.3007.3755-.4486 1.7154-2.048 3.3911-3.1037 5.9704-3.7695 1.622-.414 3.8778-.5828 5.3329.2256.8981.5004 1.3978 1.3028 1.4815 2.3886.063 1.831-2.75 3.3587-4.4367 4.1097-1.6142.7193-3.3171 1.1365-4.9223 1.4163-.6484.113-1.2821.2043-1.8875.2824zm9.6118-8.0143c-1.3876-.7708-3.5634-.6188-5.1398-.2045-2.5442.657-4.12 1.6542-5.8177 3.6744-.1231.1474-.2493.298-.3723.4481-1.1794 1.4263-2.4011 2.901-4.1961 3.3015 1.0449 1.2247 4.2228.8104 5.7779.6078l.1352-.0181c2.0799-.2722 4.498-.6826 6.7269-1.676 1.6206-.7204 4.334-2.1841 4.2768-3.8821-.0794-1.0235-.5469-1.7823-1.3909-2.2511z" fill="url(#aq)"/><path d="m31.0498 46.9533s-9.4404-4.698-4.033-12.5147c.1776-.2537.5511-.6901 1.0496-1.0346 1.2025-.8292 4.125-2.0129 6.13-.6965.1991.1313.7319.5791.9231.7981.5256.6006 3.8729 6.9859-4.0731 13.4483z" fill="#1c3232"/><path d="m30.8888 47.4467c-.0252-.0022-.0426-.0119-.0442-.0335l-.3316-15.4786c-.0014-.0186.0183-.0343.0388-.0407.0199-.0126.05-.0018.0596.0154.0096.0173 1.0804 1.7847 1.6578 4.5672.5281 2.5683.73 6.5502-1.3239 10.9423-.0071.0168-.0232.0257-.0438.029l-.0083.0013zm.0527-.2494c1.9442-4.2931 1.7452-8.1785 1.2251-10.6949-.4683-2.2681-1.271-3.8566-1.5472-4.3722z" fill="url(#ar)"/><path d="m30.7925 47.4456s.0257-.0108.0363-.022c.0209-.0254 1.9806-2.6582 2.9509-5.8571.8965-2.9537 1.1066-7.0102-2.9751-9.5494-.0196-.012-.0457-.0073-.0633.0113s-.0162.04.0035.0519c4.05 2.5171 3.8378 6.543 2.9475 9.477-.9639 3.1823-2.9166 5.8077-2.9375 5.8331-.0138.018-.0084.0417.011.0507.0079.0047.0193.0058.0267.0045z" fill="url(#as)"/><path d="m30.7566 47.4453s.0213-.007.0317-.015c.0543-.056 5.4372-5.6595 4.788-10.3996-.2964-2.1636-1.7943-3.8296-4.4508-4.9537-.0223-.0081-.0472-.0005-.0606.0173-.0131.0209-.0081.0414.0106.0502 2.634 1.113 4.1199 2.7627 4.4149 4.9051.6434 4.7074-4.7124 10.2813-4.7669 10.3344-.017.0184-.0156.0396.0034.0515.0078.0077.0223.0081.0331.0061z" fill="url(#at)"/><path d="m31.3855 47.1667s.0152-.0026.0262-.0108c.0219-.0162.0242-.0383.0115-.0547-.0206-.0212-2.0749-2.0656-3.1809-4.9527-1.0174-2.6606-1.4166-6.6056 2.4673-10.2745.018-.0187.0203-.0408 0-.0559-.02-.012-.0466-.0073-.0645.0113-3.9162 3.7026-3.5189 7.6758-2.4924 10.3565 1.1106 2.8987 3.1695 4.9547 3.19 4.9728.0082.0079.0278.0138.0392.0118z" fill="url(#au)"/><path d="m31.2497 47.3291s.0082-.0013.0165-.0027c.0242-.0101.0391-.0345.0295-.0517-.0441-.0898-4.4721-9.0628-.3369-15.4431.0151-.0212.005-.0446-.0204-.0499-.0212-.006-.0581.0031-.0691.0237-2.1742 3.3544-1.9687 7.3911-1.4127 10.1887.6022 3.0279 1.7318 5.2948 1.7419 5.3182.0096.0173.0267.0239.0514.0199z" fill="url(#av)"/><path d="m31.4473 47.0512s.0219-.007.0323-.0181c.0173-.0186.0158-.0399-.0035-.0519-.0504-.0309-5.0432-3.1916-5.0568-7.8539-.0098-2.4047 1.2965-4.8004 3.8755-7.1177.0176-.0156.0196-.0406.0002-.0525-.0157-.0126-.0418-.0141-.0628.0052-2.6 2.3365-3.9125 4.7519-3.9049 7.1785.0159 4.6959 5.0396 7.8756 5.09 7.9066.0078.0048.0229.0082.0339.0062z" fill="url(#aw)"/><path d="m31.0809 47.1649c-.0245-.0141-2.3784-1.3064-4.0555-3.5376-1.551-2.067-2.8271-5.3827-.0851-9.4441.197-.2901.5722-.7156 1.0519-1.0431 1.3529-.9227 4.2139-1.8813 6.15-.5173.2124.15.7406.624.9354.8556.3383.4022 1.2531 2.2646 1.1919 4.6907-.0569 2.2557-.9843 5.6488-5.0922 8.983l-.0476.0382zm-2.9996-13.9091c-.4541.3112-.8171.7195-1.0018.9954-2.6968 3.9903-1.4416 7.2488.0833 9.2807s3.6203 3.2788 3.9638 3.477c4.0142-3.2824 4.923-6.6088 4.9794-8.825.0663-2.5877-.9564-4.3626-1.162-4.6047-.1839-.2183-.7051-.6904-.9067-.83-.9345-.6588-2.093-.7532-3.1844-.5737-1.0915.1795-2.1156.639-2.7712 1.0863z" fill="url(#ax)"/></svg>