<svg fill="none" height="178" viewBox="0 0 224 178" width="224" xmlns="http://www.w3.org/2000/svg" xmlns:xlink="http://www.w3.org/1999/xlink"><linearGradient id="a"><stop offset="0" stop-color="#c09440"/><stop offset=".5" stop-color="#f5e283"/><stop offset=".89" stop-color="#d3b058"/></linearGradient><linearGradient id="b" gradientUnits="userSpaceOnUse" x1="112.096" x2="113.48" xlink:href="#a" y1="26.2693" y2="191.204"/><linearGradient id="c" gradientUnits="userSpaceOnUse" x1="155.139" x2="158.284" xlink:href="#a" y1="54.1651" y2="58.437"/><linearGradient id="d" gradientUnits="userSpaceOnUse" x1="155.134" x2="161.195" xlink:href="#a" y1="54.1694" y2="62.4017"/><linearGradient id="e" gradientUnits="userSpaceOnUse" x1="155.125" x2="163.386" xlink:href="#a" y1="54.1674" y2="65.3874"/><linearGradient id="f" gradientUnits="userSpaceOnUse" x1="156.032" x2="150.746" xlink:href="#a" y1="55.3872" y2="48.2082"/><linearGradient id="g" gradientUnits="userSpaceOnUse" x1="156.569" x2="153.388" xlink:href="#a" y1="56.1187" y2="51.7984"/><linearGradient id="h" gradientUnits="userSpaceOnUse" x1="155.432" x2="148.951" xlink:href="#a" y1="54.3116" y2="45.5097"/><linearGradient id="i" gradientUnits="userSpaceOnUse" x1="147.229" x2="164.602" xlink:href="#a" y1="43.3165" y2="66.9118"/><linearGradient id="j" gradientUnits="userSpaceOnUse" x1="143.379" x2="148.153" xlink:href="#a" y1="46.1984" y2="49.6705"/><linearGradient id="k" gradientUnits="userSpaceOnUse" x1="143.381" x2="152.568" xlink:href="#a" y1="46.2079" y2="52.8893"/><linearGradient id="l" gradientUnits="userSpaceOnUse" x1="143.371" x2="155.892" xlink:href="#a" y1="46.2092" y2="55.3152"/><linearGradient id="m" gradientUnits="userSpaceOnUse" x1="144.751" x2="136.729" xlink:href="#a" y1="47.2139" y2="41.3799"/><linearGradient id="n" gradientUnits="userSpaceOnUse" x1="145.566" x2="140.743" xlink:href="#a" y1="47.8074" y2="44.3"/><linearGradient id="o" gradientUnits="userSpaceOnUse" x1="143.756" x2="133.926" xlink:href="#a" y1="46.281" y2="39.1327"/><linearGradient id="p" gradientUnits="userSpaceOnUse" x1="131.359" x2="157.696" xlink:href="#a" y1="37.3678" y2="56.5214"/><linearGradient id="q" gradientUnits="userSpaceOnUse" x1="127.726" x2="133.835" xlink:href="#a" y1="39.2899" y2="41.088"/><linearGradient id="r" gradientUnits="userSpaceOnUse" x1="127.724" x2="139.59" xlink:href="#a" y1="39.2964" y2="42.789"/><linearGradient id="s" gradientUnits="userSpaceOnUse" x1="127.724" x2="143.934" xlink:href="#a" y1="39.2965" y2="44.0676"/><linearGradient id="t" gradientUnits="userSpaceOnUse" x1="129.283" x2="118.92" xlink:href="#a" y1="39.7633" y2="36.7131"/><linearGradient id="u" gradientUnits="userSpaceOnUse" x1="130.354" x2="124.168" xlink:href="#a" y1="40.0721" y2="38.2514"/><linearGradient id="v" gradientUnits="userSpaceOnUse" x1="128.077" x2="115.18" xlink:href="#a" y1="39.2123" y2="35.4166"/><linearGradient id="w" gradientUnits="userSpaceOnUse" x1="111.862" x2="146.246" xlink:href="#a" y1="34.5466" y2="44.6668"/><linearGradient id="x" gradientUnits="userSpaceOnUse" x1="68.0641" x2="64.9147" xlink:href="#a" y1="54.1567" y2="58.434"/><linearGradient id="y" gradientUnits="userSpaceOnUse" x1="68.0748" x2="62.0095" xlink:href="#a" y1="54.1651" y2="62.4028"/><linearGradient id="z" gradientUnits="userSpaceOnUse" x1="68.0755" x2="59.8143" xlink:href="#a" y1="54.1647" y2="65.3847"/><linearGradient id="A" gradientUnits="userSpaceOnUse" x1="67.168" x2="72.4578" xlink:href="#a" y1="55.3846" y2="48.2001"/><linearGradient id="B" gradientUnits="userSpaceOnUse" x1="66.6303" x2="69.8113" xlink:href="#a" y1="56.1157" y2="51.7954"/><linearGradient id="C" gradientUnits="userSpaceOnUse" x1="67.7722" x2="74.2529" xlink:href="#a" y1="54.3126" y2="45.5107"/><linearGradient id="D" gradientUnits="userSpaceOnUse" x1="75.9758" x2="58.6068" xlink:href="#a" y1="43.3179" y2="66.9078"/><linearGradient id="E" gradientUnits="userSpaceOnUse" x1="79.8342" x2="75.0598" xlink:href="#a" y1="46.191" y2="49.6631"/><linearGradient id="F" gradientUnits="userSpaceOnUse" x1="79.8379" x2="70.6452" xlink:href="#a" y1="46.1966" y2="52.8819"/><linearGradient id="G" gradientUnits="userSpaceOnUse" x1="79.8386" x2="67.3173" xlink:href="#a" y1="46.1968" y2="55.3027"/><linearGradient id="H" gradientUnits="userSpaceOnUse" x1="78.4616" x2="86.4836" xlink:href="#a" y1="47.2068" y2="41.3729"/><linearGradient id="I" gradientUnits="userSpaceOnUse" x1="77.6479" x2="82.4708" xlink:href="#a" y1="47.8001" y2="44.2927"/><linearGradient id="J" gradientUnits="userSpaceOnUse" x1="79.4629" x2="89.2922" xlink:href="#a" y1="46.2697" y2="39.1215"/><linearGradient id="K" gradientUnits="userSpaceOnUse" x1="91.8554" x2="65.5182" xlink:href="#a" y1="37.3615" y2="56.5151"/><linearGradient id="L" gradientUnits="userSpaceOnUse" x1="95.4784" x2="89.3756" xlink:href="#a" y1="39.2884" y2="41.0847"/><linearGradient id="M" gradientUnits="userSpaceOnUse" x1="95.4804" x2="83.614" xlink:href="#a" y1="39.2946" y2="42.7873"/><linearGradient id="N" gradientUnits="userSpaceOnUse" x1="95.4804" x2="79.2705" xlink:href="#a" y1="39.2948" y2="44.0659"/><linearGradient id="O" gradientUnits="userSpaceOnUse" x1="93.921" x2="104.29" xlink:href="#a" y1="39.762" y2="36.7099"/><linearGradient id="P" gradientUnits="userSpaceOnUse" x1="92.8514" x2="99.0436" xlink:href="#a" y1="40.0707" y2="38.2481"/><linearGradient id="Q" gradientUnits="userSpaceOnUse" x1="95.1287" x2="108.031" xlink:href="#a" y1="39.2109" y2="35.4132"/><linearGradient id="R" gradientUnits="userSpaceOnUse" x1="111.348" x2="76.9646" xlink:href="#a" y1="34.543" y2="44.6632"/><linearGradient id="S" gradientUnits="userSpaceOnUse" x1="109.597" x2="115.911" xlink:href="#a" y1="38.4263" y2="38.4263"/><linearGradient id="T" gradientUnits="userSpaceOnUse" x1="109.597" x2="122.019" xlink:href="#a" y1="38.4332" y2="38.4332"/><linearGradient id="U" gradientUnits="userSpaceOnUse" x1="109.597" x2="126.646" xlink:href="#a" y1="38.4398" y2="38.4398"/><linearGradient id="V" gradientUnits="userSpaceOnUse" x1="110.923" x2="100.042" xlink:href="#a" y1="38.4332" y2="38.4332"/><linearGradient id="W" gradientUnits="userSpaceOnUse" x1="112.058" x2="105.637" xlink:href="#a" y1="38.4264" y2="38.4264"/><linearGradient id="X" gradientUnits="userSpaceOnUse" x1="109.91" x2="96.0082" xlink:href="#a" y1="38.2529" y2="38.2529"/><linearGradient id="Y" gradientUnits="userSpaceOnUse" x1="92.5075" x2="129.073" xlink:href="#a" y1="38.3665" y2="38.3665"/><linearGradient id="Z" gradientUnits="userSpaceOnUse" x1="48.2583" x2="90.4458" xlink:href="#a" y1="63.5422" y2="75.1561"/><linearGradient id="aa" gradientUnits="userSpaceOnUse" x1="47.5632" x2="89.7701" xlink:href="#a" y1="65.7398" y2="77.3591"/><linearGradient id="ab" gradientUnits="userSpaceOnUse" x1="48.2849" x2="90.2346" xlink:href="#a" y1="61.8394" y2="73.3878"/><linearGradient id="ac" gradientUnits="userSpaceOnUse" x1="47.1131" x2="89.1721" xlink:href="#a" y1="67.4015" y2="78.98"/><linearGradient id="ad" gradientUnits="userSpaceOnUse" x1="47.3755" x2="90.701" xlink:href="#a" y1="63.2571" y2="75.1843"/><linearGradient id="ae" gradientUnits="userSpaceOnUse" x1="62.916" x2="106.436" xlink:href="#a" y1="78.5155" y2="78.5155"/><linearGradient id="af" gradientUnits="userSpaceOnUse" x1="62.8223" x2="106.355" xlink:href="#a" y1="80.5641" y2="80.5641"/><linearGradient id="ag" gradientUnits="userSpaceOnUse" x1="62.4893" x2="105.776" xlink:href="#a" y1="76.9658" y2="76.9658"/><linearGradient id="ah" gradientUnits="userSpaceOnUse" x1="62.8229" x2="106.209" xlink:href="#a" y1="82.1003" y2="82.1003"/><linearGradient id="ai" gradientUnits="userSpaceOnUse" x1="62.0293" x2="106.623" xlink:href="#a" y1="78.2146" y2="78.2146"/><linearGradient id="aj" gradientUnits="userSpaceOnUse" x1="177.275" x2="135.088" xlink:href="#a" y1="63.5514" y2="75.1654"/><linearGradient id="ak" gradientUnits="userSpaceOnUse" x1="177.97" x2="135.763" xlink:href="#a" y1="65.7493" y2="77.3686"/><linearGradient id="al" gradientUnits="userSpaceOnUse" x1="177.243" x2="135.3" xlink:href="#a" y1="61.8506" y2="73.3973"/><linearGradient id="am" gradientUnits="userSpaceOnUse" x1="178.419" x2="136.36" xlink:href="#a" y1="67.4054" y2="78.9839"/><linearGradient id="an" gradientUnits="userSpaceOnUse" x1="178.15" x2="134.824" xlink:href="#a" y1="63.2619" y2="75.1891"/><linearGradient id="ao" gradientUnits="userSpaceOnUse" x1="162.611" x2="119.097" xlink:href="#a" y1="78.5157" y2="78.5157"/><linearGradient id="ap" gradientUnits="userSpaceOnUse" x1="162.704" x2="119.171" xlink:href="#a" y1="80.565" y2="80.565"/><linearGradient id="aq" gradientUnits="userSpaceOnUse" x1="163.037" x2="119.758" xlink:href="#a" y1="76.9671" y2="76.9671"/><linearGradient id="ar" gradientUnits="userSpaceOnUse" x1="162.711" x2="119.318" xlink:href="#a" y1="82.1001" y2="82.1001"/><linearGradient id="as" gradientUnits="userSpaceOnUse" x1="163.498" x2="118.904" xlink:href="#a" y1="78.2151" y2="78.2151"/><linearGradient id="at" gradientUnits="userSpaceOnUse" x1="112.323" x2="107.722" xlink:href="#a" y1="89.3503" y2="89.3503"/><linearGradient id="au" gradientUnits="userSpaceOnUse" x1="112.323" x2="103.282" xlink:href="#a" y1="89.3436" y2="89.3436"/><linearGradient id="av" gradientUnits="userSpaceOnUse" x1="112.324" x2="99.9018" xlink:href="#a" y1="89.35" y2="89.35"/><linearGradient id="aw" gradientUnits="userSpaceOnUse" x1="111.383" x2="119.298" xlink:href="#a" y1="89.3495" y2="89.3495"/><linearGradient id="ax" gradientUnits="userSpaceOnUse" x1="110.556" x2="115.23" xlink:href="#a" y1="89.35" y2="89.35"/><linearGradient id="ay" gradientUnits="userSpaceOnUse" x1="112.123" x2="122.245" xlink:href="#a" y1="89.443" y2="89.443"/><linearGradient id="az" gradientUnits="userSpaceOnUse" x1="124.799" x2="98.1482" xlink:href="#a" y1="89.3767" y2="89.3767"/><linearGradient id="aA" gradientUnits="userSpaceOnUse" x1="63.4023" x2="160.603" xlink:href="#a" y1="144.486" y2="144.486"/><linearGradient id="aB" gradientUnits="userSpaceOnUse" x1="29.6641" x2="194.335" xlink:href="#a" y1="144.486" y2="144.486"/><linearGradient id="aC" gradientUnits="userSpaceOnUse" x1="55.4678" x2="168.531" xlink:href="#a" y1="144.487" y2="144.487"/><linearGradient id="aD" gradientUnits="userSpaceOnUse" x1="20.1701" x2="203.831" xlink:href="#a" y1="144.207" y2="144.207"/><linearGradient id="aE" gradientUnits="userSpaceOnUse" x1="0" x2="224" xlink:href="#a" y1="144.206" y2="144.206"/><clipPath id="aF"><path d="m0 0h224v178h-224z"/></clipPath><g clip-path="url(#aF)" opacity=".6"><path d="m112.21 144.874-1.407-.014 2.2-115.5866 1.4.0201z" fill="url(#b)"/><path d="m179.173 36.6242s-34.945-3.605-47.84 25.295c-.42.9413-.981 2.6704-.987 4.3794-.02 4.1057 2.534 11.9566 10.955 11.9166.833 0 3.38-.2738 4.48-.5141 3.008-.6609 30.185-11.4425 33.392-41.0769z" fill="#1c3232"/><path d="m179.173 36.624-46.62 37.0313s28.271-11.1154 46.62-37.0313z" fill="#1c3232"/><path d="m132.553 73.7756c-.047 0-.087-.02-.107-.0601-.033-.0534-.02-.1268.027-.1602l46.62-37.0313c.054-.0401.127-.0334.167.0067.047.04.053.1134.02.1669-18.163 25.6488-46.394 36.9645-46.68 37.078-.014 0-.027.0067-.047.0067zm45.993-36.4972-45.193 35.8964c4.794-2.0762 28.851-13.2985 45.193-35.8964z" fill="url(#c)"/><path d="m132.953 74.3502c-.067 0-.127-.0535-.127-.1269s.054-.1268.127-.1268c15.409-.1202 27.124-10.3077 34.238-18.8395 7.715-9.2528 11.829-18.5924 11.869-18.6859.026-.0667.1-.0934.166-.0667.067.0267.094.1001.067.1669-.04.0934-4.174 9.4664-11.908 18.7459-7.148 8.5719-18.923 18.8128-34.425 18.933z" fill="url(#d)"/><path d="m138.994 75.5245c-1.813 0-3.654-.1469-5.527-.434-.067-.0133-.114-.0734-.107-.1468.013-.0668.067-.1068.147-.1068 17.429 2.6903 28.877-7.8509 35.418-17.1638 7.095-10.1007 10.102-20.9758 10.128-21.0826.014-.0667.087-.1135.154-.0868.067.0201.107.0868.087.1536-.027.1068-3.048 11.0286-10.169 21.1626-4.18 5.9616-8.948 10.4879-14.155 13.4587-4.941 2.8172-10.295 4.2392-15.976 4.2392z" fill="url(#e)"/><path d="m132.013 73.0482s-.02 0-.026 0c-.067-.02-.107-.0868-.094-.1535 3.674-14.7805 16.329-23.8865 26.304-28.9268 10.795-5.4542 20.857-7.4436 20.957-7.4637.086-.0133.133.0334.146.1002.014.0667-.026.1335-.1.1468-.1.0201-10.135 2.0028-20.896 7.4437-9.922 5.0136-22.517 14.0728-26.171 28.7598-.013.0601-.066.1002-.12.1002z" fill="url(#f)"/><path d="m132.552 73.776s-.04 0-.06-.0134c-.06-.0334-.08-.1135-.046-.1736 11.822-21.156 46.333-36.9245 46.68-37.0847.06-.0334.133 0 .167.0668.026.06 0 .1402-.06.1669-.347.1535-34.779 15.8953-46.561 36.9779-.026.04-.066.0667-.113.0667z" fill="url(#g)"/><path d="m131.532 71.8861s-.013 0-.026 0c-.067-.0133-.114-.0801-.1-.1469 1.607-8.0044 5.12-14.8405 10.448-20.3148 4.254-4.3794 9.668-7.8976 16.089-10.4678 10.928-4.3727 21.123-4.4595 21.23-4.4595.066 0 .126.0534.126.1268s-.053.1269-.126.1269c-.1 0-10.262.0867-21.143 4.4394-10.035 4.0123-22.75 12.5775-26.378 30.5958-.013.0601-.066.1001-.12.1001z" fill="url(#h)"/><path d="m141.235 78.4689c-3.021 0-5.541-.988-7.495-2.9441-2.714-2.7237-3.66-6.6692-3.647-9.2261.007-1.6556.527-3.398 1.007-4.4795 12.822-28.7332 47.747-25.482 48.1-25.4419l.254.0267-.027.2536c-1.687 15.615-10.095 25.7824-16.856 31.5705-7.254 6.2086-14.802 9.3062-16.729 9.7268-1.16.2537-3.714.514-4.534.5207-.027 0-.047 0-.073 0zm34.451-41.7178c-9.121 0-33.838 2.2231-44.126 25.275-.46 1.0281-.954 2.6971-.967 4.2726-.013 2.4568.893 6.2554 3.501 8.8656 1.853 1.8559 4.253 2.7972 7.134 2.7972h.067c.78 0 3.313-.2603 4.427-.5073 1.167-.2604 8.741-2.9641 16.509-9.62 6.654-5.6946 14.922-15.6817 16.649-30.983-.48-.04-1.6-.1068-3.207-.1068z" fill="url(#i)"/><path d="m163.144 19.2606s-38.419 8.178-42.553 43.3934c-.133 1.1483-.153 3.1778.407 5.0003 1.34 4.3794 6.667 11.8631 15.629 8.919.887-.2937 3.507-1.4486 4.6-2.0895 2.988-1.7358 28.351-22.5646 21.917-55.2299z" fill="#1c3232"/><path d="m163.143 19.2607-37.352 55.4702s26.417-21.5565 37.352-55.4702z" fill="#1c3232"/><path d="m125.791 74.8715c-.033 0-.066-.0134-.093-.0401-.053-.0467-.06-.1268-.02-.1802l37.352-55.4702c.04-.0601.114-.0801.18-.0468.067.0267.094.1069.074.1736-10.829 33.5665-37.133 55.3234-37.399 55.537-.027.02-.06.0334-.087.0334zm36.899-54.6891-36.205 53.7678c4.421-3.8653 26.304-24.0934 36.205-53.7678z" fill="url(#j)"/><path d="m126.405 75.3457c-.06 0-.113-.0401-.133-.0935-.027-.0734.013-.1535.087-.1802 16.375-5.4276 25.463-20.3082 30.204-31.8442 5.141-12.504 6.421-23.8664 6.434-23.9799.014-.0801.094-.1201.16-.1268.08.0067.134.0801.127.1602-.013.1135-1.3 11.516-6.454 24.06-4.768 11.5894-13.902 26.5435-30.378 32.0044-.013 0-.027.0067-.047.0067z" fill="url(#k)"/><path d="m127.218 75.9463c-.066 0-.126-.0467-.14-.1201-.013-.0801.04-.1469.114-.1602 19.449-3.1377 28.15-18.2921 32.018-30.4556 4.2-13.1983 3.794-25.8224 3.787-25.9493 0-.0801.06-.1402.133-.1468.074 0 .14.06.14.1335 0 .1268.42 12.791-3.794 26.0361-2.473 7.7841-6.047 14.2464-10.608 19.2066-5.707 6.2019-12.988 10.0539-21.636 11.4492-.007 0-.014 0-.02 0z" fill="url(#l)"/><path d="m124.971 74.284c-.073 0-.14-.0601-.14-.1335-1-17.0036 9.462-31.0631 18.41-39.8553 9.688-9.5198 19.736-15.1009 19.836-15.1543.073-.0401.153-.0134.193.0534s.014.1535-.053.1936c-.1.0534-10.122 5.6211-19.783 15.1143-8.901 8.7521-19.31 22.7382-18.316 39.6349 0 .0801-.053.1469-.133.1469h-.007z" fill="url(#m)"/><path d="m125.792 74.8716s-.02 0-.026 0c-.08-.0134-.127-.0868-.107-.1669 5.567-26.5969 37.079-55.2633 37.399-55.5503.06-.0534.147-.0468.2.0133s.047.1469-.013.2003c-.321.2871-31.765 28.8867-37.313 55.3901-.013.0668-.073.1135-.14.1135z" fill="url(#n)"/><path d="m124.071 73.2089c-.073 0-.133-.0534-.14-.1268-.946-9.0793.527-17.5644 4.381-25.2283 3.081-6.1285 7.675-11.7363 13.662-16.6832 10.188-8.4116 21.023-12.0099 21.13-12.05.073-.0267.153.0134.18.0868s-.013.1535-.087.1802c-.106.0334-10.895 3.6251-21.043 12.0033-9.355 7.7241-20.056 21.2228-17.929 41.6578.006.0801-.047.1468-.127.1535h-.013z" fill="url(#o)"/><path d="m132.667 77.5345c-1.754 0-3.428-.4072-5.001-1.2284-3.787-1.9694-6.108-5.8414-6.941-8.5652-.54-1.7691-.567-3.8053-.413-5.1204 4.107-35.0152 42.386-43.5537 42.773-43.6405l.28-.0601.053.2804c3.387 17.2039-2.187 30.9295-7.461 39.4213-5.661 9.106-12.675 15.0008-14.589 16.1157-1.08.6275-3.701 1.7958-4.654 2.1096-1.387.4539-2.74.6876-4.047.6876zm30.258-57.9336c-3.494.8411-38.173 10.0606-42.047 43.0863-.146 1.2551-.12 3.1978.394 4.8868.8 2.617 3.027 6.3421 6.661 8.2247 2.613 1.3552 5.507 1.5288 8.614.5074.827-.2737 3.441-1.4153 4.548-2.0629 1.16-.6742 8.321-6.1551 14.395-15.922 5.194-8.3516 10.682-21.8303 7.441-38.7203z" fill="url(#p)"/><path d="m138.361 3.73193s-37.019 23.04527-28.458 61.28497c.28 1.2484 1 3.3646 2.247 5.0536 2.994 4.0523 11.282 9.8337 19.536 3.378.821-.6408 3.128-2.8372 4.028-3.912 2.473-2.9374 21.276-34.2208 2.647-65.80457z" fill="#1c3232"/><path d="m138.361 3.73145-18.636 71.89295s19.636-32.4383 18.636-71.89295z" fill="#1c3232"/><path d="m119.725 75.7782s-.04 0-.06-.0134c-.073-.0267-.113-.1068-.093-.1802l18.636-71.89298c.02-.07344.093-.1135.166-.1135.08.00668.134.07344.14.15355.987 39.04743-18.462 71.65263-18.656 71.97973-.026.0467-.08.0734-.133.0734zm18.496-70.91162-18.056 69.67652c3.2-5.7079 18.589-35.0419 18.056-69.67652z" fill="url(#q)"/><path d="m120.538 76.0386c-.047 0-.094-.02-.12-.0601-.054-.0667-.04-.1669.026-.2203 15.069-11.843 19.103-30.7826 19.83-44.5817.787-14.9675-2.034-27.28452-2.06-27.41137-.02-.08678.033-.16689.113-.18692.08-.02671.167.03338.187.11349.026.12684 2.853 12.484 2.067 27.4914-.727 13.8659-4.781 32.8989-19.943 44.8155-.027.02-.06.0333-.094.0333z" fill="url(#r)"/><path d="m121.605 76.3592c-.053 0-.107-.0334-.133-.0801-.04-.0734-.014-.1736.06-.2136 19.109-10.6214 22.63-29.6945 22.223-43.8274-.447-15.3346-5.487-28.32593-5.541-28.45277-.033-.08012.007-.17358.087-.20028.073-.03338.173.00667.2.08678.053.12685 5.114 13.16487 5.561 28.54627.266 9.0458-1.094 17.1237-4.028 24.0066-3.673 8.6186-9.848 15.3813-18.349 20.1078-.027.0134-.047.02-.073.02z" fill="url(#s)"/><path d="m118.651 75.4711c-.06 0-.12-.04-.147-.1001-7.254-17.3307-1.5-35.9231 4.607-48.4672 6.608-13.5788 15.036-23.1921 15.123-23.28556.053-.07344.153-.06676.22-.01335.066.05341.073.15354.013.2203-.08.09347-8.488 9.68011-15.082 23.21881-6.074 12.484-11.802 30.9763-4.594 48.2002.033.0801 0 .1735-.087.2069-.02.0067-.04.0134-.06.0134z" fill="url(#t)"/><path d="m119.725 75.7783c-.08 0-.147-.06-.153-.1335-3.921-29.8013 18.429-71.57249 18.649-71.9864.04-.08011.133-.10681.214-.06676.073.04006.106.13352.066.21363-.227.42059-22.523 42.09833-18.616 71.79953.013.0868-.047.1669-.133.1735-.007 0-.014 0-.02 0z" fill="url(#u)"/><path d="m117.331 74.6969c-.06 0-.113-.0334-.14-.0868-4.3-9.0993-5.867-18.4923-4.654-27.9254.967-7.5438 3.701-15.1276 8.128-22.5379 7.535-12.6108 17.503-20.45499 17.603-20.5351.067-.05341.16-.04673.22.0267.053.06676.04.1669-.027.22031-.1.08011-10.021 7.89089-17.529 20.45499-6.921 11.5827-13.129 29.6878-3.454 50.1629.04.0801 0 .1735-.073.2069-.02.0134-.047.0134-.067.0134z" fill="url(#v)"/><path d="m123.859 76.6595c-.547 0-1.101-.04-1.661-.1135-4.64-.6342-8.454-3.7852-10.301-6.2887-1.207-1.6289-1.981-3.7385-2.301-5.1738-8.514-38.0194 28.225-61.38509 28.598-61.61875l.273-.1669.167.27371c9.815 16.63644 9.021 33.03914 6.628 43.86744-2.567 11.6228-7.721 20.4083-9.302 22.2909-.9 1.0682-3.193 3.2712-4.08 3.9588-2.521 1.9694-5.208 2.9641-8.015 2.9641zm14.395-72.4871c-3.334 2.20305-36.079 24.9145-28.051 60.7709.307 1.3685 1.047 3.3847 2.194 4.9402 1.78 2.41 5.434 5.4342 9.888 6.0417 3.234.4406 6.334-.4807 9.208-2.7238.76-.5942 3.06-2.7772 3.981-3.8654.96-1.1415 6.414-9.5599 9.174-22.0238 2.354-10.6615 3.147-26.7705-6.394-43.13313z" fill="url(#w)"/><path d="m44.0332 36.6242s34.9452-3.605 47.8404 25.295c.4201.9413.9735 2.6704.9869 4.3794.02 4.1057-2.5337 11.9566-10.955 11.9166-.8335 0-3.3805-.2738-4.4807-.5141-3.0071-.6609-30.1845-11.4425-33.3916-41.0769z" fill="#1c3232"/><path d="m44.0332 36.624 46.6203 37.0313s-28.2709-11.1154-46.6203-37.0313z" fill="#1c3232"/><path d="m90.6599 73.7754s-.0333 0-.0467-.0066c-.2867-.1135-28.5109-11.4225-46.6803-37.0781-.0333-.0534-.0266-.1201.02-.1669.0467-.04.1134-.0467.1667-.0067l46.6203 37.0314c.0467.04.06.1068.0267.1602-.02.04-.0667.0601-.1067.0601zm-45.9935-36.4905c16.3491 22.598 40.406 33.8202 45.1934 35.8964z" fill="url(#x)"/><path d="m90.2598 74.3502c-15.509-.1202-27.2841-10.3611-34.4251-18.933-7.7412-9.2795-11.8685-18.6525-11.9085-18.7459-.0266-.0668 0-.1402.0667-.1669s.14 0 .1667.0667c.04.0935 4.1606 9.4398 11.8751 18.6859 7.1144 8.5252 18.8228 18.7193 34.2318 18.8328.0666 0 .1267.0601.1267.1268 0 .0668-.0601.1269-.1267.1269z" fill="url(#y)"/><path d="m84.2195 75.5246c-5.6808 0-11.0349-1.4153-15.9823-4.2392-5.2075-2.9708-9.9749-7.5037-14.1555-13.4586-7.121-10.1407-10.1348-21.0559-10.1615-21.1627-.02-.0667.02-.1402.0867-.1535.0667-.0267.14.02.1533.0868.0267.1068 3.0338 10.9885 10.1349 21.0892 6.5343 9.3062 17.996 19.8341 35.4119 17.1571.0734 0 .1334.04.1467.1068s-.04.1335-.1067.1469c-1.8736.287-3.7139.4339-5.5275.4339z" fill="url(#z)"/><path d="m91.2006 73.0484c-.0533 0-.1067-.04-.12-.1001-3.6472-14.687-16.2491-23.7462-26.1706-28.7598-10.7616-5.4409-20.7897-7.4237-20.8897-7.4437-.0667-.0133-.1134-.0801-.1001-.1469.0134-.0667.0734-.1068.1467-.1001.1.02 10.1615 2.0094 20.9565 7.4637 9.9748 5.0403 22.63 14.1462 26.3039 28.9267.0133.0668-.0267.1335-.0933.1536-.0067 0-.0201 0-.0267 0z" fill="url(#A)"/><path d="m90.6601 73.7758c-.0467 0-.0867-.02-.1134-.0668-11.7817-21.0825-46.2135-36.8176-46.5602-36.9779-.0667-.0267-.0934-.1001-.06-.1669.0266-.0667.1066-.1001.1667-.0667.3467.1535 34.8585 15.9287 46.6802 37.0847.0334.0601.0134.1402-.0466.1736-.02.0133-.0401.0133-.0601.0133z" fill="url(#B)"/><path d="m91.6802 71.8861c-.06 0-.1134-.04-.12-.1001-3.6272-18.0183-16.3491-26.5835-26.384-30.5958-10.8816-4.3527-21.0364-4.4394-21.1364-4.4394-.0734 0-.1267-.0601-.1267-.1269 0-.0667.06-.1268.1267-.1268.1 0 10.3015.0868 21.2298 4.4595 6.421 2.5702 11.8351 6.0884 16.0891 10.4678 5.3207 5.4743 8.8346 12.3104 10.4482 20.3148.0133.0668-.0267.1336-.1.1469-.0067 0-.0134 0-.0267 0z" fill="url(#C)"/><path d="m81.9788 78.4692s-.0467 0-.0734 0c-.8201 0-3.3671-.2603-4.534-.5207-1.9269-.4206-9.4814-3.5182-16.7291-9.7268-6.7544-5.788-15.1689-15.9621-16.8559-31.5704l-.0266-.2537.2533-.0267c.3534-.0334 35.2786-3.2913 48.1005 25.4419.4801 1.0815 1.0002 2.8239 1.0068 4.4795.0134 2.5569-.9334 6.5024-3.6472 9.2262-1.9536 1.9493-4.4673 2.944-7.4877 2.944zm-37.6589-41.611c1.7335 15.3012 10.0014 25.2884 16.6491 30.983 7.7745 6.6558 15.3423 9.3596 16.5091 9.6199 1.1135.2471 3.6472.5007 4.4273.5074h.0667c2.8805 0 5.2808-.9413 7.1344-2.7972 2.6071-2.6103 3.5139-6.4089 3.5005-8.8656-.0066-1.5755-.5067-3.2445-.9668-4.2793-12.0951-27.1109-44.1465-25.4152-47.3337-25.1682z" fill="url(#D)"/><path d="m60.0619 19.2596s38.4191 8.178 42.5531 43.3935c.133 1.1482.153 3.1777-.407 5.0002-1.34 4.3794-6.6675 11.8631-15.6288 8.9191-.8868-.2938-3.5072-1.4487-4.6007-2.0896-2.9871-1.7357-28.3509-22.5646-21.9166-55.2299z" fill="#1c3232"/><path d="m60.0615 19.2598 37.3522 55.4702s-26.4172-21.5566-37.3522-55.4702z" fill="#1c3232"/><path d="m97.4208 74.8704s-.0667-.0134-.0867-.0334c-.2667-.2137-26.5706-21.9705-37.3989-55.537-.02-.0668.0067-.1402.0734-.1736.06-.0333.14-.0133.18.0468l37.3522 55.4702c.04.0601.0267.1335-.02.1802-.0267.0267-.06.0401-.0934.0401zm-36.9055-54.6892c9.9015 29.6745 31.7847 49.8958 36.2054 53.7679z" fill="url(#E)"/><path d="m96.8071 75.3445s-.0267 0-.0467-.0066c-16.4757-5.4609-25.6171-20.415-30.3778-32.0044-5.1608-12.544-6.441-23.9465-6.4543-24.06-.0067-.0801.0467-.1469.1267-.1602h.0133c.0734 0 .1334.0534.14.1268.0134.1135 1.2936 11.4826 6.441 23.9866 4.7407 11.5293 13.8354 26.4099 30.2045 31.8375.0733.0267.1133.1068.0867.1802-.02.0601-.0734.0935-.1334.0935z" fill="url(#F)"/><path d="m95.9877 75.9455s-.0134 0-.02 0c-8.6547-1.3952-15.9291-5.2472-21.6366-11.4492-4.5607-4.9602-8.1279-11.4225-10.6082-19.2066-4.214-13.245-3.8006-25.9092-3.7939-26.0361 0-.0734.0666-.1335.14-.1335.08 0 .14.0668.1333.1469 0 .1268-.42 12.751 3.7873 25.9493 3.8739 12.1635 12.5685 27.3178 32.0181 30.4555.0733.0134.1267.0868.1133.1602-.0133.0668-.0733.1202-.14.1202z" fill="url(#G)"/><path d="m98.2408 74.2831h-.0066c-.08 0-.14-.0734-.1334-.1468.9935-16.8968-9.4147-30.8828-18.3227-39.6349-9.6614-9.4932-19.6763-15.0542-19.7763-15.1076-.0667-.0401-.0933-.1269-.0533-.1936.0333-.0668.12-.0935.1933-.0535.1001.0535 10.1549 5.6345 19.8363 15.1544 8.948 8.7988 19.4029 22.8516 18.4094 39.8552 0 .0734-.0666.1335-.14.1335z" fill="url(#H)"/><path d="m97.4209 74.8705c-.0666 0-.1266-.0467-.14-.1135-5.5475-26.51-36.9921-55.1097-37.3122-55.39-.06-.0535-.06-.1402-.0133-.2003.0533-.0534.14-.0601.2-.0134.3134.2871 31.8314 28.9468 37.3989 55.5503.02.0735-.0333.1469-.1067.1669-.0067 0-.02 0-.0267 0z" fill="url(#I)"/><path d="m99.1342 73.2078h-.0133c-.08-.0067-.1334-.0801-.1267-.1535 2.1268-20.435-8.5813-33.9337-17.9293-41.6578-10.1482-8.3782-20.9365-11.9699-21.0432-12.0033-.0733-.0267-.1133-.1068-.0867-.1802.0267-.0734.1067-.1202.1801-.0868.1067.0334 10.9416 3.6384 21.1298 12.05 5.9875 4.9402 10.5816 10.5547 13.662 16.6832 3.8473 7.6639 5.3211 16.149 4.3807 25.2282-.0067.0735-.0667.1269-.1401.1269z" fill="url(#J)"/><path d="m90.54 77.5345c-1.3068 0-2.6603-.227-4.0472-.6876-.8735-.2871-3.5005-1.442-4.6541-2.1096-1.9136-1.1149-8.9279-7.0097-14.5888-16.1157-5.2741-8.4851-10.8549-22.2108-7.4611-39.4213l.0533-.2804.2801.0601c.3867.0801 38.6657 8.6253 42.7728 43.6405.154 1.3085.127 3.3446-.413 5.1204-.834 2.7238-3.1473 6.5958-6.9412 8.5652-1.5736.8212-3.2472 1.2284-5.0008 1.2284zm-30.2511-57.9336c-3.2338 16.89 2.2536 30.3687 7.4411 38.7203 6.0676 9.7669 13.2353 15.2478 14.3955 15.922 1.1068.6476 3.7205 1.7892 4.5473 2.0629 3.1071 1.0214 6.0009.8478 8.6146-.5074 3.6339-1.8826 5.8546-5.6077 6.6606-8.2247.514-1.689.54-3.6317.394-4.8868-3.8741-33.0257-38.5593-42.2452-42.0465-43.0863z" fill="url(#K)"/><path d="m84.853 3.73193s37.019 23.04527 28.458 61.28497c-.28 1.2484-1.001 3.3646-2.247 5.0536-2.994 4.0523-11.2821 9.8337-19.5367 3.378-.8201-.6408-3.1271-2.8372-4.0273-3.912-2.4737-2.9374-21.2765-34.2208-2.647-65.80457z" fill="#1c3232"/><path d="m84.8524 3.73193 18.6356 71.89297s-19.6358-32.4383-18.6356-71.89297z" fill="#1c3232"/><path d="m103.489 75.7786c-.053 0-.107-.0267-.133-.0734-.194-.3271-19.6434-32.9323-18.6566-71.97973 0-.08011.06-.1402.14-.15355.0667-.0267.1467.04006.1667.11349l18.6359 71.89299c.02.0734-.02.1535-.093.1802-.02.0067-.04.0134-.06.0134zm-18.5029-70.91155c-.5334 34.64135 14.8622 63.96865 18.0559 69.67655z" fill="url(#L)"/><path d="m102.676 76.0388c-.034 0-.067-.0134-.094-.0334-15.1621-11.9165-19.216-30.9495-19.9428-44.8154-.7868-15.0142 2.0403-27.3713 2.067-27.49146.0133-.08679.1-.14687.1867-.11349.0867.02002.1333.10014.1133.18692-.0266.12017-2.8471 12.44393-2.0603 27.41803.7268 13.7991 4.7541 32.7387 19.8231 44.5751.067.0534.08.1535.027.2203-.034.04-.08.0601-.12.0601z" fill="url(#M)"/><path d="m101.602 76.3594s-.053-.0067-.073-.02c-8.5015-4.7266-14.6758-11.4893-18.3496-20.1079-2.9405-6.8896-4.294-14.9674-4.0273-24.0066.4467-15.388 5.5075-28.41939 5.5608-28.54623.0267-.08011.1267-.12017.2-.08679.0801.02671.1201.12017.0867.20028-.0466.13352-5.0941 13.11814-5.5408 28.45274-.4134 14.1329 3.1071 33.206 22.2162 43.8274.074.0401.1.1335.06.2136-.026.0535-.08.0802-.133.0802z" fill="url(#N)"/><path d="m104.555 75.4718s-.04 0-.06-.0134c-.08-.0333-.12-.1268-.086-.2069 7.208-17.2239 1.473-35.7229-4.6009-48.2068-6.5876-13.5388-14.9955-23.11872-15.0756-23.21218-.06-.06676-.0533-.1669.0134-.22031.06-.05341.16-.06008.22.01335.0867.09347 8.5146 9.70674 15.1221 23.28564 6.108 12.544 11.862 31.1298 4.608 48.4671-.027.0601-.08.1002-.147.1002z" fill="url(#O)"/><path d="m103.489 75.7788s-.013 0-.02 0c-.087-.0133-.147-.0868-.133-.1735 3.907-29.7012-18.3897-71.37895-18.6164-71.79954-.0401-.07343-.0134-.17357.0666-.21363.0734-.04005.1667-.01335.2134.06676.2267.42059 22.5704 42.18511 18.6494 71.98641-.013.0801-.08.1335-.153.1335z" fill="url(#P)"/><path d="m105.883 74.6974s-.047 0-.067-.0134c-.08-.04-.113-.1335-.073-.2069 9.675-20.4751 3.467-38.5802-3.454-50.1629-7.5011-12.5641-17.4292-20.38157-17.5292-20.455-.0667-.05341-.08-.15355-.0267-.22031.0534-.07343.1534-.08011.22-.0267.1001.08011 10.0682 7.92431 17.6029 20.53511 4.427 7.4103 7.161 14.9941 8.128 22.5379 1.206 9.4331-.36 18.8328-4.661 27.9254-.027.0534-.08.0868-.14.0868z" fill="url(#Q)"/><path d="m99.3483 76.6597c-2.8071 0-5.4942-.9947-8.0145-2.9641-.8802-.6877-3.1805-2.8907-4.0806-3.9589-1.5869-1.8826-6.7344-10.6681-9.3014-22.2908-2.3937-10.8284-3.1872-27.2378 6.6276-43.8675l.1667-.27371.2734.1669c.3734.23365 37.1125 23.59941 28.5975 61.61871-.32 1.4287-1.093 3.5382-2.3 5.1738-1.854 2.5035-5.654 5.6545-10.302 6.2888-.56.0734-1.1133.1135-1.66.1135zm-14.3955-72.48714c-9.5414 16.36264-8.7479 32.47834-6.3943 43.13314 2.7538 12.4639 8.2079 20.8822 9.1747 22.0238.9202 1.0949 3.2205 3.2712 3.9806 3.8654 2.8738 2.2498 5.9809 3.1577 9.2082 2.7237 4.447-.6075 8.101-3.6317 9.881-6.0417 1.147-1.5554 1.887-3.5716 2.194-4.9401 8.041-35.8497-24.7037-58.56119-28.0442-60.76424z" fill="url(#R)"/><path d="m109.757.453942s-29.7444 33.466358-10.4949 68.428158c.6268 1.1349 1.9399 3.0042 3.6409 4.2926 4.087 3.091 13.848 6.3221 20.109-2.43.62-.8679 2.254-3.6985 2.841-5.0203 1.587-3.605 11.141-39.7952-16.089-65.277134z" fill="#1c3232"/><path d="m109.757.453613 2.147 75.945287s10.035-37.5654-2.147-75.945287z" fill="#1c3232"/><path d="m111.904 76.5591s-.014 0-.02 0c-.08-.0066-.14-.0734-.14-.1535l-2.147-75.945253c0-.080111.053-.14687.133-.160222.087-.013352.153.03338.18.106815 12.055 37.97926 2.247 75.65816 2.147 76.03206-.02.0734-.08.1201-.153.1201zm-1.954-74.9505 2.08 73.5953c1.514-6.5424 8.275-39.8085-2.08-73.5953z" fill="url(#S)"/><path d="m112.771 76.5727s-.067-.0134-.093-.0267c-.074-.0534-.087-.1536-.041-.227 11.409-16.0355 9.982-35.7829 6.775-49.5286-3.474-14.9007-9.735-26.142916-9.802-26.256407-.04-.073435-.013-.173574.06-.213629.08-.040056.174-.013352.22.060083.06.113491 6.341 11.395753 9.835 26.343153 3.221 13.8058 4.654 33.6466-6.827 49.789-.034.0401-.08.0668-.134.0668z" fill="url(#T)"/><path d="m113.911 76.5727c-.04 0-.08-.0134-.113-.0468-.067-.06-.067-.1669 0-.2269 15.716-16.0289 13.755-35.7629 9.335-49.4953-4.794-14.894-13.416-26.136223-13.502-26.249714-.054-.066759-.04-.166898.026-.226981.074-.046731.174-.040055.227.026704.087.11349 8.748 11.395791 13.555 26.349891 2.827 8.7855 3.794 17.1037 2.867 24.7209-1.16 9.5265-5.287 17.9716-12.275 25.0948-.033.0333-.073.0467-.113.0467z" fill="url(#U)"/><path d="m110.763 76.5727c-.046 0-.093-.02-.12-.0601-12.0281-14.8606-11.668-34.7682-9.241-48.861 2.62-15.2478 8.155-27.144302 8.215-27.264468.04-.073435.133-.113491.213-.073435.08.040055.113.133518.073.213629-.053.113491-5.574 11.983274-8.188 27.190974-2.4067 14.0195-2.7734 33.8336 9.182 48.594.053.0668.046.1669-.02.227-.027.0267-.067.0401-.1.0401z" fill="url(#V)"/><path d="m111.904 76.5593c-.06 0-.12-.0401-.146-.1002-12.3088-28.0588-2.261-75.56467-2.154-76.03866.02-.086787.107-.133518.193-.126842.087.020028.14.106815.12.193602-.106.47399-10.1277 47.8797 2.134 75.8451.033.0801 0 .1736-.08.207-.02.0066-.04.0133-.067.0133z" fill="url(#W)"/><path d="m109.25 76.2055c-.046 0-.086-.02-.12-.0534-6.794-7.6572-11.0015-16.4027-12.495-26.0093-1.1935-7.6773-.6668-15.9154 1.5736-24.4806 3.8004-14.5736 11.3414-25.194947 11.4154-25.301762.053-.066759.153-.080111.226-.040055.074.053407.087.153546.04.226981-.073.106815-7.587 10.681436-11.3747 25.201636-3.4939 13.3852-4.4407 32.959 10.8547 50.1828.06.0668.054.1669-.013.227-.027.0267-.067.0401-.107.0401z" fill="url(#X)"/><path d="m112.504 76.733c-3.967 0-7.648-1.669-9.795-3.2979-1.654-1.2484-3.0071-3.091-3.7272-4.3928-19.1362-34.7615 10.2352-68.461495 10.5352-68.795291l.213-.247009.24.226981c14.342 13.418619 18.223 29.734519 18.956 41.050219.78 12.1502-1.773 22.2709-2.787 24.5874-.573 1.3085-2.2 4.1457-2.874 5.0737-2.293 3.2111-5.234 5.1138-8.734 5.6478-.68.1002-1.36.1469-2.027.1469zm-2.727-75.811723c-2.641 3.137683-28.2911 35.028523-10.2418 67.813923.6868 1.2484 1.9808 3.0042 3.5538 4.1925 2.414 1.8292 6.834 3.7252 11.348 3.0242 3.321-.5074 6.115-2.3165 8.308-5.3808.58-.8078 2.214-3.625 2.807-4.9602.621-1.4019 3.574-11.2623 2.741-24.287-.714-11.1421-4.521-27.1643-18.51-40.395947z" fill="url(#Y)"/><path d="m90.2003 75.8185c2.1203-9.2928-6.821-14.2063-13.1286-15.5882-6.361-1.3886-10.9483-.6075-16.5825 2.9374-4.2873 2.697-8.8546 6.1285-13.8154 4.5262 1.0402 5.3808 9.4814 8.4317 13.3487 9.9004 5.4275 2.0562 11.1416 3.8253 16.8758 3.8787 4.6541.0401 11.9818-.7343 13.2953-5.6545z" fill="#1c3232"/><path d="m90.4599 74.1759c-5.3741-8.3849-16.2691-7.7707-23.9635-4.6931-6.9277 2.7638-12.2619 1.0614-19.0029-1.0949l-.5267-.1669.1067-.3405.5334.1736c6.6743 2.1296 11.9551 3.8253 18.7628 1.1082 7.8211-3.1243 18.9028-3.7385 24.3969 4.8334l-.3.1936z" fill="url(#Z)"/><path d="m64.5292 74.6703c-2.167 0-4.2073-.2804-5.9476-.8412-4.6673-1.5021-10.4615-4.306-11.7017-5.6679l.2667-.2403c1.2068 1.3218 6.9277 4.079 11.5484 5.5677 3.5805 1.155 8.4746 1.0882 13.0753-.1669 1.2068-.3271 2.3003-.701 3.3538-1.0615 2.0736-.7076 4.0339-1.3819 6.4943-1.5821 3.4405-.2871 6.0876 1.3618 8.6213 2.9641l.46.2937-.1933.3004-.4601-.2937c-2.3937-1.5088-4.6607-2.9441-7.6211-2.9441-.2534 0-.5134.0134-.7801.0334-2.4137.2003-4.354.8678-6.4077 1.5688-1.0601.3605-2.1536.7344-3.3738 1.0682-2.4404.6676-4.9607 1.0014-7.3278 1.0014z" fill="url(#aa)"/><path d="m89.7869 73.8091c-1.0002-3.8854-3.1072-6.6292-6.261-8.1446-8.4145-4.0456-21.6832 1.8559-21.8165 1.916-6.241 2.2631-14.9889.3071-15.0756.287l.08-.3471c.0867.02 8.7346 1.9494 14.8622-.267.12-.0601 13.542-6.0284 22.1033-1.9094 3.2538 1.5622 5.4275 4.3861 6.4543 8.3783z" fill="url(#ab)"/><path d="m69.8506 78.021c-3.5072 0-6.7277-1.0415-10.1082-2.1296l-.3601-.1135c-4.4673-1.4354-9.2813-4.059-10.7682-5.3007-.4868-.4072-.8601-.8946-1.2269-1.3619-.1867-.2337-.3667-.474-.5601-.701l.2668-.2336c.2.2336.3867.474.58.7143.3534.4539.7201.9213 1.1735 1.3085 1.4269 1.195 6.2877 3.8319 10.6483 5.2406l.36.1135c3.8473 1.2417 7.4812 2.4233 11.5418 2.0428 2.0936-.1869 4.1873-.7477 6.2076-1.2951 1.8402-.4941 3.7405-1.0014 5.6541-1.2418 1.6136-.2002 3.2405-.4005 4.8408-.6008.2133-.0267.4467-.04.6934-.0467.5267-.0267 1.0668-.0534 1.4602-.2337l.1467.3271c-.4534.207-1.0335.2404-1.5936.2671-.2333.0133-.46.02-.6667.0467-1.6003.2003-3.2272.4006-4.8408.6008-1.8869.2337-3.7805.7411-5.6008 1.2284-2.0403.5474-4.1406 1.1082-6.2676 1.3018-.5334.0467-1.0535.0734-1.5736.0734z" fill="url(#ac)"/><path d="m77.2447 81.7799c-.12 0-.2334 0-.3534 0-6.0409-.0601-11.9751-2.0028-16.9825-3.8988l-.3067-.1201c-3.9539-1.4954-12.1818-4.5998-13.2286-10.0139l-.1001-.5141.4934.1603c4.3607 1.4086 8.4146-1.2017 12.3352-3.7185.4067-.2604.8135-.5208 1.2202-.7744 5.6408-3.5516 10.3549-4.3928 16.8092-2.9775 4.0939.8946 9.4014 3.3246 12.0284 7.4637 1.6003 2.5235 2.047 5.3808 1.3336 8.4917v.0134c-1.3603 5.0804-8.728 5.8882-13.2487 5.8882zm-30.1511-13.6456c1.3935 4.7733 9.0013 7.6439 12.7219 9.0525l.3067.1135c4.954 1.8759 10.8282 3.8053 16.7758 3.8654h.3467c4.3407 0 11.395-.7411 12.6486-5.4209.6734-2.9441.2467-5.6411-1.2602-8.0178-2.5204-3.9788-7.6612-6.322-11.6351-7.1899-6.3609-1.3953-10.7883-.6075-16.3558 2.8907-.4.2536-.8067.514-1.2201.7744-3.894 2.4968-7.9145 5.0803-12.3352 3.9321z" fill="url(#ad)"/><path d="m106.316 78.1349c-.066-9.62-9.8078-11.5827-16.2021-10.9485-6.4477.6342-10.695 2.8172-15.3156 7.9777-3.5206 3.9321-7.1411 8.652-12.2885 8.652 2.227 4.8668 11.0616 5.1872 15.1155 5.3942 5.7009.2937 11.6151.227 17.1559-1.5021 4.494-1.402 11.3888-4.4328 11.5348-9.58z" fill="#1c3232"/><path d="m62.916 84.2301v-.3539h.5601c6.921-.02 12.3885-.0333 18.3361-4.7666 6.8276-5.4475 17.3759-9.4664 24.6238-2.9107l-.24.2671c-7.0813-6.4089-17.4495-2.4301-24.1638 2.924-6.0409 4.8134-11.5617 4.8267-18.5561 4.8401z" fill="url(#ae)"/><path d="m75.3708 86.0317c-4.8341 0-11.0483-.9013-12.5485-1.8292l.1867-.3005c1.4602.8946 7.5744 1.7758 12.3618 1.7758h.0267c3.7205 0 8.4145-1.5822 12.5685-4.2191 1.0935-.6943 2.0603-1.3886 2.9938-2.0696 1.8403-1.3285 3.5738-2.5836 5.8942-3.5449 3.274-1.3552 6.174-.5741 8.981.1736l.52.1402-.093.3471-.52-.1402c-2.874-.7677-5.581-1.5021-8.748-.1936-2.287.948-4.0073 2.1897-5.8275 3.5049-.9402.6809-1.9136 1.3819-3.0138 2.0829-4.2073 2.677-8.9747 4.2726-12.7619 4.2726h-.0267z" fill="url(#af)"/><path d="m62.5226 83.9955-.0333-.3538c.0866-.0067 8.8679-.8345 14.2687-4.8734.1067-.1002 12.0485-10.3343 21.3299-8.632 3.2801.6075 5.8671 2.6303 7.6881 6.0083l-.314.1669c-1.767-3.2845-4.267-5.2405-7.4341-5.828-9.0814-1.6957-20.9165 8.4517-21.0365 8.5585-5.4941 4.1057-14.3688 4.9469-14.4621 4.9535z" fill="url(#ag)"/><path d="m77.3451 87.6613h-.7401c-4.6407 0-9.8748-1.0348-11.5951-1.7691-.5668-.2403-1.0402-.5942-1.5002-.9346-.2334-.1736-.4601-.3405-.7001-.4941l.1933-.3004c.2467.1602.4801.3338.7135.5074.4467.3271.9001.6676 1.4269.8946 1.6469.7076 6.9277 1.7424 11.4483 1.7424h.7335c3.8539 0 7.5077-.0468 11.2283-1.6156 1.9736-.8345 3.8606-2.0228 5.6875-3.1711 1.6603-1.0481 3.3805-2.1296 5.1741-2.9507l4.527-2.0829c.2-.0935.42-.1736.654-.2604.5-.1869 1.02-.3805 1.36-.6809l.233.267c-.386.3472-.94.5475-1.473.7477-.227.0801-.44.1669-.634.2537l-4.527 2.0829c-1.7736.8145-3.4805 1.8893-5.1341 2.9307-1.8336 1.1616-3.7339 2.3566-5.7408 3.1978-3.7806 1.5955-7.4745 1.6423-11.3617 1.6423z" fill="url(#ah)"/><path d="m82.3857 89.6638c-1.647 0-3.2472-.0601-4.7741-.1402l-.34-.02c-4.154-.2136-12.7953-.6543-15.0423-5.5611l-.2-.4406h.4801c4.5206 0 7.8411-3.7719 11.0549-7.4236.3334-.3805.6668-.761 1.0002-1.1282 4.6274-5.1739 8.9813-7.437 15.5156-8.0779 4.1207-.4072 9.7682.2737 13.2549 3.4181 2.161 1.9427 3.268 4.5797 3.288 7.8375v.0134c-.154 5.4342-7.4282 8.5184-11.7488 9.867-4.1473 1.2951-8.4546 1.6556-12.4885 1.6556zm-19.3763-5.5477c2.4004 4.1658 10.3949 4.5797 14.2955 4.7733l.3401.02c5.2141.2737 11.3016.3138 17.0492-1.482 4.1606-1.3018 11.1678-4.2392 11.3148-9.2929-.02-3.0709-1.06-5.5544-3.08-7.3769-3.3341-3.0042-8.7949-3.6584-12.7822-3.2645-6.4476.6342-10.5416 2.7705-15.1156 7.8776-.3334.3671-.6601.7477-1.0001 1.1282-3.1872 3.6183-6.481 7.3569-11.0217 7.6172z" fill="url(#ai)"/><path d="m135.327 75.8185c-2.12-9.2928 6.821-14.2063 13.128-15.5882 6.361-1.3886 10.949-.6075 16.583 2.9374 4.287 2.697 8.855 6.1285 13.815 4.5262-1.04 5.3808-9.481 8.4317-13.348 9.9004-5.428 2.0562-11.142 3.8253-16.876 3.8787-4.654.0401-11.982-.7343-13.295-5.6545z" fill="#1c3232"/><path d="m135.067 74.1757-.3-.1936c5.494-8.5652 16.575-7.951 24.397-4.8334 6.801 2.7171 12.081 1.0281 18.762-1.1082l.527-.1736.107.3405-.534.1669c-6.747 2.1563-12.075 3.8587-19.002 1.0949-7.688-3.071-18.59-3.6918-23.964 4.6931z" fill="url(#aj)"/><path d="m160.997 74.6703c-2.374 0-4.894-.3338-7.328-1.0014-1.22-.3338-2.314-.7077-3.374-1.0682-2.054-.701-3.994-1.3685-6.414-1.5688-3.347-.2938-5.801 1.2684-8.401 2.9107l-.46.2937-.194-.3004.46-.2937c2.534-1.5956 5.168-3.2445 8.622-2.9641 2.46.2069 4.42.8745 6.5 1.5821 1.054.3605 2.147.7344 3.354 1.0615 4.601 1.2551 9.488 1.3219 13.076.1669 4.62-1.4887 10.341-4.2459 11.548-5.5677l.267.2403c-1.234 1.3552-7.035 4.1591-11.702 5.6679-1.74.5608-3.781.8412-5.948.8412z" fill="url(#ak)"/><path d="m135.74 73.8091-.346-.0868c1.026-3.9989 3.193-6.8161 6.454-8.3783 8.568-4.1123 21.983 1.8559 22.116 1.916 6.115 2.2097 14.763.2871 14.849.2604l.08.3471c-.086.0201-8.841 1.9694-15.062-.2804-.147-.0667-13.422-5.9682-21.83-1.9226-3.154 1.5154-5.261 4.2592-6.261 8.1446z" fill="url(#al)"/><path d="m155.676 78.0218c-.52 0-1.04-.02-1.574-.0735-2.127-.1936-4.233-.7543-6.267-1.3018-1.827-.4873-3.714-.9947-5.601-1.2283-1.614-.2003-3.24-.4006-4.841-.6009-.2-.0267-.426-.04-.66-.0467-.56-.0267-1.14-.0534-1.593-.267l.146-.3271c.394.1802.934.2069 1.461.2336.24.0134.48.02.693.0467 1.6.2003 3.227.4006 4.841.6009 1.913.2403 3.814.7477 5.654 1.2417 2.02.5407 4.114 1.1015 6.207 1.2951 4.061.3872 7.695-.8011 11.542-2.0428l.36-.1135c4.368-1.4086 9.222-4.0389 10.649-5.2406.46-.3872.826-.8545 1.18-1.3151.186-.2404.373-.4807.573-.7077l.267.2337c-.194.2203-.374.4539-.56.6943-.367.4739-.74.9613-1.234 1.3685-1.48 1.2417-6.294 3.8654-10.768 5.3007l-.36.1135c-3.381 1.0948-6.601 2.1296-10.108 2.1296z" fill="url(#am)"/><path d="m148.282 81.7799c-4.521 0-11.888-.8012-13.249-5.8882v-.0134c-.713-3.1176-.266-5.9682 1.334-8.4917 2.62-4.1391 7.934-6.5691 12.028-7.4637 6.461-1.4153 11.169-.5741 16.809 2.9775.407.2536.814.514 1.221.781 3.92 2.5169 7.974 5.1138 12.335 3.7119l.493-.1603-.1.5141c-1.047 5.4075-9.274 8.5185-13.235 10.0139l-.307.1201c-5.007 1.896-10.941 3.8453-16.982 3.8988-.114 0-.234 0-.354 0zm-12.649-6.0418c1.254 4.6799 8.308 5.4209 12.642 5.4209h.347c5.948-.0534 11.815-1.9828 16.769-3.8654l.314-.1135c3.72-1.4086 11.328-4.2792 12.721-9.0525-4.434 1.1416-8.447-1.4353-12.335-3.9321-.406-.2604-.813-.5207-1.22-.7811-5.561-3.5049-9.988-4.2859-16.356-2.8907-3.967.8679-9.114 3.2178-11.635 7.19-1.507 2.3766-1.927 5.0737-1.26 8.0178z" fill="url(#an)"/><path d="m119.211 78.1349c.067-9.62 9.808-11.5827 16.202-10.9485 6.448.6342 10.695 2.8172 15.316 7.9777 3.52 3.9321 7.141 8.652 12.288 8.652-2.227 4.8668-11.061 5.1872-15.115 5.3942-5.701.2937-11.615.227-17.156-1.5021-4.494-1.402-11.388-4.4328-11.535-9.58z" fill="#1c3232"/><path d="m162.611 84.2303h-.56c-6.995-.02-12.516-.0334-18.557-4.84-6.721-5.3541-17.082-9.3396-24.163-2.9241l-.24-.267c7.248-6.5624 17.796-2.5302 24.623 2.9107 5.941 4.7332 11.409 4.7466 18.337 4.7666h.56v.3605z" fill="url(#ao)"/><path d="m150.155 86.0326h-.026c-3.781 0-8.555-1.6022-12.762-4.2726-1.1-.701-2.074-1.4019-3.014-2.0829-1.82-1.3151-3.541-2.5569-5.828-3.5048-3.16-1.3085-5.88-.5808-8.748.1936l-.52.1402-.093-.3472.52-.1402c2.807-.7544 5.708-1.5288 8.981-.1736 2.321.9614 4.061 2.2164 5.895 3.545.94.6742 1.907 1.3752 2.993 2.0695 4.154 2.6436 8.848 4.2192 12.569 4.2192h.027c4.787 0 10.901-.8813 12.362-1.7758l.186.3004c-1.5.9213-7.714 1.8292-12.548 1.8292z" fill="url(#ap)"/><path d="m163.004 83.9968c-.087-.0067-8.968-.8478-14.455-4.9468-.12-.1002-10.215-8.7522-18.923-8.7522-.72 0-1.434.0601-2.127.187-3.174.5808-5.674 2.5435-7.435 5.828l-.313-.1669c1.82-3.3847 4.401-5.4075 7.688-6.0083 9.248-1.689 21.21 8.5318 21.33 8.6386 5.394 4.0323 14.175 4.8601 14.262 4.8668l-.034.3538z" fill="url(#aq)"/><path d="m148.182 87.6611c-3.894 0-7.581-.0467-11.362-1.6422-2-.8479-3.9-2.0429-5.741-3.1978-1.653-1.0414-3.36-2.1163-5.127-2.9307l-4.527-2.0829c-.194-.0868-.407-.1669-.634-.2537-.527-.2003-1.08-.4006-1.467-.7477l.234-.267c.34.3004.853.494 1.353.6809.233.0868.46.1736.66.2604l4.528 2.0829c1.793.8211 3.513 1.9026 5.174 2.9507 1.827 1.1483 3.714 2.3366 5.687 3.1711 3.721 1.5688 7.375 1.6155 11.229 1.6155h.733c4.527 0 9.801-1.0347 11.448-1.7424.527-.227.987-.5674 1.427-.8945.234-.1736.467-.3472.714-.5074l.193.3004c-.24.1535-.467.3271-.7.494-.46.3405-.934.6943-1.5.9346-1.714.7411-6.955 1.7692-11.595 1.7692h-.74z" fill="url(#ar)"/><path d="m143.148 89.6643c-4.034 0-8.341-.3605-12.488-1.6556-4.321-1.3486-11.596-4.4262-11.749-9.867v-.0134c.02-3.2578 1.127-5.8948 3.287-7.8375 3.481-3.1377 9.128-3.8253 13.256-3.4181 6.534.6409 10.888 2.904 15.515 8.0779.334.3738.667.7477 1 1.1282 3.214 3.6517 6.535 7.4236 11.055 7.4236h.48l-.2.4406c-2.247 4.9002-10.888 5.3475-15.042 5.5611l-.34.02c-1.527.0801-3.127.1402-4.774.1402zm-23.623-11.5293c.146 5.0537 7.154 7.9911 11.315 9.2929 5.74 1.7958 11.835 1.7557 17.049 1.482l.34-.02c3.907-.2003 11.895-.6075 14.295-4.7733-4.54-.2603-7.834-3.9989-11.021-7.6172-.334-.3805-.667-.7544-1-1.1282-4.575-5.1071-8.675-7.2434-15.116-7.8776-4.007-.4006-9.448.2603-12.782 3.2645-2.02 1.8225-3.06 4.306-3.08 7.3769z" fill="url(#as)"/><path d="m112.223 109.471s21.724-17.7309 7.661-36.2499c-.46-.6008-1.413-1.5955-2.66-2.2765-2.987-1.6423-10.115-3.3513-14.682 1.2885-.454.4606-1.647 1.9627-2.074 2.657-1.16 1.9093-8.1343 21.0825 11.749 34.5809z" fill="#1c3232"/><path d="m112.223 109.565c-.04 0-.073-.02-.093-.06-4.601-10.5214-4.788-20.9225-4.128-27.792.714-7.4436 2.541-12.4639 2.561-12.5173.013-.0401.053-.0668.093-.0668h.013c.047.0067.08.0467.08.0935l1.567 40.2286c0 .047-.026.087-.073.101-.007 0-.013 0-.02 0zm-1.647-39.7885c-.473 1.4486-1.794 5.9015-2.374 11.9699-.646 6.736-.48 16.8834 3.901 27.1976l-1.527-39.1609z" fill="url(#at)"/><path d="m112.223 109.565s-.06-.013-.08-.04c-.046-.06-4.634-6.042-7.181-13.9661-2.354-7.3235-3.4-17.8447 4.988-26.4033.04-.04.1-.0467.14 0 .04.0401.04.1002 0 .1402-8.322 8.4851-7.282 18.9329-4.941 26.203 2.54 7.8912 7.108 13.8462 7.154 13.8992.034.047.027.107-.02.14-.02.014-.04.02-.06.02z" fill="url(#au)"/><path d="m112.224 109.565s-.047-.007-.067-.027c-.133-.12-12.962-12.3038-12.2219-25.1416.3399-5.8614 3.4339-10.9952 9.1879-15.2544.04-.0334.1-.0267.14.02.034.0467.027.1068-.02.1402-5.707 4.2258-8.774 9.3062-9.108 15.1009-.74 12.7443 12.029 24.8609 12.155 24.9809.04.04.04.101 0 .141-.02.02-.046.033-.073.033z" fill="url(#av)"/><path d="m112.223 109.564s-.04 0-.053-.013c-.047-.027-.06-.094-.027-.14.04-.06 4.067-6.342 5.974-14.3936 1.761-7.417 2.021-17.8982-6.701-25.7157-.04-.04-.046-.1001-.006-.1402.033-.04.1-.0467.14-.0067 8.794 7.8776 8.528 18.4389 6.754 25.916-1.914 8.0842-5.961 14.3932-6.001 14.4532-.02.027-.053.047-.08.047z" fill="url(#aw)"/><path d="m112.223 109.565s-.02 0-.027 0c-.053-.014-.08-.074-.067-.12.074-.254 7.395-25.3489-1.56-40.1494-.026-.0468-.013-.1068.034-.1336.046-.0267.106-.0133.133.0334 4.701 7.7775 4.881 18.3254 4.201 25.8025-.734 8.0981-2.601 14.4401-2.621 14.5071-.013.046-.053.073-.093.073z" fill="url(#ax)"/><path d="m112.223 109.564s-.053-.006-.073-.026c-.04-.041-.04-.101 0-.141.107-.106 10.515-10.7813 9.862-23.0382-.334-6.3221-3.528-11.99-9.482-16.8567-.04-.0334-.046-.0935-.013-.1402.033-.0401.1-.0468.14-.0134 6.001 4.9001 9.215 10.6214 9.555 17.0036.653 12.3438-9.815 23.0849-9.922 23.1919-.02.02-.047.027-.073.027z" fill="url(#ay)"/><path d="m112.23 109.718-.12-.08c-10.481-7.116-13.3217-15.7751-13.8551-21.7834-.5734-6.4556 1.3002-11.8364 2.0471-13.0648.427-.701 1.613-2.203 2.1-2.6971 4.434-4.4995 11.502-3.1977 14.922-1.3218 1.201.6609 2.194 1.6356 2.721 2.3299 7.328 9.6534 4.834 19.0798 1.453 25.2884-3.647 6.7028-9.094 11.1958-9.154 11.2358zm-1.973-40.2823c-2.661 0-5.434.7678-7.575 2.9374-.46.4674-1.64 1.9561-2.047 2.6237-.447.741-2.6002 5.9415-1.9867 12.8244.5267 5.9015 3.3067 14.3928 13.5617 21.4028.794-.681 5.628-4.933 8.948-11.0351 3.321-6.1018 5.768-15.3679-1.427-24.8478-.5-.6609-1.446-1.5888-2.593-2.223-1.661-.9146-4.208-1.689-6.875-1.689z" fill="url(#az)"/><path d="m112.003 159.193c-26.7974 0-48.6007-6.595-48.6007-14.707 0-8.111 21.8033-14.707 48.6007-14.707 26.797 0 48.6 6.596 48.6 14.707 0 8.112-21.803 14.707-48.6 14.707zm0-29.053c-26.5974 0-48.2406 6.435-48.2406 14.346s21.6365 14.347 48.2406 14.347c26.604 0 48.24-6.436 48.24-14.347s-21.636-14.346-48.24-14.346z" fill="url(#aA)"/><path d="m112.003 169.401c-21.9433 0-42.573-2.564-58.0953-7.223-15.6357-4.694-24.2436-10.976-24.2436-17.698 0-6.723 8.6079-13.005 24.2436-17.698 15.5223-4.66 36.152-7.223 58.0953-7.223 21.943 0 42.573 2.563 58.095 7.223 15.636 4.693 24.244 10.975 24.244 17.698 0 6.722-8.608 13.004-24.244 17.698-15.522 4.659-36.152 7.223-58.095 7.223zm0-49.228c-45.0601 0-81.7255 10.902-81.7255 24.307s36.6588 24.307 81.7255 24.307c45.067 0 81.725-10.902 81.725-24.307s-36.658-24.307-81.725-24.307z" fill="url(#aB)"/><path d="m112.003 161.544c-31.1715 0-56.5352-7.651-56.5352-17.057 0-9.407 25.3637-17.057 56.5352-17.057 31.171 0 56.535 7.65 56.535 17.057 0 9.406-25.364 17.057-56.535 17.057zm0-33.847c-31.0248 0-56.2619 7.53-56.2619 16.79 0 9.259 25.2371 16.783 56.2619 16.783 31.024 0 56.262-7.531 56.262-16.783 0-9.253-25.238-16.79-56.262-16.79z" fill="url(#aC)"/><path d="m112.004 171.998c-24.4706 0-47.4806-2.864-64.7899-8.057-17.4359-5.234-27.0373-12.244-27.0373-19.741s9.6014-14.507 27.0373-19.741c17.3093-5.194 40.3193-8.058 64.7899-8.058 24.47 0 47.48 2.864 64.789 8.058 17.436 5.234 27.038 12.244 27.038 19.741s-9.602 14.507-27.038 19.741c-17.309 5.193-40.319 8.057-64.789 8.057zm0-54.902c-50.2611 0-91.1471 12.163-91.1471 27.111 0 14.947 40.886 27.11 91.1471 27.11 50.261 0 91.147-12.163 91.147-27.11 0-14.948-40.886-27.111-91.147-27.111z" fill="url(#aD)"/><path d="m112.003 178c-29.8708 0-57.955-3.492-79.0848-9.834-21.2298-6.369-32.9182-14.88-32.9182-23.96 0-9.079 11.6884-17.597 32.9182-23.966 21.1298-6.342 49.214-9.834 79.0848-9.834 29.871 0 57.956 3.492 79.085 9.834 21.23 6.369 32.919 14.88 32.919 23.966s-11.689 17.598-32.919 23.967c-21.129 6.342-49.214 9.834-79.085 9.834zm0-67.053c-61.4621 0-111.46292 14.921-111.46292 33.259 0 18.339 50.00082 33.26 111.46292 33.26 61.463 0 111.464-14.921 111.464-33.26 0-18.338-50.001-33.259-111.464-33.259z" fill="url(#aE)"/></g></svg>