<svg fill="none" height="256" viewBox="0 0 321 256" width="321" xmlns="http://www.w3.org/2000/svg" xmlns:xlink="http://www.w3.org/1999/xlink"><linearGradient id="a"><stop offset="0" stop-color="#c09440"/><stop offset=".5" stop-color="#f5e283"/><stop offset=".89" stop-color="#d3b058"/></linearGradient><linearGradient id="b" gradientUnits="userSpaceOnUse" x1="160.638" x2="162.635" xlink:href="#a" y1="37.781" y2="274.991"/><linearGradient id="c" gradientUnits="userSpaceOnUse" x1="222.32" x2="226.848" xlink:href="#a" y1="77.9004" y2="84.0288"/><linearGradient id="d" gradientUnits="userSpaceOnUse" x1="222.312" x2="231.039" xlink:href="#a" y1="77.906" y2="89.7157"/><linearGradient id="e" gradientUnits="userSpaceOnUse" x1="222.299" x2="234.193" xlink:href="#a" y1="77.9041" y2="93.9999"/><linearGradient id="f" gradientUnits="userSpaceOnUse" x1="223.599" x2="215.988" xlink:href="#a" y1="79.6579" y2="69.3591"/><linearGradient id="g" gradientUnits="userSpaceOnUse" x1="224.369" x2="219.789" xlink:href="#a" y1="80.7098" y2="74.512"/><linearGradient id="h" gradientUnits="userSpaceOnUse" x1="222.741" x2="213.41" xlink:href="#a" y1="78.1116" y2="65.4847"/><linearGradient id="i" gradientUnits="userSpaceOnUse" x1="210.984" x2="235.996" xlink:href="#a" y1="62.2977" y2="96.1466"/><linearGradient id="j" gradientUnits="userSpaceOnUse" x1="205.468" x2="212.327" xlink:href="#a" y1="66.4405" y2="71.4106"/><linearGradient id="k" gradientUnits="userSpaceOnUse" x1="205.47" x2="218.668" xlink:href="#a" y1="66.4539" y2="76.0179"/><linearGradient id="l" gradientUnits="userSpaceOnUse" x1="205.456" x2="223.444" xlink:href="#a" y1="66.4563" y2="79.491"/><linearGradient id="m" gradientUnits="userSpaceOnUse" x1="207.435" x2="195.91" xlink:href="#a" y1="67.9012" y2="59.5503"/><linearGradient id="n" gradientUnits="userSpaceOnUse" x1="208.601" x2="201.672" xlink:href="#a" y1="68.7546" y2="63.7339"/><linearGradient id="o" gradientUnits="userSpaceOnUse" x1="206.007" x2="191.887" xlink:href="#a" y1="66.5599" y2="56.3276"/><linearGradient id="p" gradientUnits="userSpaceOnUse" x1="188.241" x2="226.077" xlink:href="#a" y1="53.7417" y2="81.1589"/><linearGradient id="q" gradientUnits="userSpaceOnUse" x1="183.035" x2="191.795" xlink:href="#a" y1="56.5072" y2="59.0762"/><linearGradient id="r" gradientUnits="userSpaceOnUse" x1="183.033" x2="200.047" xlink:href="#a" y1="56.5164" y2="61.5064"/><linearGradient id="s" gradientUnits="userSpaceOnUse" x1="183.033" x2="206.276" xlink:href="#a" y1="56.5165" y2="63.3329"/><linearGradient id="t" gradientUnits="userSpaceOnUse" x1="185.267" x2="170.408" xlink:href="#a" y1="57.1879" y2="52.8301"/><linearGradient id="u" gradientUnits="userSpaceOnUse" x1="186.801" x2="177.931" xlink:href="#a" y1="57.6319" y2="55.0307"/><linearGradient id="v" gradientUnits="userSpaceOnUse" x1="183.537" x2="165.046" xlink:href="#a" y1="56.3954" y2="50.9723"/><linearGradient id="w" gradientUnits="userSpaceOnUse" x1="160.302" x2="209.604" xlink:href="#a" y1="49.6852" y2="64.144"/><linearGradient id="x" gradientUnits="userSpaceOnUse" x1="97.5384" x2="93.0042" xlink:href="#a" y1="77.8884" y2="84.0245"/><linearGradient id="y" gradientUnits="userSpaceOnUse" x1="97.554" x2="88.8216" xlink:href="#a" y1="77.8993" y2="89.7168"/><linearGradient id="z" gradientUnits="userSpaceOnUse" x1="97.5544" x2="85.6605" xlink:href="#a" y1="77.8997" y2="93.9954"/><linearGradient id="A" gradientUnits="userSpaceOnUse" x1="96.2536" x2="103.87" xlink:href="#a" y1="79.6533" y2="69.3468"/><linearGradient id="B" gradientUnits="userSpaceOnUse" x1="95.4837" x2="100.064" xlink:href="#a" y1="80.705" y2="74.5072"/><linearGradient id="C" gradientUnits="userSpaceOnUse" x1="97.1196" x2="106.45" xlink:href="#a" y1="78.1126" y2="65.4858"/><linearGradient id="D" gradientUnits="userSpaceOnUse" x1="108.876" x2="83.869" xlink:href="#a" y1="62.2989" y2="96.1401"/><linearGradient id="E" gradientUnits="userSpaceOnUse" x1="114.405" x2="107.546" xlink:href="#a" y1="66.4318" y2="71.402"/><linearGradient id="F" gradientUnits="userSpaceOnUse" x1="114.411" x2="101.205" xlink:href="#a" y1="66.4396" y2="76.0092"/><linearGradient id="G" gradientUnits="userSpaceOnUse" x1="114.41" x2="96.4225" xlink:href="#a" y1="66.4397" y2="79.4744"/><linearGradient id="H" gradientUnits="userSpaceOnUse" x1="112.438" x2="123.962" xlink:href="#a" y1="67.8924" y2="59.5415"/><linearGradient id="I" gradientUnits="userSpaceOnUse" x1="111.271" x2="118.2" xlink:href="#a" y1="68.7458" y2="63.7251"/><linearGradient id="J" gradientUnits="userSpaceOnUse" x1="113.873" x2="127.994" xlink:href="#a" y1="66.5454" y2="56.3131"/><linearGradient id="K" gradientUnits="userSpaceOnUse" x1="131.632" x2="93.7958" xlink:href="#a" y1="53.7328" y2="81.1499"/><linearGradient id="L" gradientUnits="userSpaceOnUse" x1="136.823" x2="128.072" xlink:href="#a" y1="56.5041" y2="59.0704"/><linearGradient id="M" gradientUnits="userSpaceOnUse" x1="136.826" x2="119.811" xlink:href="#a" y1="56.5131" y2="61.5031"/><linearGradient id="N" gradientUnits="userSpaceOnUse" x1="136.826" x2="113.583" xlink:href="#a" y1="56.5134" y2="63.3299"/><linearGradient id="O" gradientUnits="userSpaceOnUse" x1="134.592" x2="149.46" xlink:href="#a" y1="57.1848" y2="52.8243"/><linearGradient id="P" gradientUnits="userSpaceOnUse" x1="133.058" x2="141.937" xlink:href="#a" y1="57.6287" y2="55.0248"/><linearGradient id="Q" gradientUnits="userSpaceOnUse" x1="136.321" x2="154.822" xlink:href="#a" y1="56.3921" y2="50.9664"/><linearGradient id="R" gradientUnits="userSpaceOnUse" x1="159.566" x2="110.264" xlink:href="#a" y1="49.6794" y2="64.1382"/><linearGradient id="S" gradientUnits="userSpaceOnUse" x1="157.055" x2="166.103" xlink:href="#a" y1="55.2651" y2="55.2651"/><linearGradient id="T" gradientUnits="userSpaceOnUse" x1="157.054" x2="174.855" xlink:href="#a" y1="55.2748" y2="55.2748"/><linearGradient id="U" gradientUnits="userSpaceOnUse" x1="157.055" x2="181.487" xlink:href="#a" y1="55.284" y2="55.284"/><linearGradient id="V" gradientUnits="userSpaceOnUse" x1="158.956" x2="143.363" xlink:href="#a" y1="55.2745" y2="55.2745"/><linearGradient id="W" gradientUnits="userSpaceOnUse" x1="160.581" x2="151.379" xlink:href="#a" y1="55.265" y2="55.265"/><linearGradient id="X" gradientUnits="userSpaceOnUse" x1="157.504" x2="137.582" xlink:href="#a" y1="55.0153" y2="55.0153"/><linearGradient id="Y" gradientUnits="userSpaceOnUse" x1="132.566" x2="184.965" xlink:href="#a" y1="55.1788" y2="55.1788"/><linearGradient id="Z" gradientUnits="userSpaceOnUse" x1="69.1564" x2="129.643" xlink:href="#a" y1="91.3867" y2="107.978"/><linearGradient id="aa" gradientUnits="userSpaceOnUse" x1="68.1599" x2="128.674" xlink:href="#a" y1="94.5468" y2="111.146"/><linearGradient id="ab" gradientUnits="userSpaceOnUse" x1="69.1932" x2="129.339" xlink:href="#a" y1="88.9374" y2="105.436"/><linearGradient id="ac" gradientUnits="userSpaceOnUse" x1="67.5143" x2="127.817" xlink:href="#a" y1="96.9375" y2="113.479"/><linearGradient id="ad" gradientUnits="userSpaceOnUse" x1="67.8908" x2="130.009" xlink:href="#a" y1="90.9766" y2="108.016"/><linearGradient id="ae" gradientUnits="userSpaceOnUse" x1="90.1602" x2="152.526" xlink:href="#a" y1="112.921" y2="112.921"/><linearGradient id="af" gradientUnits="userSpaceOnUse" x1="90.0264" x2="152.411" xlink:href="#a" y1="115.869" y2="115.869"/><linearGradient id="ag" gradientUnits="userSpaceOnUse" x1="89.5488" x2="151.58" xlink:href="#a" y1="110.694" y2="110.694"/><linearGradient id="ah" gradientUnits="userSpaceOnUse" x1="90.0269" x2="152.201" xlink:href="#a" y1="118.077" y2="118.077"/><linearGradient id="ai" gradientUnits="userSpaceOnUse" x1="88.8896" x2="152.793" xlink:href="#a" y1="112.489" y2="112.489"/><linearGradient id="aj" gradientUnits="userSpaceOnUse" x1="254.041" x2="193.555" xlink:href="#a" y1="91.4004" y2="107.992"/><linearGradient id="ak" gradientUnits="userSpaceOnUse" x1="255.037" x2="194.523" xlink:href="#a" y1="94.5604" y2="111.16"/><linearGradient id="al" gradientUnits="userSpaceOnUse" x1="253.994" x2="193.857" xlink:href="#a" y1="88.9533" y2="105.449"/><linearGradient id="am" gradientUnits="userSpaceOnUse" x1="255.681" x2="195.378" xlink:href="#a" y1="96.9422" y2="113.483"/><linearGradient id="an" gradientUnits="userSpaceOnUse" x1="255.295" x2="193.176" xlink:href="#a" y1="90.9836" y2="108.023"/><linearGradient id="ao" gradientUnits="userSpaceOnUse" x1="233.027" x2="170.671" xlink:href="#a" y1="112.921" y2="112.921"/><linearGradient id="ap" gradientUnits="userSpaceOnUse" x1="233.161" x2="170.776" xlink:href="#a" y1="115.869" y2="115.869"/><linearGradient id="aq" gradientUnits="userSpaceOnUse" x1="233.638" x2="171.617" xlink:href="#a" y1="110.694" y2="110.694"/><linearGradient id="ar" gradientUnits="userSpaceOnUse" x1="233.17" x2="170.987" xlink:href="#a" y1="118.077" y2="118.077"/><linearGradient id="as" gradientUnits="userSpaceOnUse" x1="234.298" x2="170.394" xlink:href="#a" y1="112.489" y2="112.489"/><linearGradient id="at" gradientUnits="userSpaceOnUse" x1="160.963" x2="154.37" xlink:href="#a" y1="128.504" y2="128.504"/><linearGradient id="au" gradientUnits="userSpaceOnUse" x1="160.964" x2="148.007" xlink:href="#a" y1="128.494" y2="128.494"/><linearGradient id="av" gradientUnits="userSpaceOnUse" x1="160.963" x2="143.162" xlink:href="#a" y1="128.504" y2="128.504"/><linearGradient id="aw" gradientUnits="userSpaceOnUse" x1="159.617" x2="170.958" xlink:href="#a" y1="128.504" y2="128.504"/><linearGradient id="ax" gradientUnits="userSpaceOnUse" x1="158.431" x2="165.129" xlink:href="#a" y1="128.504" y2="128.504"/><linearGradient id="ay" gradientUnits="userSpaceOnUse" x1="160.677" x2="175.181" xlink:href="#a" y1="128.638" y2="128.638"/><linearGradient id="az" gradientUnits="userSpaceOnUse" x1="178.841" x2="140.649" xlink:href="#a" y1="128.542" y2="128.542"/><linearGradient id="aA" gradientUnits="userSpaceOnUse" x1="90.8584" x2="230.151" xlink:href="#a" y1="207.801" y2="207.801"/><linearGradient id="aB" gradientUnits="userSpaceOnUse" x1="42.5098" x2="278.489" xlink:href="#a" y1="207.802" y2="207.802"/><linearGradient id="aC" gradientUnits="userSpaceOnUse" x1="79.4883" x2="241.512" xlink:href="#a" y1="207.801" y2="207.801"/><linearGradient id="aD" gradientUnits="userSpaceOnUse" x1="28.9035" x2="292.096" xlink:href="#a" y1="207.398" y2="207.398"/><linearGradient id="aE" gradientUnits="userSpaceOnUse" x1="0" x2="321" xlink:href="#a" y1="207.398" y2="207.398"/><clipPath id="aF"><path d="m0 0h321v256h-321z"/></clipPath><g clip-path="url(#aF)" opacity=".6"><path d="m160.8 208.358-2.016-.019 3.153-166.2374 2.007.0288z" fill="url(#b)"/><path d="m256.761 52.673s-50.077-5.1847-68.557 36.3794c-.602 1.3538-1.404 3.8405-1.414 6.2985-.028 5.9051 3.631 17.1961 15.699 17.1381 1.194 0 4.844-.393 6.421-.739 4.309-.951 43.255-16.4567 47.851-59.077z" fill="#1c3232"/><path d="m256.762 52.6729-66.809 53.2581s40.513-15.9858 66.809-53.2581z" fill="#1c3232"/><path d="m189.953 106.104c-.067 0-.124-.029-.153-.086-.048-.077-.029-.183.038-.231l66.809-53.2581c.076-.0576.181-.048.239.0096.066.0576.076.1633.028.2401-26.028 36.8882-66.483 53.1624-66.894 53.3254-.019 0-.038.01-.067.01zm65.91-52.4901-64.764 51.6261c6.87-2.986 41.345-19.1256 64.764-51.6261z" fill="url(#c)"/><path d="m190.526 106.93c-.095 0-.181-.077-.181-.182 0-.106.076-.183.181-.183 22.082-.173 38.87-14.8243 49.065-27.0948 11.055-13.3075 16.951-26.7397 17.008-26.8741.038-.096.143-.1344.239-.096.095.0384.134.144.095.24-.057.1344-5.981 13.6147-17.065 26.9605-10.243 12.3281-27.117 27.0564-49.332 27.2294z" fill="url(#d)"/><path d="m199.183 108.62c-2.599 0-5.236-.211-7.921-.624-.095-.019-.162-.106-.153-.211.019-.096.096-.154.211-.154 24.976 3.869 41.382-11.2911 50.756-24.685 10.166-14.5268 14.475-30.1673 14.514-30.3209.019-.096.124-.1633.219-.1249.096.0289.153.1249.125.2209-.039.1536-4.367 15.8614-14.572 30.4362-5.991 8.5739-12.823 15.0836-20.285 19.3567-7.08 4.051-14.753 6.096-22.894 6.096z" fill="url(#e)"/><path d="m189.179 105.058s-.029 0-.039 0c-.095-.029-.153-.125-.133-.221 5.264-21.2572 23.4-34.3534 37.694-41.6024 15.47-7.8442 29.888-10.7054 30.031-10.7342.125-.0192.191.048.211.144.019.096-.039.192-.144.2112-.143.0288-14.523 2.8804-29.945 10.7055-14.218 7.2106-32.267 20.2396-37.503 41.3629-.02.086-.096.144-.172.144z" fill="url(#f)"/><path d="m189.953 106.104s-.057 0-.086-.019c-.086-.048-.114-.163-.067-.249 16.941-30.427 66.398-53.1053 66.895-53.3357.086-.048.191 0 .239.096.038.0864 0 .2016-.086.24-.497.2209-49.839 22.8608-66.723 53.1817-.038.058-.095.096-.162.096z" fill="url(#g)"/><path d="m188.491 103.387s-.019 0-.038 0c-.095-.019-.162-.115-.143-.211 2.303-11.5119 7.338-21.3436 14.973-29.2167 6.096-6.2985 13.854-11.3584 23.056-15.0549 15.66-6.2889 30.27-6.4137 30.423-6.4137.095 0 .181.0768.181.1825 0 .1056-.076.1824-.181.1824-.143 0-14.705.1248-30.299 6.3849-14.38 5.7703-32.602 18.0888-37.8 44.0025-.019.087-.095.144-.172.144z" fill="url(#h)"/><path d="m202.393 112.854c-4.328 0-7.94-1.421-10.739-4.234-3.889-3.918-5.246-9.5919-5.227-13.2692.01-2.3811.755-4.8871 1.443-6.4425 18.374-41.3241 68.423-36.6482 68.929-36.5906l.364.0384-.039.3648c-2.417 22.4575-14.466 37.0803-24.155 45.4047-10.395 8.9294-21.212 13.3844-23.973 13.9894-1.663.365-5.322.739-6.498.749-.038 0-.066 0-.105 0zm49.371-59.9987c-13.071 0-48.492 3.1973-63.235 36.3506-.659 1.4786-1.366 3.879-1.385 6.1449-.02 3.5333 1.28 8.9962 5.016 12.7502 2.656 2.67 6.096 4.023 10.224 4.023h.095c1.118 0 4.749-.374 6.345-.729 1.672-.375 12.526-4.263 23.658-13.8359 9.536-8.1899 21.384-22.5535 23.859-44.5597-.688-.0576-2.293-.1537-4.596-.1537z" fill="url(#i)"/><path d="m233.792 27.6995s-55.056 11.7617-60.98 62.4086c-.192 1.6514-.22 4.5703.582 7.1914 1.921 6.2985 9.555 17.0615 22.397 12.8275 1.271-.423 5.026-2.084 6.593-3.005 4.281-2.497 40.628-32.4528 31.408-79.4321z" fill="#1c3232"/><path d="m233.792 27.6992-53.527 79.7778s37.857-31.0031 53.527-79.7778z" fill="#1c3232"/><path d="m180.265 107.678c-.048 0-.096-.019-.134-.057-.076-.068-.086-.183-.029-.26l53.527-79.777c.058-.0864.163-.1152.258-.0672.096.0384.134.1536.105.2496-15.517 48.2755-53.211 79.5666-53.594 79.8736-.038.029-.086.048-.124.048zm52.877-78.6538-51.884 77.3288c6.335-5.559 37.695-34.6509 51.884-77.3288z" fill="url(#j)"/><path d="m181.143 108.36c-.086 0-.162-.058-.191-.135-.038-.105.019-.22.125-.259 23.467-7.806 36.49-29.207 43.284-45.7981 7.367-17.9832 9.201-34.3247 9.22-34.4879.019-.1152.134-.1728.23-.1824.114.0096.191.1152.181.2304-.019.1632-1.863 16.5623-9.249 34.6032-6.832 16.6678-19.922 38.1748-43.533 46.0288-.019 0-.038.009-.067.009z" fill="url(#k)"/><path d="m182.309 109.224c-.095 0-.181-.067-.201-.173-.019-.115.058-.211.163-.23 27.872-4.513 40.341-26.3076 45.883-43.8012 6.02-18.9818 5.437-37.1379 5.427-37.3203 0-.1152.086-.2016.191-.2112.105 0 .201.0864.201.192 0 .1824.602 18.3961-5.437 37.4452-3.545 11.1951-8.666 20.4892-15.202 27.623-8.179 8.9195-18.613 14.4595-31.006 16.4665-.009 0-.019 0-.028 0z" fill="url(#l)"/><path d="m179.089 106.833c-.105 0-.201-.086-.201-.192-1.433-24.4541 13.559-44.6745 26.382-57.3194 13.883-13.6915 28.282-21.7182 28.426-21.795.105-.0576.22-.0192.277.0768s.019.2208-.077.2784c-.143.0768-14.504 8.0843-28.349 21.7374-12.756 12.5873-27.671 32.7021-26.248 57.0028 0 .115-.076.211-.191.211h-.009z" fill="url(#m)"/><path d="m180.264 107.678s-.029 0-.038 0c-.115-.019-.182-.124-.153-.24 7.978-38.2513 53.135-79.4794 53.594-79.8923.086-.0768.21-.0672.287.0192.076.0864.067.2113-.019.2881-.459.4128-45.52 41.5449-53.47 79.662-.019.096-.105.163-.201.163z" fill="url(#n)"/><path d="m177.799 105.288c-.105 0-.191-.077-.2-.183-1.357-13.0575.755-25.2608 6.277-36.2831 4.415-8.8141 10.998-16.8792 19.579-23.9937 14.6-12.0977 30.126-17.2728 30.279-17.3304.105-.0384.22.0192.258.1248s-.019.2208-.124.2592c-.153.048-15.613 5.2135-30.156 17.2632-13.405 11.1087-28.741 30.5226-25.693 59.912.01.115-.067.211-.181.221h-.02z" fill="url(#o)"/><path d="m190.115 111.51c-2.512 0-4.911-.586-7.166-1.767-5.427-2.832-8.752-8.401-9.947-12.3186-.773-2.5443-.812-5.4727-.592-7.3642 5.886-50.3589 60.741-62.639 61.295-62.7638l.402-.0864.076.4032c4.854 24.7426-3.134 44.4829-10.692 56.6958-8.112 13.0962-18.164 21.574-20.906 23.178-1.548.902-5.303 2.582-6.67 3.034-1.987.653-3.927.989-5.8.989zm43.361-83.3207c-5.007 1.2098-54.702 14.4692-60.254 61.9669-.21 1.8051-.172 4.599.564 7.0282 1.147 3.7636 4.338 9.1216 9.545 11.8286 3.746 1.949 7.893 2.199 12.345.73 1.185-.394 4.931-2.036 6.517-2.967 1.663-.97 11.925-8.8523 20.629-22.899 7.444-12.0113 15.307-31.3964 10.664-55.6877z" fill="url(#p)"/><path d="m198.276 5.36719s-53.05 33.14381-40.781 88.14011c.401 1.7955 1.433 4.8391 3.22 7.2687 4.29 5.828 16.167 14.142 27.996 4.858 1.175-.922 4.481-4.081 5.771-5.627 3.545-4.2242 30.49-49.216 3.794-94.63981z" fill="#1c3232"/><path d="m198.276 5.36719-26.707 103.39681s28.14-46.653 26.707-103.39681z" fill="#1c3232"/><path d="m171.569 108.985s-.057 0-.086-.019c-.105-.039-.163-.154-.134-.26l26.706-103.39629c.029-.10562.134-.16323.239-.16323.115.00961.191.10562.201.22083 1.414 56.15809-26.458 103.05069-26.735 103.52169-.038.067-.115.105-.191.105zm26.505-101.98546-25.874 100.20946c4.586-8.2096 26.639-50.3978 25.874-100.20946z" fill="url(#q)"/><path d="m172.735 109.359c-.067 0-.134-.029-.172-.086-.077-.096-.058-.24.038-.317 21.594-17.0328 27.375-44.2718 28.417-64.1177 1.127-21.5261-2.915-39.24058-2.953-39.42301-.029-.12482.048-.24003.163-.26884.114-.0384.238.04801.267.16323.038.18242 4.09 17.95442 2.962 39.53822-1.041 19.942-6.851 47.3153-28.579 64.4541-.038.028-.086.048-.134.048z" fill="url(#r)"/><path d="m174.264 109.82c-.077 0-.153-.048-.191-.115-.058-.106-.02-.25.086-.307 27.384-15.276 32.429-42.707 31.846-63.033-.64-22.0542-7.863-40.7384-7.94-40.92082-.048-.11522.01-.24964.124-.28804.105-.04801.249.0096.287.12482.076.18242 7.329 18.93384 7.969 41.05524.382 13.0098-1.567 24.6274-5.771 34.5263-5.265 12.3954-14.113 22.1215-26.296 28.9195-.038.019-.067.029-.105.029z" fill="url(#s)"/><path d="m170.031 108.543c-.086 0-.172-.058-.211-.144-10.395-24.925-2.149-51.6647 6.603-69.7056 9.469-19.529 21.546-33.35495 21.671-33.48937.076-.10561.219-.09601.315-.0192.095.07681.105.22083.019.31685-.115.13441-12.163 13.92192-21.613 33.39342-8.705 17.9544-16.913 44.5501-6.584 69.3219.048.115 0 .249-.124.297-.029.01-.057.019-.086.019z" fill="url(#t)"/><path d="m171.569 108.985c-.114 0-.21-.087-.219-.192-5.619-42.8606 26.41-102.93608 26.725-103.53136.057-.11522.191-.15362.306-.09601.105.0576.153.19202.095.30724-.325.60488-32.277 60.54593-26.677 103.26213.019.125-.067.24-.191.25-.01 0-.02 0-.029 0z" fill="url(#u)"/><path d="m168.139 107.429c-.086 0-.162-.048-.2-.125-6.163-13.0861-8.409-26.5952-6.67-40.1618 1.386-10.8495 5.303-21.7566 11.648-32.4141 10.797-18.1369 25.082-29.41845 25.225-29.53366.095-.07681.229-.06721.315.0384.077.09602.058.24004-.038.31685-.143.11521-14.361 11.34871-25.12 29.41841-9.918 16.6583-18.814 42.6971-4.95 72.1439.058.116 0 .25-.105.298-.028.019-.067.019-.095.019z" fill="url(#v)"/><path d="m177.493 110.252c-.783 0-1.576-.058-2.379-.163-6.65-.912-12.116-5.444-14.763-9.045-1.729-2.3423-2.837-5.3763-3.296-7.4406-12.202-54.6795 40.446-88.28416 40.981-88.6202l.392-.24004.239.39366c14.065 23.92648 12.928 47.51698 9.498 63.09028-3.679 16.7159-11.065 29.3512-13.33 32.0589-1.29 1.536-4.576 4.705-5.847 5.693-3.612 2.833-7.463 4.263-11.485 4.263zm20.629-104.25106c-4.777 3.16843-51.702 35.83216-40.198 87.40086.44 1.9682 1.501 4.8678 3.144 7.1052 2.551 3.466 7.787 7.815 14.17 8.689 4.634.634 9.077-.691 13.196-3.917 1.089-.855 4.385-3.995 5.704-5.5596 1.376-1.6418 9.192-13.7491 13.148-31.6747 3.372-15.3333 4.51-38.5013-9.164-62.03416z" fill="url(#w)"/><path d="m63.1016 52.6725s50.0774-5.1847 68.5574 36.3794c.602 1.3538 1.395 3.8405 1.414 6.2985.028 5.9046-3.631 17.1956-15.699 17.1386-1.194 0-4.844-.394-6.421-.74-4.309-.95-43.2555-16.4562-47.8514-59.0765z" fill="#1c3232"/><path d="m63.1006 52.6729 66.8084 53.2581s-40.5131-15.9858-66.8084-53.2581z" fill="#1c3232"/><path d="m129.919 106.104s-.048 0-.067-.009c-.411-.164-40.8571-16.4283-66.8944-53.3262-.0478-.0768-.0382-.1728.0287-.24.0668-.0576.1624-.0672.2388-.0096l66.8089 53.2588c.067.057.086.153.038.23-.029.058-.096.087-.153.087zm-65.9104-52.4807c23.4289 32.5005 57.9034 48.6407 64.7634 51.6267z" fill="url(#x)"/><path d="m129.346 106.929c-22.225-.172-39.0991-14.9008-49.3325-27.2289-11.0934-13.3458-17.0079-26.8261-17.0653-26.9605-.0382-.096 0-.2016.0956-.24.0955-.0384.2006 0 .2389.096.0573.1344 5.9623 13.5763 17.0174 26.8741 10.1952 12.2609 26.9739 26.9223 49.0549 27.0853.096 0 .182.086.182.182s-.086.183-.182.183z" fill="url(#y)"/><path d="m120.689 108.62c-8.14 0-15.813-2.036-22.9029-6.097-7.4625-4.2728-14.2943-10.7921-20.2852-19.3565-10.2048-14.5844-14.5236-30.2825-14.5619-30.4361-.0286-.0961.0287-.2017.1243-.2209.0955-.0384.2006.0288.2197.1248.0382.1537 4.3475 15.8038 14.5236 30.3306 9.3639 13.3843 25.7894 28.5251 50.7464 24.6751.105 0 .191.058.21.154s-.057.192-.152.211c-2.685.413-5.323.624-7.922.624z" fill="url(#z)"/><path d="m130.693 105.058c-.076 0-.153-.058-.172-.144-5.226-21.1234-23.285-34.1524-37.5031-41.363-15.4217-7.8251-29.7924-10.6766-29.9358-10.7055-.0955-.0192-.1624-.1152-.1433-.2112s.1051-.1536.2102-.144c.1433.0288 14.5618 2.89 30.0314 10.7343 14.2946 7.249 32.4296 20.3452 37.6946 41.6024.019.096-.038.192-.134.221-.01 0-.029 0-.038 0z" fill="url(#A)"/><path d="m129.919 106.104c-.067 0-.124-.029-.162-.096-16.884-30.3212-66.2258-52.9515-66.7227-53.1819-.0955-.0384-.1338-.144-.086-.2401.0382-.096.1529-.144.2389-.096.4968.2209 49.9538 22.9088 66.8948 53.335.047.087.019.202-.067.25-.029.019-.058.019-.086.019z" fill="url(#B)"/><path d="m131.381 103.387c-.086 0-.163-.058-.172-.144-5.198-25.9142-23.429-38.2326-37.8094-44.003-15.5938-6.2601-30.146-6.3849-30.2893-6.3849-.1051 0-.1816-.0864-.1816-.1824 0-.0961.086-.1825.1816-.1825.1433 0 14.7624.1249 30.4231 6.4137 9.2016 3.6965 16.9596 8.7564 23.0566 15.0549 7.624 7.8731 12.66 17.7048 14.972 29.2172.019.096-.038.192-.143.211-.01 0-.019 0-.038 0z" fill="url(#C)"/><path d="m117.478 112.854s-.067 0-.105 0c-1.175 0-4.825-.375-6.497-.749-2.762-.605-13.5875-5.06-23.9738-13.9893-9.6792-8.3244-21.7376-22.9568-24.155-45.4047l-.0382-.3648.3631-.0385c.5064-.048 50.5559-4.7334 68.9299 36.5907.688 1.5554 1.433 4.0613 1.443 6.4425.019 3.6773-1.338 9.3521-5.227 13.2691-2.8 2.803-6.402 4.234-10.73 4.234zm-53.9664-59.8454c2.4843 22.0063 14.3325 36.3699 23.8588 44.5598 11.1411 9.5726 21.9856 13.4606 23.6586 13.8356 1.595.355 5.226.72 6.344.73h.096c4.127 0 7.567-1.354 10.223-4.023 3.736-3.754 5.036-9.2176 5.017-12.7509-.01-2.2659-.726-4.6663-1.386-6.1545-17.332-38.9909-63.2632-36.5522-67.8305-36.197z" fill="url(#D)"/><path d="m86.0705 27.6995s55.0555 11.7617 60.9795 62.4086c.192 1.6514.22 4.5703-.582 7.1914-1.921 6.2985-9.555 17.0615-22.397 12.8275-1.271-.423-5.026-2.084-6.593-3.005-4.281-2.497-40.6281-32.4528-31.4075-79.4321z" fill="#1c3232"/><path d="m86.0703 27.6997 53.5267 79.7773s-37.856-31.0026-53.5267-79.7773z" fill="#1c3232"/><path d="m139.607 107.679s-.095-.02-.124-.048c-.382-.308-38.077-31.5984-53.5938-79.8739-.0287-.096.0095-.2016.1051-.2496.086-.048.2006-.0192.258.0672l53.5267 79.7773c.058.086.039.192-.028.259-.039.039-.086.058-.134.058zm-52.8865-78.6545c14.1895 42.6779 45.5485 71.7605 51.8835 77.3295z" fill="url(#E)"/><path d="m138.728 108.36s-.038 0-.067-.009c-23.61-7.854-36.71-29.3612-43.5321-46.0291-7.3955-18.0409-9.2301-34.44-9.2492-34.6032-.0095-.1152.0669-.2112.1816-.2304h.0191c.1051 0 .1911.0768.2006.1824.0191.1632 1.8537 16.5143 9.2301 34.4976 6.7939 16.5814 19.8269 37.9827 43.2839 45.7887.105.038.163.154.124.259-.028.087-.105.135-.191.135z" fill="url(#F)"/><path d="m137.553 109.224s-.019 0-.029 0c-12.402-2.006-22.827-7.546-31.006-16.4658-6.5355-7.1338-11.6474-16.4278-15.2019-27.623-6.0387-19.049-5.4463-37.2627-5.4368-37.4451 0-.1056.0956-.1921.2007-.1921.1147 0 .2007.0961.1911.2113 0 .1824-.602 18.3385 5.4272 37.3203 5.5515 17.4936 18.0107 39.2884 45.8827 43.8014.106.019.182.125.163.23-.019.096-.105.173-.201.173z" fill="url(#G)"/><path d="m140.782 106.834h-.009c-.115 0-.201-.106-.192-.212 1.424-24.3005-13.491-44.4153-26.257-57.0026-13.845-13.6531-28.1964-21.651-28.3398-21.7278-.0955-.0576-.1337-.1824-.0764-.2784.0478-.0961.172-.1345.2771-.0769.1433.0769 14.5521 8.1036 28.4261 21.795 12.823 12.6546 27.805 32.8654 26.381 57.3197 0 .106-.095.192-.2.192z" fill="url(#H)"/><path d="m139.607 107.679c-.096 0-.182-.068-.201-.164-7.95-38.1265-53.0111-79.2586-53.4697-79.6618-.086-.0768-.086-.2017-.0192-.2881.0765-.0768.2007-.0864.2867-.0192.4491.4129 45.6152 41.6313 53.5942 79.8921.028.106-.048.212-.153.241-.01 0-.029 0-.038 0z" fill="url(#I)"/><path d="m142.063 105.288h-.019c-.115-.01-.192-.115-.182-.221 3.048-29.3897-12.297-48.8036-25.693-59.9123-14.543-12.0497-30.0031-17.2152-30.156-17.2632-.1051-.0384-.1624-.1536-.1242-.2592.0383-.1056.1529-.1728.258-.1248.1529.048 15.6802 5.2327 30.2802 17.3304 8.58 7.1049 15.163 15.1797 19.578 23.9937 5.513 11.0223 7.625 23.2256 6.277 36.2834-.009.106-.095.182-.2.182z" fill="url(#J)"/><path d="m129.747 111.51c-1.873 0-3.813-.327-5.8-.989-1.252-.413-5.016-2.074-6.669-3.034-2.743-1.604-12.795-10.0818-20.9068-23.178-7.558-12.2033-15.5555-31.9436-10.692-56.6958l.0764-.4032.4013.0864c.5542.1152 55.4091 12.4049 61.2951 62.7638.22 1.8819.182 4.8103-.592 7.3642-1.195 3.9176-4.51 9.4866-9.947 12.3186-2.255 1.181-4.653 1.767-7.166 1.767zm-43.3512-83.3207c-4.6342 24.2913 3.2296 43.6764 10.6634 55.6877 8.6948 14.0467 18.9668 21.929 20.6288 22.899 1.587.931 5.332 2.573 6.517 2.967 4.453 1.469 8.599 1.219 12.345-.73 5.207-2.707 8.389-8.065 9.545-11.8286.736-2.4292.774-5.2231.564-7.0282-5.551-47.4977-55.2564-60.7571-60.2536-61.9669z" fill="url(#K)"/><path d="m121.596 5.36719s53.049 33.14381 40.781 88.14011c-.401 1.7955-1.433 4.8391-3.22 7.2687-4.29 5.828-16.167 14.142-27.996 4.858-1.176-.922-4.482-4.081-5.772-5.627-3.544-4.2242-30.4895-49.216-3.793-94.63981z" fill="#1c3232"/><path d="m121.596 5.36719 26.706 103.39681s-28.139-46.653-26.706-103.39681z" fill="#1c3232"/><path d="m148.302 108.984c-.076 0-.153-.038-.191-.105-.277-.471-28.149-47.3635-26.735-103.5216 0-.11522.086-.20163.201-.22083.095-.03841.21.0576.239.16322l26.706 103.39621c.029.106-.029.221-.134.26-.028.009-.057.019-.086.019zm-26.515-101.98478c-.764 49.82128 21.298 91.99988 25.875 100.20878z" fill="url(#L)"/><path d="m147.136 109.359c-.047 0-.095-.02-.133-.048-21.728-17.1387-27.538-44.512-28.579-64.454-1.128-21.5934 2.924-39.3654 2.962-39.53822.019-.12482.143-.21123.267-.16322.124.0288.191.14402.163.26883-.039.17283-4.08 17.89691-2.953 39.43261 1.042 19.8459 6.813 47.0849 28.407 64.108.096.077.115.221.038.317-.047.057-.114.086-.172.086z" fill="url(#M)"/><path d="m145.599 109.82s-.077-.01-.105-.029c-12.183-6.798-21.031-16.5239-26.296-28.9192-4.213-9.9085-6.153-21.5261-5.771-34.5263.64-22.1311 7.893-40.87284 7.969-41.05527.038-.11521.182-.17282.287-.12481.114.0384.172.17282.124.28804-.067.19202-7.3 18.86654-7.94 40.92084-.593 20.326 4.452 47.7569 31.837 63.0327.105.058.143.192.086.307-.038.077-.115.115-.191.115z" fill="url(#N)"/><path d="m149.831 108.543s-.057 0-.086-.019c-.114-.048-.172-.183-.124-.298 10.329-24.7715 2.112-51.3768-6.593-69.3313-9.44-19.4714-21.489-33.24933-21.604-33.38375-.086-.09601-.076-.24003.019-.31684.086-.07681.23-.08641.316.0192.124.13442 12.201 13.96029 21.67 33.48939 8.753 18.0409 16.999 44.771 6.603 69.7053-.038.087-.115.144-.21.144z" fill="url(#O)"/><path d="m148.303 108.984s-.02 0-.029 0c-.124-.019-.21-.125-.191-.249 5.599-42.7167-26.353-102.65774-26.678-103.26262-.057-.10561-.019-.24963.096-.30724.105-.05761.239-.0192.306.09601.324.60489 32.343 60.67075 26.725 103.53085-.019.115-.115.192-.22.192z" fill="url(#P)"/><path d="m151.733 107.429s-.067 0-.096-.019c-.115-.058-.162-.192-.105-.298 13.864-29.4473 4.969-55.4861-4.95-72.1444-10.749-18.0696-24.976-29.31279-25.12-29.4184-.095-.07681-.114-.22083-.038-.31685.077-.10561.22-.11521.315-.0384.144.11521 14.428 11.39675 25.226 29.53365 6.344 10.6575 10.262 21.5646 11.647 32.4141 1.73 13.5666-.516 27.0853-6.679 40.1623-.038.077-.114.125-.2.125z" fill="url(#Q)"/><path d="m142.369 110.252c-4.023 0-7.873-1.431-11.485-4.263-1.261-.989-4.558-4.158-5.848-5.694-2.274-2.7074-9.65-15.3427-13.329-32.0586-3.43-15.5734-4.567-39.1734 9.498-63.0903l.239-.39366.391.24003c.535.33605 53.184 33.94063 40.982 88.62023-.459 2.0547-1.567 5.0887-3.297 7.4413-2.656 3.6-8.102 8.132-14.762 9.044-.803.106-1.596.163-2.379.163zm-20.629-104.25139c-13.673 23.53289-12.536 46.71039-9.163 62.03409 3.946 17.9257 11.762 30.033 13.147 31.6748 1.319 1.5745 4.615 4.7045 5.705 5.5595 4.118 3.235 8.57 4.541 13.195 3.917 6.373-.874 11.609-5.223 14.161-8.689 1.643-2.2373 2.704-5.1369 3.143-7.1052 11.523-51.5591-35.401-84.22275-40.188-87.39119z" fill="url(#R)"/><path d="m157.284.652668s-42.625 48.131432-15.039 98.413532c.898 1.6318 2.78 4.3208 5.217 6.1738 5.857 4.445 19.845 9.092 28.818-3.495.888-1.248 3.229-5.3192 4.07-7.2202 2.274-5.1847 15.966-57.2335-23.056-93.881734z" fill="#1c3232"/><path d="m157.284.652832 3.077 109.224168s14.38-54.0262-3.077-109.224168z" fill="#1c3232"/><path d="m160.361 110.108s-.019 0-.029 0c-.115-.01-.201-.106-.201-.221l-3.076-109.224588c0-.115216.076-.211229.191-.230432.124-.019202.22.048007.258.153622 17.275 54.621898 3.22 108.811398 3.076 109.349398-.028.106-.114.173-.219.173zm-2.8-107.79416 2.981 105.84516c2.169-9.4095 11.858-57.2529-2.981-105.84516z" fill="url(#S)"/><path d="m161.603 110.127s-.096-.019-.134-.038c-.105-.077-.124-.221-.058-.327 16.349-23.0621 14.304-51.4628 9.708-71.2319-4.978-21.4302-13.95-37.598794-14.045-37.762017-.058-.105614-.02-.249634.085-.307242.115-.057608.249-.019203.316.086412.086.163222 9.087 16.389447 14.093 37.886847 4.615 19.8555 6.67 48.3906-9.784 71.6069-.048.057-.115.096-.191.096z" fill="url(#T)"/><path d="m163.237 110.127c-.057 0-.115-.019-.162-.067-.096-.087-.096-.24 0-.327 22.521-23.0527 19.712-51.4342 13.377-71.1841-6.87-21.4205-19.225-37.589142-19.349-37.752364-.077-.096013-.057-.240033.038-.326445.105-.067209.248-.057608.325.038405.124.163223 12.536 16.389504 19.425 37.896404 4.052 12.6353 5.437 24.5986 4.109 35.5537-1.663 13.7011-7.577 25.8468-17.591 36.0914-.048.048-.105.067-.162.067z" fill="url(#U)"/><path d="m158.727 110.127c-.067 0-.134-.029-.172-.087-17.237-21.3721-16.721-50.0032-13.243-70.2716 3.755-21.9294 11.686-39.038951 11.772-39.211775.057-.105614.191-.163222.305-.105614.115.057608.163.192026.106.307242-.077.163223-7.988 17.234347-11.734 39.106147-3.449 20.1628-3.975 48.6595 13.157 69.8876.077.096.067.24-.028.327-.039.038-.096.057-.144.057z" fill="url(#V)"/><path d="m160.361 110.108c-.086 0-.172-.058-.21-.144-17.639-40.3546-3.239-108.67759-3.087-109.359283.029-.124817.153-.192027.278-.182425.124.028804.2.153621.172.278438-.153.68169-14.515 68.86067 3.057 109.08027.048.116 0 .25-.115.298-.028.01-.057.019-.095.019z" fill="url(#W)"/><path d="m156.558 109.599c-.067 0-.124-.029-.172-.077-9.736-11.0127-15.765-23.5904-17.906-37.4067-1.71-11.0415-.955-22.8896 2.255-35.2081 5.447-20.9596 16.253-36.235344 16.358-36.388965.077-.096013.22-.115216.325-.057608.105.076811.124.22083.058.326445-.106.153621-10.874 15.362128-16.301 36.245028-5.007 19.2506-6.364 47.4017 15.555 72.1729.086.096.077.24-.019.327-.038.038-.095.057-.153.057z" fill="url(#X)"/><path d="m161.221 110.358c-5.685 0-10.96-2.401-14.036-4.743-2.37-1.796-4.31-4.446-5.341-6.3182-27.423-49.994 14.666-98.461485 15.096-98.941551l.306-.355249.344.326445c20.553 19.298655 26.114 42.764255 27.165 59.038555 1.118 17.4744-2.542 32.03-3.994 35.3616-.822 1.8819-3.153 5.9624-4.118 7.2974-3.287 4.618-7.501 7.354-12.517 8.122-.975.144-1.949.212-2.905.212zm-3.908-109.03302c-3.784 4.51262-40.542 50.37812-14.676 97.53022.984 1.7958 2.837 4.3208 5.092 6.0298 3.459 2.631 9.794 5.357 16.263 4.349 4.758-.729 8.762-3.331 11.906-7.738.831-1.162 3.172-5.214 4.022-7.1342.889-2.0163 5.122-16.1975 3.927-34.9296-1.022-16.0246-6.478-39.0678-26.524-58.09762z" fill="url(#Y)"/><path d="m129.26 109.042c3.038-13.3647-9.775-20.4313-18.814-22.4188-9.115-1.9971-15.6893-.8737-23.7633 4.2246-6.1438 3.8789-12.689 8.814-19.7979 6.5097 1.4905 7.7385 13.5872 12.1265 19.1291 14.2385 7.7777 2.957 15.9661 5.502 24.1841 5.579 6.669.057 17.17-1.057 19.052-8.133z" fill="#1c3232"/><path d="m129.633 106.68c-7.701-12.0591-23.314-11.1758-34.3408-6.7496-9.9276 3.9746-17.5716 1.5266-27.2317-1.5746l-.7548-.24.1528-.4897.7644.2497c9.5646 3.0632 17.1321 5.5012 26.8878 1.5938 11.2083-4.4934 27.0883-5.3768 34.9613 6.9514l-.43.278z" fill="url(#Z)"/><path d="m92.4727 107.391c-3.1053 0-6.0292-.404-8.523-1.21-6.6885-2.161-14.9918-6.1931-16.769-8.1518l.3822-.3456c1.7294 1.9011 9.9276 5.8664 16.5492 8.0074 5.131 1.661 12.1444 1.565 18.7369-.24 1.73-.47 3.297-1.008 4.807-1.527 2.971-1.017 5.78-1.987 9.306-2.275 4.931-.413 8.724 1.959 12.355 4.263l.659.422-.277.432-.659-.422c-3.431-2.17-6.679-4.234-10.922-4.234-.363 0-.735.019-1.118.048-3.459.288-6.239 1.248-9.182 2.256-1.519.519-3.086 1.056-4.835 1.536-3.4969.96-7.1087 1.441-10.5007 1.441z" fill="url(#aa)"/><path d="m128.667 106.152c-1.433-5.588-4.453-9.5338-8.972-11.7133-12.058-5.8184-31.0729 2.6692-31.264 2.7556-8.9435 3.2547-21.4796.4416-21.6039.4128l.1147-.4992c.1242.0288 12.517 2.8035 21.2981-.3841.172-.0864 19.4061-8.67 31.6751-2.746 4.663 2.2467 7.777 6.3082 9.249 12.0492z" fill="url(#ab)"/><path d="m100.098 112.21c-5.026 0-9.6411-1.497-14.4855-3.062l-.516-.164c-6.4018-2.064-13.3005-5.837-15.4313-7.623-.6975-.586-1.2326-1.287-1.7581-1.9587-.2675-.3361-.5255-.6817-.8026-1.0081l.3822-.3361c.2866.3361.5542.6817.8313 1.0273.5064.6529 1.0319 1.3246 1.6817 1.8816 2.0447 1.719 9.0103 5.511 15.2593 7.537l.5159.164c5.5133 1.785 10.7207 3.485 16.5401 2.938 3-.269 6-1.076 8.895-1.863 2.638-.711 5.361-1.44 8.103-1.786 2.312-.288 4.644-.576 6.937-.864.306-.038.64-.058.994-.067.754-.039 1.528-.077 2.092-.336l.21.47c-.649.298-1.481.346-2.283.384-.335.019-.66.029-.956.067-2.293.288-4.624.577-6.937.865-2.704.336-5.417 1.065-8.026 1.766-2.924.787-5.934 1.594-8.982 1.872-.764.068-1.509.106-2.255.106z" fill="url(#ac)"/><path d="m110.694 117.616c-.172 0-.334 0-.506 0-8.657-.086-17.1607-2.88-24.3365-5.607l-.4395-.173c-5.6662-2.151-17.457-6.615-18.9572-14.4018l-.1433-.7393.7071.2304c6.249 2.0259 12.0584-1.7282 17.6767-5.3479.5829-.3745 1.1657-.7489 1.7486-1.1138 8.0835-5.1079 14.8391-6.3176 24.0881-4.2822 5.867 1.2866 13.473 4.7815 17.237 10.7343 2.293 3.6293 2.934 7.7383 1.911 12.2133v.019c-1.949 7.306-12.507 8.468-18.986 8.468zm-43.2072-19.6249c1.997 6.8649 12.8992 10.9939 18.2309 13.0189l.4395.164c7.0994 2.698 15.5178 5.472 24.0408 5.559h.496c6.221 0 16.33-1.066 18.126-7.796.965-4.235.354-8.114-1.806-11.5316-3.611-5.7224-10.978-9.0925-16.673-10.3406-9.116-2.0067-15.4601-.8738-23.4385 4.1573-.5733.3649-1.1561.7393-1.7485 1.1138-5.5801 3.5909-11.3418 7.3066-17.6768 5.6552z" fill="url(#ad)"/><path d="m152.353 112.374c-.095-13.8359-14.055-16.6587-23.218-15.7466-9.24.9121-15.326 4.0516-21.948 11.4736-5.045 5.655-10.2334 12.443-17.6099 12.443 3.1914 7 15.8519 7.461 21.6609 7.758 8.17.423 16.645.327 24.585-2.16 6.44-2.016 16.32-6.375 16.53-13.778z" fill="#1c3232"/><path d="m90.1602 121.14v-.509h.8026c9.9182-.029 17.7532-.048 26.2762-6.855 9.784-7.835 24.9-13.615 35.287-4.187l-.344.384c-10.148-9.217-25.006-3.494-34.628 4.206-8.657 6.922-16.568 6.942-26.5912 6.961z" fill="url(#ae)"/><path d="m108.009 123.732c-6.928 0-15.8328-1.296-17.9826-2.631l.2675-.432c2.0925 1.287 10.8541 2.554 17.7151 2.554h.038c5.332 0 12.058-2.275 18.011-6.068 1.567-.998 2.953-1.997 4.29-2.976 2.638-1.911 5.122-3.716 8.447-5.099 4.692-1.949 8.848-.825 12.871.25l.745.202-.134.499-.745-.202c-4.118-1.104-7.998-2.16-12.536-.278-3.278 1.363-5.743 3.149-8.351 5.041-1.348.979-2.743 1.987-4.319 2.995-6.029 3.85-12.861 6.145-18.288 6.145h-.039z" fill="url(#af)"/><path d="m89.5966 120.804-.0478-.509c.1242-.01 12.7082-1.2 20.4482-7.009.152-.144 17.265-14.8629 30.566-12.415 4.701.874 8.408 3.783 11.017 8.642l-.449.24c-2.532-4.724-6.115-7.537-10.654-8.382-13.014-2.4391-29.974 12.155-30.146 12.309-7.873 5.904-20.5911 7.114-20.7248 7.124z" fill="url(#ag)"/><path d="m110.838 126.075h-1.061c-6.65 0-14.1508-1.489-16.616-2.545-.8122-.345-1.4906-.854-2.1499-1.344-.3344-.25-.6593-.49-1.0033-.71l.2771-.433c.3535.231.688.481 1.0224.73.6402.471 1.2899.96 2.0448 1.287 2.36 1.017 9.9279 2.506 16.4059 2.506h1.051c5.523 0 10.759-.068 16.091-2.324 2.828-1.2 5.532-2.909 8.15-4.56 2.379-1.508 4.844-3.063 7.415-4.244l6.488-2.996c.286-.134.602-.249.936-.374.717-.269 1.462-.548 1.949-.98l.335.384c-.555.5-1.348.788-2.112 1.076-.325.115-.631.24-.908.365l-6.488 2.995c-2.541 1.172-4.987 2.717-7.357 4.215-2.628 1.671-5.351 3.389-8.227 4.599-5.417 2.295-10.711 2.362-16.282 2.362z" fill="url(#ah)"/><path d="m118.061 128.955c-2.36 0-4.653-.086-6.841-.201l-.488-.029c-5.952-.308-18.3357-.941-21.5557-7.998l-.2867-.634h.688c6.4783 0 11.2364-5.425 15.8424-10.677.478-.547.955-1.094 1.433-1.622 6.631-7.441 12.871-10.696 22.235-11.6178 5.904-.5856 13.998.3937 18.995 4.9158 3.096 2.794 4.682 6.587 4.71 11.272v.019c-.219 7.816-10.644 12.252-16.835 14.191-5.944 1.863-12.116 2.381-17.897 2.381zm-27.7668-7.979c3.4398 5.992 14.8958 6.587 20.4858 6.865l.487.029c7.472.394 16.196.451 24.433-2.131 5.962-1.873 16.004-6.097 16.214-13.365-.028-4.417-1.519-7.989-4.414-10.61-4.778-4.3204-12.603-5.2613-18.317-4.6948-9.24.9121-15.106 3.9848-21.661 11.3298-.478.528-.946 1.075-1.433 1.622-4.568 5.204-9.2878 10.581-15.7948 10.955z" fill="url(#ai)"/><path d="m193.928 109.042c-3.039-13.3647 9.774-20.4313 18.813-22.4188 9.116-1.9971 15.69-.8737 23.764 4.2246 6.143 3.8789 12.689 8.814 19.798 6.5097-1.491 7.7385-13.588 12.1265-19.13 14.2385-7.777 2.957-15.966 5.502-24.183 5.579-6.67.057-17.171-1.057-19.053-8.133z" fill="#1c3232"/><path d="m193.555 106.68-.43-.278c7.873-12.3187 23.754-11.4354 34.962-6.9516 9.746 3.9076 17.313 1.4786 26.887-1.5938l.755-.2496.153.4896-.764.2401c-9.67 3.1013-17.304 5.5493-27.232 1.5746-11.017-4.4166-26.639-5.3095-34.341 6.7497z" fill="url(#aj)"/><path d="m230.714 107.391c-3.401 0-7.013-.481-10.501-1.441-1.748-.48-3.315-1.017-4.834-1.536-2.943-1.008-5.724-1.968-9.192-2.256-4.797-.423-8.313 1.824-12.04 4.186l-.659.422-.277-.432.659-.422c3.631-2.295 7.405-4.666 12.355-4.263 3.526.298 6.335 1.258 9.316 2.275 1.51.519 3.077 1.057 4.806 1.527 6.593 1.805 13.597 1.901 18.737.24 6.622-2.141 14.82-6.1063 16.55-8.0074l.382.3456c-1.768 1.9491-10.081 5.9818-16.769 8.1518-2.494.806-5.418 1.21-8.523 1.21z" fill="url(#ak)"/><path d="m194.519 106.152-.497-.125c1.472-5.751 4.577-9.8027 9.25-12.0495 12.278-5.9144 31.503 2.6692 31.694 2.7556 8.762 3.1781 21.154.4129 21.279.3745l.114.4992c-.124.0289-12.67 2.8322-21.584-.4032-.211-.096-19.235-8.5836-31.284-2.7652-4.519 2.1795-7.538 6.1256-8.972 11.7136z" fill="url(#al)"/><path d="m223.09 112.211c-.746 0-1.491-.029-2.255-.106-3.048-.278-6.068-1.085-8.982-1.872-2.618-.701-5.322-1.431-8.026-1.767-2.313-.288-4.644-.576-6.937-.864-.287-.038-.612-.057-.946-.067-.803-.038-1.634-.077-2.284-.384l.21-.471c.564.26 1.338.298 2.093.336.344.02.688.029.994.068 2.293.288 4.624.576 6.937.864 2.742.345 5.465 1.075 8.102 1.786 2.895.777 5.896 1.584 8.896 1.862 5.819.557 11.026-1.152 16.54-2.938l.516-.163c6.258-2.026 13.214-5.809 15.259-7.537.659-.557 1.185-1.2289 1.691-1.8914.268-.3457.535-.6913.822-1.0178l.382.3361c-.277.3168-.535.6529-.803.9985-.525.6816-1.06 1.3826-1.767 1.9686-2.121 1.786-9.02 5.559-15.432 7.623l-.516.163c-4.844 1.575-9.459 3.063-14.485 3.063z" fill="url(#am)"/><path d="m212.493 117.616c-6.479 0-17.037-1.152-18.986-8.468v-.019c-1.022-4.484-.382-8.584 1.911-12.2133 3.755-5.9528 11.37-9.4477 17.237-10.7343 9.259-2.0354 16.005-.8257 24.088 4.2822.583.3649 1.166.7393 1.749 1.1234 5.618 3.6197 11.428 7.3546 17.677 5.3383l.707-.2304-.144.7393c-1.5 7.7768-13.291 12.2508-18.966 14.4018l-.44.173c-7.176 2.727-15.68 5.53-24.336 5.607-.163 0-.335 0-.507 0zm-18.126-8.689c1.796 6.73 11.905 7.796 18.116 7.796h.497c8.523-.077 16.931-2.851 24.031-5.559l.449-.163c5.332-2.026 16.234-6.155 18.231-13.0195-6.354 1.6418-12.106-2.0643-17.677-5.6552-.583-.3745-1.166-.7489-1.748-1.1234-7.969-5.0407-14.314-6.164-23.439-4.1573-5.685 1.2481-13.062 4.6278-16.673 10.3406-2.16 3.4178-2.762 7.2968-1.806 11.5308z" fill="url(#an)"/><path d="m170.833 112.374c.096-13.8354 14.055-16.6582 23.219-15.7461 9.239.9121 15.326 4.0521 21.947 11.4731 5.046 5.656 10.234 12.444 17.61 12.444-3.191 6.999-15.851 7.46-21.661 7.758-8.169.422-16.645.326-24.585-2.161-6.44-2.016-16.32-6.375-16.53-13.778z" fill="#1c3232"/><path d="m233.027 121.14h-.803c-10.023-.029-17.935-.048-26.592-6.961-9.631-7.7-24.479-13.432-34.627-4.205l-.344-.384c10.386-9.438 25.502-3.639 35.287 4.186 8.513 6.807 16.348 6.826 26.276 6.855h.803v.519z" fill="url(#ao)"/><path d="m215.178 123.732h-.038c-5.418 0-12.259-2.304-18.288-6.144-1.577-1.009-2.972-2.017-4.319-2.996-2.609-1.892-5.074-3.677-8.351-5.041-4.529-1.882-8.428-.835-12.536.279l-.746.201-.133-.499.745-.202c4.023-1.085 8.179-2.198 12.87-.249 3.326 1.382 5.819 3.187 8.447 5.098 1.347.97 2.733 1.978 4.29 2.976 5.953 3.803 12.68 6.069 18.011 6.069h.039c6.86 0 15.622-1.268 17.715-2.554l.267.432c-2.15 1.325-11.055 2.63-17.982 2.63z" fill="url(#ap)"/><path d="m233.591 120.804c-.125-.01-12.852-1.219-20.716-7.115-.172-.144-14.638-12.587-27.117-12.587-1.032 0-2.054.086-3.048.269-4.548.835-8.131 3.658-10.653 8.382l-.45-.24c2.609-4.868 6.307-7.777 11.017-8.641 13.253-2.4296 30.395 12.27 30.567 12.424 7.73 5.799 20.314 6.989 20.438 6.999l-.048.509z" fill="url(#aq)"/><path d="m212.35 126.075c-5.58 0-10.864-.067-16.282-2.362-2.866-1.219-5.589-2.938-8.226-4.599-2.37-1.498-4.816-3.044-7.348-4.215l-6.488-2.996c-.277-.124-.583-.24-.908-.365-.755-.288-1.548-.576-2.102-1.075l.335-.384c.487.432 1.223.711 1.939.979.335.125.659.25.946.375l6.488 2.995c2.57 1.181 5.035 2.737 7.415 4.244 2.618 1.652 5.322 3.361 8.15 4.561 5.332 2.256 10.568 2.323 16.091 2.323h1.051c6.488 0 14.046-1.488 16.406-2.506.754-.326 1.414-.816 2.044-1.286.335-.25.669-.499 1.023-.73l.277.432c-.344.221-.669.471-1.003.711-.66.489-1.338.998-2.15 1.344-2.456 1.066-9.966 2.544-16.616 2.544h-1.061z" fill="url(#ar)"/><path d="m205.136 128.955c-5.781 0-11.954-.518-17.897-2.381-6.191-1.939-16.616-6.365-16.836-14.19v-.02c.029-4.685 1.615-8.478 4.711-11.272 4.988-4.5122 13.081-5.5011 18.995-4.9155 9.364.9218 15.604 4.1765 22.235 11.6175.477.538.955 1.075 1.433 1.623 4.605 5.252 9.364 10.676 15.842 10.676h.688l-.287.634c-3.22 7.047-15.603 7.691-21.556 7.998l-.487.029c-2.188.115-4.481.201-6.841.201zm-33.854-16.581c.211 7.268 10.253 11.493 16.215 13.365 8.227 2.583 16.96 2.525 24.432 2.131l.488-.028c5.599-.288 17.046-.874 20.486-6.865-6.507-.375-11.228-5.751-15.795-10.955-.478-.548-.955-1.085-1.433-1.623-6.555-7.345-12.431-10.4174-21.661-11.3295-5.743-.5761-13.54.3744-18.317 4.6955-2.895 2.621-4.386 6.192-4.415 10.609z" fill="url(#as)"/><path d="m160.82 157.442s31.13-25.501 10.979-52.135c-.66-.864-2.026-2.295-3.813-3.274-4.28-2.3618-14.495-4.8197-21.04 1.853-.65.663-2.36 2.823-2.971 3.822-1.663 2.746-11.658 30.321 16.835 49.734z" fill="#1c3232"/><path d="m160.82 157.577c-.058 0-.105-.029-.134-.087-6.593-15.132-6.861-30.09-5.915-39.97 1.023-10.706 3.641-17.9258 3.669-18.0026.02-.0576.077-.096.134-.096h.019c.067.0096.115.0672.115.1344l2.245 57.8572c0 .068-.038.125-.105.144-.009 0-.019 0-.028 0zm-2.36-57.224c-.679 2.083-2.571 8.487-3.402 17.215-.927 9.688-.688 24.282 5.59 39.116l-2.188-56.322z" fill="url(#at)"/><path d="m160.82 157.577s-.086-.019-.114-.058c-.067-.086-6.641-8.689-10.291-20.086-3.373-10.532-4.873-25.664 7.147-37.973.057-.0576.143-.0672.201 0 .057.0576.057.144 0 .2016-11.925 12.2034-10.434 27.2294-7.081 37.6854 3.641 11.349 10.186 19.913 10.253 19.99.048.067.038.153-.029.201-.028.02-.057.029-.086.029z" fill="url(#au)"/><path d="m160.82 157.577s-.067-.01-.095-.039c-.192-.173-18.575-17.695-17.515-36.158.488-8.43 4.921-15.814 13.167-21.9394.057-.048.143-.0384.201.0289.047.0672.038.1536-.029.2016-8.179 6.0779-12.574 13.3839-13.052 21.7179-1.061 18.329 17.237 35.756 17.419 35.928.057.058.057.144 0 .202-.029.029-.067.048-.106.048z" fill="url(#av)"/><path d="m160.82 157.576s-.057 0-.076-.019c-.067-.038-.086-.134-.038-.201.057-.087 5.828-9.122 8.561-20.701 2.523-10.667 2.895-25.741-9.603-36.9842-.057-.0576-.067-.144-.009-.2016.047-.0576.143-.0672.2-.0096 12.603 11.3294 12.221 26.5184 9.68 37.2724-2.743 11.627-8.543 20.7-8.6 20.787-.029.038-.076.067-.115.067z" fill="url(#aw)"/><path d="m160.82 157.576s-.029 0-.038 0c-.077-.019-.115-.105-.096-.172.105-.365 10.596-36.457-2.236-57.7427-.038-.0672-.019-.1536.048-.192s.153-.0192.191.048c6.736 11.1857 6.994 26.3557 6.02 37.1087-1.051 11.647-3.727 20.768-3.755 20.864-.02.067-.077.106-.134.106z" fill="url(#ax)"/><path d="m160.82 157.577s-.076-.01-.105-.039c-.057-.057-.057-.144 0-.201.153-.154 15.068-15.507 14.132-33.135-.478-9.092-5.055-17.244-13.587-24.2429-.058-.048-.067-.1344-.02-.2016.048-.0576.144-.0673.201-.0192 8.6 7.0477 13.205 15.2757 13.692 24.4547.937 17.753-14.065 33.201-14.217 33.355-.029.029-.067.038-.106.038z" fill="url(#ay)"/><path d="m160.83 157.797-.172-.115c-15.021-10.235-19.091-22.688-19.856-31.329-.821-9.284 1.864-17.023 2.934-18.79.611-1.008 2.312-3.168 3.01-3.879 6.354-6.4709 16.482-4.5986 21.384-1.901 1.72.951 3.143 2.353 3.898 3.351 10.501 13.884 6.927 27.441 2.083 36.37-5.226 9.64-13.033 16.101-13.119 16.159zm-2.829-57.9339c-3.812 0-7.787 1.1039-10.854 4.2249-.659.672-2.351 2.813-2.933 3.773-.641 1.066-3.727 8.545-2.848 18.444.755 8.488 4.739 20.701 19.435 30.782 1.137-.979 8.064-7.095 12.823-15.871 4.758-8.776 8.265-22.102-2.045-35.736-.717-.951-2.073-2.285-3.717-3.197-2.379-1.316-6.029-2.4295-9.851-2.4295z" fill="url(#az)"/><path d="m160.505 228.953c-38.402 0-69.6466-9.486-69.6466-21.152 0-11.665 31.2446-21.152 69.6466-21.152 38.401 0 69.646 9.487 69.646 21.152 0 11.666-31.245 21.152-69.646 21.152zm0-41.785c-38.115 0-69.1306 9.256-69.1306 20.633 0 11.378 31.0056 20.633 69.1306 20.633 38.124 0 69.13-9.255 69.13-20.633 0-11.377-31.006-20.633-69.13-20.633z" fill="url(#aA)"/><path d="m160.504 243.634c-31.445 0-61.0083-3.687-83.2523-10.389-22.4064-6.75-34.7419-15.785-34.7419-25.453 0-9.669 12.3355-18.703 34.7419-25.453 22.244-6.702 51.8073-10.389 83.2523-10.389 31.446 0 61.009 3.687 83.253 10.389 22.406 6.75 34.742 15.784 34.742 25.453 0 9.668-12.336 18.703-34.742 25.453-22.244 6.702-51.807 10.389-83.253 10.389zm0-70.8c-64.5723 0-117.1152 15.678-117.1152 34.958 0 19.279 52.5334 34.958 117.1152 34.958 64.583 0 117.116-15.679 117.116-34.958 0-19.28-52.533-34.958-117.116-34.958z" fill="url(#aB)"/><path d="m160.505 232.333c-44.67 0-81.0167-11.003-81.0167-24.532 0-13.528 36.3467-24.531 81.0167-24.531s81.017 11.003 81.017 24.531c0 13.529-36.347 24.532-81.017 24.532zm0-48.679c-44.459 0-80.625 10.83-80.625 24.147s36.166 24.138 80.625 24.138 80.625-10.83 80.625-24.138c0-13.307-36.166-24.147-80.625-24.147z" fill="url(#aC)"/><path d="m160.504 247.368c-35.066 0-68.0407-4.118-92.8454-11.588-24.9863-7.528-38.7455-17.609-38.7455-28.391 0-10.783 13.7592-20.864 38.7455-28.392 24.8047-7.469 57.7794-11.588 92.8454-11.588 35.067 0 68.042 4.119 92.846 11.588 24.987 7.528 38.746 17.609 38.746 28.392 0 10.782-13.759 20.863-38.746 28.391-24.804 7.47-57.779 11.588-92.846 11.588zm0-78.961c-72.0251 0-130.6163 17.494-130.6163 38.991 0 21.498 58.5912 38.991 130.6163 38.991 72.026 0 130.617-17.493 130.617-38.991 0-21.497-58.591-38.991-130.617-38.991z" fill="url(#aD)"/><path d="m160.505 256c-42.807 0-83.0522-5.022-113.332-14.143-30.4231-9.159-47.173-21.401-47.173-34.459s16.7499-25.309 47.173-34.469c30.2798-9.121 70.525-14.142 113.332-14.142 42.806 0 83.052 5.021 113.332 14.142 30.423 9.16 47.173 21.402 47.173 34.469s-16.75 25.309-47.173 34.469c-30.28 9.121-70.526 14.143-113.332 14.143zm0-96.436c-88.0782 0-159.731046 21.459-159.731046 47.834s71.652846 47.834 159.731046 47.834c88.078 0 159.731-21.459 159.731-47.834s-71.653-47.834-159.731-47.834z" fill="url(#aE)"/></g></svg>