<svg fill="none" height="160" viewBox="0 0 380 160" width="380" xmlns="http://www.w3.org/2000/svg" xmlns:xlink="http://www.w3.org/1999/xlink"><mask id="a" height="160" maskUnits="userSpaceOnUse" width="380" x="0" y="0"><rect fill="#fbe791" height="159" rx="7.5" stroke="#000" width="379" x=".5" y=".5"/></mask><mask id="b" height="394" maskUnits="userSpaceOnUse" width="684" x="-138" y="-141"><path d="m-137.25-140.3h682.05v392.797h-682.05z" fill="#fbe791" stroke="#000"/></mask><rect fill="#fff9e0" fill-opacity=".95" height="160" rx="14" width="380"/><g mask="url(#a)"><g mask="url(#b)" opacity=".5"><g opacity=".6" stroke="#000"><g stroke-linecap="round" stroke-linejoin="round"><path d="m223.501 106.239c-8.542-7.879 4.832-16.9073-4.001-25.0544" stroke-width="4"/><path d="m223.501 106.239c-8.543-7.8792-18.332 4.457-27.165-3.691" stroke-width="4"/><path d="m190.881 118.715c0-11.135 16.379-8.798 16.379-20.3293" stroke-width="4"/><path d="m190.881 118.715c0-11.135-16.379-8.798-16.379-20.3293" stroke-width="4"/><path d="m237.015 76.1536c-12.074 0-9.54-15.1067-22.029-15.1067" stroke-width="4"/><path d="m237.015 76.1538c-12.074 0-9.54 15.1067-22.029 15.1067" stroke-width="4"/><path d="m223.501 46.0552c-8.543 7.879-18.332-4.4567-27.165 3.6905" stroke-width="4"/><path d="m223.501 46.0552c-8.542 7.879 4.832 16.9073-4.001 25.0544" stroke-width="4"/><path d="m190.881 33.5918c0 11.1353-16.379 8.7984-16.379 20.3296" stroke-width="4"/><path d="m190.881 33.5918c0 11.1353 16.379 8.7984 16.379 20.3296" stroke-width="4"/><path d="m158.261 46.0552c8.542 7.879-4.832 16.9073 4.001 25.0544" stroke-width="4"/><path d="m158.261 46.0552c8.542 7.879 18.331-4.4567 27.165 3.6905" stroke-width="4"/><path d="m144.748 76.1538c12.073 0 9.54 15.1067 22.042 15.1067" stroke-width="4"/><path d="m144.748 76.1536c12.073 0 9.54-15.1067 22.042-15.1067" stroke-width="4"/><path d="m158.261 106.239c8.542-7.8787 18.331 4.457 27.165-3.69" stroke-width="4"/><path d="m158.261 106.24c8.542-7.8795-4.832-16.9078 4.001-25.0549" stroke-width="4"/><path d="m218.101 76.1535c0-13.8681-12.184-25.1183-27.234-25.1183s-27.234 11.2502-27.234 25.1183c0 13.868 12.184 25.1185 27.234 25.1185s27.234-11.2505 27.234-25.1185z" stroke-width="4"/><path d="m332.673 76.9584c.485-72.23914-62.61-131.1593-140.92-131.6062-78.311-.447-142.1943 57.74527-142.6789 129.9844-.4846 72.2394 62.6099 131.1594 140.9199 131.6064 78.311.447 142.195-57.746 142.679-129.9846z" stroke-width="4"/><path d="m351.227 77.073c.554-81.6888-70.793-148.3219-159.349-148.8327s-160.7887 65.30504-161.3426 146.9939c-.5538 81.6888 70.7926 148.3218 159.3486 148.8328 88.557.511 160.789-65.305 161.343-146.994z" stroke-width="3"/><path d="m212.744 76.1534c0-11.1353-9.789-20.1763-21.862-20.1763-12.074 0-21.862 9.0282-21.862 20.1763s9.788 20.1764 21.862 20.1764c12.073 0 21.862-9.0283 21.862-20.1764z" stroke-width="2"/><path d="m209.795 105.205s11.935 18.81 27.608 21.479c10.924 1.864 13.776 5.108 13.776 5.108" stroke-width="4"/><path d="m222.366 93.5977s20.395 11.0073 23.288 25.4763c2.022 10.075 5.539 12.706 5.539 12.706" stroke-width="4"/><path d="m215.111 105.154s8.308 12.132 18.138 14.443c6.854 1.609 8.764 3.729 8.764 3.729" stroke-width="2"/><path d="m222.325 98.5015s13.154 7.6615 15.66 16.7285c1.744 6.321 4.042 8.083 4.042 8.083" stroke-width="2"/><path d="m226.52 84.3521s22.859 5.5165 35.998-2.8222c9.152-5.8103 13.652-5.3761 13.652-5.3761" stroke-width="4"/><path d="m226.52 67.9555s22.859-5.5166 35.998 2.8221c9.152 5.8103 13.652 5.3761 13.652 5.3761" stroke-width="4"/><path d="m230.244 80.8532s15.175 3.1542 23.898-1.6217c6.078-3.333 9.055-3.0776 9.055-3.0776" stroke-width="2"/><path d="m230.244 71.4543s15.175-3.1542 23.898 1.6217c6.078 3.333 9.055 3.0776 9.055 3.0776" stroke-width="2"/><path d="m222.366 58.6975s20.395-11.0076 23.288-25.4758c2.022-10.0755 5.539-12.7061 5.539-12.7061" stroke-width="4"/><path d="m209.795 47.1025s11.935-18.81 27.608-21.4789c10.924-1.8644 13.776-5.108 13.776-5.108" stroke-width="4"/><path d="m222.325 53.7938s13.154-7.6619 15.66-16.7285c1.744-6.3211 4.042-8.0834 4.042-8.0834" stroke-width="2"/><path d="m215.111 47.1534s8.308-12.1313 18.138-14.4427c6.854-1.609 8.764-3.7288 8.764-3.7288" stroke-width="2"/><path d="m199.77 43.2712s5.981-21.083-3.06-33.2016c-6.3-8.44088-5.829-12.59108-5.829-12.59108" stroke-width="4"/><path d="m181.993 43.2712s-5.981-21.083 3.06-33.2016c6.3-8.44088 5.829-12.59108 5.829-12.59108" stroke-width="4"/><path d="m195.976 39.8362s3.42-13.9958-1.745-22.0408c-3.613-5.606-3.336-8.36425-3.336-8.36425" stroke-width="2"/><path d="m185.786 39.8362s-3.419-13.9958 1.759-22.0408c3.613-5.606 3.337-8.36425 3.337-8.36425" stroke-width="2"/><path d="m171.968 47.1025s-11.934-18.81-27.608-21.4789c-10.924-1.8644-13.776-5.108-13.776-5.108" stroke-width="4"/><path d="m159.383 58.6975s-20.394-11.0076-23.288-25.4758c-2.022-10.0755-5.538-12.7061-5.538-12.7061" stroke-width="4"/><path d="m166.652 47.1534s-8.307-12.1313-18.138-14.4427c-6.853-1.609-8.764-3.7288-8.764-3.7288" stroke-width="2"/><path d="m159.439 53.7938s-13.154-7.6619-15.66-16.7285c-1.744-6.3211-4.043-8.0834-4.043-8.0834" stroke-width="2"/><path d="m155.228 67.9555s-22.859-5.5166-35.998 2.8221c-9.152 5.8103-13.652 5.3761-13.652 5.3761" stroke-width="4"/><path d="m155.228 84.3521s-22.859 5.5165-35.998-2.8222c-9.152-5.8103-13.652-5.3761-13.652-5.3761" stroke-width="4"/><path d="m151.518 71.4543s-15.175-3.1542-23.898 1.6217c-6.078 3.333-9.055 3.0776-9.055 3.0776" stroke-width="2"/><path d="m151.518 80.8527s-15.175 3.1542-23.898-1.6217c-6.078-3.333-9.055-3.0776-9.055-3.0776" stroke-width="2"/><path d="m159.383 93.5977s-20.394 11.0073-23.288 25.4763c-2.022 10.075-5.538 12.706-5.538 12.706" stroke-width="4"/><path d="m171.968 105.206s-11.934 18.81-27.608 21.478c-10.924 1.865-13.776 5.108-13.776 5.108" stroke-width="4"/><path d="m159.439 98.5015s-13.154 7.6615-15.66 16.7285c-1.744 6.321-4.043 8.083-4.043 8.083" stroke-width="2"/><path d="m166.652 105.154s-8.307 12.132-18.138 14.443c-6.853 1.609-8.764 3.729-8.764 3.729" stroke-width="2"/><path d="m181.993 109.036s-5.981 21.083 3.06 33.202c6.3 8.441 5.829 12.591 5.829 12.591" stroke-width="4"/><path d="m199.77 109.036s5.981 21.083-3.06 33.202c-6.3 8.441-5.829 12.591-5.829 12.591" stroke-width="4"/><path d="m185.786 112.471s-3.419 13.996 1.759 22.041c3.613 5.606 3.337 8.364 3.337 8.364" stroke-width="2"/><path d="m195.976 112.471s3.42 13.996-1.745 22.041c-3.613 5.606-3.336 8.364-3.336 8.364" stroke-width="2"/><path d="m256.689 94.4655c-2.921-2.7072-7.67-2.7072-10.605 0-2.922 2.7072-2.922 7.0745 0 9.7815 2.935 2.707 7.67 2.707 10.605 0 2.936-2.694 2.936-7.0743 0-9.7815z" stroke-width="4"/><path d="m251.455 46.1826c-4.14 0-7.49 3.0903-7.49 6.9213 0 3.8309 3.35 6.9212 7.49 6.9212s7.505-3.0903 7.505-6.9212c0-3.831-3.351-6.9213-7.505-6.9213z" stroke-width="4"/><path d="m210.735 15.4454c-2.921 2.7073-2.921 7.0746 0 9.7818 2.935 2.7072 7.67 2.7072 10.606 0 2.935-2.6945 2.935-7.0745 0-9.7818-2.922-2.7072-7.671-2.7072-10.606 0z" stroke-width="4"/><path d="m158.386 20.2728c0 3.8182 3.35 6.9213 7.49 6.9213s7.505-3.0903 7.505-6.9213c0-3.8309-3.351-6.9212-7.505-6.9212-4.153 0-7.49 3.0903-7.49 6.9212z" stroke-width="4"/><path d="m125.074 57.8416c2.921 2.6944 7.67 2.6944 10.606 0 2.921-2.7072 2.921-7.0745 0-9.7817-2.922-2.6944-7.671-2.6944-10.606 0-2.922 2.7072-2.922 7.0745 0 9.7817z" stroke-width="4"/><path d="m130.307 106.125c4.14 0 7.504-3.091 7.504-6.9215 0-3.831-3.35-6.9213-7.504-6.9213s-7.491 3.0903-7.491 6.9213c0 3.8305 3.351 6.9215 7.491 6.9215z" stroke-width="4"/><path d="m171.026 136.849c2.922-2.695 2.922-7.075 0-9.782-2.921-2.707-7.67-2.707-10.605 0-2.922 2.707-2.922 7.075 0 9.782 2.921 2.707 7.67 2.707 10.605 0z" stroke-width="4"/><path d="m223.376 132.022c0-3.818-3.351-6.921-7.504-6.921-4.154 0-7.505 3.09-7.505 6.921s3.351 6.921 7.505 6.921c4.153 0 7.504-3.09 7.504-6.921z" stroke-width="4"/><path d="m-130.668 76.1533h643.1" stroke-width=".25"/><path d="m190.882 372.759v-593.224" stroke-width=".25"/><path d="m-129.45 102 640.663-51.7051" stroke-width=".25"/><path d="m218.905 371.636-56.047-590.964" stroke-width=".25"/><path d="m-125.781 127.655 633.325-103.0149" stroke-width=".25"/><path d="m246.72 368.264-111.678-584.221" stroke-width=".25"/><path d="m-119.717 152.926 621.196-153.545141" stroke-width=".25"/><path d="m274.107 362.658-166.452-573.009" stroke-width=".25"/><path d="m-111.285 177.598 604.318-202.888" stroke-width=".25"/><path d="m300.857 354.881-219.9508-557.455" stroke-width=".25"/><path d="m-100.54 201.502 582.844-250.7105" stroke-width=".25"/><path d="m326.776 344.972-271.7887-537.65" stroke-width=".25"/><path d="m-87.5938 224.462 556.9528-296.6178" stroke-width=".25"/><path d="m351.657 333.019-321.5496-513.744" stroke-width=".25"/><path d="m-72.5166 246.286 526.7966-340.2655" stroke-width=".25"/><path d="m375.318 319.125-368.87366-485.944" stroke-width=".25"/><path d="m-55.4453 266.808 492.6533-381.321" stroke-width=".25"/><path d="m397.569 303.368-413.3737-454.441" stroke-width=".25"/><path d="m-36.4902 285.886 454.7442-419.477" stroke-width=".25"/><path d="m418.254 285.886-454.7442-419.477" stroke-width=".25"/><path d="m-15.8057 303.368 413.3737-454.441" stroke-width=".25"/><path d="m437.163 267.269-492.6532-381.321" stroke-width=".25"/><path d="m6.44434 319.125 368.87366-485.944" stroke-width=".25"/><path d="m454.28 246.286-526.7966-340.2655" stroke-width=".25"/><path d="m30.1074 333.019 321.5496-513.744" stroke-width=".25"/><path d="m469.359 224.462-556.9528-296.6178" stroke-width=".25"/><path d="m54.9873 344.972 271.7887-537.65" stroke-width=".25"/><path d="m482.304 201.502-582.844-250.7105" stroke-width=".25"/><path d="m80.9062 354.881 219.9508-557.455" stroke-width=".25"/><path d="m493.444 177.541-604.318-202.8872" stroke-width=".25"/><path d="m107.655 362.658 166.452-573.009" stroke-width=".25"/><path d="m501.479 152.926-621.196-153.545141" stroke-width=".25"/><path d="m135.042 368.264 111.678-584.221" stroke-width=".25"/><path d="m507.544 127.655-633.325-103.0149" stroke-width=".25"/><path d="m162.858 371.636 56.047-590.964" stroke-width=".25"/><path d="m511.213 102-640.663-51.7051" stroke-width=".25"/><path d="m181.964 15.9309s-2.27-21.33846-31.651-29.7283" stroke-width="4"/><path d="m151.27 27.8579s-14.995-16.3837-1.025-41.6553" stroke-width="4"/><path d="m176.261 14.0666s-1.675-15.74529-23.358-21.93867" stroke-width="2"/><path d="m153.609 22.865s-11.062-12.0803-.761-30.73707" stroke-width="2"/></g><path d="m154.919-3.39893c2.299.90157 3.816 2.14647 4.809 3.501957 1.064 1.453653 1.545 3.064963 1.71 4.582033.166 1.51887.012 2.93162-.185 3.96875-.092.48144-.195.8789-.275 1.16504-2.239-.96608-3.729-2.24189-4.711-3.61133-1.057-1.47166-1.547-3.07707-1.727-4.57617-.18-1.501209-.048-2.88677.13-3.89942.082-.46747.174-.85296.249-1.13086z" fill="#fff"/><path d="m138.407 39.3763s-17.958-13.5999-45.1785-.3831" stroke-linecap="round" stroke-linejoin="round" stroke-width="4"/><path d="m125.848 67.8404s-23.15-1.8006-32.6615-28.7833" stroke-linecap="round" stroke-linejoin="round" stroke-width="4"/><path d="m132.951 41.7895s-13.25-10.0371-33.326-.2809" stroke-linecap="round" stroke-linejoin="round" stroke-width="2"/><path d="m123.675 62.7832s-17.085-1.3281-24.091-21.2363" stroke-linecap="round" stroke-linejoin="round" stroke-width="2"/><path d="m104.479 43.3521c4.73-1.7366 8.331-.3546 10.796 1.5039 1.289.9714 2.268 2.076 2.925 2.9394.286.3748.508.7033.669.9531-4.759 1.5724-8.363.1915-10.82-1.624-1.285-.9493-2.258-2.0191-2.909-2.8535-.282-.3613-.502-.6784-.661-.9189z" fill="#fff"/><path d="m125.585 84.3774s-23.122 2.0943-32.2325 29.1916" stroke-linecap="round" stroke-linejoin="round" stroke-width="4"/><path d="m138.517 112.701s-17.75 13.83-45.1645.945" stroke-linecap="round" stroke-linejoin="round" stroke-width="4"/><path d="m123.578 89.6387s-17.058 1.5451-23.787 21.5423" stroke-linecap="round" stroke-linejoin="round" stroke-width="2"/><path d="m133.117 110.53s-13.098 10.203-33.326.703" stroke-linecap="round" stroke-linejoin="round" stroke-width="2"/><path d="m113.393 103.349c1.661-.154 3.206-.011 4.337.172.514.084.94.175 1.251.25-2.15 4.166-5.732 5.54-8.874 5.861-1.642.168-3.155.045-4.26-.12-.502-.075-.916-.16-1.219-.229 2.004-4.267 5.582-5.64 8.765-5.934z" fill="#fff"/><path d="m151.02 124.551s-14.745 16.563-.415 41.668" stroke-linecap="round" stroke-linejoin="round" stroke-width="4"/><path d="m181.868 136.146s-1.952 21.364-31.208 30.125" stroke-linecap="round" stroke-linejoin="round" stroke-width="4"/><path d="m153.624 129.583s-10.883 12.22-.305 30.749" stroke-linecap="round" stroke-linejoin="round" stroke-width="2"/><path d="m176.387 138.139s-1.44 15.758-23.026 22.232" stroke-linecap="round" stroke-linejoin="round" stroke-width="2"/><path d="m161.217 142.572c.826 2.12.9 3.973.548 5.569-.381 1.725-1.265 3.182-2.291 4.366-1.027 1.185-2.186 2.083-3.092 2.686-.437.29-.814.509-1.084.659-.919-2.112-1.036-3.96-.701-5.551.361-1.716 1.255-3.172 2.306-4.36 1.052-1.188 2.25-2.093 3.189-2.701.453-.294.844-.517 1.125-.668z" fill="#fff"/><path d="m199.798 136.376s2.271 21.339 31.651 29.729" stroke-linecap="round" stroke-linejoin="round" stroke-width="4"/><path d="m230.493 124.449s14.995 16.384 1.025 41.655" stroke-linecap="round" stroke-linejoin="round" stroke-width="4"/><path d="m205.502 138.24s1.675 15.745 23.357 21.939" stroke-linecap="round" stroke-linejoin="round" stroke-width="2"/><path d="m228.153 129.429s11.063 12.08.762 30.737" stroke-linecap="round" stroke-linejoin="round" stroke-width="2"/><path d="m220.784 142.487c2.239.966 3.729 2.242 4.712 3.611 1.056 1.472 1.547 3.078 1.727 4.577.18 1.502.048 2.887-.13 3.9-.083.467-.176.852-.25 1.13-2.299-.902-3.816-2.146-4.808-3.501-1.064-1.454-1.546-3.065-1.711-4.582-.165-1.52-.012-2.933.186-3.97.091-.482.193-.879.274-1.165z" fill="#fff"/><path d="m243.355 112.918s17.958 13.6 45.165.383" stroke-linecap="round" stroke-linejoin="round" stroke-width="4"/><path d="m255.914 84.4668s23.15 1.8005 32.662 28.7832" stroke-linecap="round" stroke-linejoin="round" stroke-width="4"/><path d="m248.811 110.517s13.25 10.037 33.326.281" stroke-linecap="round" stroke-linejoin="round" stroke-width="2"/><path d="m258.073 89.5234s17.086 1.3281 24.105 21.2366" stroke-linecap="round" stroke-linejoin="round" stroke-width="2"/><path d="m262.893 103.544c4.759-1.572 8.363-.19 10.82 1.625 1.285.95 2.258 2.02 2.909 2.855.282.36.5.677.659.917-4.729 1.736-8.329.355-10.795-1.503-1.288-.971-2.267-2.075-2.924-2.938-.286-.376-.508-.706-.669-.956z" fill="#fff"/><path d="m256.163 67.9297s23.122-2.0943 32.233-29.1919" stroke-linecap="round" stroke-linejoin="round" stroke-width="4"/><path d="m243.231 39.6063s17.75-13.8297 45.165-.9449" stroke-linecap="round" stroke-linejoin="round" stroke-width="4"/><path d="m258.184 62.6687s17.071-1.5451 23.786-21.5427" stroke-linecap="round" stroke-linejoin="round" stroke-width="2"/><path d="m248.645 41.7644s13.097-10.2031 33.326-.7024" stroke-linecap="round" stroke-linejoin="round" stroke-width="2"/><path d="m271.653 42.6621c1.642-.1678 3.157-.0455 4.262.1201.5.075.914.1601 1.217.2285-2.004 4.2667-5.58 5.64-8.763 5.9346-1.662.1538-3.206.0114-4.338-.1719-.514-.0833-.941-.1767-1.252-.2509 2.151-4.1654 5.733-5.5394 8.874-5.8604z" fill="#fff"/><path d="m230.742 27.7554s14.746-16.5625.416-41.668" stroke-linecap="round" stroke-linejoin="round" stroke-width="4"/><path d="m199.895 16.1607s1.952-21.36395 31.207-30.1241" stroke-linecap="round" stroke-linejoin="round" stroke-width="4"/><path d="m228.139 22.7117s10.882-12.2207.304-30.74979" stroke-linecap="round" stroke-linejoin="round" stroke-width="2"/><path d="m205.377 14.1683s1.44-15.75795 23.025-22.23226" stroke-linecap="round" stroke-linejoin="round" stroke-width="2"/><path d="m226.463-3.54541c.919 2.11221 1.037 3.960341.702 5.55176-.361 1.71635-1.255 3.17266-2.307 4.36035-1.052 1.18794-2.249 2.0918-3.188 2.70019-.454.29401-.845.5166-1.126.66797-.826-2.11953-.899-3.97335-.547-5.56933.381-1.72501 1.264-3.182435 2.291-4.366214 1.027-1.184016 2.186-2.081786 3.092-2.684566.437-.29042.813-.51061 1.083-.66016z" fill="#fff"/><path d="m4.17328 21.7921s-23.05288-2.6434-31.40178-29.95812" stroke-linecap="round" stroke-linejoin="round" stroke-width="4"/><path d="m2.22128 16.6715s-17.01618-1.9538-23.16368-22.10461" stroke-linecap="round" stroke-linejoin="round" stroke-width="2"/><path d="m.739523 37.9081s-20.768423-9.6157-44.153623 8.8112" stroke-linecap="round" stroke-linejoin="round" stroke-width="4"/><path d="m-.270499 115.191s-21.405301 8.339-43.433601-11.467" stroke-linecap="round" stroke-linejoin="round" stroke-width="4"/><path d="m5.4892 130.732s-23.1914 1.251-33.4648 27.991" stroke-linecap="round" stroke-linejoin="round" stroke-width="4"/><path d="m17.1887 159.503s-18.33154 13.165-45.1643-.703" stroke-linecap="round" stroke-linejoin="round" stroke-width="4"/><path d="m3.24626 135.917s-17.11316.919-24.68666 20.661" stroke-linecap="round" stroke-linejoin="round" stroke-width="2"/><path d="m11.8859 157.14s-13.52714 9.718-33.3263-.523" stroke-linecap="round" stroke-linejoin="round" stroke-width="2"/><path d="m363.812 158.481s17.363 14.251 45.123 2.03" stroke-linecap="round" stroke-linejoin="round" stroke-width="4"/><path d="m377.589 130.502s23.067 2.643 31.402 29.958" stroke-linecap="round" stroke-linejoin="round" stroke-width="4"/><path d="m369.365 156.284s12.807 10.51 33.299 1.494" stroke-linecap="round" stroke-linejoin="round" stroke-width="2"/><path d="m379.527 135.635s17.017 1.954 23.164 22.105" stroke-linecap="round" stroke-linejoin="round" stroke-width="2"/><path d="m381.021 114.386s20.769 9.616 44.154-8.811" stroke-linecap="round" stroke-linejoin="round" stroke-width="4"/><path d="m382.033 37.1033s21.405-8.3387 43.434 11.4673" stroke-linecap="round" stroke-linejoin="round" stroke-width="4"/><path d="m376.273 21.575s23.192-1.2514 33.465-27.9915" stroke-linecap="round" stroke-linejoin="round" stroke-width="4"/><path d="m378.518 16.3901s17.113-.9194 24.686-20.66158" stroke-linecap="round" stroke-linejoin="round" stroke-width="2"/><path d="m173.99 152.198s14.137 15.605 16.892 49.253" stroke-linecap="round" stroke-linejoin="round" stroke-width="4"/><path d="m207.51 152.198s-14.137 15.605-16.892 49.253" stroke-linecap="round" stroke-linejoin="round" stroke-width="4"/><path d="m237.236 140.935s21.959 1.813 49.692 23.816" stroke-linecap="round" stroke-linejoin="round" stroke-width="4"/><path d="m260.939 119.073s1.967 20.266 25.809 45.844" stroke-linecap="round" stroke-linejoin="round" stroke-width="4"/><path d="m273.318 91.7331s16.92-13.0509 53.389-15.5793" stroke-linecap="round" stroke-linejoin="round" stroke-width="4"/><path d="m273.317 60.8042s16.92 13.0508 53.389 15.5792" stroke-linecap="round" stroke-linejoin="round" stroke-width="4"/><path d="m261.12 33.3873s1.966-20.2658 25.808-45.8438" stroke-linecap="round" stroke-linejoin="round" stroke-width="4"/><path d="m237.416 11.5253s21.959-1.81335 49.692-23.8158" stroke-linecap="round" stroke-linejoin="round" stroke-width="4"/><path d="m207.772.0961191s-14.136-15.6048191-16.891-49.2533191" stroke-linecap="round" stroke-linejoin="round" stroke-width="4"/><path d="m174.252.0961191s14.136-15.6048191 16.892-49.2533191" stroke-linecap="round" stroke-linejoin="round" stroke-width="4"/><path d="m144.526 11.3592s-21.959-1.81327-49.692-23.8157" stroke-linecap="round" stroke-linejoin="round" stroke-width="4"/><path d="m120.822 33.2213s-1.966-20.2658-25.8083-45.8439" stroke-linecap="round" stroke-linejoin="round" stroke-width="4"/><path d="m108.43 60.5742s-16.9197 13.0508-53.389 15.5792" stroke-linecap="round" stroke-linejoin="round" stroke-width="4"/><path d="m108.43 91.4899s-16.9197-13.0508-53.389-15.5793" stroke-linecap="round" stroke-linejoin="round" stroke-width="4"/><path d="m120.642 118.907s-1.966 20.266-25.808 45.844" stroke-linecap="round" stroke-linejoin="round" stroke-width="4"/><path d="m144.346 140.769s-21.959 1.813-49.6917 23.816" stroke-linecap="round" stroke-linejoin="round" stroke-width="4"/><path d="m66.7969 76.1538s.5953-26.9699 28.425-32.1162" stroke-linecap="round" stroke-linejoin="round" stroke-width="4"/><path d="m103.141 157.089s-20.2557-19.461-4.5271-41.247" stroke-linecap="round" stroke-linejoin="round" stroke-width="4"/><path d="m278.622 157.089s-21.101 18.682-44.722 4.176" stroke-linecap="round" stroke-linejoin="round" stroke-width="4"/><path d="m314.965 76.1538s-.595 26.9702-28.425 32.1162" stroke-linecap="round" stroke-linejoin="round" stroke-width="4"/><path d="m278.621-4.78174s20.256 19.46124 4.528 41.24664" stroke-linecap="round" stroke-linejoin="round" stroke-width="4"/><path d="m66.7969 76.1538s.5953-26.9699 28.425-32.1162" stroke-linecap="round" stroke-linejoin="round" stroke-width="4"/><path d="m103.141 157.089s-20.2557-19.461-4.5271-41.247" stroke-linecap="round" stroke-linejoin="round" stroke-width="4"/><path d="m278.622 157.089s-21.101 18.682-44.722 4.176" stroke-linecap="round" stroke-linejoin="round" stroke-width="4"/><path d="m314.965 76.1538s-.595 26.9702-28.425 32.1162" stroke-linecap="round" stroke-linejoin="round" stroke-width="4"/><path d="m278.621-4.78174s20.256 19.46124 4.528 41.24664" stroke-linecap="round" stroke-linejoin="round" stroke-width="4"/><path d="m314.965 76.1538s-.595-26.9699-28.425-32.1162" stroke-linecap="round" stroke-linejoin="round" stroke-width="4"/><path d="m278.621 157.089s20.256-19.461 4.528-41.247" stroke-linecap="round" stroke-linejoin="round" stroke-width="4"/><path d="m103.142 157.089s21.1 18.682 44.721 4.176" stroke-linecap="round" stroke-linejoin="round" stroke-width="4"/><path d="m66.7969 76.1538s.5953 26.9702 28.425 32.1162" stroke-linecap="round" stroke-linejoin="round" stroke-width="4"/><path d="m103.141-4.78174s-20.2557 19.46124-4.5271 41.24664" stroke-linecap="round" stroke-linejoin="round" stroke-width="4"/><path d="m289.462 130.247s17.958 13.6 45.178.383" stroke-linecap="round" stroke-linejoin="round" stroke-width="4"/><path d="m302.033 101.783s23.15 1.8 32.662 28.783" stroke-linecap="round" stroke-linejoin="round" stroke-width="4"/><path d="m294.932 127.846s13.25 10.037 33.326.281" stroke-linecap="round" stroke-linejoin="round" stroke-width="2"/><path d="m304.194 106.839s17.086 1.328 24.106 21.237" stroke-linecap="round" stroke-linejoin="round" stroke-width="2"/><path d="m312.743 121.381c1.096-1.01 2.879-1.011 3.975 0 1.073.99 1.072 2.566 0 3.556-1.094 1.009-2.878 1.001-3.977-.002-1.069-.975-1.072-2.563.002-3.554z" fill="#fff"/><path d="m301.168 110.667c1.096-1.011 2.878-1.011 3.975 0l.002.002c1.068.975 1.071 2.563-.002 3.554-1.097 1.011-2.879 1.011-3.975 0-1.073-.99-1.073-2.566 0-3.556z" fill="#fff"/><path d="m296.529 119.977c1.096-1.011 2.879-1.011 3.975 0 1.073.989 1.072 2.566 0 3.555-1.094 1.009-2.878 1.001-3.977-.002-1.069-.975-1.072-2.563.002-3.553z" fill="#fff"/><path d="m302.061 50.1026s23.122-2.0943 32.232-29.192" stroke-linecap="round" stroke-linejoin="round" stroke-width="4"/><path d="m289.129 21.7792s17.75-13.82977 45.164-.945" stroke-linecap="round" stroke-linejoin="round" stroke-width="4"/><path d="m304.082 44.8416s17.072-1.5452 23.787-21.5428" stroke-linecap="round" stroke-linejoin="round" stroke-width="2"/><path d="m294.528 23.9372s13.098-10.2031 33.327-.7023" stroke-linecap="round" stroke-linejoin="round" stroke-width="2"/><path d="m314.488 26.0762c1.583-.0031 2.799 1.1686 2.802 2.5336.003 1.3651-1.207 2.5414-2.79 2.5445-1.582.0029-2.798-1.1687-2.801-2.5337-.003-1.3649 1.207-2.5412 2.789-2.5444z" fill="#fff"/><path d="m298.101 26.0591c1.577 0 2.795 1.1682 2.795 2.539 0 1.3709-1.218 2.5391-2.795 2.5391-1.578-.0002-2.795-1.1683-2.795-2.5391 0-1.3707 1.217-2.5389 2.795-2.539z" fill="#fff"/><path d="m301.949 35.6494c1.578 0 2.796 1.1683 2.796 2.5391s-1.218 2.539-2.796 2.539c-1.578-.0001-2.795-1.1683-2.795-2.539s1.218-2.5389 2.795-2.5391z" fill="#fff"/><path d="m42.9408 14.4368s-22.7484-4.4056-28.5912-32.2566" stroke-linecap="round" stroke-linejoin="round" stroke-width="4"/><path d="m41.4581 9.17557s-16.7809-3.24354-21.1007-23.80297" stroke-linecap="round" stroke-linejoin="round" stroke-width="2"/><path d="m41.502 1.74072c1.2362-.887985 3.0035-.68057 3.9501.44043.928 1.09897.7331 2.66705-.4765 3.53614-1.2362.88802-3.0045.68058-3.9512-.44043-.9279-1.09904-.7322-2.66711.4776-3.53614z" fill="#fff"/><path d="m38.8286 22.073s-19.8269-11.1736-44.79051 5.4016" stroke-linecap="round" stroke-linejoin="round" stroke-width="4"/><path d="m30.6603 51.8652s-23.20515 1.1748-36.6769-24.3266" stroke-linecap="round" stroke-linejoin="round" stroke-width="4"/><path d="m33.7896 25.1502s-14.6347-8.2493-33.049366 3.9842" stroke-linecap="round" stroke-linejoin="round" stroke-width="2"/><path d="m27.7525 47.1273s-17.1131.8683-27.054258-17.9544" stroke-linecap="round" stroke-linejoin="round" stroke-width="2"/><path d="m12.6338 30.8047c.9227-1.1311 2.6913-1.3713 3.9385-.5059 1.2238.8493 1.4499 2.4194.5478 3.5254-.9226 1.1311-2.6903 1.3711-3.9375.5059-1.2239-.8493-1.451-2.4194-.5488-3.5254z" fill="#fff"/><path d="m25.7031 39.9351c.9228-1.1312 2.6913-1.3714 3.9385-.5059 1.2238.8493 1.45 2.4194.5479 3.5254-.9227 1.131-2.6904 1.3711-3.9375.5058-1.224-.8493-1.451-2.4193-.5489-3.5253z" fill="#fff"/><path d="m28.9014 30.1279c.9227-1.1311 2.6913-1.3713 3.9384-.5058 1.2239.8493 1.45 2.4193.5479 3.5254-.9227 1.131-2.6903 1.371-3.9375.5058-1.2239-.8493-1.451-2.4193-.5488-3.5254z" fill="#fff"/><path d="m28.8323 60.2168s-22.29136-6.0529-41.7444 15.9113" stroke-linecap="round" stroke-linejoin="round" stroke-width="4"/><path d="m29.3036 90.9411s-22.08371 6.6786-42.2567-14.7492" stroke-linecap="round" stroke-linejoin="round" stroke-width="4"/><path d="m24.8328 64.3924s-16.44856-4.4694-30.80643 11.7483" stroke-linecap="round" stroke-linejoin="round" stroke-width="2"/><path d="m25.1783 87.0592s-16.29625 4.9291-31.18025-10.88" stroke-linecap="round" stroke-linejoin="round" stroke-width="2"/><path d="m5.98828 74.9004c.57444-1.2922 2.19172-1.9488 3.65625-1.4092v.001c1.43727.5477 2.08457 2.0205 1.53617 3.2871-.5757 1.2845-2.19869 1.9502-3.66215 1.4082h-.00097c-1.43434-.5495-2.07831-2.0217-1.5293-3.2871z" fill="#fff"/><path d="m21.1758 80.585c.5396-1.2044 1.9994-1.8648 3.3857-1.4961l.2764.0879c1.434.549 2.0789 2.0199 1.5312 3.2851-.5756 1.2847-2.1995 1.9504-3.663 1.4082-1.4337-.5492-2.078-2.0201-1.5303-3.2851z" fill="#fff"/><path d="m21.5078 70.3564c.5396-1.2043 1.9995-1.8648 3.3858-1.496l.2763.0878c1.434.5491 2.0789 2.02 1.5313 3.2852-.5756 1.2847-2.1995 1.9504-3.6631 1.4082-1.4336-.5493-2.0779-2.0201-1.5303-3.2852z" fill="#fff"/><path d="m29.8855 99.4457s-23.23293-.5364-35.86011 25.3353" stroke-linecap="round" stroke-linejoin="round" stroke-width="4"/><path d="m38.9681 129.008s-19.453 11.722-44.94271-4.151" stroke-linecap="round" stroke-linejoin="round" stroke-width="4"/><path d="m27.1855 104.439s-17.1409-.396-26.458938 18.695" stroke-linecap="round" stroke-linejoin="round" stroke-width="2"/><path d="m33.8867 126.25s-14.3578 8.645-33.160138-3.065" stroke-linecap="round" stroke-linejoin="round" stroke-width="2"/><path d="m15.042 116.85c1.5604.177 2.6063 1.476 2.4268 2.821-.181 1.355-1.5519 2.39-3.1172 2.213-1.5605-.177-2.6063-1.476-2.4268-2.822.1809-1.355 1.5517-2.39 3.1172-2.212z" fill="#fff"/><path d="m31.3096 118.714c1.5604.177 2.6063 1.476 2.4267 2.821-.1809 1.356-1.5518 2.391-3.1172 2.213-1.5605-.177-2.6062-1.476-2.4267-2.821.1809-1.356 1.5517-2.391 3.1172-2.213z" fill="#fff"/><path d="m28.7627 108.753c1.5604.178 2.6063 1.476 2.4268 2.822-.1809 1.355-1.5518 2.39-3.1172 2.213-1.5606-.178-2.6063-1.476-2.4268-2.822.1809-1.355 1.5518-2.39 3.1172-2.213z" fill="#fff"/><path d="m41.902 137.091s-22.5822 5.032-27.525 33.036" stroke-linecap="round" stroke-linejoin="round" stroke-width="4"/><path d="m40.6962 142.557s-16.67 3.716-20.3114 24.377" stroke-linecap="round" stroke-linejoin="round" stroke-width="2"/><path d="m32.4395 157.432c1.5654-.2 2.9494.812 3.1533 2.17v.003c.2132 1.357-.8063 2.663-2.3662 2.862-1.5654.199-2.9486-.814-3.1524-2.171l-.001-.003-.0253-.254c-.058-1.262.9293-2.42 2.3916-2.607z" fill="#fff"/><path d="m48.667 155.351c1.5655-.2 2.9495.812 3.1533 2.17v.003c.1999 1.272-.6835 2.499-2.0801 2.812l-.2861.05c-1.4821.187-2.7889-.693-3.1143-1.921l-.0517-.25c-.2022-1.36.8202-2.665 2.3789-2.864z" fill="#fff"/><path d="m43.4189 146.348c1.5655-.2 2.9495.812 3.1534 2.17v.003c.1998 1.272-.6835 2.5-2.0801 2.812l-.2861.05c-1.4821.187-2.789-.693-3.1143-1.921l-.0518-.25c-.2021-1.36.8203-2.665 2.3789-2.864z" fill="#fff"/><path d="m338.821 137.87s22.735 4.406 28.591 32.257" stroke-linecap="round" stroke-linejoin="round" stroke-width="4"/><path d="m340.303 143.131s16.781 3.244 21.1 23.803" stroke-linecap="round" stroke-linejoin="round" stroke-width="2"/><path d="m346.854 158.517c1.236-.888 3.003-.681 3.95.44.928 1.099.733 2.667-.477 3.536-1.236.888-3.004.681-3.951-.44-.928-1.099-.732-2.667.478-3.536z" fill="#fff"/><path d="m336.774 146.589c1.237-.888 3.004-.68 3.951.441.928 1.099.733 2.667-.477 3.536-1.236.888-3.004.681-3.951-.441-.928-1.099-.732-2.667.477-3.536z" fill="#fff"/><path d="m330.945 155.299c1.237-.888 3.004-.681 3.951.44.927 1.099.733 2.667-.477 3.536-1.236.888-3.005.681-3.951-.44-.928-1.099-.732-2.667.477-3.536z" fill="#fff"/><path d="m342.934 130.234s19.826 11.174 44.79-5.401" stroke-linecap="round" stroke-linejoin="round" stroke-width="4"/><path d="m351.103 100.442s23.205-1.1748 36.676 24.327" stroke-linecap="round" stroke-linejoin="round" stroke-width="4"/><path d="m347.975 127.157s14.634 8.249 33.049-3.985" stroke-linecap="round" stroke-linejoin="round" stroke-width="2"/><path d="m353.997 105.167s17.113-.869 27.054 17.954" stroke-linecap="round" stroke-linejoin="round" stroke-width="2"/><path d="m364.644 118.47c.922-1.131 2.691-1.372 3.938-.506 1.224.849 1.45 2.419.548 3.525-.923 1.131-2.69 1.371-3.938.506-1.224-.849-1.451-2.419-.548-3.525z" fill="#fff"/><path d="m351.56 109.353c.922-1.132 2.691-1.372 3.938-.506 1.224.849 1.45 2.419.548 3.525-.923 1.131-2.69 1.371-3.938.506-1.224-.849-1.451-2.419-.548-3.525z" fill="#fff"/><path d="m348.375 119.16c.923-1.131 2.691-1.372 3.938-.506 1.224.849 1.45 2.419.548 3.525-.922 1.131-2.69 1.371-3.937.506-1.224-.849-1.451-2.419-.549-3.525z" fill="#fff"/><path d="m352.93 92.0905s22.291 6.0529 41.744-15.9113" stroke-linecap="round" stroke-linejoin="round" stroke-width="4"/><path d="m352.459 61.3661s22.084-6.6786 42.257 14.7492" stroke-linecap="round" stroke-linejoin="round" stroke-width="4"/><path d="m356.932 87.9148s16.448 4.4694 30.806-11.7483" stroke-linecap="round" stroke-linejoin="round" stroke-width="2"/><path d="m356.584 65.2354s16.296-4.9291 31.18 10.88" stroke-linecap="round" stroke-linejoin="round" stroke-width="2"/><path d="m370.582 75.5278c.575-1.2836 2.196-1.9489 3.658-1.4091h.001c1.447.5471 2.084 2.0173 1.534 3.2861-.575 1.2847-2.199 1.9503-3.663 1.4082-1.433-.5493-2.078-2.0202-1.53-3.2852z" fill="#fff"/><path d="m355.394 69.8452c.575-1.2837 2.195-1.9489 3.658-1.4092h.001c1.447.5472 2.083 2.0174 1.534 3.2862-.576 1.2847-2.2 1.9503-3.663 1.4082-1.434-.5493-2.078-2.0202-1.53-3.2852z" fill="#fff"/><path d="m355.061 80.0742c.575-1.2836 2.195-1.9489 3.658-1.4092h.001c1.447.5472 2.083 2.0174 1.534 3.2862-.576 1.2847-2.2 1.9503-3.663 1.4082-1.434-.5493-2.078-2.0202-1.53-3.2852z" fill="#fff"/><path d="m351.878 52.8613s23.233.5363 35.86-25.3354" stroke-linecap="round" stroke-linejoin="round" stroke-width="4"/><path d="m342.795 23.2862s19.453-11.7228 44.943 4.1629" stroke-linecap="round" stroke-linejoin="round" stroke-width="4"/><path d="m354.578 47.8679s17.141.3959 26.459-18.695" stroke-linecap="round" stroke-linejoin="round" stroke-width="2"/><path d="m347.877 26.0443s14.358-8.6452 33.16 3.0648" stroke-linecap="round" stroke-linejoin="round" stroke-width="2"/><path d="m367.411 30.4102c1.561.1772 2.606 1.476 2.427 2.8212-.181 1.3555-1.552 2.3906-3.117 2.2129-1.561-.1771-2.607-1.4759-2.427-2.8213.181-1.3555 1.552-2.3905 3.117-2.2128z" fill="#fff"/><path d="m351.144 28.5459c1.56.1772 2.606 1.476 2.426 2.8213-.181 1.3555-1.551 2.3905-3.117 2.2129-1.56-.1772-2.606-1.476-2.427-2.8213.181-1.3555 1.552-2.3906 3.118-2.2129z" fill="#fff"/><path d="m353.69 38.5063c1.561.1773 2.607 1.4761 2.427 2.8213-.181 1.3555-1.552 2.3906-3.117 2.2129-1.561-.1771-2.606-1.4759-2.427-2.8213.181-1.3555 1.552-2.3906 3.117-2.2129z" fill="#fff"/><path d="m339.859 15.2158s22.583-5.0313 27.525-33.0356" stroke-linecap="round" stroke-linejoin="round" stroke-width="4"/><path d="m341.064 9.75021s16.671-3.71602 20.312-24.37761" stroke-linecap="round" stroke-linejoin="round" stroke-width="2"/><path d="m337.556.924316c1.482-.187705 2.789.691904 3.115 1.919924l.052.25c.189 1.27491-.698 2.50292-2.094 2.81543l-.286.0498c-1.482.18751-2.789-.69288-3.114-1.9209l-.052-.25c-.19-1.27467.697-2.5018 2.093-2.814449z" fill="#fff"/><path d="m92.2875 22.0604s-17.9577-13.59989-45.1781-.3831" stroke-linecap="round" stroke-linejoin="round" stroke-width="4"/><path d="m79.7291 50.5118s-23.1498-1.8006-32.6617-28.7833" stroke-linecap="round" stroke-linejoin="round" stroke-width="4"/><path d="m86.8322 24.4609s-13.2502-10.0371-33.3263-.281" stroke-linecap="round" stroke-linejoin="round" stroke-width="2"/><path d="m77.5554 45.4545s-17.0855-1.328-24.1052-21.2362" stroke-linecap="round" stroke-linejoin="round" stroke-width="2"/><path d="m65.0449 27.3691c1.0962-1.0108 2.8785-1.0109 3.9746 0 1.0728.9895 1.0726 2.5661 0 3.5557-1.0961 1.011-2.8784 1.011-3.9746 0l-.0019-.0019-.1875-.1895c-.8775-.9818-.8176-2.4355.1894-3.3643z" fill="#fff"/><path d="m76.6201 38.0703c1.0962-1.0108 2.8785-1.0109 3.9746 0 1.0728.9895 1.0726 2.5661 0 3.5557-1.0961 1.011-2.8784 1.011-3.9746 0-1.0727-.9896-1.0729-2.5662 0-3.5557z" fill="#fff"/><path d="m81.2588 28.7739c1.0962-1.0108 2.8785-1.0109 3.9746 0 1.0728.9895 1.0725 2.5661 0 3.5557-1.0962 1.011-2.8785 1.011-3.9746 0l-.002-.002-.1875-.1894c-.8774-.9818-.8176-2.4355.1895-3.3643z" fill="#fff"/><path d="m79.7013 102.204s-23.1222 2.094-32.2325 29.192" stroke-linecap="round" stroke-linejoin="round" stroke-width="4"/><path d="m92.633 130.528s-17.75 13.83-45.1642.945" stroke-linecap="round" stroke-linejoin="round" stroke-width="4"/><path d="m77.6793 107.465s-17.0578 1.545-23.7867 21.543" stroke-linecap="round" stroke-linejoin="round" stroke-width="2"/><path d="m87.2189 128.357s-13.0979 10.203-33.3263.702" stroke-linecap="round" stroke-linejoin="round" stroke-width="2"/><path d="m67.2686 121.157c1.5902 0 2.7958 1.167 2.7959 2.539 0 1.371-1.218 2.539-2.7959 2.539-1.5902 0-2.795-1.167-2.795-2.539.0001-1.372 1.2049-2.539 2.795-2.539z" fill="#fff"/><path d="m83.6621 121.169c1.5903 0 2.7958 1.167 2.7959 2.539 0 1.371-1.218 2.539-2.7959 2.539-1.5901 0-2.7949-1.167-2.7949-2.539.0001-1.372 1.2048-2.539 2.7949-2.539z" fill="#fff"/><path d="m79.8125 111.566c1.5903 0 2.7958 1.167 2.7959 2.539 0 1.371-1.218 2.54-2.7959 2.54-1.5902-.001-2.7949-1.167-2.7949-2.54.0001-1.372 1.2048-2.538 2.7949-2.539z" fill="#fff"/><path d="m193.705-31.0496s10.938-.166 18.345 9.1304c7.283 9.1305-9.29 4.4567-3.766 22.028035" stroke-linecap="round" stroke-linejoin="round" stroke-width="2"/><path d="m110.701-1.49997s7.601-7.25329 19.979-5.51659c12.157 1.71117-3.156 9.20707 14.22 18.03106" stroke-linecap="round" stroke-linejoin="round" stroke-width="2"/><path d="m74.6604 73.5483s-.18-10.0882 9.8996-16.9329c9.8996-6.7297 4.8321 8.5686 23.884 3.4735" stroke-linecap="round" stroke-linejoin="round" stroke-width="2"/><path d="m106.7 150.116s-7.864-7.01-5.981-18.427c1.855-11.212 9.983 2.912 19.55-13.114" stroke-linecap="round" stroke-linejoin="round" stroke-width="2"/><path d="m188.057 183.356s-10.938.166-18.345-9.13c-7.283-9.131 9.29-4.457 3.766-22.028" stroke-linecap="round" stroke-linejoin="round" stroke-width="2"/><path d="m271.061 153.794s-7.601 7.253-19.979 5.516c-12.157-1.711 3.157-9.207-14.22-18.031" stroke-linecap="round" stroke-linejoin="round" stroke-width="2"/><path d="m307.101 78.7583s.18 10.0882-9.9 16.9201c-9.9 6.7296-4.832-8.5686-23.884-3.4734" stroke-linecap="round" stroke-linejoin="round" stroke-width="2"/><path d="m275.062 2.19043s7.864 7.01064 5.981 18.42687c-1.841 11.212-9.983-2.9115-19.55 13.1147" stroke-linecap="round" stroke-linejoin="round" stroke-width="2"/><path d="m188.056-31.0496s-10.938-.166-18.345 9.1304c-7.283 9.1305 9.29 4.4567 3.766 22.028035" stroke-linecap="round" stroke-linejoin="round" stroke-width="2"/><path d="m271.061-1.49997s-7.601-7.25329-19.979-5.51659c-12.157 1.71117 3.157 9.20707-14.22 18.03106" stroke-linecap="round" stroke-linejoin="round" stroke-width="2"/><path d="m307.101 73.5483s.18-10.0882-9.9-16.9329c-9.9-6.7297-4.832 8.5686-23.884 3.4735" stroke-linecap="round" stroke-linejoin="round" stroke-width="2"/><path d="m275.062 150.116s7.864-7.01 5.981-18.427c-1.841-11.212-9.983 2.912-19.55-13.114" stroke-linecap="round" stroke-linejoin="round" stroke-width="2"/><path d="m193.705 183.356s10.938.166 18.345-9.13c7.283-9.131-9.29-4.457-3.766-22.028" stroke-linecap="round" stroke-linejoin="round" stroke-width="2"/><path d="m110.701 153.794s7.601 7.253 19.979 5.516c12.157-1.711-3.156-9.207 14.22-18.031" stroke-linecap="round" stroke-linejoin="round" stroke-width="2"/><path d="m74.6604 78.7583s-.18 10.0882 9.8996 16.9201c9.8996 6.7296 4.8321-8.5686 23.884-3.4734" stroke-linecap="round" stroke-linejoin="round" stroke-width="2"/><path d="m106.7 2.19043s-7.864 7.01064-5.981 18.42687c1.855 11.212 9.983-2.9115 19.55 13.1147" stroke-linecap="round" stroke-linejoin="round" stroke-width="2"/></g></g></g></svg>