<svg width="380" height="160" viewBox="0 0 380 160" fill="none" xmlns="http://www.w3.org/2000/svg">
<mask id="mask0_376_44673" style="mask-type:alpha" maskUnits="userSpaceOnUse" x="0" y="0" width="380" height="160">
<rect width="380" height="160" rx="8" fill="#FBE791"/>
</mask>
<g mask="url(#mask0_376_44673)">
<g opacity="0.5">
<g style="mix-blend-mode:overlay">
<mask id="mask1_376_44673" style="mask-type:alpha" maskUnits="userSpaceOnUse" x="-138" y="-141" width="684" height="394">
<rect x="-137.75" y="-140.8" width="683.05" height="393.797" fill="#FBE791"/>
</mask>
<g mask="url(#mask1_376_44673)">
<g opacity="0.6">
<path d="M223.501 106.24C214.958 98.3605 228.333 89.3322 219.499 81.1851" stroke="black" stroke-width="4" stroke-linecap="round" stroke-linejoin="round"/>
<path d="M223.5 106.239C214.958 98.3603 205.169 110.696 196.335 102.549" stroke="black" stroke-width="4" stroke-linecap="round" stroke-linejoin="round"/>
<path d="M190.881 118.715C190.881 107.58 207.26 109.917 207.26 98.3857" stroke="black" stroke-width="4" stroke-linecap="round" stroke-linejoin="round"/>
<path d="M190.881 118.715C190.881 107.58 174.502 109.917 174.502 98.3857" stroke="black" stroke-width="4" stroke-linecap="round" stroke-linejoin="round"/>
<path d="M237.014 76.1536C224.941 76.1536 227.475 61.0469 214.986 61.0469" stroke="black" stroke-width="4" stroke-linecap="round" stroke-linejoin="round"/>
<path d="M237.014 76.1538C224.941 76.1538 227.475 91.2605 214.986 91.2605" stroke="black" stroke-width="4" stroke-linecap="round" stroke-linejoin="round"/>
<path d="M223.5 46.0552C214.958 53.9342 205.169 41.5985 196.335 49.7457" stroke="black" stroke-width="4" stroke-linecap="round" stroke-linejoin="round"/>
<path d="M223.501 46.0552C214.958 53.9342 228.333 62.9625 219.499 71.1096" stroke="black" stroke-width="4" stroke-linecap="round" stroke-linejoin="round"/>
<path d="M190.881 33.5918C190.881 44.7271 174.502 42.3902 174.502 53.9214" stroke="black" stroke-width="4" stroke-linecap="round" stroke-linejoin="round"/>
<path d="M190.881 33.5918C190.881 44.7271 207.26 42.3902 207.26 53.9214" stroke="black" stroke-width="4" stroke-linecap="round" stroke-linejoin="round"/>
<path d="M158.26 46.0552C166.803 53.9342 153.428 62.9625 162.262 71.1096" stroke="black" stroke-width="4" stroke-linecap="round" stroke-linejoin="round"/>
<path d="M158.26 46.0552C166.803 53.9342 176.592 41.5985 185.425 49.7457" stroke="black" stroke-width="4" stroke-linecap="round" stroke-linejoin="round"/>
<path d="M144.747 76.1538C156.82 76.1538 154.287 91.2605 166.789 91.2605" stroke="black" stroke-width="4" stroke-linecap="round" stroke-linejoin="round"/>
<path d="M144.747 76.1536C156.821 76.1536 154.287 61.0469 166.789 61.0469" stroke="black" stroke-width="4" stroke-linecap="round" stroke-linejoin="round"/>
<path d="M158.26 106.239C166.803 98.3603 176.592 110.696 185.425 102.549" stroke="black" stroke-width="4" stroke-linecap="round" stroke-linejoin="round"/>
<path d="M158.26 106.24C166.803 98.3605 153.428 89.3322 162.262 81.1851" stroke="black" stroke-width="4" stroke-linecap="round" stroke-linejoin="round"/>
<path d="M218.101 76.1535C218.101 62.2854 205.917 51.0352 190.867 51.0352C175.816 51.0352 163.632 62.2854 163.632 76.1535C163.632 90.0215 175.816 101.272 190.867 101.272C205.917 101.272 218.101 90.0215 218.101 76.1535Z" stroke="black" stroke-width="4" stroke-linecap="round" stroke-linejoin="round"/>
<path d="M332.673 76.9584C333.157 4.71926 270.063 -54.2009 191.752 -54.6478C113.442 -55.0948 49.5582 3.09747 49.0736 75.3366C48.589 147.576 111.683 206.496 189.994 206.943C268.305 207.39 332.188 149.197 332.673 76.9584Z" stroke="black" stroke-width="4" stroke-linecap="round" stroke-linejoin="round"/>
<path d="M351.226 77.073C351.78 -4.6158 280.434 -71.2489 191.878 -71.7597C103.321 -72.2705 31.0888 -6.45466 30.5349 75.2342C29.9811 156.923 101.327 223.556 189.884 224.067C278.44 224.578 350.673 158.762 351.226 77.073Z" stroke="black" stroke-width="3" stroke-linecap="round" stroke-linejoin="round"/>
<path d="M212.743 76.1534C212.743 65.0181 202.954 55.9771 190.881 55.9771C178.807 55.9771 169.019 65.0053 169.019 76.1534C169.019 87.3015 178.807 96.3298 190.881 96.3298C202.954 96.3298 212.743 87.3015 212.743 76.1534Z" stroke="black" stroke-width="2" stroke-linecap="round" stroke-linejoin="round"/>
<path d="M209.794 105.205C209.794 105.205 221.729 124.015 237.403 126.684C248.327 128.548 251.179 131.792 251.179 131.792" stroke="black" stroke-width="4" stroke-linecap="round" stroke-linejoin="round"/>
<path d="M222.366 93.5977C222.366 93.5977 242.76 104.605 245.654 119.073C247.676 129.149 251.192 131.78 251.192 131.78" stroke="black" stroke-width="4" stroke-linecap="round" stroke-linejoin="round"/>
<path d="M215.111 105.154C215.111 105.154 223.418 117.286 233.249 119.597C240.102 121.206 242.013 123.326 242.013 123.326" stroke="black" stroke-width="2" stroke-linecap="round" stroke-linejoin="round"/>
<path d="M222.325 98.5015C222.325 98.5015 235.478 106.163 237.984 115.23C239.729 121.551 242.027 123.313 242.027 123.313" stroke="black" stroke-width="2" stroke-linecap="round" stroke-linejoin="round"/>
<path d="M226.52 84.3521C226.52 84.3521 249.379 89.8686 262.518 81.5299C271.67 75.7196 276.17 76.1538 276.17 76.1538" stroke="black" stroke-width="4" stroke-linecap="round" stroke-linejoin="round"/>
<path d="M226.519 67.9555C226.519 67.9555 249.378 62.4389 262.518 70.7776C271.67 76.5879 276.17 76.1537 276.17 76.1537" stroke="black" stroke-width="4" stroke-linecap="round" stroke-linejoin="round"/>
<path d="M230.244 80.8527C230.244 80.8527 245.419 84.0069 254.142 79.231C260.22 75.898 263.197 76.1534 263.197 76.1534" stroke="black" stroke-width="2" stroke-linecap="round" stroke-linejoin="round"/>
<path d="M230.244 71.4543C230.244 71.4543 245.419 68.3001 254.142 73.076C260.22 76.409 263.197 76.1536 263.197 76.1536" stroke="black" stroke-width="2" stroke-linecap="round" stroke-linejoin="round"/>
<path d="M222.366 58.6975C222.366 58.6975 242.76 47.6899 245.654 33.2217C247.676 23.1462 251.192 20.5156 251.192 20.5156" stroke="black" stroke-width="4" stroke-linecap="round" stroke-linejoin="round"/>
<path d="M209.795 47.1025C209.795 47.1025 221.73 28.2925 237.403 25.6236C248.327 23.7592 251.179 20.5156 251.179 20.5156" stroke="black" stroke-width="4" stroke-linecap="round" stroke-linejoin="round"/>
<path d="M222.325 53.7938C222.325 53.7938 235.478 46.1319 237.984 37.0653C239.729 30.7442 242.027 28.9819 242.027 28.9819" stroke="black" stroke-width="2" stroke-linecap="round" stroke-linejoin="round"/>
<path d="M215.111 47.1534C215.111 47.1534 223.418 35.0221 233.249 32.7107C240.102 31.1017 242.013 28.9819 242.013 28.9819" stroke="black" stroke-width="2" stroke-linecap="round" stroke-linejoin="round"/>
<path d="M199.769 43.2712C199.769 43.2712 205.751 22.1882 196.709 10.0696C190.41 1.62872 190.881 -2.52148 190.881 -2.52148" stroke="black" stroke-width="4" stroke-linecap="round" stroke-linejoin="round"/>
<path d="M181.992 43.2712C181.992 43.2712 176.011 22.1882 185.052 10.0696C191.352 1.62872 190.881 -2.52148 190.881 -2.52148" stroke="black" stroke-width="4" stroke-linecap="round" stroke-linejoin="round"/>
<path d="M195.975 39.8362C195.975 39.8362 199.395 25.8404 194.231 17.7954C190.617 12.1894 190.894 9.43115 190.894 9.43115" stroke="black" stroke-width="2" stroke-linecap="round" stroke-linejoin="round"/>
<path d="M185.786 39.8362C185.786 39.8362 182.366 25.8404 187.544 17.7954C191.158 12.1894 190.881 9.43115 190.881 9.43115" stroke="black" stroke-width="2" stroke-linecap="round" stroke-linejoin="round"/>
<path d="M171.968 47.1025C171.968 47.1025 160.033 28.2925 144.36 25.6236C133.436 23.7592 130.584 20.5156 130.584 20.5156" stroke="black" stroke-width="4" stroke-linecap="round" stroke-linejoin="round"/>
<path d="M159.383 58.6975C159.383 58.6975 138.988 47.6899 136.095 33.2217C134.073 23.1462 130.556 20.5156 130.556 20.5156" stroke="black" stroke-width="4" stroke-linecap="round" stroke-linejoin="round"/>
<path d="M166.651 47.1534C166.651 47.1534 158.344 35.0221 148.514 32.7107C141.66 31.1017 139.75 28.9819 139.75 28.9819" stroke="black" stroke-width="2" stroke-linecap="round" stroke-linejoin="round"/>
<path d="M159.438 53.7938C159.438 53.7938 146.285 46.1319 143.779 37.0653C142.034 30.7442 139.736 28.9819 139.736 28.9819" stroke="black" stroke-width="2" stroke-linecap="round" stroke-linejoin="round"/>
<path d="M155.228 67.9555C155.228 67.9555 132.369 62.4389 119.23 70.7776C110.078 76.5879 105.578 76.1537 105.578 76.1537" stroke="black" stroke-width="4" stroke-linecap="round" stroke-linejoin="round"/>
<path d="M155.228 84.3521C155.228 84.3521 132.369 89.8686 119.23 81.5299C110.078 75.7196 105.578 76.1538 105.578 76.1538" stroke="black" stroke-width="4" stroke-linecap="round" stroke-linejoin="round"/>
<path d="M151.518 71.4543C151.518 71.4543 136.343 68.3001 127.62 73.076C121.542 76.409 118.565 76.1536 118.565 76.1536" stroke="black" stroke-width="2" stroke-linecap="round" stroke-linejoin="round"/>
<path d="M151.518 80.8527C151.518 80.8527 136.343 84.0069 127.62 79.231C121.542 75.898 118.565 76.1534 118.565 76.1534" stroke="black" stroke-width="2" stroke-linecap="round" stroke-linejoin="round"/>
<path d="M159.383 93.5977C159.383 93.5977 138.988 104.605 136.095 119.073C134.073 129.149 130.556 131.78 130.556 131.78" stroke="black" stroke-width="4" stroke-linecap="round" stroke-linejoin="round"/>
<path d="M171.968 105.206C171.968 105.206 160.033 124.016 144.36 126.684C133.436 128.549 130.583 131.792 130.583 131.792" stroke="black" stroke-width="4" stroke-linecap="round" stroke-linejoin="round"/>
<path d="M159.438 98.5015C159.438 98.5015 146.285 106.163 143.779 115.23C142.034 121.551 139.736 123.313 139.736 123.313" stroke="black" stroke-width="2" stroke-linecap="round" stroke-linejoin="round"/>
<path d="M166.651 105.154C166.651 105.154 158.344 117.286 148.514 119.597C141.66 121.206 139.75 123.326 139.75 123.326" stroke="black" stroke-width="2" stroke-linecap="round" stroke-linejoin="round"/>
<path d="M181.992 109.036C181.992 109.036 176.011 130.119 185.052 142.238C191.352 150.679 190.881 154.829 190.881 154.829" stroke="black" stroke-width="4" stroke-linecap="round" stroke-linejoin="round"/>
<path d="M199.769 109.036C199.769 109.036 205.751 130.119 196.709 142.238C190.41 150.679 190.881 154.829 190.881 154.829" stroke="black" stroke-width="4" stroke-linecap="round" stroke-linejoin="round"/>
<path d="M185.786 112.471C185.786 112.471 182.366 126.467 187.544 134.512C191.158 140.118 190.881 142.876 190.881 142.876" stroke="black" stroke-width="2" stroke-linecap="round" stroke-linejoin="round"/>
<path d="M195.975 112.471C195.975 112.471 199.395 126.467 194.231 134.512C190.617 140.118 190.894 142.876 190.894 142.876" stroke="black" stroke-width="2" stroke-linecap="round" stroke-linejoin="round"/>
<path d="M256.689 94.4655C253.767 91.7583 249.018 91.7583 246.083 94.4655C243.162 97.1727 243.162 101.54 246.083 104.247C249.018 106.954 253.754 106.954 256.689 104.247C259.624 101.553 259.624 97.1727 256.689 94.4655Z" stroke="black" stroke-width="4" stroke-linecap="round" stroke-linejoin="round"/>
<path d="M251.456 46.1826C247.316 46.1826 243.965 49.2729 243.965 53.1039C243.965 56.9348 247.316 60.0251 251.456 60.0251C255.596 60.0251 258.96 56.9348 258.96 53.1039C258.96 49.2729 255.609 46.1826 251.456 46.1826Z" stroke="black" stroke-width="4" stroke-linecap="round" stroke-linejoin="round"/>
<path d="M210.735 15.4454C207.814 18.1527 207.814 22.52 210.735 25.2272C213.67 27.9344 218.405 27.9344 221.341 25.2272C224.276 22.5327 224.276 18.1527 221.341 15.4454C218.419 12.7382 213.67 12.7382 210.735 15.4454Z" stroke="black" stroke-width="4" stroke-linecap="round" stroke-linejoin="round"/>
<path d="M158.385 20.2728C158.385 24.091 161.736 27.1941 165.876 27.1941C170.016 27.1941 173.38 24.1038 173.38 20.2728C173.38 16.4419 170.03 13.3516 165.876 13.3516C161.722 13.3516 158.385 16.4419 158.385 20.2728Z" stroke="black" stroke-width="4" stroke-linecap="round" stroke-linejoin="round"/>
<path d="M125.073 57.8416C127.995 60.536 132.744 60.536 135.679 57.8416C138.601 55.1344 138.601 50.7671 135.679 48.0599C132.758 45.3655 128.009 45.3655 125.073 48.0599C122.152 50.7671 122.152 55.1344 125.073 57.8416Z" stroke="black" stroke-width="4" stroke-linecap="round" stroke-linejoin="round"/>
<path d="M130.307 106.124C134.447 106.124 137.811 103.034 137.811 99.203C137.811 95.372 134.461 92.2817 130.307 92.2817C126.153 92.2817 122.816 95.372 122.816 99.203C122.816 103.034 126.167 106.124 130.307 106.124Z" stroke="black" stroke-width="4" stroke-linecap="round" stroke-linejoin="round"/>
<path d="M171.026 136.849C173.948 134.154 173.948 129.774 171.026 127.067C168.105 124.36 163.356 124.36 160.421 127.067C157.499 129.774 157.499 134.142 160.421 136.849C163.342 139.556 168.091 139.556 171.026 136.849Z" stroke="black" stroke-width="4" stroke-linecap="round" stroke-linejoin="round"/>
<path d="M223.376 132.022C223.376 128.204 220.026 125.101 215.872 125.101C211.718 125.101 208.368 128.191 208.368 132.022C208.368 135.853 211.718 138.943 215.872 138.943C220.026 138.943 223.376 135.853 223.376 132.022Z" stroke="black" stroke-width="4" stroke-linecap="round" stroke-linejoin="round"/>
<path d="M-130.669 76.1533H512.431" stroke="black" stroke-width="0.25" stroke-linecap="round" stroke-linejoin="round"/>
<path d="M190.881 372.759V-220.465" stroke="black" stroke-width="0.25" stroke-linecap="round" stroke-linejoin="round"/>
<path d="M-129.451 102L511.212 50.2944" stroke="black" stroke-width="0.25" stroke-linecap="round" stroke-linejoin="round"/>
<path d="M218.904 371.635L162.857 -219.329" stroke="black" stroke-width="0.25" stroke-linecap="round" stroke-linejoin="round"/>
<path d="M-125.782 127.655L507.543 24.6401" stroke="black" stroke-width="0.25" stroke-linecap="round" stroke-linejoin="round"/>
<path d="M246.72 368.264L135.042 -215.957" stroke="black" stroke-width="0.25" stroke-linecap="round" stroke-linejoin="round"/>
<path d="M-119.717 152.926L501.479 -0.619141" stroke="black" stroke-width="0.25" stroke-linecap="round" stroke-linejoin="round"/>
<path d="M274.107 362.658L107.655 -210.351" stroke="black" stroke-width="0.25" stroke-linecap="round" stroke-linejoin="round"/>
<path d="M-111.286 177.597L493.033 -25.2905" stroke="black" stroke-width="0.25" stroke-linecap="round" stroke-linejoin="round"/>
<path d="M300.856 354.881L80.9053 -202.575" stroke="black" stroke-width="0.25" stroke-linecap="round" stroke-linejoin="round"/>
<path d="M-100.541 201.502L482.303 -49.2085" stroke="black" stroke-width="0.25" stroke-linecap="round" stroke-linejoin="round"/>
<path d="M326.775 344.972L54.9863 -192.678" stroke="black" stroke-width="0.25" stroke-linecap="round" stroke-linejoin="round"/>
<path d="M-87.5952 224.462L469.357 -72.1558" stroke="black" stroke-width="0.25" stroke-linecap="round" stroke-linejoin="round"/>
<path d="M351.656 333.019L30.1064 -180.725" stroke="black" stroke-width="0.25" stroke-linecap="round" stroke-linejoin="round"/>
<path d="M-72.5176 246.286L454.279 -93.9795" stroke="black" stroke-width="0.25" stroke-linecap="round" stroke-linejoin="round"/>
<path d="M375.318 319.125L6.4436 -166.819" stroke="black" stroke-width="0.25" stroke-linecap="round" stroke-linejoin="round"/>
<path d="M-55.4463 266.808L437.207 -114.513" stroke="black" stroke-width="0.25" stroke-linecap="round" stroke-linejoin="round"/>
<path d="M397.568 303.368L-15.8059 -151.073" stroke="black" stroke-width="0.25" stroke-linecap="round" stroke-linejoin="round"/>
<path d="M-36.4915 285.886L418.253 -133.591" stroke="black" stroke-width="0.25" stroke-linecap="round" stroke-linejoin="round"/>
<path d="M418.253 285.886L-36.4915 -133.591" stroke="black" stroke-width="0.25" stroke-linecap="round" stroke-linejoin="round"/>
<path d="M-15.8059 303.368L397.568 -151.073" stroke="black" stroke-width="0.25" stroke-linecap="round" stroke-linejoin="round"/>
<path d="M437.163 267.269L-55.4907 -114.052" stroke="black" stroke-width="0.25" stroke-linecap="round" stroke-linejoin="round"/>
<path d="M6.4436 319.125L375.318 -166.819" stroke="black" stroke-width="0.25" stroke-linecap="round" stroke-linejoin="round"/>
<path d="M454.279 246.286L-72.5176 -93.9795" stroke="black" stroke-width="0.25" stroke-linecap="round" stroke-linejoin="round"/>
<path d="M30.1064 333.019L351.656 -180.725" stroke="black" stroke-width="0.25" stroke-linecap="round" stroke-linejoin="round"/>
<path d="M469.357 224.462L-87.5952 -72.1558" stroke="black" stroke-width="0.25" stroke-linecap="round" stroke-linejoin="round"/>
<path d="M54.9863 344.972L326.775 -192.678" stroke="black" stroke-width="0.25" stroke-linecap="round" stroke-linejoin="round"/>
<path d="M482.303 201.502L-100.541 -49.2085" stroke="black" stroke-width="0.25" stroke-linecap="round" stroke-linejoin="round"/>
<path d="M80.905 354.881L300.856 -202.574" stroke="black" stroke-width="0.25" stroke-linecap="round" stroke-linejoin="round"/>
<path d="M493.443 177.541L-110.875 -25.3467" stroke="black" stroke-width="0.25" stroke-linecap="round" stroke-linejoin="round"/>
<path d="M107.655 362.658L274.107 -210.351" stroke="black" stroke-width="0.25" stroke-linecap="round" stroke-linejoin="round"/>
<path d="M501.479 152.926L-119.717 -0.619141" stroke="black" stroke-width="0.25" stroke-linecap="round" stroke-linejoin="round"/>
<path d="M135.042 368.264L246.72 -215.957" stroke="black" stroke-width="0.25" stroke-linecap="round" stroke-linejoin="round"/>
<path d="M507.543 127.655L-125.782 24.6401" stroke="black" stroke-width="0.25" stroke-linecap="round" stroke-linejoin="round"/>
<path d="M162.857 371.635L218.904 -219.329" stroke="black" stroke-width="0.25" stroke-linecap="round" stroke-linejoin="round"/>
<path d="M511.212 102L-129.451 50.2944" stroke="black" stroke-width="0.25" stroke-linecap="round" stroke-linejoin="round"/>
<path d="M181.964 15.9309C181.964 15.9309 179.693 -5.40756 150.313 -13.7974" stroke="black" stroke-width="4" stroke-linecap="round" stroke-linejoin="round"/>
<path d="M151.269 27.8579C151.269 27.8579 136.274 11.4742 150.244 -13.7974" stroke="black" stroke-width="4" stroke-linecap="round" stroke-linejoin="round"/>
<path d="M176.26 14.0666C176.26 14.0666 174.585 -1.67869 152.902 -7.87207" stroke="black" stroke-width="2" stroke-linecap="round" stroke-linejoin="round"/>
<path d="M153.608 22.865C153.608 22.865 142.546 10.7847 152.847 -7.87207" stroke="black" stroke-width="2" stroke-linecap="round" stroke-linejoin="round"/>
<path d="M154.592 -4.0542C154.592 -4.0542 150.895 6.41709 161.293 10.4907C161.293 10.4907 165.239 -0.28709 154.592 -4.0542Z" fill="black"/>
<path d="M138.407 39.3763C138.407 39.3763 120.449 25.7764 93.2285 38.9932" stroke="black" stroke-width="4" stroke-linecap="round" stroke-linejoin="round"/>
<path d="M125.848 67.8399C125.848 67.8399 102.698 66.0393 93.186 39.0566" stroke="black" stroke-width="4" stroke-linecap="round" stroke-linejoin="round"/>
<path d="M132.951 41.7895C132.951 41.7895 119.7 31.7524 99.6243 41.5086" stroke="black" stroke-width="2" stroke-linecap="round" stroke-linejoin="round"/>
<path d="M123.674 62.7832C123.674 62.7832 106.589 61.4551 99.583 41.5469" stroke="black" stroke-width="2" stroke-linecap="round" stroke-linejoin="round"/>
<path d="M103.736 43.105C103.736 43.105 109.15 52.925 119.617 49.0175C119.617 49.0175 114.134 38.8271 103.736 43.105Z" fill="black"/>
<path d="M125.584 84.3774C125.584 84.3774 102.462 86.4717 93.3518 113.569" stroke="black" stroke-width="4" stroke-linecap="round" stroke-linejoin="round"/>
<path d="M138.516 112.701C138.516 112.701 120.766 126.531 93.3521 113.646" stroke="black" stroke-width="4" stroke-linecap="round" stroke-linejoin="round"/>
<path d="M123.577 89.6387C123.577 89.6387 106.52 91.1838 99.7908 111.181" stroke="black" stroke-width="2" stroke-linecap="round" stroke-linejoin="round"/>
<path d="M133.117 110.53C133.117 110.53 120.019 120.733 99.791 111.233" stroke="black" stroke-width="2" stroke-linecap="round" stroke-linejoin="round"/>
<path d="M103.93 109.623C103.93 109.623 115.283 113.033 119.7 103.443C119.7 103.443 108.014 99.8033 103.93 109.623Z" fill="black"/>
<path d="M151.019 124.551C151.019 124.551 136.273 141.114 150.604 166.219" stroke="black" stroke-width="4" stroke-linecap="round" stroke-linejoin="round"/>
<path d="M181.867 136.146C181.867 136.146 179.915 157.51 150.659 166.271" stroke="black" stroke-width="4" stroke-linecap="round" stroke-linejoin="round"/>
<path d="M153.622 129.583C153.622 129.583 142.74 141.803 153.318 160.332" stroke="black" stroke-width="2" stroke-linecap="round" stroke-linejoin="round"/>
<path d="M176.385 138.139C176.385 138.139 174.945 153.897 153.359 160.371" stroke="black" stroke-width="2" stroke-linecap="round" stroke-linejoin="round"/>
<path d="M155.062 156.54C155.062 156.54 165.695 151.547 161.473 141.88C161.473 141.88 150.424 146.937 155.062 156.54Z" fill="black"/>
<path d="M199.797 136.376C199.797 136.376 202.068 157.714 231.448 166.104" stroke="black" stroke-width="4" stroke-linecap="round" stroke-linejoin="round"/>
<path d="M230.492 124.449C230.492 124.449 245.487 140.833 231.517 166.104" stroke="black" stroke-width="4" stroke-linecap="round" stroke-linejoin="round"/>
<path d="M205.501 138.24C205.501 138.24 207.177 153.985 228.859 160.179" stroke="black" stroke-width="2" stroke-linecap="round" stroke-linejoin="round"/>
<path d="M228.153 129.429C228.153 129.429 239.215 141.509 228.914 160.166" stroke="black" stroke-width="2" stroke-linecap="round" stroke-linejoin="round"/>
<path d="M227.17 156.361C227.17 156.361 230.867 145.89 220.468 141.816C220.468 141.816 216.522 152.594 227.17 156.361Z" fill="black"/>
<path d="M243.355 112.918C243.355 112.918 261.313 126.518 288.52 113.301" stroke="black" stroke-width="4" stroke-linecap="round" stroke-linejoin="round"/>
<path d="M255.914 84.4668C255.914 84.4668 279.063 86.2673 288.575 113.25" stroke="black" stroke-width="4" stroke-linecap="round" stroke-linejoin="round"/>
<path d="M248.811 110.517C248.811 110.517 262.061 120.554 282.137 110.798" stroke="black" stroke-width="2" stroke-linecap="round" stroke-linejoin="round"/>
<path d="M258.073 89.5234C258.073 89.5234 275.159 90.8515 282.179 110.76" stroke="black" stroke-width="2" stroke-linecap="round" stroke-linejoin="round"/>
<path d="M278.025 109.189C278.025 109.189 272.611 99.3692 262.144 103.277C262.144 103.277 267.627 113.467 278.025 109.189Z" fill="black"/>
<path d="M256.163 67.9297C256.163 67.9297 279.285 65.8354 288.395 38.7378" stroke="black" stroke-width="4" stroke-linecap="round" stroke-linejoin="round"/>
<path d="M243.231 39.6063C243.231 39.6063 260.981 25.7766 288.395 38.6614" stroke="black" stroke-width="4" stroke-linecap="round" stroke-linejoin="round"/>
<path d="M258.184 62.6687C258.184 62.6687 275.255 61.1236 281.97 41.126" stroke="black" stroke-width="2" stroke-linecap="round" stroke-linejoin="round"/>
<path d="M248.644 41.7644C248.644 41.7644 261.742 31.5613 281.97 41.062" stroke="black" stroke-width="2" stroke-linecap="round" stroke-linejoin="round"/>
<path d="M277.831 42.6708C277.831 42.6708 266.478 39.2613 262.061 48.8514C262.061 48.8514 273.747 52.4909 277.831 42.6708Z" fill="black"/>
<path d="M230.742 27.7554C230.742 27.7554 245.488 11.1929 231.158 -13.9126" stroke="black" stroke-width="4" stroke-linecap="round" stroke-linejoin="round"/>
<path d="M199.895 16.1607C199.895 16.1607 201.847 -5.20325 231.102 -13.9634" stroke="black" stroke-width="4" stroke-linecap="round" stroke-linejoin="round"/>
<path d="M228.139 22.7117C228.139 22.7117 239.022 10.491 228.444 -8.03809" stroke="black" stroke-width="2" stroke-linecap="round" stroke-linejoin="round"/>
<path d="M205.377 14.1683C205.377 14.1683 206.817 -1.58965 228.402 -8.06396" stroke="black" stroke-width="2" stroke-linecap="round" stroke-linejoin="round"/>
<path d="M226.699 -4.23291C226.699 -4.23291 216.065 0.760102 220.288 10.4269C220.288 10.4269 231.337 5.37003 226.699 -4.23291Z" fill="black"/>
<path d="M4.17279 21.7921C4.17279 21.7921 -18.8801 19.1487 -27.229 -8.16602" stroke="black" stroke-width="4" stroke-linecap="round" stroke-linejoin="round"/>
<path d="M2.22079 16.6715C2.22079 16.6715 -14.7954 14.7177 -20.9429 -5.43311" stroke="black" stroke-width="2" stroke-linecap="round" stroke-linejoin="round"/>
<path d="M0.739035 37.9081C0.739035 37.9081 -20.0294 28.2924 -43.4146 46.7193" stroke="black" stroke-width="4" stroke-linecap="round" stroke-linejoin="round"/>
<path d="M-0.270987 115.191C-0.270987 115.191 -21.6763 123.53 -43.7046 103.724" stroke="black" stroke-width="4" stroke-linecap="round" stroke-linejoin="round"/>
<path d="M5.48847 130.732C5.48847 130.732 -17.7029 131.983 -27.9763 158.723" stroke="black" stroke-width="4" stroke-linecap="round" stroke-linejoin="round"/>
<path d="M17.1882 159.503C17.1882 159.503 -1.14333 172.668 -27.9761 158.8" stroke="black" stroke-width="4" stroke-linecap="round" stroke-linejoin="round"/>
<path d="M3.24577 135.917C3.24577 135.917 -13.8674 136.836 -21.4409 156.578" stroke="black" stroke-width="2" stroke-linecap="round" stroke-linejoin="round"/>
<path d="M11.8854 157.14C11.8854 157.14 -1.64173 166.858 -21.4409 156.617" stroke="black" stroke-width="2" stroke-linecap="round" stroke-linejoin="round"/>
<path d="M363.812 158.481C363.812 158.481 381.175 172.732 408.935 160.511" stroke="black" stroke-width="4" stroke-linecap="round" stroke-linejoin="round"/>
<path d="M377.589 130.502C377.589 130.502 400.655 133.145 408.99 160.46" stroke="black" stroke-width="4" stroke-linecap="round" stroke-linejoin="round"/>
<path d="M369.364 156.284C369.364 156.284 382.171 166.794 402.663 157.778" stroke="black" stroke-width="2" stroke-linecap="round" stroke-linejoin="round"/>
<path d="M379.527 135.635C379.527 135.635 396.543 137.589 402.691 157.74" stroke="black" stroke-width="2" stroke-linecap="round" stroke-linejoin="round"/>
<path d="M381.021 114.386C381.021 114.386 401.789 124.002 425.174 105.575" stroke="black" stroke-width="4" stroke-linecap="round" stroke-linejoin="round"/>
<path d="M382.032 37.1033C382.032 37.1033 403.437 28.7646 425.466 48.5706" stroke="black" stroke-width="4" stroke-linecap="round" stroke-linejoin="round"/>
<path d="M376.272 21.575C376.272 21.575 399.464 20.3236 409.737 -6.4165" stroke="black" stroke-width="4" stroke-linecap="round" stroke-linejoin="round"/>
<path d="M378.516 16.3906C378.516 16.3906 395.629 15.4712 403.203 -4.271" stroke="black" stroke-width="2" stroke-linecap="round" stroke-linejoin="round"/>
<path d="M173.989 152.198C173.989 152.198 188.126 167.803 190.881 201.451" stroke="black" stroke-width="4" stroke-linecap="round" stroke-linejoin="round"/>
<path d="M207.509 152.198C207.509 152.198 193.373 167.803 190.617 201.451" stroke="black" stroke-width="4" stroke-linecap="round" stroke-linejoin="round"/>
<path d="M237.235 140.935C237.235 140.935 259.194 142.748 286.927 164.751" stroke="black" stroke-width="4" stroke-linecap="round" stroke-linejoin="round"/>
<path d="M260.939 119.073C260.939 119.073 262.905 139.339 286.747 164.917" stroke="black" stroke-width="4" stroke-linecap="round" stroke-linejoin="round"/>
<path d="M273.317 91.7331C273.317 91.7331 290.237 78.6822 326.706 76.1538" stroke="black" stroke-width="4" stroke-linecap="round" stroke-linejoin="round"/>
<path d="M273.317 60.8042C273.317 60.8042 290.236 73.855 326.706 76.3834" stroke="black" stroke-width="4" stroke-linecap="round" stroke-linejoin="round"/>
<path d="M261.119 33.3873C261.119 33.3873 263.085 13.1215 286.927 -12.4565" stroke="black" stroke-width="4" stroke-linecap="round" stroke-linejoin="round"/>
<path d="M237.415 11.5253C237.415 11.5253 259.374 9.71195 287.107 -12.2905" stroke="black" stroke-width="4" stroke-linecap="round" stroke-linejoin="round"/>
<path d="M207.772 0.0961191C207.772 0.0961191 193.636 -15.5087 190.88 -49.1572" stroke="black" stroke-width="4" stroke-linecap="round" stroke-linejoin="round"/>
<path d="M174.252 0.0961191C174.252 0.0961191 188.389 -15.5087 191.144 -49.1572" stroke="black" stroke-width="4" stroke-linecap="round" stroke-linejoin="round"/>
<path d="M144.525 11.3592C144.525 11.3592 122.566 9.54593 94.8335 -12.4565" stroke="black" stroke-width="4" stroke-linecap="round" stroke-linejoin="round"/>
<path d="M120.822 33.2213C120.822 33.2213 118.856 12.9555 95.0134 -12.6226" stroke="black" stroke-width="4" stroke-linecap="round" stroke-linejoin="round"/>
<path d="M108.43 60.5742C108.43 60.5742 91.5103 73.625 55.041 76.1534" stroke="black" stroke-width="4" stroke-linecap="round" stroke-linejoin="round"/>
<path d="M108.43 91.4899C108.43 91.4899 91.5103 78.4391 55.041 75.9106" stroke="black" stroke-width="4" stroke-linecap="round" stroke-linejoin="round"/>
<path d="M120.642 118.907C120.642 118.907 118.676 139.173 94.8335 164.751" stroke="black" stroke-width="4" stroke-linecap="round" stroke-linejoin="round"/>
<path d="M144.346 140.769C144.346 140.769 122.387 142.582 94.6538 164.585" stroke="black" stroke-width="4" stroke-linecap="round" stroke-linejoin="round"/>
<path d="M66.7964 76.1538C66.7964 76.1538 67.3917 49.1839 95.2214 44.0376" stroke="black" stroke-width="4" stroke-linecap="round" stroke-linejoin="round"/>
<path d="M103.141 157.089C103.141 157.089 82.8853 137.628 98.6139 115.842" stroke="black" stroke-width="4" stroke-linecap="round" stroke-linejoin="round"/>
<path d="M278.621 157.089C278.621 157.089 257.52 175.771 233.899 161.265" stroke="black" stroke-width="4" stroke-linecap="round" stroke-linejoin="round"/>
<path d="M314.965 76.1538C314.965 76.1538 314.369 103.124 286.54 108.27" stroke="black" stroke-width="4" stroke-linecap="round" stroke-linejoin="round"/>
<path d="M278.621 -4.78174C278.621 -4.78174 298.877 14.6795 283.148 36.4649" stroke="black" stroke-width="4" stroke-linecap="round" stroke-linejoin="round"/>
<path d="M66.7964 76.1538C66.7964 76.1538 67.3917 49.1839 95.2214 44.0376" stroke="black" stroke-width="4" stroke-linecap="round" stroke-linejoin="round"/>
<path d="M103.141 157.089C103.141 157.089 82.8853 137.628 98.6139 115.842" stroke="black" stroke-width="4" stroke-linecap="round" stroke-linejoin="round"/>
<path d="M278.621 157.089C278.621 157.089 257.52 175.771 233.899 161.265" stroke="black" stroke-width="4" stroke-linecap="round" stroke-linejoin="round"/>
<path d="M314.965 76.1538C314.965 76.1538 314.369 103.124 286.54 108.27" stroke="black" stroke-width="4" stroke-linecap="round" stroke-linejoin="round"/>
<path d="M278.621 -4.78174C278.621 -4.78174 298.877 14.6795 283.148 36.4649" stroke="black" stroke-width="4" stroke-linecap="round" stroke-linejoin="round"/>
<path d="M314.965 76.1538C314.965 76.1538 314.369 49.1839 286.54 44.0376" stroke="black" stroke-width="4" stroke-linecap="round" stroke-linejoin="round"/>
<path d="M278.621 157.089C278.621 157.089 298.877 137.628 283.148 115.842" stroke="black" stroke-width="4" stroke-linecap="round" stroke-linejoin="round"/>
<path d="M103.141 157.089C103.141 157.089 124.242 175.771 147.862 161.265" stroke="black" stroke-width="4" stroke-linecap="round" stroke-linejoin="round"/>
<path d="M66.7964 76.1538C66.7964 76.1538 67.3917 103.124 95.2214 108.27" stroke="black" stroke-width="4" stroke-linecap="round" stroke-linejoin="round"/>
<path d="M103.141 -4.78174C103.141 -4.78174 82.8853 14.6795 98.6139 36.4649" stroke="black" stroke-width="4" stroke-linecap="round" stroke-linejoin="round"/>
<path d="M289.461 130.247C289.461 130.247 307.419 143.847 334.64 130.63" stroke="black" stroke-width="4" stroke-linecap="round" stroke-linejoin="round"/>
<path d="M302.033 101.783C302.033 101.783 325.183 103.583 334.695 130.566" stroke="black" stroke-width="4" stroke-linecap="round" stroke-linejoin="round"/>
<path d="M294.931 127.846C294.931 127.846 308.181 137.883 328.257 128.127" stroke="black" stroke-width="2" stroke-linecap="round" stroke-linejoin="round"/>
<path d="M304.193 106.839C304.193 106.839 321.278 108.167 328.298 128.076" stroke="black" stroke-width="2" stroke-linecap="round" stroke-linejoin="round"/>
<path d="M317.056 121.014C315.768 119.827 313.691 119.827 312.404 121.014C311.116 122.202 311.116 124.13 312.404 125.305C313.691 126.48 315.768 126.492 317.056 125.305C318.343 124.117 318.343 122.202 317.056 121.014Z" fill="black"/>
<path d="M305.481 110.3C304.193 109.112 302.116 109.112 300.829 110.3C299.541 111.487 299.541 113.403 300.829 114.591C302.116 115.778 304.193 115.778 305.481 114.591C306.768 113.403 306.768 111.475 305.481 110.3Z" fill="black"/>
<path d="M300.842 119.609C299.555 118.422 297.478 118.422 296.19 119.609C294.903 120.797 294.903 122.725 296.19 123.9C297.478 125.075 299.555 125.088 300.842 123.9C302.13 122.713 302.13 120.797 300.842 119.609Z" fill="black"/>
<path d="M302.061 50.103C302.061 50.103 325.183 48.0088 334.294 20.9111" stroke="black" stroke-width="4" stroke-linecap="round" stroke-linejoin="round"/>
<path d="M289.129 21.7797C289.129 21.7797 306.879 7.94992 334.293 20.8347" stroke="black" stroke-width="4" stroke-linecap="round" stroke-linejoin="round"/>
<path d="M304.082 44.8421C304.082 44.8421 321.154 43.2969 327.869 23.2993" stroke="black" stroke-width="2" stroke-linecap="round" stroke-linejoin="round"/>
<path d="M294.528 23.9377C294.528 23.9377 307.626 13.7346 327.855 23.2354" stroke="black" stroke-width="2" stroke-linecap="round" stroke-linejoin="round"/>
<path d="M314.501 31.6551C316.321 31.6516 317.794 30.288 317.79 28.6095C317.786 26.931 316.308 25.5731 314.488 25.5766C312.668 25.5802 311.195 26.9437 311.199 28.6222C311.203 30.3007 312.682 31.6586 314.501 31.6551Z" fill="black"/>
<path d="M298.101 25.5596C296.287 25.5596 294.806 26.9132 294.806 28.5988C294.806 30.2844 296.287 31.638 298.101 31.638C299.915 31.638 301.396 30.2844 301.396 28.5988C301.396 26.9132 299.915 25.5596 298.101 25.5596Z" fill="black"/>
<path d="M301.95 35.1499C300.136 35.1499 298.654 36.5035 298.654 38.1891C298.654 39.8748 300.136 41.2284 301.95 41.2284C303.763 41.2284 305.245 39.8748 305.245 38.1891C305.245 36.5035 303.763 35.1499 301.95 35.1499Z" fill="black"/>
<path d="M42.9408 14.4368C42.9408 14.4368 20.1924 10.0312 14.3496 -17.8198" stroke="black" stroke-width="4" stroke-linecap="round" stroke-linejoin="round"/>
<path d="M41.4581 9.17558C41.4581 9.17558 24.6772 5.93203 20.3574 -14.6274" stroke="black" stroke-width="2" stroke-linecap="round" stroke-linejoin="round"/>
<path d="M40.6424 5.59969C41.7639 6.92776 43.8269 7.15762 45.2669 6.12326C46.7068 5.0889 46.956 3.18618 45.8345 1.85811C44.713 0.530048 42.6501 0.300205 41.2101 1.33456C39.7702 2.36892 39.5209 4.27163 40.6424 5.59969Z" fill="black"/>
<path d="M38.8283 22.0735C38.8283 22.0735 19.0014 10.8998 -5.96216 27.4751" stroke="black" stroke-width="4" stroke-linecap="round" stroke-linejoin="round"/>
<path d="M30.6598 51.8656C30.6598 51.8656 7.45466 53.0405 -6.01709 27.5391" stroke="black" stroke-width="4" stroke-linecap="round" stroke-linejoin="round"/>
<path d="M33.7889 25.1507C33.7889 25.1507 19.1541 16.9014 0.739502 29.1349" stroke="black" stroke-width="2" stroke-linecap="round" stroke-linejoin="round"/>
<path d="M27.752 47.1278C27.752 47.1278 10.6389 47.9961 0.697754 29.1733" stroke="black" stroke-width="2" stroke-linecap="round" stroke-linejoin="round"/>
<path d="M12.8962 34.7413C14.35 35.7501 16.4129 35.482 17.5067 34.1411C18.6005 32.8003 18.3098 30.8976 16.856 29.8888C15.4022 28.88 13.3392 29.1481 12.2454 30.489C11.1516 31.8298 11.4424 33.7325 12.8962 34.7413Z" fill="black"/>
<path d="M25.966 43.8717C27.4198 44.8805 29.4828 44.6124 30.5766 43.2715C31.6704 41.9307 31.3796 40.028 29.9258 39.0192C28.472 38.0103 26.4091 38.2785 25.3153 39.6193C24.2215 40.9602 24.5122 42.8629 25.966 43.8717Z" fill="black"/>
<path d="M29.1642 34.0646C30.618 35.0734 32.681 34.8052 33.7748 33.4644C34.8686 32.1236 34.5779 30.2208 33.1241 29.212C31.6703 28.2032 29.6073 28.4714 28.5135 29.8122C27.4197 31.153 27.7105 33.0558 29.1642 34.0646Z" fill="black"/>
<path d="M28.8318 60.2168C28.8318 60.2168 6.54045 54.1639 -12.9126 76.1281" stroke="black" stroke-width="4" stroke-linecap="round" stroke-linejoin="round"/>
<path d="M29.3026 90.9411C29.3026 90.9411 7.21892 97.6197 -12.9541 76.1919" stroke="black" stroke-width="4" stroke-linecap="round" stroke-linejoin="round"/>
<path d="M24.8308 64.3924C24.8308 64.3924 8.38229 59.923 -5.97559 76.1407" stroke="black" stroke-width="2" stroke-linecap="round" stroke-linejoin="round"/>
<path d="M25.1768 87.0592C25.1768 87.0592 8.88059 91.9883 -6.00342 76.1792" stroke="black" stroke-width="2" stroke-linecap="round" stroke-linejoin="round"/>
<path d="M7.34367 78.6562C9.03284 79.282 10.9435 78.5286 11.6358 76.9834C12.3142 75.4255 11.4974 73.6632 9.82205 73.0247C8.13288 72.399 6.22218 73.1397 5.5299 74.6976C4.85147 76.2555 5.66836 78.0178 7.34367 78.6562Z" fill="black"/>
<path d="M22.5321 84.3391C24.2213 84.9649 26.132 84.2115 26.8243 82.6663C27.5027 81.1084 26.6858 79.3461 25.0105 78.7076C23.3214 78.0819 21.4107 78.8353 20.7184 80.3805C20.0399 81.9384 20.8568 83.7007 22.5321 84.3391Z" fill="black"/>
<path d="M22.8647 74.1101C24.5538 74.7359 26.4645 73.9824 27.1568 72.4373C27.8352 70.8794 27.0183 69.1171 25.343 68.4786C23.6539 67.8529 21.7432 68.6063 21.0509 70.1515C20.3725 71.7094 21.1894 73.4716 22.8647 74.1101Z" fill="black"/>
<path d="M29.8845 99.4457C29.8845 99.4457 6.65159 98.9093 -5.97559 124.781" stroke="black" stroke-width="4" stroke-linecap="round" stroke-linejoin="round"/>
<path d="M38.9672 129.008C38.9672 129.008 19.5141 140.73 -5.97559 124.857" stroke="black" stroke-width="4" stroke-linecap="round" stroke-linejoin="round"/>
<path d="M27.1845 104.439C27.1845 104.439 10.0437 104.043 0.725586 123.134" stroke="black" stroke-width="2" stroke-linecap="round" stroke-linejoin="round"/>
<path d="M33.8858 126.25C33.8858 126.25 19.5279 134.895 0.725586 123.185" stroke="black" stroke-width="2" stroke-linecap="round" stroke-linejoin="round"/>
<path d="M14.2942 122.38C16.0941 122.585 17.7417 121.397 17.9632 119.737C18.1848 118.077 16.8971 116.557 15.0972 116.353C13.2973 116.149 11.6496 117.336 11.4281 118.996C11.2066 120.656 12.4942 122.176 14.2942 122.38Z" fill="black"/>
<path d="M30.5622 124.245C32.3622 124.449 34.0098 123.261 34.2313 121.601C34.4528 119.941 33.1652 118.422 31.3653 118.217C29.5654 118.013 27.9177 119.2 27.6962 120.861C27.4747 122.521 28.7623 124.04 30.5622 124.245Z" fill="black"/>
<path d="M28.0154 114.284C29.8153 114.488 31.4629 113.301 31.6844 111.641C31.906 109.981 30.6183 108.461 28.8184 108.257C27.0185 108.052 25.3708 109.24 25.1493 110.9C24.9278 112.56 26.2154 114.08 28.0154 114.284Z" fill="black"/>
<path d="M41.9022 137.091C41.9022 137.091 19.3201 142.123 14.3772 170.127" stroke="black" stroke-width="4" stroke-linecap="round" stroke-linejoin="round"/>
<path d="M40.6965 142.557C40.6965 142.557 24.0264 146.273 20.385 166.934" stroke="black" stroke-width="2" stroke-linecap="round" stroke-linejoin="round"/>
<path d="M33.2898 162.963C35.0897 162.733 36.3497 161.2 36.0866 159.528C35.8374 157.867 34.1759 156.705 32.376 156.935C30.5761 157.165 29.3161 158.697 29.5792 160.37C29.8284 162.03 31.4899 163.192 33.2898 162.963Z" fill="black"/>
<path d="M49.5171 160.882C51.3171 160.652 52.577 159.119 52.3139 157.446C52.0647 155.786 50.4032 154.624 48.6033 154.854C46.8034 155.084 45.5434 156.616 45.7927 158.289C46.0419 159.949 47.7034 161.111 49.5171 160.882Z" fill="black"/>
<path d="M44.2696 151.879C46.0695 151.649 47.3294 150.116 47.0664 148.444C46.8171 146.783 45.1557 145.621 43.3558 145.851C41.5558 146.081 40.2959 147.614 40.5451 149.286C40.7943 150.946 42.4558 152.108 44.2696 151.879Z" fill="black"/>
<path d="M338.821 137.87C338.821 137.87 361.555 142.276 367.412 170.127" stroke="black" stroke-width="4" stroke-linecap="round" stroke-linejoin="round"/>
<path d="M340.303 143.131C340.303 143.131 357.084 146.375 361.403 166.934" stroke="black" stroke-width="2" stroke-linecap="round" stroke-linejoin="round"/>
<path d="M351.185 158.634C350.064 157.306 348.001 157.076 346.561 158.11C345.121 159.145 344.872 161.047 345.993 162.376C347.115 163.704 349.178 163.933 350.617 162.899C352.057 161.865 352.307 159.962 351.185 158.634Z" fill="black"/>
<path d="M341.107 146.707C339.985 145.379 337.922 145.149 336.482 146.183C335.042 147.218 334.793 149.12 335.914 150.448C337.036 151.776 339.099 152.006 340.539 150.972C341.979 149.938 342.228 148.035 341.107 146.707Z" fill="black"/>
<path d="M335.277 155.416C334.155 154.088 332.092 153.858 330.652 154.893C329.213 155.927 328.963 157.83 330.085 159.158C331.206 160.486 333.269 160.716 334.709 159.681C336.149 158.647 336.398 156.744 335.277 155.416Z" fill="black"/>
<path d="M342.933 130.234C342.933 130.234 362.76 141.408 387.723 124.833" stroke="black" stroke-width="4" stroke-linecap="round" stroke-linejoin="round"/>
<path d="M351.102 100.442C351.102 100.442 374.307 99.2672 387.779 124.769" stroke="black" stroke-width="4" stroke-linecap="round" stroke-linejoin="round"/>
<path d="M347.973 127.157C347.973 127.157 362.608 135.406 381.023 123.172" stroke="black" stroke-width="2" stroke-linecap="round" stroke-linejoin="round"/>
<path d="M353.996 105.167C353.996 105.167 371.109 104.298 381.05 123.121" stroke="black" stroke-width="2" stroke-linecap="round" stroke-linejoin="round"/>
<path d="M368.865 117.553C367.412 116.545 365.349 116.813 364.255 118.154C363.161 119.494 363.452 121.397 364.905 122.406C366.359 123.415 368.422 123.147 369.516 121.806C370.61 120.465 370.319 118.562 368.865 117.553Z" fill="black"/>
<path d="M355.781 108.436C354.327 107.427 352.265 107.695 351.171 109.036C350.077 110.377 350.368 112.279 351.821 113.288C353.275 114.297 355.338 114.029 356.432 112.688C357.526 111.347 357.235 109.444 355.781 108.436Z" fill="black"/>
<path d="M352.597 118.243C351.143 117.234 349.08 117.503 347.987 118.843C346.893 120.184 347.184 122.087 348.637 123.096C350.091 124.105 352.154 123.836 353.248 122.496C354.342 121.155 354.051 119.252 352.597 118.243Z" fill="black"/>
<path d="M352.929 92.0905C352.929 92.0905 375.221 98.1434 394.674 76.1792" stroke="black" stroke-width="4" stroke-linecap="round" stroke-linejoin="round"/>
<path d="M352.458 61.3661C352.458 61.3661 374.542 54.6875 394.715 76.1153" stroke="black" stroke-width="4" stroke-linecap="round" stroke-linejoin="round"/>
<path d="M356.931 87.9148C356.931 87.9148 373.38 92.3842 387.738 76.1665" stroke="black" stroke-width="2" stroke-linecap="round" stroke-linejoin="round"/>
<path d="M356.584 65.2354C356.584 65.2354 372.881 60.3063 387.765 76.1154" stroke="black" stroke-width="2" stroke-linecap="round" stroke-linejoin="round"/>
<path d="M374.418 73.6505C372.729 73.0248 370.818 73.7782 370.126 75.3234C369.448 76.8813 370.265 78.6435 371.94 79.282C373.629 79.9077 375.54 79.1543 376.232 77.6091C376.91 76.0512 376.107 74.289 374.418 73.6505Z" fill="black"/>
<path d="M359.229 67.9679C357.54 67.3422 355.629 68.0956 354.937 69.6407C354.259 71.1987 355.076 72.9609 356.751 73.5994C358.44 74.2251 360.351 73.4717 361.043 71.9266C361.721 70.3686 360.918 68.6064 359.229 67.9679Z" fill="black"/>
<path d="M358.897 78.1969C357.208 77.5712 355.297 78.3246 354.605 79.8697C353.926 81.4277 354.743 83.1899 356.418 83.8284C358.108 84.4541 360.018 83.7007 360.711 82.1556C361.389 80.5976 360.586 78.8354 358.897 78.1969Z" fill="black"/>
<path d="M351.877 52.8618C351.877 52.8618 375.11 53.3981 387.737 27.5264" stroke="black" stroke-width="4" stroke-linecap="round" stroke-linejoin="round"/>
<path d="M342.794 23.2866C342.794 23.2866 362.247 11.5639 387.737 27.4496" stroke="black" stroke-width="4" stroke-linecap="round" stroke-linejoin="round"/>
<path d="M354.577 47.8684C354.577 47.8684 371.717 48.2643 381.036 29.1733" stroke="black" stroke-width="2" stroke-linecap="round" stroke-linejoin="round"/>
<path d="M347.875 26.0448C347.875 26.0448 362.233 17.3996 381.035 29.1096" stroke="black" stroke-width="2" stroke-linecap="round" stroke-linejoin="round"/>
<path d="M367.467 29.914C365.667 29.7097 364.019 30.8973 363.798 32.5574C363.576 34.2174 364.864 35.737 366.664 35.9414C368.464 36.1457 370.111 34.9581 370.333 33.298C370.554 31.6379 369.267 30.1183 367.467 29.914Z" fill="black"/>
<path d="M351.199 28.0497C349.399 27.8454 347.751 29.033 347.53 30.6931C347.308 32.3532 348.596 33.8728 350.396 34.0771C352.196 34.2814 353.843 33.0938 354.065 31.4337C354.286 29.7736 352.999 28.254 351.199 28.0497Z" fill="black"/>
<path d="M353.746 38.0102C351.946 37.8059 350.299 38.9934 350.077 40.6535C349.856 42.3136 351.143 43.8332 352.943 44.0375C354.743 44.2419 356.391 43.0543 356.612 41.3942C356.834 39.7341 355.546 38.2145 353.746 38.0102Z" fill="black"/>
<path d="M339.859 15.2158C339.859 15.2158 362.442 10.1845 367.384 -17.8198" stroke="black" stroke-width="4" stroke-linecap="round" stroke-linejoin="round"/>
<path d="M341.064 9.75021C341.064 9.75021 357.735 6.03419 361.376 -14.6274" stroke="black" stroke-width="2" stroke-linecap="round" stroke-linejoin="round"/>
<path d="M337.492 0.427919C335.692 0.657776 334.432 2.19016 334.681 3.86301C334.93 5.5231 336.592 6.68515 338.405 6.45529C340.205 6.22544 341.465 4.69305 341.216 3.0202C340.967 1.36012 339.305 0.198061 337.492 0.427919Z" fill="black"/>
<path d="M92.287 22.0604C92.287 22.0604 74.3293 8.46051 47.1089 21.6773" stroke="black" stroke-width="4" stroke-linecap="round" stroke-linejoin="round"/>
<path d="M79.7286 50.5113C79.7286 50.5113 56.5788 48.7107 47.0669 21.728" stroke="black" stroke-width="4" stroke-linecap="round" stroke-linejoin="round"/>
<path d="M86.8315 24.4609C86.8315 24.4609 73.5812 14.4238 53.5051 24.1799" stroke="black" stroke-width="2" stroke-linecap="round" stroke-linejoin="round"/>
<path d="M77.5549 45.4545C77.5549 45.4545 60.4694 44.1265 53.4497 24.2183" stroke="black" stroke-width="2" stroke-linecap="round" stroke-linejoin="round"/>
<path d="M64.706 31.2927C65.9936 32.4803 68.0704 32.4803 69.3581 31.2927C70.6457 30.1051 70.6457 28.1896 69.3581 27.002C68.0704 25.8144 65.9936 25.8144 64.706 27.002C63.4183 28.1896 63.4183 30.1179 64.706 31.2927Z" fill="black"/>
<path d="M76.2807 41.9939C77.5683 43.1815 79.6452 43.1815 80.9328 41.9939C82.2204 40.8063 82.2204 38.8908 80.9328 37.7032C79.6452 36.5156 77.5683 36.5156 76.2807 37.7032C74.993 38.8908 74.993 40.8063 76.2807 41.9939Z" fill="black"/>
<path d="M80.9193 32.6975C82.207 33.8851 84.2838 33.8851 85.5715 32.6975C86.8591 31.5099 86.8591 29.5944 85.5715 28.4068C84.2838 27.2192 82.207 27.2192 80.9193 28.4068C79.6317 29.5944 79.6317 31.5227 80.9193 32.6975Z" fill="black"/>
<path d="M79.7003 102.204C79.7003 102.204 56.5782 104.298 47.4678 131.396" stroke="black" stroke-width="4" stroke-linecap="round" stroke-linejoin="round"/>
<path d="M92.6321 130.528C92.6321 130.528 74.882 144.358 47.4678 131.473" stroke="black" stroke-width="4" stroke-linecap="round" stroke-linejoin="round"/>
<path d="M77.6788 107.465C77.6788 107.465 60.621 109.01 53.8921 129.008" stroke="black" stroke-width="2" stroke-linecap="round" stroke-linejoin="round"/>
<path d="M87.2184 128.357C87.2184 128.357 74.1205 138.56 53.8921 129.059" stroke="black" stroke-width="2" stroke-linecap="round" stroke-linejoin="round"/>
<path d="M67.2679 126.735C69.0817 126.735 70.5631 125.382 70.5631 123.696C70.5631 122.01 69.0955 120.657 67.2679 120.657C65.4403 120.657 63.9727 122.01 63.9727 123.696C63.9727 125.382 65.4403 126.735 67.2679 126.735Z" fill="black"/>
<path d="M83.661 126.748C85.4748 126.748 86.9562 125.394 86.9562 123.709C86.9562 122.023 85.4886 120.669 83.661 120.669C81.8334 120.669 80.3657 122.023 80.3657 123.709C80.3657 125.394 81.8334 126.748 83.661 126.748Z" fill="black"/>
<path d="M79.8118 117.145C81.6256 117.145 83.1071 115.791 83.1071 114.106C83.1071 112.42 81.6395 111.066 79.8118 111.066C77.9842 111.066 76.5166 112.42 76.5166 114.106C76.5166 115.791 77.9842 117.145 79.8118 117.145Z" fill="black"/>
<path d="M193.705 -31.0496C193.705 -31.0496 204.643 -31.2156 212.051 -21.9192C219.334 -12.7887 202.76 -17.4625 208.285 0.108837" stroke="black" stroke-width="2" stroke-linecap="round" stroke-linejoin="round"/>
<path d="M110.702 -1.49997C110.702 -1.49997 118.303 -8.75326 130.681 -7.01656C142.837 -5.30539 127.524 2.19051 144.9 11.0145" stroke="black" stroke-width="2" stroke-linecap="round" stroke-linejoin="round"/>
<path d="M74.6604 73.5483C74.6604 73.5483 74.4804 63.4601 84.56 56.6154C94.4596 49.8857 89.3921 65.184 108.444 60.0889" stroke="black" stroke-width="2" stroke-linecap="round" stroke-linejoin="round"/>
<path d="M106.7 150.116C106.7 150.116 98.8355 143.106 100.718 131.689C102.574 120.477 110.701 134.601 120.268 118.575" stroke="black" stroke-width="2" stroke-linecap="round" stroke-linejoin="round"/>
<path d="M188.057 183.356C188.057 183.356 177.119 183.522 169.711 174.226C162.428 165.095 179.002 169.769 173.477 152.198" stroke="black" stroke-width="2" stroke-linecap="round" stroke-linejoin="round"/>
<path d="M271.061 153.794C271.061 153.794 263.46 161.048 251.082 159.311C238.925 157.6 254.239 150.104 236.862 141.28" stroke="black" stroke-width="2" stroke-linecap="round" stroke-linejoin="round"/>
<path d="M307.101 78.7583C307.101 78.7583 307.281 88.8465 297.201 95.6784C287.301 102.408 292.369 87.1098 273.317 92.205" stroke="black" stroke-width="2" stroke-linecap="round" stroke-linejoin="round"/>
<path d="M275.062 2.19043C275.062 2.19043 282.926 9.20107 281.043 20.6173C279.202 31.8293 271.06 17.7058 261.493 33.732" stroke="black" stroke-width="2" stroke-linecap="round" stroke-linejoin="round"/>
<path d="M188.056 -31.0496C188.056 -31.0496 177.118 -31.2156 169.711 -21.9192C162.428 -12.7887 179.001 -17.4625 173.477 0.108837" stroke="black" stroke-width="2" stroke-linecap="round" stroke-linejoin="round"/>
<path d="M271.061 -1.49997C271.061 -1.49997 263.46 -8.75326 251.082 -7.01656C238.925 -5.30539 254.239 2.19051 236.862 11.0145" stroke="black" stroke-width="2" stroke-linecap="round" stroke-linejoin="round"/>
<path d="M307.101 73.5483C307.101 73.5483 307.281 63.4601 297.201 56.6154C287.301 49.8857 292.369 65.184 273.317 60.0889" stroke="black" stroke-width="2" stroke-linecap="round" stroke-linejoin="round"/>
<path d="M275.062 150.116C275.062 150.116 282.926 143.106 281.043 131.689C279.202 120.477 271.06 134.601 261.493 118.575" stroke="black" stroke-width="2" stroke-linecap="round" stroke-linejoin="round"/>
<path d="M193.706 183.356C193.706 183.356 204.644 183.522 212.051 174.226C219.334 165.095 202.761 169.769 208.285 152.198" stroke="black" stroke-width="2" stroke-linecap="round" stroke-linejoin="round"/>
<path d="M110.702 153.794C110.702 153.794 118.303 161.048 130.681 159.311C142.837 157.6 127.524 150.104 144.9 141.28" stroke="black" stroke-width="2" stroke-linecap="round" stroke-linejoin="round"/>
<path d="M74.6604 78.7583C74.6604 78.7583 74.4804 88.8465 84.56 95.6784C94.4596 102.408 89.3921 87.1098 108.444 92.205" stroke="black" stroke-width="2" stroke-linecap="round" stroke-linejoin="round"/>
<path d="M106.7 2.19043C106.7 2.19043 98.8355 9.20107 100.718 20.6173C102.574 31.8293 110.701 17.7058 120.268 33.732" stroke="black" stroke-width="2" stroke-linecap="round" stroke-linejoin="round"/>
</g>
</g>
</g>
</g>
</g>
</svg>
