<svg width="893" height="154" viewBox="0 0 893 154" fill="none" xmlns="http://www.w3.org/2000/svg">
<path d="M530 57L887 57" stroke="#87804D"/>
<circle cx="887.5" cy="57" r="5" transform="rotate(90 887.5 57)" fill="#87804D"/>
<path d="M361 57L5.5 57" stroke="#87804D"/>
<circle cx="5" cy="5" r="5" transform="matrix(4.37114e-08 1 1 -4.37114e-08 0 52)" fill="#87804D"/>
<path d="M519.775 94.1865H374.176V18.093H519.775V94.1865ZM368.133 14.8955V97.2899H525.278V14.8955H368.133Z" fill="#004854"/>
<path d="M522.396 95.5203H371V17H522.396V95.5203Z" fill="#FCECC2"/>
<path d="M430.53 61.398L430.026 59.958C430.314 59.85 430.476 59.67 430.476 59.436V49.824H432.15V59.364C432.906 59.13 433.644 58.878 434.382 58.59V48.33H436.056V63.216C437.838 62.352 439.278 61.218 440.358 59.85C439.476 58.572 438.738 57.204 438.144 55.764C437.838 56.232 437.514 56.646 437.19 57.042L436.146 55.746C437.568 53.874 438.54 51.354 439.044 48.186L440.754 48.474C440.61 49.302 440.43 50.094 440.25 50.832H445.938V52.506H444.516C444.372 55.314 443.67 57.744 442.446 59.796C443.562 61.2 444.894 62.46 446.406 63.576L445.236 64.962C443.76 63.846 442.482 62.604 441.402 61.254C440.232 62.658 438.756 63.846 436.956 64.818L436.056 63.36V64.728H434.382V60.228C433.158 60.66 431.862 61.056 430.53 61.398ZM439.728 52.506C439.548 53.01 439.35 53.478 439.134 53.946C439.71 55.53 440.466 56.988 441.366 58.32C442.266 56.664 442.77 54.72 442.896 52.506H439.728ZM463.992 58.032C463.848 59.508 463.65 60.462 463.362 60.912C463.092 61.344 462.498 61.578 461.598 61.578H458.376C457.296 61.578 456.774 61.038 456.774 59.976V53.91H461.526V50.886H456.54V49.284H463.2V55.53H458.466V59.31C458.466 59.706 458.682 59.904 459.114 59.922H461.31C461.742 59.922 462.012 59.742 462.138 59.382C462.246 59.058 462.318 58.428 462.372 57.492L463.992 58.032ZM448.98 56.862L450.51 57.042C450.474 58.104 450.366 59.13 450.222 60.102C450.69 60.858 451.194 61.434 451.77 61.866V55.908H448.206V54.324H451.356V52.056H448.53V50.508H451.356V48.168H453.048V50.508H455.712V52.056H453.048V54.324H455.946V55.908H453.426V58.068H455.82V59.616H453.426V62.622C454.578 62.856 456.612 62.982 459.564 62.982C461.688 62.982 463.29 62.946 464.334 62.874L464.046 64.512H459.942C455.712 64.512 453.066 64.26 452.004 63.792C451.194 63.414 450.474 62.802 449.862 61.938C449.61 62.982 449.286 63.954 448.908 64.872L447.594 63.72C448.422 61.668 448.872 59.382 448.98 56.862Z" fill="#004854"/>
<path d="M370.889 106.446H355V102.337H370.889V106.446Z" fill="#125762"/>
<path d="M368.571 111.631H357.318V107.522H368.571V111.631Z" fill="#125762"/>
<path d="M355 4.97656H370.889V9.0857H355V4.97656Z" fill="#125762"/>
<path d="M357.318 0H368.571V4.10914H357.318V0Z" fill="#125762"/>
<path d="M367.351 140.753H363.233V139.139C363.808 138.875 364.21 138.292 364.21 137.616C364.21 136.939 363.808 136.357 363.233 136.093V134.267C364.215 133.969 364.932 133.063 364.932 131.976C364.932 130.889 364.215 129.983 363.233 129.685V108.862H361.863V129.685C360.882 129.983 360.164 130.889 360.164 131.976C360.164 133.063 360.884 133.969 361.863 134.267V136.093C361.288 136.357 360.887 136.937 360.887 137.616C360.887 138.295 361.288 138.875 361.863 139.139V140.753H357.611V141.239H357.587V153.898H358.673V142.049H359.605V153.898H360.69V142.049H361.863V154H363.233V142.049H364.243V153.898H365.329V142.049H366.261V153.898H367.346V142.049V140.751L367.351 140.753Z" fill="#E5B567"/>
<path d="M369.493 101.367H356.398V9.39893H369.493V101.367Z" fill="#125762"/>
<path d="M538 106.446H522.108V102.337H538V106.446Z" fill="#125762"/>
<path d="M535.679 111.631H524.429V107.522H535.679V111.631Z" fill="#125762"/>
<path d="M522.108 4.97656H538V9.0857H522.108V4.97656Z" fill="#125762"/>
<path d="M524.429 0H535.679V4.10914H524.429V0Z" fill="#125762"/>
<path d="M534.462 140.753H530.344V139.139C530.919 138.875 531.323 138.292 531.323 137.616C531.323 136.939 530.922 136.357 530.344 136.093V134.267C531.326 133.969 532.043 133.063 532.043 131.976C532.043 130.889 531.323 129.983 530.344 129.685V108.862H528.974V129.685C527.995 129.983 527.275 130.889 527.275 131.976C527.275 133.063 527.995 133.969 528.974 134.267V136.093C528.399 136.357 527.998 136.937 527.998 137.616C527.998 138.295 528.399 138.875 528.974 139.139V140.753H524.719V141.239H524.696V153.898H525.781V142.049H526.713V153.898H527.798V142.049H528.969V154H530.339V142.049H531.349V153.898H532.434V142.049H533.369V153.898H534.455V142.049V140.751L534.462 140.753Z" fill="#E5B567"/>
<path d="M536.601 101.367H523.507V9.39893H536.601V101.367Z" fill="#125762"/>
</svg>
