<svg width="893" height="154" viewBox="0 0 893 154" fill="none" xmlns="http://www.w3.org/2000/svg">
<path d="M530 57L887 57" stroke="#87804D"/>
<circle cx="887.5" cy="57" r="5" transform="rotate(90 887.5 57)" fill="#87804D"/>
<path d="M361 57L5.5 57" stroke="#87804D"/>
<circle cx="5" cy="5" r="5" transform="matrix(4.37114e-08 1 1 -4.37114e-08 0 52)" fill="#87804D"/>
<path d="M519.774 94.1865H374.175V18.093H519.774V94.1865ZM368.133 14.8955V97.2899H525.278V14.8955H368.133Z" fill="#004854"/>
<path d="M522.396 95.5203H371V17H522.396V95.5203Z" fill="#FCECC2"/>
<path d="M435.84 57.744V64.926H434.184V64.08H426.786V64.926H425.112V57.744H435.84ZM426.786 62.478H434.184V59.364H426.786V62.478ZM434.364 51.66H424.302V54.054H434.364V51.66ZM424.302 55.62V56.394C424.284 59.688 423.492 62.532 421.926 64.908L420.576 63.72C421.908 61.812 422.592 59.382 422.61 56.394V50.058H428.514C428.298 49.428 428.046 48.852 427.758 48.33L429.54 48.042C429.792 48.654 430.026 49.32 430.26 50.058H436.056V55.62H424.302ZM446.01 64.638H443.688L443.328 62.982C444.048 63.036 444.75 63.072 445.416 63.072C445.92 63.072 446.172 62.838 446.172 62.37V55.314H439.278V53.622H454.722V55.314H447.918V62.802C447.918 64.026 447.27 64.638 446.01 64.638ZM441.87 57.06L443.562 57.438C442.824 59.922 441.78 62.064 440.448 63.864L438.954 62.946C440.322 61.11 441.294 59.148 441.87 57.06ZM451.824 56.844C453.048 58.788 454.092 60.84 454.974 63.018L453.408 63.72C452.454 61.326 451.41 59.202 450.276 57.366L451.824 56.844ZM440.934 49.086H453.12V50.742H440.934V49.086ZM459.042 48.816H469.68V54.63H472.776V56.196H465.738V58.032C466.116 58.446 466.512 58.842 466.944 59.22C468.15 58.536 469.194 57.564 470.058 56.286L471.372 57.384C470.418 58.572 469.338 59.508 468.114 60.174C469.482 61.182 471.048 62.064 472.848 62.838L471.984 64.35C469.392 63.126 467.322 61.65 465.738 59.922V63.036C465.738 64.26 465.198 64.872 464.154 64.872H462.066L461.688 63.252C462.354 63.324 462.984 63.378 463.578 63.378C463.884 63.378 464.046 63.126 464.046 62.64V60.012C462.246 61.596 460.122 63.018 457.674 64.296L456.99 62.712C459.708 61.47 462.066 59.976 464.046 58.23V56.196H457.242V54.63H467.934V53.244H459.654V51.768H467.934V50.346H459.042V48.816ZM459.402 56.574C460.464 57.312 461.364 58.05 462.084 58.77L460.968 59.886C460.32 59.202 459.42 58.464 458.268 57.672L459.402 56.574Z" fill="#004854"/>
<path d="M370.889 106.446H355V102.337H370.889V106.446Z" fill="#125762"/>
<path d="M368.571 111.631H357.318V107.522H368.571V111.631Z" fill="#125762"/>
<path d="M355 4.97656H370.889V9.0857H355V4.97656Z" fill="#125762"/>
<path d="M357.318 0H368.571V4.10914H357.318V0Z" fill="#125762"/>
<path d="M367.352 140.753H363.234V139.139C363.809 138.875 364.21 138.292 364.21 137.616C364.21 136.939 363.809 136.357 363.234 136.093V134.267C364.215 133.969 364.933 133.063 364.933 131.976C364.933 130.889 364.215 129.983 363.234 129.685V108.862H361.864V129.685C360.882 129.983 360.165 130.889 360.165 131.976C360.165 133.063 360.885 133.969 361.864 134.267V136.093C361.289 136.357 360.887 136.937 360.887 137.616C360.887 138.295 361.289 138.875 361.864 139.139V140.753H357.611V141.239H357.588V153.898H358.673V142.049H359.605V153.898H360.691V142.049H361.864V154H363.234V142.049H364.244V153.898H365.329V142.049H366.261V153.898H367.347V142.049V140.751L367.352 140.753Z" fill="#E5B567"/>
<path d="M369.493 101.367H356.398V9.39893H369.493V101.367Z" fill="#125762"/>
<path d="M538 106.446H522.108V102.337H538V106.446Z" fill="#125762"/>
<path d="M535.679 111.631H524.429V107.522H535.679V111.631Z" fill="#125762"/>
<path d="M522.108 4.97656H538V9.0857H522.108V4.97656Z" fill="#125762"/>
<path d="M524.429 0H535.679V4.10914H524.429V0Z" fill="#125762"/>
<path d="M534.462 140.753H530.344V139.139C530.919 138.875 531.323 138.292 531.323 137.616C531.323 136.939 530.921 136.357 530.344 136.093V134.267C531.325 133.969 532.043 133.063 532.043 131.976C532.043 130.889 531.323 129.983 530.344 129.685V108.862H528.974V129.685C527.995 129.983 527.275 130.889 527.275 131.976C527.275 133.063 527.995 133.969 528.974 134.267V136.093C528.399 136.357 527.997 136.937 527.997 137.616C527.997 138.295 528.399 138.875 528.974 139.139V140.753H524.719V141.239H524.695V153.898H525.78V142.049H526.713V153.898H527.798V142.049H528.969V154H530.339V142.049H531.349V153.898H532.434V142.049H533.369V153.898H534.454V142.049V140.751L534.462 140.753Z" fill="#E5B567"/>
<path d="M536.601 101.367H523.507V9.39893H536.601V101.367Z" fill="#125762"/>
</svg>
