<svg width="32" height="32" viewBox="0 0 32 32" fill="none" xmlns="http://www.w3.org/2000/svg">
<path d="M22.2993 5.94557H24.504C26.4166 5.94557 27.9653 7.49555 27.9653 9.41099V24.5145C27.9653 26.4286 26.416 27.9802 24.504 27.9802H7.50332C5.59071 27.9802 4.04199 26.4302 4.04199 24.5148V9.4113C4.04199 7.49712 5.59134 5.94557 7.50332 5.94557H9.70804V5.00123C9.70804 4.75077 9.80753 4.51057 9.98463 4.33348C10.1617 4.15638 10.4019 4.05688 10.6524 4.05688C10.9028 4.05688 11.143 4.15638 11.3201 4.33348C11.4972 4.51057 11.5967 4.75077 11.5967 5.00123V5.94557H20.4106V5.00123C20.4106 4.75077 20.5101 4.51057 20.6872 4.33348C20.8643 4.15638 21.1045 4.05688 21.3549 4.05688C21.6054 4.05688 21.8456 4.15638 22.0227 4.33348C22.1998 4.51057 22.2993 4.75077 22.2993 5.00123V5.94557ZM22.2993 7.83425V8.77859C22.2993 9.02905 22.1998 9.26924 22.0227 9.44634C21.8456 9.62344 21.6054 9.72293 21.3549 9.72293C21.1045 9.72293 20.8643 9.62344 20.6872 9.44634C20.5101 9.26924 20.4106 9.02905 20.4106 8.77859V7.83425H11.5967V8.77859C11.5967 9.02905 11.4972 9.26924 11.3201 9.44634C11.143 9.62344 10.9028 9.72293 10.6524 9.72293C10.4019 9.72293 10.1617 9.62344 9.98463 9.44634C9.80753 9.26924 9.70804 9.02905 9.70804 8.77859V7.83425H7.50332C7.29652 7.8345 7.0918 7.87548 6.90084 7.95486C6.70988 8.03423 6.53643 8.15045 6.3904 8.29687C6.24436 8.44328 6.1286 8.61704 6.04972 8.8082C5.97084 8.99936 5.93039 9.20419 5.93068 9.41099V24.5145C5.93014 24.7213 5.97041 24.9263 6.0492 25.1176C6.12799 25.3089 6.24374 25.4828 6.38982 25.6292C6.53591 25.7757 6.70945 25.892 6.90052 25.9713C7.09159 26.0506 7.29644 26.0915 7.50332 26.0915H24.504C24.7108 26.0913 24.9155 26.0503 25.1065 25.9709C25.2974 25.8915 25.4709 25.7753 25.6169 25.6289C25.7629 25.4825 25.8787 25.3087 25.9576 25.1176C26.0365 24.9264 26.0769 24.7216 26.0766 24.5148V9.4113C26.0772 9.20442 26.0369 8.99946 25.9581 8.80817C25.8793 8.61688 25.7636 8.44301 25.6175 8.29652C25.4714 8.15002 25.2978 8.03379 25.1068 7.95447C24.9157 7.87514 24.7109 7.83429 24.504 7.83425H22.2993ZM21.9845 14.4446C22.2349 14.4446 22.4751 14.5441 22.6522 14.7212C22.8293 14.8983 22.9288 15.1385 22.9288 15.389C22.9288 15.6394 22.8293 15.8796 22.6522 16.0567C22.4751 16.2338 22.2349 16.3333 21.9845 16.3333H10.0228C9.77237 16.3333 9.53217 16.2338 9.35507 16.0567C9.17797 15.8796 9.07848 15.6394 9.07848 15.389C9.07848 15.1385 9.17797 14.8983 9.35507 14.7212C9.53217 14.5441 9.77237 14.4446 10.0228 14.4446H21.9845ZM18.2071 19.1663C18.4576 19.1663 18.6978 19.2658 18.8749 19.4429C19.052 19.62 19.1515 19.8602 19.1515 20.1107C19.1515 20.3611 19.052 20.6013 18.8749 20.7784C18.6978 20.9555 18.4576 21.055 18.2071 21.055H10.0228C9.77237 21.055 9.53217 20.9555 9.35507 20.7784C9.17797 20.6013 9.07848 20.3611 9.07848 20.1107C9.07848 19.8602 9.17797 19.62 9.35507 19.4429C9.53217 19.2658 9.77237 19.1663 10.0228 19.1663H18.2071Z" fill="black"/>
</svg>
